G04 Layer_Color=8388736*
%FSLAX24Y24*%
%MOIN*%
G70*
G01*
G75*
%ADD49R,0.0671X0.0631*%
%ADD50R,0.0434X0.0316*%
%ADD51R,0.0867X0.0592*%
%ADD52O,0.0867X0.0592*%
%ADD53R,0.0474X0.0474*%
%ADD54R,0.0198X0.0867*%
%ADD55R,0.0867X0.0198*%
%ADD56O,0.0198X0.0867*%
%ADD57R,0.0474X0.0356*%
%ADD58O,0.0474X0.0356*%
%ADD59R,0.0434X0.0474*%
%ADD60R,0.0474X0.0434*%
%ADD61R,0.0690X0.0316*%
%ADD62O,0.0690X0.0316*%
%ADD63O,0.0356X0.1064*%
%ADD64R,0.0474X0.0474*%
%ADD65O,0.0710X0.0316*%
%ADD66R,0.0710X0.0316*%
%ADD67R,0.0513X0.0680*%
%ADD68R,0.0592X0.0671*%
%ADD69R,0.0789X0.0592*%
%ADD70R,0.0671X0.0592*%
%ADD71C,0.0552*%
%ADD72C,0.1458*%
%ADD73C,0.0280*%
D49*
X40039Y32195D02*
D03*
Y33002D02*
D03*
D50*
X45638Y42400D02*
D03*
X46662D02*
D03*
D51*
X34200Y32722D02*
D03*
D52*
Y30950D02*
D03*
X37507Y32722D02*
D03*
Y30950D02*
D03*
D53*
X32913Y32756D02*
D03*
Y33386D02*
D03*
X34200Y41185D02*
D03*
Y41815D02*
D03*
X33100Y39435D02*
D03*
Y40065D02*
D03*
X45945Y38268D02*
D03*
Y37638D02*
D03*
X32700Y36315D02*
D03*
Y35685D02*
D03*
X38350Y38635D02*
D03*
Y39265D02*
D03*
X46496Y34803D02*
D03*
Y35433D02*
D03*
X41750Y32765D02*
D03*
Y32135D02*
D03*
X39650Y42185D02*
D03*
Y42815D02*
D03*
D54*
X34467Y39270D02*
D03*
X34664D02*
D03*
X34861D02*
D03*
X35058D02*
D03*
X35255D02*
D03*
X35452D02*
D03*
X35648D02*
D03*
X35845D02*
D03*
X36042D02*
D03*
X36239D02*
D03*
X36436D02*
D03*
X36633D02*
D03*
Y35530D02*
D03*
X36436D02*
D03*
X36239D02*
D03*
X36042D02*
D03*
X35845D02*
D03*
X35648D02*
D03*
X35452D02*
D03*
X35255D02*
D03*
X35058D02*
D03*
X34861D02*
D03*
X34664D02*
D03*
D55*
X37420Y38483D02*
D03*
Y38286D02*
D03*
Y38089D02*
D03*
Y37892D02*
D03*
Y37695D02*
D03*
Y37498D02*
D03*
Y37302D02*
D03*
Y37105D02*
D03*
Y36908D02*
D03*
Y36711D02*
D03*
Y36514D02*
D03*
Y36317D02*
D03*
X33680D02*
D03*
Y36514D02*
D03*
Y36711D02*
D03*
Y36908D02*
D03*
Y37105D02*
D03*
Y37302D02*
D03*
Y37498D02*
D03*
Y37695D02*
D03*
Y37892D02*
D03*
Y38089D02*
D03*
Y38286D02*
D03*
Y38483D02*
D03*
D56*
X34467Y35530D02*
D03*
D57*
X40916Y40326D02*
D03*
X41614Y30453D02*
D03*
D58*
X40916Y41074D02*
D03*
X40050Y40700D02*
D03*
X41614Y31201D02*
D03*
X40748Y30827D02*
D03*
D59*
X43235Y39550D02*
D03*
X42565D02*
D03*
X40915Y39450D02*
D03*
X41585D02*
D03*
X39035Y30827D02*
D03*
X39705D02*
D03*
X30531Y32126D02*
D03*
X31201D02*
D03*
X43602Y31181D02*
D03*
X42933D02*
D03*
X45665Y43250D02*
D03*
X46335D02*
D03*
X46335Y41615D02*
D03*
X45665D02*
D03*
X43248Y45197D02*
D03*
X43917D02*
D03*
X37894Y33819D02*
D03*
X37224D02*
D03*
D60*
X39500Y37765D02*
D03*
Y38435D02*
D03*
X40800Y42835D02*
D03*
Y42165D02*
D03*
X40950Y34165D02*
D03*
Y34835D02*
D03*
X41750Y34535D02*
D03*
Y33865D02*
D03*
X45200Y30665D02*
D03*
Y31335D02*
D03*
X44450Y31335D02*
D03*
Y30665D02*
D03*
X40039Y34665D02*
D03*
Y33996D02*
D03*
X46496Y33012D02*
D03*
Y33681D02*
D03*
D61*
X42800Y38650D02*
D03*
D62*
Y38150D02*
D03*
Y37650D02*
D03*
Y37150D02*
D03*
X44926Y38650D02*
D03*
Y38150D02*
D03*
Y37650D02*
D03*
Y37150D02*
D03*
D63*
X36341Y42815D02*
D03*
X35841D02*
D03*
X35341D02*
D03*
X34841D02*
D03*
X36341Y40886D02*
D03*
X35841D02*
D03*
X35341D02*
D03*
X34841D02*
D03*
D64*
X37435Y40050D02*
D03*
X38065D02*
D03*
X33615Y34650D02*
D03*
X32985D02*
D03*
X43268Y44291D02*
D03*
X43898D02*
D03*
X37913Y34961D02*
D03*
X38543D02*
D03*
D65*
X42953Y35231D02*
D03*
Y34716D02*
D03*
Y34200D02*
D03*
Y33684D02*
D03*
Y33168D02*
D03*
Y32653D02*
D03*
Y32137D02*
D03*
X45000Y35231D02*
D03*
Y34716D02*
D03*
Y34200D02*
D03*
Y33684D02*
D03*
Y33168D02*
D03*
Y32653D02*
D03*
X42153Y43363D02*
D03*
Y42847D02*
D03*
Y42332D02*
D03*
Y41816D02*
D03*
Y41300D02*
D03*
Y40784D02*
D03*
Y40269D02*
D03*
X44200Y43363D02*
D03*
Y42847D02*
D03*
Y42332D02*
D03*
Y41816D02*
D03*
Y41300D02*
D03*
Y40784D02*
D03*
D66*
X45000Y32137D02*
D03*
X44200Y40269D02*
D03*
D67*
X31650Y33050D02*
D03*
Y33837D02*
D03*
D68*
X44915Y39450D02*
D03*
X45585D02*
D03*
D69*
X41700Y37079D02*
D03*
Y38221D02*
D03*
D70*
X46575Y39154D02*
D03*
Y39823D02*
D03*
D71*
X47900Y39500D02*
D03*
Y38500D02*
D03*
Y36500D02*
D03*
Y37500D02*
D03*
X47913Y34717D02*
D03*
Y33717D02*
D03*
Y31717D02*
D03*
Y32717D02*
D03*
X32945Y44882D02*
D03*
X33945D02*
D03*
X35945D02*
D03*
X34945D02*
D03*
X36945D02*
D03*
X37945D02*
D03*
X30512Y36685D02*
D03*
Y37685D02*
D03*
Y39685D02*
D03*
Y38685D02*
D03*
Y40685D02*
D03*
Y41685D02*
D03*
X30551Y33740D02*
D03*
Y34740D02*
D03*
X46079Y44449D02*
D03*
X45079D02*
D03*
X47850Y44300D02*
D03*
Y43300D02*
D03*
Y41300D02*
D03*
Y42300D02*
D03*
D72*
X49450Y30750D02*
D03*
X29750D02*
D03*
Y45200D02*
D03*
X49500Y45250D02*
D03*
D73*
X35150Y37402D02*
D03*
X35400Y37874D02*
D03*
X35236Y41890D02*
D03*
X46063Y40984D02*
D03*
X46929Y32441D02*
D03*
X31575Y34724D02*
D03*
X42283Y35591D02*
D03*
X45666Y34716D02*
D03*
X43500Y34200D02*
D03*
X43450Y42550D02*
D03*
X45631Y33168D02*
D03*
X43700Y33700D02*
D03*
X44200D02*
D03*
Y38650D02*
D03*
X36900Y40850D02*
D03*
X39400Y40650D02*
D03*
X36250Y40100D02*
D03*
X39100Y39050D02*
D03*
X35350Y34500D02*
D03*
X34700Y34450D02*
D03*
X32450Y38950D02*
D03*
X32850Y38100D02*
D03*
X34861Y38489D02*
D03*
X35850Y38450D02*
D03*
X38200Y36900D02*
D03*
X34750Y37100D02*
D03*
X36500Y37200D02*
D03*
X43100Y40750D02*
D03*
X32485Y39435D02*
D03*
X45827Y35315D02*
D03*
X48150Y35866D02*
D03*
X44882Y42323D02*
D03*
X45748Y35906D02*
D03*
X45236Y40709D02*
D03*
X43701Y38716D02*
D03*
X39291Y31929D02*
D03*
X36417Y36339D02*
D03*
M02*
