M48
;Layer_Color=9474304
;FILE_FORMAT=2:4
INCH
;TYPE=PLATED
T1F00S00C0.0150
T2F00S00C0.0354
T3F00S00C0.1181
%
T01
X031575Y034724
X034700Y034450
X035350Y034500
X036417Y036339
X036500Y037200
X035150Y037402
X034750Y037100
X035400Y037874
X035850Y038450
X034861Y038489
X032850Y038100
X032450Y038950
X032485Y039435
X036250Y040100
X036900Y040850
X039400Y040650
X039100Y039050
X038200Y036900
X042283Y035591
X043500Y034200
X043700Y033700
X044200
X045631Y033168
X045666Y034716
X045827Y035315
X045748Y035906
X044200Y038650
X043701Y038716
X043100Y040750
X043450Y042550
X044882Y042323
X045236Y040709
X046063Y040984
X035236Y041890
X039291Y031929
X046929Y032441
X048150Y035866
T02
X030551Y033740
Y034740
X030512Y036685
Y037685
Y038685
Y039685
Y040685
Y041685
X032945Y044882
X033945
X034945
X035945
X036945
X037945
X045079Y044449
X046079
X047850Y044300
Y043300
Y042300
Y041300
X047900Y039500
Y038500
Y037500
Y036500
X047913Y034717
Y033717
Y032717
Y031717
T03
X049450Y030750
X029750
Y045200
X049500Y045250
M30
