G04 Layer_Color=32896*
%FSLAX24Y24*%
%MOIN*%
G70*
G01*
G75*
%ADD44C,0.0039*%
%ADD45C,0.0079*%
%ADD47C,0.0059*%
D44*
X39463Y40287D02*
G03*
X39650Y40287I93J0D01*
G01*
X46300Y32897D02*
X46497Y32700D01*
X46300Y32503D02*
Y32700D01*
X46103Y32897D02*
X46497D01*
X46103Y32700D02*
X46497D01*
X46103D02*
X46300Y32897D01*
Y31873D02*
X46654D01*
Y33487D01*
X45946D02*
X46654D01*
X45946Y31873D02*
Y33487D01*
Y31873D02*
X46300D01*
X45546Y37073D02*
X45900D01*
X45546D02*
Y38687D01*
X46254D01*
Y37073D02*
Y38687D01*
X45900Y37073D02*
X46254D01*
X45703Y37900D02*
X45900Y38097D01*
X45703Y37900D02*
X46097D01*
X45703Y38097D02*
X46097D01*
X45900Y37703D02*
Y37900D01*
Y38097D02*
X46097Y37900D01*
X39438Y40287D02*
X39650D01*
X39463D02*
X39674D01*
Y39165D02*
Y40287D01*
X39438Y39165D02*
X39674D01*
X39438D02*
Y40287D01*
X38341Y31435D02*
Y32420D01*
X32218Y31416D02*
X38331D01*
X32179Y31908D02*
Y32892D01*
Y31416D02*
Y31908D01*
Y32892D02*
Y33384D01*
X38341Y32420D02*
Y33355D01*
X38311Y33384D02*
X38341Y33355D01*
X32179Y33384D02*
X38311D01*
D45*
X43645Y40521D02*
G03*
X43903Y40521I129J0D01*
G01*
X35342Y40700D02*
G03*
X35092Y40700I-125J0D01*
G01*
X45591Y41654D02*
Y41811D01*
X45276Y41654D02*
Y41811D01*
X46850Y39961D02*
Y40118D01*
X46535Y39961D02*
Y40118D01*
X39493Y37520D02*
X39807D01*
X40657Y38071D02*
Y38229D01*
X40343Y38071D02*
Y38229D01*
X32943Y40521D02*
Y40679D01*
X33257Y40521D02*
Y40679D01*
X31575Y36614D02*
Y36772D01*
X31260Y36614D02*
Y36772D01*
X31535Y38346D02*
Y38504D01*
X31220Y38346D02*
Y38504D01*
X31260Y39724D02*
Y39882D01*
X31575Y39724D02*
Y39882D01*
X37520Y43110D02*
Y43583D01*
X38343Y41320D02*
X38657D01*
X37343D02*
X37657D01*
X32371Y42293D02*
X32529D01*
X32371Y42607D02*
X32529D01*
X31943Y41021D02*
Y41179D01*
X32257Y41021D02*
Y41179D01*
X44528Y34803D02*
Y35118D01*
X43370Y32893D02*
Y33207D01*
X46330Y36393D02*
Y36707D01*
X46293Y42930D02*
X46607D01*
X44154Y36911D02*
Y40521D01*
X43394Y36911D02*
X44154D01*
X43394D02*
Y40521D01*
X43645D01*
X43903D02*
X44154D01*
X46024Y39724D02*
Y39882D01*
X45709Y39724D02*
Y39882D01*
X36170Y30593D02*
Y30907D01*
X34330Y30593D02*
Y30907D01*
X33504Y43110D02*
Y43583D01*
X34759Y40700D02*
Y42700D01*
X35676D01*
Y40700D02*
Y42700D01*
X35342Y40700D02*
X35676D01*
X34759D02*
X35092D01*
X42143Y41320D02*
X42457D01*
X43993Y42780D02*
X44307D01*
X46907Y37971D02*
Y38129D01*
X46593Y37971D02*
Y38129D01*
X41393Y37671D02*
Y37829D01*
X41707Y37671D02*
Y37829D01*
X41071Y39593D02*
X41229D01*
X41071Y39907D02*
X41229D01*
X37220Y40693D02*
Y41007D01*
X44130Y36293D02*
Y36607D01*
X48071Y30433D02*
Y30827D01*
X47940Y30695D01*
X47808Y30827D01*
Y30433D01*
X47612D02*
X47481D01*
X47415Y30499D01*
Y30630D01*
X47481Y30695D01*
X47612D01*
X47677Y30630D01*
Y30499D01*
X47612Y30433D01*
X47218Y30761D02*
Y30695D01*
X47284D01*
X47153D01*
X47218D01*
Y30499D01*
X47153Y30433D01*
X46890D02*
X46759D01*
X46693Y30499D01*
Y30630D01*
X46759Y30695D01*
X46890D01*
X46956Y30630D01*
Y30499D01*
X46890Y30433D01*
X46562Y30695D02*
Y30433D01*
Y30564D01*
X46497Y30630D01*
X46431Y30695D01*
X46365D01*
X45513Y30761D02*
X45578Y30827D01*
X45709D01*
X45775Y30761D01*
Y30499D01*
X45709Y30433D01*
X45578D01*
X45513Y30499D01*
X45316Y30433D02*
X45185D01*
X45119Y30499D01*
Y30630D01*
X45185Y30695D01*
X45316D01*
X45381Y30630D01*
Y30499D01*
X45316Y30433D01*
X44988D02*
Y30695D01*
X44791D01*
X44725Y30630D01*
Y30433D01*
X44529Y30761D02*
Y30695D01*
X44594D01*
X44463D01*
X44529D01*
Y30499D01*
X44463Y30433D01*
X44266Y30695D02*
Y30433D01*
Y30564D01*
X44201Y30630D01*
X44135Y30695D01*
X44070D01*
X43807Y30433D02*
X43676D01*
X43610Y30499D01*
Y30630D01*
X43676Y30695D01*
X43807D01*
X43873Y30630D01*
Y30499D01*
X43807Y30433D01*
X43479D02*
X43348D01*
X43414D01*
Y30827D01*
X43479D01*
X43151Y30433D02*
X43020D01*
X43086D01*
Y30827D01*
X43151D01*
X42626Y30433D02*
X42758D01*
X42823Y30499D01*
Y30630D01*
X42758Y30695D01*
X42626D01*
X42561Y30630D01*
Y30564D01*
X42823D01*
X42430Y30695D02*
Y30433D01*
Y30564D01*
X42364Y30630D01*
X42298Y30695D01*
X42233D01*
X41642Y30433D02*
X41511D01*
X41577D01*
Y30827D01*
X41642Y30761D01*
X41315Y30433D02*
Y30499D01*
X41249D01*
Y30433D01*
X41315D01*
X40987D02*
X40855D01*
X40921D01*
Y30827D01*
X40987Y30761D01*
X40265Y30433D02*
Y30827D01*
X40068D01*
X40003Y30761D01*
Y30630D01*
X40068Y30564D01*
X40265D01*
X40134D02*
X40003Y30433D01*
X39675D02*
X39806D01*
X39871Y30499D01*
Y30630D01*
X39806Y30695D01*
X39675D01*
X39609Y30630D01*
Y30564D01*
X39871D01*
X39478Y30695D02*
X39347Y30433D01*
X39215Y30695D01*
X38691Y30827D02*
Y30433D01*
X38494D01*
X38428Y30499D01*
Y30564D01*
X38494Y30630D01*
X38691D01*
X38494D01*
X38428Y30695D01*
Y30761D01*
X38494Y30827D01*
X38691D01*
D47*
X45433Y44449D02*
G03*
X45433Y44449I-354J0D01*
G01*
X46950Y40930D02*
Y41229D01*
X46800D01*
X46751Y41179D01*
Y41080D01*
X46800Y41030D01*
X46950D01*
X46850D02*
X46751Y40930D01*
X46651Y41179D02*
X46601Y41229D01*
X46501D01*
X46451Y41179D01*
Y41129D01*
X46501Y41080D01*
X46451Y41030D01*
Y40980D01*
X46501Y40930D01*
X46601D01*
X46651Y40980D01*
Y41030D01*
X46601Y41080D01*
X46651Y41129D01*
Y41179D01*
X46601Y41080D02*
X46501D01*
X45690Y42620D02*
Y42919D01*
X45540D01*
X45491Y42869D01*
Y42770D01*
X45540Y42720D01*
X45690D01*
X45590D02*
X45491Y42620D01*
X45191D02*
X45391D01*
X45191Y42819D01*
Y42869D01*
X45241Y42919D01*
X45341D01*
X45391Y42869D01*
X47139Y42247D02*
X47189Y42197D01*
Y42097D01*
X47139Y42047D01*
X46940D01*
X46890Y42097D01*
Y42197D01*
X46940Y42247D01*
X46890Y42546D02*
Y42346D01*
X47089Y42546D01*
X47139D01*
X47189Y42496D01*
Y42396D01*
X47139Y42346D01*
X43034Y35814D02*
X42984Y35764D01*
X42884D01*
X42835Y35814D01*
Y36013D01*
X42884Y36063D01*
X42984D01*
X43034Y36013D01*
X43283Y36063D02*
Y35764D01*
X43134Y35913D01*
X43333D01*
X46483Y36612D02*
X46433Y36661D01*
Y36761D01*
X46483Y36811D01*
X46682D01*
X46732Y36761D01*
Y36661D01*
X46682Y36612D01*
X46433Y36312D02*
Y36512D01*
X46583D01*
X46533Y36412D01*
Y36362D01*
X46583Y36312D01*
X46682D01*
X46732Y36362D01*
Y36462D01*
X46682Y36512D01*
X38806Y38226D02*
X38756Y38276D01*
Y38375D01*
X38806Y38425D01*
X39005D01*
X39055Y38375D01*
Y38276D01*
X39005Y38226D01*
X38756Y37927D02*
X38806Y38026D01*
X38906Y38126D01*
X39005D01*
X39055Y38076D01*
Y37977D01*
X39005Y37927D01*
X38955D01*
X38906Y37977D01*
Y38126D01*
X43858Y35467D02*
X43809Y35417D01*
X43709D01*
X43659Y35467D01*
Y35666D01*
X43709Y35716D01*
X43809D01*
X43858Y35666D01*
X43958Y35417D02*
X44158D01*
Y35467D01*
X43958Y35666D01*
Y35716D01*
X42361Y43089D02*
X42410Y43139D01*
X42510D01*
X42560Y43089D01*
Y42890D01*
X42510Y42840D01*
X42410D01*
X42361Y42890D01*
X42261Y42840D02*
X42161D01*
X42211D01*
Y43139D01*
X42261Y43089D01*
X41812Y42840D02*
X42012D01*
X41812Y43039D01*
Y43089D01*
X41862Y43139D01*
X41962D01*
X42012Y43089D01*
X38698Y42926D02*
X38748Y42976D01*
X38848D01*
X38898Y42926D01*
Y42727D01*
X38848Y42677D01*
X38748D01*
X38698Y42727D01*
X38599Y42677D02*
X38499D01*
X38549D01*
Y42976D01*
X38599Y42926D01*
X38349D02*
X38299Y42976D01*
X38200D01*
X38150Y42926D01*
Y42877D01*
X38200Y42827D01*
X38250D01*
X38200D01*
X38150Y42777D01*
Y42727D01*
X38200Y42677D01*
X38299D01*
X38349Y42727D01*
X36837Y42163D02*
X36788Y42213D01*
Y42312D01*
X36837Y42362D01*
X37037D01*
X37087Y42312D01*
Y42213D01*
X37037Y42163D01*
X37087Y42063D02*
Y41963D01*
Y42013D01*
X36788D01*
X36837Y42063D01*
X37087Y41664D02*
X36788D01*
X36937Y41814D01*
Y41614D01*
X37649Y40201D02*
X37600Y40151D01*
X37500D01*
X37450Y40201D01*
Y40400D01*
X37500Y40450D01*
X37600D01*
X37649Y40400D01*
X37749Y40450D02*
X37849D01*
X37799D01*
Y40151D01*
X37749Y40201D01*
X38198Y40151D02*
X37998D01*
Y40300D01*
X38098Y40251D01*
X38148D01*
X38198Y40300D01*
Y40400D01*
X38148Y40450D01*
X38048D01*
X37998Y40400D01*
X37084Y31430D02*
X37134Y31480D01*
X37234D01*
X37283Y31430D01*
Y31231D01*
X37234Y31181D01*
X37134D01*
X37084Y31231D01*
X36785Y31181D02*
X36984D01*
X36785Y31381D01*
Y31430D01*
X36835Y31480D01*
X36934D01*
X36984Y31430D01*
X36536Y31181D02*
Y31480D01*
X36685Y31331D01*
X36486D01*
X33934Y31430D02*
X33984Y31480D01*
X34084D01*
X34134Y31430D01*
Y31231D01*
X34084Y31181D01*
X33984D01*
X33934Y31231D01*
X33635Y31181D02*
X33835D01*
X33635Y31381D01*
Y31430D01*
X33685Y31480D01*
X33785D01*
X33835Y31430D01*
X33336Y31480D02*
X33536D01*
Y31331D01*
X33436Y31381D01*
X33386D01*
X33336Y31331D01*
Y31231D01*
X33386Y31181D01*
X33486D01*
X33536Y31231D01*
X43861Y32389D02*
X43811Y32339D01*
X43711D01*
X43661Y32389D01*
Y32588D01*
X43711Y32638D01*
X43811D01*
X43861Y32588D01*
X44160Y32638D02*
X43961D01*
X44160Y32438D01*
Y32389D01*
X44110Y32339D01*
X44010D01*
X43961Y32389D01*
X44260Y32339D02*
X44459D01*
Y32389D01*
X44260Y32588D01*
Y32638D01*
X44211Y43329D02*
X44260Y43379D01*
X44360D01*
X44410Y43329D01*
Y43130D01*
X44360Y43080D01*
X44260D01*
X44211Y43130D01*
X43911Y43080D02*
X44111D01*
X43911Y43279D01*
Y43329D01*
X43961Y43379D01*
X44061D01*
X44111Y43329D01*
X43812D02*
X43762Y43379D01*
X43662D01*
X43612Y43329D01*
Y43279D01*
X43662Y43230D01*
X43612Y43180D01*
Y43130D01*
X43662Y43080D01*
X43762D01*
X43812Y43130D01*
Y43180D01*
X43762Y43230D01*
X43812Y43279D01*
Y43329D01*
X43762Y43230D02*
X43662D01*
X46210Y39269D02*
Y38970D01*
X46060D01*
X46011Y39020D01*
Y39219D01*
X46060Y39269D01*
X46210D01*
X45911Y39219D02*
X45861Y39269D01*
X45761D01*
X45711Y39219D01*
Y39169D01*
X45761Y39120D01*
X45811D01*
X45761D01*
X45711Y39070D01*
Y39020D01*
X45761Y38970D01*
X45861D01*
X45911Y39020D01*
X46610Y34069D02*
Y33770D01*
X46460D01*
X46411Y33820D01*
Y34019D01*
X46460Y34069D01*
X46610D01*
X46111D02*
X46311D01*
Y33920D01*
X46211Y33969D01*
X46161D01*
X46111Y33920D01*
Y33820D01*
X46161Y33770D01*
X46261D01*
X46311Y33820D01*
X38808Y40431D02*
X38609D01*
X38559Y40480D01*
Y40580D01*
X38609Y40630D01*
X38808D01*
X38858Y40580D01*
Y40480D01*
X38759Y40530D02*
X38858Y40431D01*
Y40480D02*
X38808Y40431D01*
X38858Y40131D02*
Y40331D01*
X38659Y40131D01*
X38609D01*
X38559Y40181D01*
Y40281D01*
X38609Y40331D01*
X47010Y38940D02*
Y39239D01*
X46860D01*
X46811Y39189D01*
Y39090D01*
X46860Y39040D01*
X47010D01*
X46910D02*
X46811Y38940D01*
X46711Y39239D02*
X46511D01*
Y39189D01*
X46711Y38990D01*
Y38940D01*
X46142Y40551D02*
Y40850D01*
X45992D01*
X45942Y40800D01*
Y40701D01*
X45992Y40651D01*
X46142D01*
X46042D02*
X45942Y40551D01*
X45843Y40601D02*
X45793Y40551D01*
X45693D01*
X45643Y40601D01*
Y40800D01*
X45693Y40850D01*
X45793D01*
X45843Y40800D01*
Y40751D01*
X45793Y40701D01*
X45643D01*
X40157Y37402D02*
Y37102D01*
X40307D01*
X40357Y37152D01*
Y37252D01*
X40307Y37302D01*
X40157D01*
X40257D02*
X40357Y37402D01*
X40457D02*
X40556D01*
X40506D01*
Y37102D01*
X40457Y37152D01*
X40706D02*
X40756Y37102D01*
X40855D01*
X40905Y37152D01*
Y37352D01*
X40855Y37402D01*
X40756D01*
X40706Y37352D01*
Y37152D01*
X41810Y38640D02*
Y38939D01*
X41660D01*
X41611Y38889D01*
Y38790D01*
X41660Y38740D01*
X41810D01*
X41710D02*
X41611Y38640D01*
X41511D02*
X41411D01*
X41461D01*
Y38939D01*
X41511Y38889D01*
X41262Y38640D02*
X41162D01*
X41212D01*
Y38939D01*
X41262Y38889D01*
X31811Y39449D02*
X32110D01*
Y39598D01*
X32060Y39648D01*
X31961D01*
X31911Y39598D01*
Y39449D01*
Y39549D02*
X31811Y39648D01*
Y39748D02*
Y39848D01*
Y39798D01*
X32110D01*
X32060Y39748D01*
X31861Y39997D02*
X31811Y40047D01*
Y40147D01*
X31861Y40197D01*
X32060D01*
X32110Y40147D01*
Y40047D01*
X32060Y39997D01*
X32010D01*
X31961Y40047D01*
Y40197D01*
X31772Y38071D02*
X32071D01*
Y38220D01*
X32021Y38270D01*
X31921D01*
X31871Y38220D01*
Y38071D01*
Y38171D02*
X31772Y38270D01*
Y38569D02*
Y38370D01*
X31971Y38569D01*
X32021D01*
X32071Y38520D01*
Y38420D01*
X32021Y38370D01*
Y38669D02*
X32071Y38719D01*
Y38819D01*
X32021Y38869D01*
X31822D01*
X31772Y38819D01*
Y38719D01*
X31822Y38669D01*
X32021D01*
X32520Y42874D02*
Y43173D01*
X32370D01*
X32320Y43123D01*
Y43024D01*
X32370Y42974D01*
X32520D01*
X32420D02*
X32320Y42874D01*
X32021D02*
X32221D01*
X32021Y43073D01*
Y43123D01*
X32071Y43173D01*
X32171D01*
X32221Y43123D01*
X31921Y42874D02*
X31822D01*
X31872D01*
Y43173D01*
X31921Y43123D01*
X31811Y36339D02*
X32110D01*
Y36488D01*
X32060Y36538D01*
X31961D01*
X31911Y36488D01*
Y36339D01*
Y36438D02*
X31811Y36538D01*
Y36837D02*
Y36638D01*
X32010Y36837D01*
X32060D01*
X32110Y36787D01*
Y36688D01*
X32060Y36638D01*
X31811Y37136D02*
Y36937D01*
X32010Y37136D01*
X32060D01*
X32110Y37086D01*
Y36987D01*
X32060Y36937D01*
X33543Y41299D02*
Y41598D01*
X33394D01*
X33344Y41548D01*
Y41449D01*
X33394Y41399D01*
X33543D01*
X33444D02*
X33344Y41299D01*
X33045D02*
X33244D01*
X33045Y41499D01*
Y41548D01*
X33095Y41598D01*
X33194D01*
X33244Y41548D01*
X32945D02*
X32895Y41598D01*
X32796D01*
X32746Y41548D01*
Y41499D01*
X32796Y41449D01*
X32845D01*
X32796D01*
X32746Y41399D01*
Y41349D01*
X32796Y41299D01*
X32895D01*
X32945Y41349D01*
X31693Y41457D02*
X31394D01*
Y41307D01*
X31444Y41257D01*
X31543D01*
X31593Y41307D01*
Y41457D01*
Y41357D02*
X31693Y41257D01*
Y40958D02*
Y41158D01*
X31493Y40958D01*
X31444D01*
X31394Y41008D01*
Y41108D01*
X31444Y41158D01*
X31693Y40709D02*
X31394D01*
X31543Y40858D01*
Y40659D01*
X34154Y43996D02*
Y44296D01*
X34004D01*
X33955Y44246D01*
Y44146D01*
X34004Y44096D01*
X34154D01*
X34054D02*
X33955Y43996D01*
X33655D02*
X33855D01*
X33655Y44196D01*
Y44246D01*
X33705Y44296D01*
X33805D01*
X33855Y44246D01*
X33556D02*
X33506Y44296D01*
X33406D01*
X33356Y44246D01*
Y44196D01*
X33406Y44146D01*
X33356Y44096D01*
Y44046D01*
X33406Y43996D01*
X33506D01*
X33556Y44046D01*
Y44096D01*
X33506Y44146D01*
X33556Y44196D01*
Y44246D01*
X33506Y44146D02*
X33406D01*
X37945Y43819D02*
Y44118D01*
X37795D01*
X37745Y44068D01*
Y43968D01*
X37795Y43919D01*
X37945D01*
X37845D02*
X37745Y43819D01*
X37446D02*
X37646D01*
X37446Y44018D01*
Y44068D01*
X37496Y44118D01*
X37596D01*
X37646Y44068D01*
X37347Y43869D02*
X37297Y43819D01*
X37197D01*
X37147Y43869D01*
Y44068D01*
X37197Y44118D01*
X37297D01*
X37347Y44068D01*
Y44018D01*
X37297Y43968D01*
X37147D01*
X41720Y40320D02*
Y40619D01*
X41570D01*
X41521Y40569D01*
Y40470D01*
X41570Y40420D01*
X41720D01*
X41620D02*
X41521Y40320D01*
X41421Y40569D02*
X41371Y40619D01*
X41271D01*
X41221Y40569D01*
Y40519D01*
X41271Y40470D01*
X41321D01*
X41271D01*
X41221Y40420D01*
Y40370D01*
X41271Y40320D01*
X41371D01*
X41421Y40370D01*
X41122Y40569D02*
X41072Y40619D01*
X40972D01*
X40922Y40569D01*
Y40370D01*
X40972Y40320D01*
X41072D01*
X41122Y40370D01*
Y40569D01*
X44252Y41087D02*
Y40837D01*
X44202Y40787D01*
X44102D01*
X44053Y40837D01*
Y41087D01*
X43753Y40787D02*
X43953D01*
X43753Y40987D01*
Y41037D01*
X43803Y41087D01*
X43903D01*
X43953Y41037D01*
X42228Y44843D02*
X41979D01*
X41929Y44892D01*
Y44992D01*
X41979Y45042D01*
X42228D01*
Y45341D02*
Y45142D01*
X42079D01*
X42129Y45241D01*
Y45291D01*
X42079Y45341D01*
X41979D01*
X41929Y45291D01*
Y45191D01*
X41979Y45142D01*
X36580Y43299D02*
Y43050D01*
X36530Y43000D01*
X36430D01*
X36381Y43050D01*
Y43299D01*
X36081D02*
X36181Y43249D01*
X36281Y43150D01*
Y43050D01*
X36231Y43000D01*
X36131D01*
X36081Y43050D01*
Y43100D01*
X36131Y43150D01*
X36281D01*
X38300Y33959D02*
X38101Y33660D01*
Y33959D02*
X38300Y33660D01*
X38001D02*
X37901D01*
X37951D01*
Y33959D01*
X38001Y33909D01*
X44646Y43638D02*
Y43837D01*
X44745Y43937D01*
X44845Y43837D01*
Y43638D01*
X44945Y43937D02*
X45044D01*
X44995D01*
Y43738D01*
X44945D01*
X45194Y43937D02*
Y43738D01*
X45344D01*
X45393Y43787D01*
Y43937D01*
M02*
