G04 Layer_Physical_Order=1*
G04 Layer_Color=255*
%FSLAX24Y24*%
%MOIN*%
G70*
G01*
G75*
%ADD10R,0.0591X0.0551*%
%ADD11R,0.0354X0.0236*%
%ADD12R,0.0787X0.0512*%
%ADD13O,0.0787X0.0512*%
%ADD14R,0.0394X0.0394*%
%ADD15R,0.0118X0.0787*%
%ADD16R,0.0787X0.0118*%
%ADD17O,0.0118X0.0787*%
%ADD18R,0.0394X0.0276*%
%ADD19O,0.0394X0.0276*%
%ADD20R,0.0354X0.0394*%
%ADD21R,0.0394X0.0354*%
%ADD22R,0.0610X0.0236*%
%ADD23O,0.0610X0.0236*%
%ADD24O,0.0276X0.0984*%
%ADD25R,0.0394X0.0394*%
%ADD26O,0.0630X0.0236*%
%ADD27R,0.0630X0.0236*%
%ADD28R,0.0433X0.0600*%
%ADD29R,0.0512X0.0591*%
%ADD30R,0.0709X0.0512*%
%ADD31R,0.0591X0.0512*%
%ADD32C,0.0100*%
%ADD33C,0.0197*%
%ADD34C,0.0472*%
%ADD35C,0.1378*%
%ADD36C,0.0200*%
G36*
X50512Y29724D02*
X28740D01*
Y46260D01*
X50512D01*
Y29724D01*
D02*
G37*
%LPC*%
G36*
X47913Y34056D02*
X47826Y34044D01*
X47744Y34010D01*
X47674Y33956D01*
X47620Y33886D01*
X47586Y33804D01*
X47574Y33717D01*
X47586Y33629D01*
X47620Y33547D01*
X47674Y33477D01*
X47744Y33423D01*
X47826Y33389D01*
X47913Y33377D01*
X48001Y33389D01*
X48083Y33423D01*
X48153Y33477D01*
X48207Y33547D01*
X48241Y33629D01*
X48253Y33717D01*
X48241Y33804D01*
X48207Y33886D01*
X48153Y33956D01*
X48083Y34010D01*
X48001Y34044D01*
X47913Y34056D01*
D02*
G37*
G36*
X32863Y33685D02*
X32717D01*
X32678Y33677D01*
X32644Y33655D01*
X32622Y33622D01*
X32615Y33583D01*
Y33436D01*
X32863D01*
Y33685D01*
D02*
G37*
G36*
X46693Y33291D02*
X46299D01*
X46260Y33283D01*
X46227Y33261D01*
X46205Y33228D01*
X46197Y33189D01*
Y32988D01*
X46015Y32806D01*
X45357D01*
X45354Y32810D01*
X45282Y32858D01*
X45197Y32875D01*
X44803D01*
X44718Y32858D01*
X44646Y32810D01*
X44598Y32738D01*
X44581Y32653D01*
X44598Y32568D01*
X44646Y32496D01*
X44718Y32447D01*
X44803Y32430D01*
X44847D01*
Y32357D01*
X44685D01*
X44646Y32349D01*
X44613Y32327D01*
X44591Y32294D01*
X44583Y32255D01*
Y32019D01*
X44591Y31980D01*
X44613Y31947D01*
X44646Y31925D01*
X44685Y31917D01*
X45315D01*
X45354Y31925D01*
X45387Y31947D01*
X45409Y31980D01*
X45417Y32019D01*
Y32255D01*
X45409Y32294D01*
X45387Y32327D01*
X45354Y32349D01*
X45315Y32357D01*
X45153D01*
Y32430D01*
X45197D01*
X45282Y32447D01*
X45354Y32496D01*
X45357Y32500D01*
X46078D01*
X46136Y32511D01*
X46186Y32545D01*
X46374Y32733D01*
X46693D01*
X46732Y32740D01*
X46765Y32763D01*
X46787Y32796D01*
X46795Y32835D01*
Y33189D01*
X46787Y33228D01*
X46765Y33261D01*
X46732Y33283D01*
X46693Y33291D01*
D02*
G37*
G36*
X45197Y33391D02*
X44803D01*
X44718Y33374D01*
X44646Y33326D01*
X44598Y33254D01*
X44581Y33168D01*
X44598Y33083D01*
X44646Y33011D01*
X44718Y32963D01*
X44803Y32946D01*
X45197D01*
X45282Y32963D01*
X45354Y33011D01*
X45357Y33016D01*
X45500D01*
X45553Y32980D01*
X45631Y32965D01*
X45710Y32980D01*
X45776Y33024D01*
X45820Y33090D01*
X45835Y33168D01*
X45820Y33247D01*
X45776Y33313D01*
X45710Y33357D01*
X45631Y33372D01*
X45553Y33357D01*
X45500Y33321D01*
X45357D01*
X45354Y33326D01*
X45282Y33374D01*
X45197Y33391D01*
D02*
G37*
G36*
X33110Y33685D02*
X32963D01*
Y33436D01*
X33212D01*
Y33583D01*
X33204Y33622D01*
X33182Y33655D01*
X33149Y33677D01*
X33110Y33685D01*
D02*
G37*
G36*
X47863Y34667D02*
X47581D01*
X47586Y34629D01*
X47620Y34547D01*
X47674Y34477D01*
X47744Y34423D01*
X47826Y34389D01*
X47863Y34384D01*
Y34667D01*
D02*
G37*
G36*
X45197Y35454D02*
X44803D01*
X44718Y35437D01*
X44646Y35389D01*
X44598Y35317D01*
X44581Y35231D01*
X44598Y35146D01*
X44646Y35074D01*
X44718Y35026D01*
X44803Y35009D01*
X44847D01*
Y34938D01*
X44803D01*
X44718Y34921D01*
X44646Y34873D01*
X44598Y34801D01*
X44581Y34716D01*
X44598Y34631D01*
X44646Y34558D01*
X44718Y34510D01*
X44803Y34493D01*
X45197D01*
X45282Y34510D01*
X45354Y34558D01*
X45357Y34563D01*
X45535D01*
X45588Y34527D01*
X45666Y34512D01*
X45744Y34527D01*
X45810Y34572D01*
X45854Y34638D01*
X45870Y34716D01*
X45854Y34794D01*
X45810Y34860D01*
X45744Y34904D01*
X45666Y34920D01*
X45588Y34904D01*
X45535Y34869D01*
X45357D01*
X45354Y34873D01*
X45282Y34921D01*
X45197Y34938D01*
X45153D01*
Y35009D01*
X45197D01*
X45282Y35026D01*
X45354Y35074D01*
X45402Y35146D01*
X45419Y35231D01*
X45402Y35317D01*
X45354Y35389D01*
X45282Y35437D01*
X45197Y35454D01*
D02*
G37*
G36*
X46795Y35383D02*
X46197D01*
Y35236D01*
X46205Y35197D01*
X46227Y35164D01*
X46257Y35144D01*
X46259Y35118D01*
X46257Y35092D01*
X46227Y35072D01*
X46205Y35039D01*
X46197Y35000D01*
Y34606D01*
X46205Y34567D01*
X46227Y34534D01*
X46260Y34512D01*
X46299Y34504D01*
X46331D01*
Y34355D01*
X46329Y34353D01*
X45357D01*
X45354Y34357D01*
X45282Y34405D01*
X45197Y34422D01*
X44803D01*
X44718Y34405D01*
X44646Y34357D01*
X44598Y34285D01*
X44581Y34200D01*
X44598Y34115D01*
X44646Y34043D01*
X44718Y33995D01*
X44803Y33978D01*
X45197D01*
X45282Y33995D01*
X45354Y34043D01*
X45357Y34047D01*
X46329D01*
X46331Y34045D01*
Y33960D01*
X46299D01*
X46260Y33952D01*
X46227Y33930D01*
X46205Y33897D01*
X46197Y33858D01*
Y33504D01*
X46205Y33465D01*
X46227Y33432D01*
X46260Y33410D01*
X46299Y33402D01*
X46693D01*
X46732Y33410D01*
X46765Y33432D01*
X46787Y33465D01*
X46795Y33504D01*
Y33858D01*
X46787Y33897D01*
X46765Y33930D01*
X46732Y33952D01*
X46693Y33960D01*
X46636D01*
Y34504D01*
X46693D01*
X46732Y34512D01*
X46765Y34534D01*
X46787Y34567D01*
X46795Y34606D01*
Y35000D01*
X46787Y35039D01*
X46765Y35072D01*
X46736Y35092D01*
X46733Y35118D01*
X46736Y35144D01*
X46765Y35164D01*
X46787Y35197D01*
X46795Y35236D01*
Y35383D01*
D02*
G37*
G36*
X48246Y34667D02*
X47963D01*
Y34384D01*
X48001Y34389D01*
X48083Y34423D01*
X48153Y34477D01*
X48207Y34547D01*
X48241Y34629D01*
X48246Y34667D01*
D02*
G37*
G36*
X40335Y32572D02*
X40089D01*
Y32245D01*
X40437D01*
Y32470D01*
X40429Y32509D01*
X40407Y32543D01*
X40374Y32565D01*
X40335Y32572D01*
D02*
G37*
G36*
X47913Y33056D02*
X47826Y33044D01*
X47744Y33010D01*
X47674Y32956D01*
X47620Y32886D01*
X47586Y32804D01*
X47574Y32717D01*
X47586Y32629D01*
X47620Y32547D01*
X47674Y32477D01*
X47744Y32423D01*
X47826Y32389D01*
X47913Y32377D01*
X48001Y32389D01*
X48083Y32423D01*
X48153Y32477D01*
X48207Y32547D01*
X48241Y32629D01*
X48253Y32717D01*
X48241Y32804D01*
X48207Y32886D01*
X48153Y32956D01*
X48083Y33010D01*
X48001Y33044D01*
X47913Y33056D01*
D02*
G37*
G36*
X31378Y32425D02*
X31251D01*
Y32176D01*
X31480D01*
Y32323D01*
X31472Y32362D01*
X31450Y32395D01*
X31417Y32417D01*
X31378Y32425D01*
D02*
G37*
G36*
X39989Y32572D02*
X39744D01*
X39705Y32565D01*
X39672Y32543D01*
X39650Y32509D01*
X39642Y32470D01*
Y32245D01*
X39989D01*
Y32572D01*
D02*
G37*
G36*
X42903Y32603D02*
X42543D01*
X42550Y32568D01*
X42599Y32496D01*
X42671Y32447D01*
X42756Y32430D01*
X42903D01*
Y32603D01*
D02*
G37*
G36*
Y32875D02*
X42756D01*
X42671Y32858D01*
X42599Y32810D01*
X42550Y32738D01*
X42543Y32703D01*
X42903D01*
Y32875D01*
D02*
G37*
G36*
X43150D02*
X43003D01*
Y32703D01*
X43362D01*
X43355Y32738D01*
X43307Y32810D01*
X43235Y32858D01*
X43150Y32875D01*
D02*
G37*
G36*
X43362Y32603D02*
X43003D01*
Y32430D01*
X43150D01*
X43235Y32447D01*
X43307Y32496D01*
X43355Y32568D01*
X43362Y32603D01*
D02*
G37*
G36*
X40236Y34275D02*
X39843D01*
X39804Y34267D01*
X39770Y34245D01*
X39748Y34212D01*
X39741Y34173D01*
Y33819D01*
X39748Y33780D01*
X39770Y33747D01*
X39804Y33725D01*
X39843Y33717D01*
X39886D01*
Y33380D01*
X39744D01*
X39705Y33372D01*
X39672Y33350D01*
X39650Y33317D01*
X39642Y33278D01*
Y32726D01*
X39650Y32687D01*
X39672Y32654D01*
X39705Y32632D01*
X39744Y32624D01*
X40335D01*
X40374Y32632D01*
X40407Y32654D01*
X40429Y32687D01*
X40437Y32726D01*
Y33278D01*
X40429Y33317D01*
X40407Y33350D01*
X40374Y33372D01*
X40335Y33380D01*
X40192D01*
Y33717D01*
X40236D01*
X40275Y33725D01*
X40308Y33747D01*
X40330Y33780D01*
X40338Y33819D01*
Y34173D01*
X40330Y34212D01*
X40308Y34245D01*
X40275Y34267D01*
X40236Y34275D01*
D02*
G37*
G36*
X42750Y37600D02*
X42401D01*
X42408Y37565D01*
X42456Y37493D01*
X42528Y37445D01*
X42613Y37428D01*
X42750D01*
Y37600D01*
D02*
G37*
G36*
X43199D02*
X42850D01*
Y37428D01*
X42987D01*
X43072Y37445D01*
X43144Y37493D01*
X43192Y37565D01*
X43199Y37600D01*
D02*
G37*
G36*
X30512Y37024D02*
X30424Y37013D01*
X30342Y36979D01*
X30272Y36925D01*
X30218Y36855D01*
X30184Y36773D01*
X30173Y36685D01*
X30184Y36597D01*
X30218Y36515D01*
X30272Y36445D01*
X30342Y36391D01*
X30424Y36357D01*
X30512Y36346D01*
X30600Y36357D01*
X30681Y36391D01*
X30752Y36445D01*
X30805Y36515D01*
X30839Y36597D01*
X30851Y36685D01*
X30839Y36773D01*
X30805Y36855D01*
X30752Y36925D01*
X30681Y36979D01*
X30600Y37013D01*
X30512Y37024D01*
D02*
G37*
G36*
X42054Y37437D02*
X41346D01*
X41307Y37429D01*
X41274Y37407D01*
X41251Y37374D01*
X41244Y37335D01*
Y36823D01*
X41251Y36784D01*
X41274Y36751D01*
X41307Y36729D01*
X41346Y36721D01*
X42054D01*
X42093Y36729D01*
X42126Y36751D01*
X42149Y36784D01*
X42156Y36823D01*
Y36997D01*
X42453D01*
X42456Y36993D01*
X42528Y36945D01*
X42613Y36928D01*
X42987D01*
X43072Y36945D01*
X43144Y36993D01*
X43192Y37065D01*
X43209Y37150D01*
X43192Y37235D01*
X43144Y37307D01*
X43072Y37355D01*
X42987Y37372D01*
X42613D01*
X42528Y37355D01*
X42456Y37307D01*
X42453Y37303D01*
X42156D01*
Y37335D01*
X42149Y37374D01*
X42126Y37407D01*
X42093Y37429D01*
X42054Y37437D01*
D02*
G37*
G36*
X44876Y37600D02*
X44527D01*
X44534Y37565D01*
X44582Y37493D01*
X44654Y37445D01*
X44739Y37428D01*
X44876D01*
Y37600D01*
D02*
G37*
G36*
X42987Y37872D02*
X42850D01*
Y37700D01*
X43199D01*
X43192Y37735D01*
X43144Y37807D01*
X43072Y37855D01*
X42987Y37872D01*
D02*
G37*
G36*
X44876D02*
X44739D01*
X44654Y37855D01*
X44582Y37807D01*
X44534Y37735D01*
X44527Y37700D01*
X44876D01*
Y37872D01*
D02*
G37*
G36*
X45325Y37600D02*
X44976D01*
Y37428D01*
X45113D01*
X45198Y37445D01*
X45270Y37493D01*
X45318Y37565D01*
X45325Y37600D01*
D02*
G37*
G36*
X42750Y37872D02*
X42613D01*
X42528Y37855D01*
X42456Y37807D01*
X42408Y37735D01*
X42401Y37700D01*
X42750D01*
Y37872D01*
D02*
G37*
G36*
X38842Y34911D02*
X38593D01*
Y34662D01*
X38740D01*
X38779Y34670D01*
X38812Y34692D01*
X38834Y34725D01*
X38842Y34764D01*
Y34911D01*
D02*
G37*
G36*
X47863Y35049D02*
X47826Y35044D01*
X47744Y35010D01*
X47674Y34956D01*
X47620Y34886D01*
X47586Y34804D01*
X47581Y34767D01*
X47863D01*
Y35049D01*
D02*
G37*
G36*
X40900Y34785D02*
X40651D01*
Y34657D01*
X40659Y34618D01*
X40681Y34585D01*
X40714Y34563D01*
X40753Y34556D01*
X40900D01*
Y34785D01*
D02*
G37*
G36*
X41249D02*
X41000D01*
Y34556D01*
X41147D01*
X41186Y34563D01*
X41219Y34585D01*
X41241Y34618D01*
X41249Y34657D01*
Y34785D01*
D02*
G37*
G36*
X47963Y35049D02*
Y34767D01*
X48246D01*
X48241Y34804D01*
X48207Y34886D01*
X48153Y34956D01*
X48083Y35010D01*
X48001Y35044D01*
X47963Y35049D01*
D02*
G37*
G36*
X38740Y35259D02*
X38593D01*
Y35011D01*
X38842D01*
Y35157D01*
X38834Y35196D01*
X38812Y35230D01*
X38779Y35252D01*
X38740Y35259D01*
D02*
G37*
G36*
X46693Y35732D02*
X46546D01*
Y35483D01*
X46795D01*
Y35630D01*
X46787Y35669D01*
X46765Y35702D01*
X46732Y35724D01*
X46693Y35732D01*
D02*
G37*
G36*
X40900Y35114D02*
X40753D01*
X40714Y35106D01*
X40681Y35084D01*
X40659Y35051D01*
X40651Y35012D01*
Y34885D01*
X40900D01*
Y35114D01*
D02*
G37*
G36*
X41147D02*
X41000D01*
Y34885D01*
X41249D01*
Y35012D01*
X41241Y35051D01*
X41219Y35084D01*
X41186Y35106D01*
X41147Y35114D01*
D02*
G37*
G36*
X43780Y31480D02*
X43425D01*
X43386Y31472D01*
X43353Y31450D01*
X43331Y31417D01*
X43323Y31378D01*
Y30984D01*
X43331Y30945D01*
X43353Y30912D01*
X43386Y30890D01*
X43398Y30888D01*
X43413Y30834D01*
X43185Y30606D01*
X41910D01*
X41905Y30630D01*
X41883Y30663D01*
X41850Y30685D01*
X41811Y30693D01*
X41417D01*
X41378Y30685D01*
X41345Y30663D01*
X41323Y30630D01*
X41315Y30591D01*
Y30315D01*
X41323Y30276D01*
X41345Y30243D01*
X41378Y30221D01*
X41417Y30213D01*
X41811D01*
X41850Y30221D01*
X41883Y30243D01*
X41905Y30276D01*
X41910Y30300D01*
X43248D01*
X43307Y30311D01*
X43356Y30345D01*
X43691Y30679D01*
X43724Y30729D01*
X43736Y30787D01*
Y30882D01*
X43780D01*
X43819Y30890D01*
X43852Y30912D01*
X43874Y30945D01*
X43881Y30984D01*
Y31378D01*
X43874Y31417D01*
X43852Y31450D01*
X43819Y31472D01*
X43780Y31480D01*
D02*
G37*
G36*
X44400Y30944D02*
X44253D01*
X44214Y30937D01*
X44181Y30915D01*
X44159Y30882D01*
X44151Y30843D01*
Y30715D01*
X44400D01*
Y30944D01*
D02*
G37*
G36*
X37457Y30900D02*
X37017D01*
X37023Y30857D01*
X37058Y30771D01*
X37115Y30696D01*
X37190Y30639D01*
X37276Y30603D01*
X37369Y30591D01*
X37457D01*
Y30900D01*
D02*
G37*
G36*
X37997D02*
X37557D01*
Y30591D01*
X37645D01*
X37738Y30603D01*
X37824Y30639D01*
X37899Y30696D01*
X37956Y30771D01*
X37992Y30857D01*
X37997Y30900D01*
D02*
G37*
G36*
X44647Y30944D02*
X44500D01*
Y30715D01*
X44749D01*
Y30843D01*
X44741Y30882D01*
X44719Y30915D01*
X44686Y30937D01*
X44647Y30944D01*
D02*
G37*
G36*
X49400Y31538D02*
X49295Y31528D01*
X49147Y31482D01*
X49010Y31409D01*
X48889Y31311D01*
X48791Y31190D01*
X48718Y31053D01*
X48672Y30905D01*
X48662Y30800D01*
X49400D01*
Y31538D01*
D02*
G37*
G36*
X49500D02*
Y30800D01*
X50238D01*
X50228Y30905D01*
X50182Y31053D01*
X50109Y31190D01*
X50011Y31311D01*
X49890Y31409D01*
X49753Y31482D01*
X49605Y31528D01*
X49500Y31538D01*
D02*
G37*
G36*
X29700D02*
X29595Y31528D01*
X29447Y31482D01*
X29310Y31409D01*
X29189Y31311D01*
X29091Y31190D01*
X29018Y31053D01*
X28972Y30905D01*
X28962Y30800D01*
X29700D01*
Y31538D01*
D02*
G37*
G36*
X29800D02*
Y30800D01*
X30538D01*
X30528Y30905D01*
X30482Y31053D01*
X30409Y31190D01*
X30311Y31311D01*
X30190Y31409D01*
X30053Y31482D01*
X29905Y31528D01*
X29800Y31538D01*
D02*
G37*
G36*
X49400Y30700D02*
X48662D01*
X48672Y30595D01*
X48718Y30447D01*
X48791Y30310D01*
X48889Y30189D01*
X49010Y30091D01*
X49147Y30018D01*
X49295Y29972D01*
X49400Y29962D01*
Y30700D01*
D02*
G37*
G36*
X50238D02*
X49500D01*
Y29962D01*
X49605Y29972D01*
X49753Y30018D01*
X49890Y30091D01*
X50011Y30189D01*
X50109Y30310D01*
X50182Y30447D01*
X50228Y30595D01*
X50238Y30700D01*
D02*
G37*
G36*
X29700D02*
X28962D01*
X28972Y30595D01*
X29018Y30447D01*
X29091Y30310D01*
X29189Y30189D01*
X29310Y30091D01*
X29447Y30018D01*
X29595Y29972D01*
X29700Y29962D01*
Y30700D01*
D02*
G37*
G36*
X30538D02*
X29800D01*
Y29962D01*
X29905Y29972D01*
X30053Y30018D01*
X30190Y30091D01*
X30311Y30189D01*
X30409Y30310D01*
X30482Y30447D01*
X30528Y30595D01*
X30538Y30700D01*
D02*
G37*
G36*
X44400Y30615D02*
X44151D01*
Y30488D01*
X44159Y30449D01*
X44181Y30416D01*
X44214Y30394D01*
X44253Y30386D01*
X44400D01*
Y30615D01*
D02*
G37*
G36*
X34150Y30900D02*
X33710D01*
X33715Y30857D01*
X33751Y30771D01*
X33808Y30696D01*
X33883Y30639D01*
X33969Y30603D01*
X34062Y30591D01*
X34150D01*
Y30900D01*
D02*
G37*
G36*
X34690D02*
X34250D01*
Y30591D01*
X34338D01*
X34431Y30603D01*
X34517Y30639D01*
X34592Y30696D01*
X34649Y30771D01*
X34685Y30857D01*
X34690Y30900D01*
D02*
G37*
G36*
X44749Y30615D02*
X44500D01*
Y30386D01*
X44647D01*
X44686Y30394D01*
X44719Y30416D01*
X44741Y30449D01*
X44749Y30488D01*
Y30615D01*
D02*
G37*
G36*
X39291Y32133D02*
X39213Y32118D01*
X39147Y32073D01*
X39103Y32007D01*
X39087Y31929D01*
X39103Y31851D01*
X39147Y31785D01*
X39213Y31741D01*
X39276Y31728D01*
X39552Y31452D01*
Y31126D01*
X39528D01*
X39489Y31118D01*
X39455Y31096D01*
X39433Y31063D01*
X39426Y31024D01*
Y30630D01*
X39433Y30591D01*
X39455Y30558D01*
X39489Y30536D01*
X39528Y30528D01*
X39882D01*
X39921Y30536D01*
X39954Y30558D01*
X39976Y30591D01*
X39984Y30630D01*
Y30674D01*
X40505D01*
X40518Y30655D01*
X40596Y30603D01*
X40689Y30584D01*
X40807D01*
X40900Y30603D01*
X40979Y30655D01*
X41031Y30734D01*
X41050Y30827D01*
X41031Y30920D01*
X40979Y30998D01*
X40900Y31051D01*
X40807Y31069D01*
X40689D01*
X40596Y31051D01*
X40518Y30998D01*
X40505Y30980D01*
X39984D01*
Y31024D01*
X39976Y31063D01*
X39954Y31096D01*
X39921Y31118D01*
X39882Y31126D01*
X39858D01*
Y31516D01*
X39846Y31574D01*
X39813Y31624D01*
X39492Y31945D01*
X39480Y32007D01*
X39436Y32073D01*
X39369Y32118D01*
X39291Y32133D01*
D02*
G37*
G36*
X39989Y32145D02*
X39642D01*
Y31919D01*
X39650Y31880D01*
X39672Y31847D01*
X39705Y31825D01*
X39744Y31817D01*
X39989D01*
Y32145D01*
D02*
G37*
G36*
X40437D02*
X40089D01*
Y31817D01*
X40335D01*
X40374Y31825D01*
X40407Y31847D01*
X40429Y31880D01*
X40437Y31919D01*
Y32145D01*
D02*
G37*
G36*
X41673Y31443D02*
X41664D01*
Y31251D01*
X41906D01*
X41897Y31294D01*
X41845Y31372D01*
X41766Y31425D01*
X41673Y31443D01*
D02*
G37*
G36*
X46929Y32645D02*
X46851Y32629D01*
X46785Y32585D01*
X46741Y32519D01*
X46725Y32441D01*
X46741Y32363D01*
X46776Y32310D01*
Y32231D01*
X46023Y31478D01*
X45499D01*
Y31512D01*
X45491Y31551D01*
X45469Y31584D01*
X45436Y31606D01*
X45397Y31614D01*
X45003D01*
X44964Y31606D01*
X44931Y31584D01*
X44909Y31551D01*
X44901Y31512D01*
Y31488D01*
X44749D01*
Y31512D01*
X44741Y31551D01*
X44719Y31584D01*
X44686Y31606D01*
X44647Y31614D01*
X44253D01*
X44214Y31606D01*
X44181Y31584D01*
X44159Y31551D01*
X44151Y31512D01*
Y31157D01*
X44159Y31118D01*
X44181Y31085D01*
X44214Y31063D01*
X44253Y31056D01*
X44647D01*
X44686Y31063D01*
X44719Y31085D01*
X44741Y31118D01*
X44749Y31157D01*
Y31182D01*
X44901D01*
Y31157D01*
X44909Y31118D01*
X44931Y31085D01*
X44964Y31063D01*
X45003Y31056D01*
X45397D01*
X45436Y31063D01*
X45469Y31085D01*
X45491Y31118D01*
X45499Y31157D01*
Y31172D01*
X46086D01*
X46145Y31184D01*
X46195Y31217D01*
X47037Y32060D01*
X47070Y32109D01*
X47082Y32168D01*
Y32310D01*
X47118Y32363D01*
X47133Y32441D01*
X47118Y32519D01*
X47073Y32585D01*
X47007Y32629D01*
X46929Y32645D01*
D02*
G37*
G36*
X31151Y32076D02*
X30922D01*
Y31929D01*
X30929Y31890D01*
X30952Y31857D01*
X30985Y31835D01*
X31024Y31827D01*
X31151D01*
Y32076D01*
D02*
G37*
G36*
X42049Y32085D02*
X41800D01*
Y31836D01*
X41947D01*
X41986Y31844D01*
X42019Y31866D01*
X42041Y31899D01*
X42049Y31938D01*
Y32085D01*
D02*
G37*
G36*
X31151Y32425D02*
X31024D01*
X30985Y32417D01*
X30952Y32395D01*
X30929Y32362D01*
X30922Y32323D01*
Y32176D01*
X31151D01*
Y32425D01*
D02*
G37*
G36*
X31480Y32076D02*
X31251D01*
Y31827D01*
X31378D01*
X31417Y31835D01*
X31450Y31857D01*
X31472Y31890D01*
X31480Y31929D01*
Y32076D01*
D02*
G37*
G36*
X41700Y32085D02*
X41451D01*
Y31938D01*
X41459Y31899D01*
X41481Y31866D01*
X41514Y31844D01*
X41553Y31836D01*
X41700D01*
Y32085D01*
D02*
G37*
G36*
X41564Y31151D02*
X41323D01*
X41331Y31108D01*
X41384Y31029D01*
X41462Y30977D01*
X41555Y30958D01*
X41564D01*
Y31151D01*
D02*
G37*
G36*
X41906D02*
X41664D01*
Y30958D01*
X41673D01*
X41766Y30977D01*
X41845Y31029D01*
X41897Y31108D01*
X41906Y31151D01*
D02*
G37*
G36*
X47913Y32056D02*
X47826Y32044D01*
X47744Y32010D01*
X47674Y31956D01*
X47620Y31886D01*
X47586Y31804D01*
X47574Y31717D01*
X47586Y31629D01*
X47620Y31547D01*
X47674Y31477D01*
X47744Y31423D01*
X47760Y31416D01*
Y31244D01*
X47334Y30818D01*
X45499D01*
Y30843D01*
X45491Y30882D01*
X45469Y30915D01*
X45436Y30937D01*
X45397Y30944D01*
X45003D01*
X44964Y30937D01*
X44931Y30915D01*
X44909Y30882D01*
X44901Y30843D01*
Y30488D01*
X44909Y30449D01*
X44931Y30416D01*
X44964Y30394D01*
X45003Y30386D01*
X45397D01*
X45436Y30394D01*
X45469Y30416D01*
X45491Y30449D01*
X45499Y30488D01*
Y30512D01*
X47398D01*
X47456Y30524D01*
X47506Y30557D01*
X48022Y31073D01*
X48055Y31123D01*
X48066Y31181D01*
Y31416D01*
X48083Y31423D01*
X48153Y31477D01*
X48207Y31547D01*
X48241Y31629D01*
X48253Y31717D01*
X48241Y31804D01*
X48207Y31886D01*
X48153Y31956D01*
X48083Y32010D01*
X48001Y32044D01*
X47913Y32056D01*
D02*
G37*
G36*
X43150Y32359D02*
X42756D01*
X42671Y32342D01*
X42599Y32294D01*
X42550Y32222D01*
X42534Y32137D01*
X42550Y32052D01*
X42599Y31980D01*
X42671Y31932D01*
X42756Y31915D01*
X42800D01*
Y31480D01*
X42756D01*
X42717Y31472D01*
X42684Y31450D01*
X42662Y31417D01*
X42654Y31378D01*
Y30984D01*
X42662Y30945D01*
X42684Y30912D01*
X42717Y30890D01*
X42756Y30882D01*
X43110D01*
X43149Y30890D01*
X43182Y30912D01*
X43204Y30945D01*
X43212Y30984D01*
Y31378D01*
X43204Y31417D01*
X43182Y31450D01*
X43149Y31472D01*
X43110Y31480D01*
X43106D01*
Y31915D01*
X43150D01*
X43235Y31932D01*
X43307Y31980D01*
X43355Y32052D01*
X43372Y32137D01*
X43355Y32222D01*
X43307Y32294D01*
X43235Y32342D01*
X43150Y32359D01*
D02*
G37*
G36*
X34150Y31309D02*
X34062D01*
X33969Y31297D01*
X33883Y31261D01*
X33808Y31204D01*
X33751Y31129D01*
X33715Y31043D01*
X33710Y31000D01*
X34150D01*
Y31309D01*
D02*
G37*
G36*
X37645D02*
X37557D01*
Y31000D01*
X37997D01*
X37992Y31043D01*
X37956Y31129D01*
X37899Y31204D01*
X37824Y31261D01*
X37738Y31297D01*
X37645Y31309D01*
D02*
G37*
G36*
X41564Y31443D02*
X41555D01*
X41462Y31425D01*
X41384Y31372D01*
X41331Y31294D01*
X41323Y31251D01*
X41564D01*
Y31443D01*
D02*
G37*
G36*
X34338Y31309D02*
X34250D01*
Y31000D01*
X34690D01*
X34685Y31043D01*
X34649Y31129D01*
X34592Y31204D01*
X34517Y31261D01*
X34431Y31297D01*
X34338Y31309D01*
D02*
G37*
G36*
X37457D02*
X37369D01*
X37276Y31297D01*
X37190Y31261D01*
X37115Y31204D01*
X37058Y31129D01*
X37023Y31043D01*
X37017Y31000D01*
X37457D01*
Y31309D01*
D02*
G37*
G36*
X45113Y37872D02*
X44976D01*
Y37700D01*
X45325D01*
X45318Y37735D01*
X45270Y37807D01*
X45198Y37855D01*
X45113Y37872D01*
D02*
G37*
G36*
X46614Y43200D02*
X46385D01*
Y42951D01*
X46512D01*
X46551Y42959D01*
X46584Y42981D01*
X46606Y43014D01*
X46614Y43053D01*
Y43200D01*
D02*
G37*
G36*
X47850Y43639D02*
X47762Y43628D01*
X47680Y43594D01*
X47610Y43540D01*
X47556Y43470D01*
X47522Y43388D01*
X47511Y43300D01*
X47522Y43212D01*
X47556Y43130D01*
X47610Y43060D01*
X47680Y43006D01*
X47762Y42972D01*
X47850Y42961D01*
X47938Y42972D01*
X48020Y43006D01*
X48090Y43060D01*
X48144Y43130D01*
X48178Y43212D01*
X48189Y43300D01*
X48178Y43388D01*
X48144Y43470D01*
X48090Y43540D01*
X48020Y43594D01*
X47938Y43628D01*
X47850Y43639D01*
D02*
G37*
G36*
X46285Y43200D02*
X46056D01*
Y43053D01*
X46063Y43014D01*
X46085Y42981D01*
X46118Y42959D01*
X46157Y42951D01*
X46285D01*
Y43200D01*
D02*
G37*
G36*
X39600Y43114D02*
X39453D01*
X39414Y43106D01*
X39381Y43084D01*
X39359Y43051D01*
X39351Y43012D01*
Y42865D01*
X39600D01*
Y43114D01*
D02*
G37*
G36*
X39847D02*
X39700D01*
Y42865D01*
X39949D01*
Y43012D01*
X39941Y43051D01*
X39919Y43084D01*
X39886Y43106D01*
X39847Y43114D01*
D02*
G37*
G36*
X48183Y44250D02*
X47900D01*
Y43967D01*
X47938Y43972D01*
X48020Y44006D01*
X48090Y44060D01*
X48144Y44130D01*
X48178Y44212D01*
X48183Y44250D01*
D02*
G37*
G36*
X45079Y44788D02*
X44991Y44776D01*
X44909Y44743D01*
X44839Y44689D01*
X44785Y44618D01*
X44751Y44537D01*
X44740Y44449D01*
X44751Y44361D01*
X44785Y44279D01*
X44839Y44209D01*
X44909Y44155D01*
X44991Y44121D01*
X45079Y44110D01*
X45167Y44121D01*
X45248Y44155D01*
X45319Y44209D01*
X45372Y44279D01*
X45406Y44361D01*
X45418Y44449D01*
X45406Y44537D01*
X45372Y44618D01*
X45319Y44689D01*
X45248Y44743D01*
X45167Y44776D01*
X45079Y44788D01*
D02*
G37*
G36*
X47800Y44250D02*
X47517D01*
X47522Y44212D01*
X47556Y44130D01*
X47610Y44060D01*
X47680Y44006D01*
X47762Y43972D01*
X47800Y43967D01*
Y44250D01*
D02*
G37*
G36*
X46285Y43549D02*
X46157D01*
X46118Y43541D01*
X46085Y43519D01*
X46063Y43486D01*
X46056Y43447D01*
Y43300D01*
X46285D01*
Y43549D01*
D02*
G37*
G36*
X46512D02*
X46385D01*
Y43300D01*
X46614D01*
Y43447D01*
X46606Y43486D01*
X46584Y43519D01*
X46551Y43541D01*
X46512Y43549D01*
D02*
G37*
G36*
X34397Y42114D02*
X34250D01*
Y41865D01*
X34499D01*
Y42012D01*
X34491Y42051D01*
X34469Y42084D01*
X34436Y42106D01*
X34397Y42114D01*
D02*
G37*
G36*
X44397Y42554D02*
X44003D01*
X43918Y42537D01*
X43846Y42489D01*
X43798Y42417D01*
X43781Y42332D01*
X43798Y42246D01*
X43846Y42174D01*
X43918Y42126D01*
X44003Y42109D01*
X44397D01*
X44482Y42126D01*
X44548Y42170D01*
X44751D01*
X44804Y42134D01*
X44882Y42119D01*
X44960Y42134D01*
X45026Y42179D01*
X45070Y42245D01*
X45086Y42323D01*
X45070Y42401D01*
X45026Y42467D01*
X44960Y42511D01*
X44882Y42527D01*
X44804Y42511D01*
X44751Y42476D01*
X44563D01*
X44554Y42489D01*
X44482Y42537D01*
X44397Y42554D01*
D02*
G37*
G36*
X34150Y42114D02*
X34003D01*
X33964Y42106D01*
X33931Y42084D01*
X33909Y42051D01*
X33901Y42012D01*
Y41865D01*
X34150D01*
Y42114D01*
D02*
G37*
G36*
X30512Y42024D02*
X30424Y42013D01*
X30342Y41979D01*
X30272Y41925D01*
X30218Y41855D01*
X30184Y41773D01*
X30173Y41685D01*
X30184Y41597D01*
X30218Y41515D01*
X30272Y41445D01*
X30342Y41391D01*
X30424Y41357D01*
X30512Y41346D01*
X30600Y41357D01*
X30681Y41391D01*
X30752Y41445D01*
X30805Y41515D01*
X30839Y41597D01*
X30851Y41685D01*
X30839Y41773D01*
X30805Y41855D01*
X30752Y41925D01*
X30681Y41979D01*
X30600Y42013D01*
X30512Y42024D01*
D02*
G37*
G36*
X45843Y43549D02*
X45488D01*
X45449Y43541D01*
X45416Y43519D01*
X45394Y43486D01*
X45386Y43447D01*
Y43053D01*
X45394Y43014D01*
X45416Y42981D01*
X45449Y42959D01*
X45488Y42951D01*
X45512D01*
Y42620D01*
X45461D01*
X45422Y42612D01*
X45389Y42590D01*
X45367Y42557D01*
X45359Y42518D01*
Y42282D01*
X45367Y42243D01*
X45389Y42210D01*
X45422Y42188D01*
X45461Y42180D01*
X45512D01*
Y41914D01*
X45488D01*
X45449Y41906D01*
X45416Y41884D01*
X45394Y41851D01*
X45386Y41812D01*
Y41768D01*
X45015D01*
X44957Y41757D01*
X44907Y41723D01*
X44637Y41453D01*
X44557D01*
X44554Y41457D01*
X44482Y41505D01*
X44397Y41522D01*
X44003D01*
X43918Y41505D01*
X43846Y41457D01*
X43798Y41385D01*
X43781Y41300D01*
X43798Y41215D01*
X43846Y41143D01*
X43918Y41095D01*
X44003Y41078D01*
X44397D01*
X44482Y41095D01*
X44554Y41143D01*
X44557Y41147D01*
X44700D01*
X44713Y41150D01*
X44737Y41103D01*
X44599Y40965D01*
X44554Y40942D01*
X44482Y40990D01*
X44397Y41007D01*
X44003D01*
X43918Y40990D01*
X43846Y40942D01*
X43798Y40869D01*
X43781Y40784D01*
X43798Y40699D01*
X43846Y40627D01*
X43918Y40579D01*
X44003Y40562D01*
X44047D01*
Y40489D01*
X43885D01*
X43846Y40481D01*
X43813Y40459D01*
X43791Y40426D01*
X43783Y40387D01*
Y40150D01*
X43791Y40111D01*
X43813Y40078D01*
X43846Y40056D01*
X43885Y40048D01*
X44515D01*
X44554Y40056D01*
X44587Y40078D01*
X44609Y40111D01*
X44617Y40150D01*
Y40387D01*
X44609Y40426D01*
X44587Y40459D01*
X44554Y40481D01*
X44515Y40489D01*
X44353D01*
Y40562D01*
X44397D01*
X44482Y40579D01*
X44554Y40627D01*
X44557Y40631D01*
X44634D01*
X44693Y40643D01*
X44742Y40676D01*
X44963Y40897D01*
X45068D01*
X45082Y40872D01*
X45088Y40847D01*
X45048Y40787D01*
X45032Y40709D01*
X45048Y40631D01*
X45083Y40578D01*
Y40378D01*
X44892Y40187D01*
X44859Y40137D01*
X44847Y40079D01*
Y39847D01*
X44659D01*
X44620Y39839D01*
X44587Y39817D01*
X44565Y39784D01*
X44557Y39745D01*
Y39603D01*
X43514D01*
Y39747D01*
X43506Y39786D01*
X43484Y39819D01*
X43451Y39841D01*
X43412Y39849D01*
X43388D01*
Y40615D01*
X43376Y40674D01*
X43343Y40724D01*
X43301Y40765D01*
X43288Y40828D01*
X43253Y40881D01*
Y41237D01*
X43679Y41663D01*
X43843D01*
X43846Y41659D01*
X43918Y41610D01*
X44003Y41593D01*
X44397D01*
X44482Y41610D01*
X44554Y41659D01*
X44602Y41731D01*
X44619Y41816D01*
X44602Y41901D01*
X44554Y41973D01*
X44482Y42021D01*
X44397Y42038D01*
X44003D01*
X43918Y42021D01*
X43846Y41973D01*
X43843Y41969D01*
X43616D01*
X43557Y41957D01*
X43508Y41924D01*
X42992Y41408D01*
X42959Y41359D01*
X42947Y41300D01*
Y40881D01*
X42912Y40828D01*
X42896Y40750D01*
X42912Y40672D01*
X42956Y40606D01*
X43022Y40562D01*
X43082Y40550D01*
Y40146D01*
X43035Y40119D01*
X43032Y40119D01*
X43001Y40166D01*
X42790Y40377D01*
X42740Y40410D01*
X42681Y40421D01*
X42510D01*
X42507Y40426D01*
X42435Y40474D01*
X42350Y40491D01*
X41956D01*
X41871Y40474D01*
X41799Y40426D01*
X41753Y40357D01*
X41749Y40357D01*
X41703Y40388D01*
Y40450D01*
X41691Y40509D01*
X41658Y40558D01*
X41408Y40808D01*
X41359Y40841D01*
X41300Y40853D01*
X41158D01*
X41144Y40901D01*
X41147Y40903D01*
X41199Y40981D01*
X41208Y41024D01*
X40916D01*
X40625D01*
X40633Y40981D01*
X40686Y40903D01*
X40688Y40901D01*
X40674Y40853D01*
X40293D01*
X40280Y40871D01*
X40202Y40924D01*
X40109Y40942D01*
X39991D01*
X39898Y40924D01*
X39820Y40871D01*
X39807Y40853D01*
X39450D01*
X39427Y40848D01*
X39400Y40854D01*
X39322Y40838D01*
X39256Y40794D01*
X39212Y40728D01*
X39196Y40650D01*
X39212Y40572D01*
X39256Y40506D01*
X39322Y40462D01*
X39400Y40446D01*
X39478Y40462D01*
X39544Y40506D01*
X39572Y40547D01*
X39807D01*
X39820Y40529D01*
X39898Y40476D01*
X39991Y40458D01*
X40109D01*
X40202Y40476D01*
X40280Y40529D01*
X40293Y40547D01*
X40595D01*
X40621Y40509D01*
X40624Y40497D01*
X40617Y40464D01*
Y40188D01*
X40625Y40149D01*
X40647Y40116D01*
X40680Y40094D01*
X40719Y40086D01*
X40763D01*
Y39749D01*
X40738D01*
X40699Y39741D01*
X40666Y39719D01*
X40644Y39686D01*
X40636Y39647D01*
Y39253D01*
X40644Y39214D01*
X40666Y39181D01*
X40699Y39159D01*
X40738Y39151D01*
X41093D01*
X41132Y39159D01*
X41165Y39181D01*
X41187Y39214D01*
X41194Y39253D01*
Y39647D01*
X41187Y39686D01*
X41165Y39719D01*
X41132Y39741D01*
X41093Y39749D01*
X41069D01*
Y40086D01*
X41113D01*
X41152Y40094D01*
X41185Y40116D01*
X41207Y40149D01*
X41215Y40188D01*
Y40464D01*
X41213Y40474D01*
X41250Y40518D01*
X41265Y40519D01*
X41397Y40387D01*
Y40150D01*
X41409Y40091D01*
X41442Y40042D01*
X41685Y39799D01*
X41679Y39771D01*
X41666Y39749D01*
X41407D01*
X41368Y39741D01*
X41335Y39719D01*
X41313Y39686D01*
X41306Y39647D01*
Y39253D01*
X41313Y39214D01*
X41335Y39181D01*
X41368Y39159D01*
X41407Y39151D01*
X41683D01*
X41842Y38992D01*
X41891Y38959D01*
X41950Y38947D01*
X42800D01*
X42859Y38959D01*
X42908Y38992D01*
X43001Y39084D01*
X43034Y39134D01*
X43045Y39193D01*
Y39241D01*
X43057Y39251D01*
X43412D01*
X43451Y39259D01*
X43484Y39281D01*
X43495Y39297D01*
X44557D01*
Y39155D01*
X44565Y39116D01*
X44587Y39083D01*
X44620Y39061D01*
X44659Y39053D01*
X44762D01*
Y38872D01*
X44739D01*
X44654Y38855D01*
X44582Y38807D01*
X44579Y38803D01*
X44331D01*
X44278Y38838D01*
X44200Y38854D01*
X44122Y38838D01*
X44056Y38794D01*
X44012Y38728D01*
X44002Y38682D01*
X43986Y38673D01*
X43949Y38668D01*
X43904Y38712D01*
X43905Y38716D01*
X43889Y38794D01*
X43845Y38860D01*
X43779Y38904D01*
X43701Y38920D01*
X43623Y38904D01*
X43557Y38860D01*
X43512Y38794D01*
X43497Y38716D01*
X43512Y38638D01*
X43557Y38572D01*
X43623Y38527D01*
X43665Y38519D01*
X43697Y38487D01*
Y34355D01*
X43647Y34340D01*
X43644Y34344D01*
X43578Y34388D01*
X43500Y34404D01*
X43422Y34388D01*
X43369Y34353D01*
X43310D01*
X43307Y34357D01*
X43235Y34405D01*
X43150Y34422D01*
X42756D01*
X42671Y34405D01*
X42599Y34357D01*
X42591Y34345D01*
X42273D01*
X42246Y34392D01*
X42246Y34395D01*
X42293Y34427D01*
X42429Y34563D01*
X42596D01*
X42599Y34558D01*
X42671Y34510D01*
X42756Y34493D01*
X43150D01*
X43235Y34510D01*
X43307Y34558D01*
X43355Y34631D01*
X43372Y34716D01*
X43355Y34801D01*
X43307Y34873D01*
X43235Y34921D01*
X43150Y34938D01*
X43106D01*
Y35009D01*
X43150D01*
X43235Y35026D01*
X43307Y35074D01*
X43355Y35146D01*
X43372Y35231D01*
X43355Y35317D01*
X43307Y35389D01*
X43235Y35437D01*
X43150Y35454D01*
X42756D01*
X42671Y35437D01*
X42599Y35389D01*
X42550Y35317D01*
X42534Y35231D01*
X42550Y35146D01*
X42599Y35074D01*
X42671Y35026D01*
X42756Y35009D01*
X42800D01*
Y34938D01*
X42756D01*
X42671Y34921D01*
X42599Y34873D01*
X42596Y34869D01*
X42366D01*
X42307Y34857D01*
X42258Y34824D01*
X42121Y34688D01*
X42049D01*
Y34712D01*
X42041Y34751D01*
X42019Y34784D01*
X41986Y34806D01*
X41947Y34814D01*
X41553D01*
X41514Y34806D01*
X41481Y34784D01*
X41459Y34751D01*
X41451Y34712D01*
Y34357D01*
X41441Y34345D01*
X41248D01*
X41241Y34382D01*
X41219Y34415D01*
X41186Y34437D01*
X41147Y34444D01*
X40753D01*
X40714Y34437D01*
X40681Y34415D01*
X40659Y34382D01*
X40651Y34343D01*
Y33988D01*
X40659Y33949D01*
X40681Y33916D01*
X40714Y33894D01*
X40753Y33886D01*
X41147D01*
X41186Y33894D01*
X41219Y33916D01*
X41241Y33949D01*
X41249Y33988D01*
Y34040D01*
X41451D01*
Y33688D01*
X41459Y33649D01*
X41481Y33616D01*
X41514Y33594D01*
X41553Y33586D01*
X41597D01*
Y33268D01*
Y33064D01*
X41553D01*
X41514Y33056D01*
X41481Y33034D01*
X41459Y33001D01*
X41451Y32962D01*
Y32568D01*
X41459Y32529D01*
X41481Y32496D01*
X41510Y32476D01*
X41513Y32450D01*
X41510Y32424D01*
X41481Y32404D01*
X41459Y32371D01*
X41451Y32332D01*
Y32185D01*
X41750D01*
X42049D01*
Y32332D01*
X42041Y32371D01*
X42019Y32404D01*
X41990Y32424D01*
X41987Y32450D01*
X41990Y32476D01*
X42019Y32496D01*
X42041Y32529D01*
X42049Y32568D01*
Y32962D01*
X42048Y32966D01*
X42087Y33016D01*
X42596D01*
X42599Y33011D01*
X42671Y32963D01*
X42756Y32946D01*
X43150D01*
X43235Y32963D01*
X43307Y33011D01*
X43355Y33083D01*
X43372Y33168D01*
X43355Y33254D01*
X43307Y33326D01*
X43235Y33374D01*
X43150Y33391D01*
X42756D01*
X42671Y33374D01*
X42599Y33326D01*
X42596Y33321D01*
X41913D01*
X41903Y33332D01*
Y33586D01*
X41947D01*
X41986Y33594D01*
X42019Y33616D01*
X42041Y33649D01*
X42049Y33688D01*
Y34040D01*
X42603D01*
X42671Y33995D01*
X42756Y33978D01*
X43150D01*
X43235Y33995D01*
X43307Y34043D01*
X43310Y34047D01*
X43369D01*
X43422Y34012D01*
X43500Y33996D01*
X43578Y34012D01*
X43644Y34056D01*
X43647Y34060D01*
X43697Y34045D01*
Y33913D01*
X43685Y33901D01*
X43622Y33888D01*
X43556Y33844D01*
X43551Y33837D01*
X43310D01*
X43307Y33842D01*
X43235Y33890D01*
X43150Y33907D01*
X42756D01*
X42671Y33890D01*
X42599Y33842D01*
X42550Y33769D01*
X42534Y33684D01*
X42550Y33599D01*
X42599Y33527D01*
X42671Y33479D01*
X42756Y33462D01*
X43150D01*
X43235Y33479D01*
X43307Y33527D01*
X43310Y33531D01*
X43592D01*
X43622Y33512D01*
X43700Y33496D01*
X43778Y33512D01*
X43844Y33556D01*
X43888Y33622D01*
X43901Y33685D01*
X43952Y33736D01*
X43974Y33731D01*
X43999Y33713D01*
X43996Y33700D01*
X44012Y33622D01*
X44056Y33556D01*
X44122Y33512D01*
X44200Y33496D01*
X44278Y33512D01*
X44331Y33547D01*
X44633D01*
X44646Y33527D01*
X44718Y33479D01*
X44803Y33462D01*
X45197D01*
X45282Y33479D01*
X45354Y33527D01*
X45402Y33599D01*
X45419Y33684D01*
X45402Y33769D01*
X45354Y33842D01*
X45282Y33890D01*
X45197Y33907D01*
X44803D01*
X44718Y33890D01*
X44663Y33853D01*
X44353D01*
Y38497D01*
X44579D01*
X44582Y38493D01*
X44654Y38445D01*
X44739Y38428D01*
X45113D01*
X45198Y38445D01*
X45270Y38493D01*
X45273Y38497D01*
X45499D01*
X45646Y38350D01*
Y38071D01*
X45654Y38032D01*
X45676Y37999D01*
X45705Y37979D01*
X45708Y37953D01*
X45705Y37926D01*
X45676Y37907D01*
X45654Y37874D01*
X45646Y37835D01*
Y37625D01*
X45373Y37352D01*
X45203D01*
X45198Y37355D01*
X45113Y37372D01*
X44739D01*
X44654Y37355D01*
X44582Y37307D01*
X44534Y37235D01*
X44517Y37150D01*
X44534Y37065D01*
X44582Y36993D01*
X44654Y36945D01*
X44739Y36928D01*
X44773D01*
Y36216D01*
X44785Y36157D01*
X44818Y36108D01*
X45626Y35300D01*
X45638Y35237D01*
X45683Y35171D01*
X45749Y35127D01*
X45827Y35111D01*
X45905Y35127D01*
X45971Y35171D01*
X46015Y35237D01*
X46031Y35315D01*
X46015Y35393D01*
X45971Y35459D01*
X45905Y35503D01*
X45842Y35516D01*
X45697Y35661D01*
X45722Y35707D01*
X45748Y35702D01*
X45826Y35717D01*
X45879Y35753D01*
X46213D01*
X46228Y35703D01*
X46227Y35702D01*
X46205Y35669D01*
X46197Y35630D01*
Y35483D01*
X46446D01*
Y35732D01*
X46406D01*
X46390Y35782D01*
X46414Y35797D01*
X47796Y37179D01*
X47812Y37172D01*
X47900Y37161D01*
X47988Y37172D01*
X48070Y37206D01*
X48140Y37260D01*
X48194Y37330D01*
X48197Y37339D01*
X48247Y37329D01*
Y36671D01*
X48197Y36661D01*
X48194Y36670D01*
X48140Y36740D01*
X48070Y36794D01*
X47988Y36828D01*
X47900Y36839D01*
X47812Y36828D01*
X47730Y36794D01*
X47660Y36740D01*
X47606Y36670D01*
X47572Y36588D01*
X47561Y36500D01*
X47572Y36412D01*
X47606Y36330D01*
X47660Y36260D01*
X47730Y36206D01*
X47812Y36172D01*
X47900Y36161D01*
X47988Y36172D01*
X48070Y36206D01*
X48140Y36260D01*
X48194Y36330D01*
X48197Y36339D01*
X48247Y36329D01*
Y36180D01*
X48134Y36067D01*
X48072Y36055D01*
X48005Y36010D01*
X47961Y35944D01*
X47946Y35866D01*
X47961Y35788D01*
X48005Y35722D01*
X48072Y35678D01*
X48150Y35662D01*
X48228Y35678D01*
X48294Y35722D01*
X48338Y35788D01*
X48350Y35851D01*
X48508Y36008D01*
X48541Y36058D01*
X48553Y36117D01*
Y41750D01*
X48541Y41809D01*
X48508Y41858D01*
X48171Y42196D01*
X48178Y42212D01*
X48189Y42300D01*
X48178Y42388D01*
X48144Y42470D01*
X48090Y42540D01*
X48020Y42594D01*
X47938Y42628D01*
X47850Y42639D01*
X47762Y42628D01*
X47680Y42594D01*
X47610Y42540D01*
X47556Y42470D01*
X47522Y42388D01*
X47511Y42300D01*
X47522Y42212D01*
X47556Y42130D01*
X47610Y42060D01*
X47680Y42006D01*
X47762Y41972D01*
X47850Y41961D01*
X47938Y41972D01*
X47954Y41979D01*
X48247Y41687D01*
Y39671D01*
X48197Y39661D01*
X48194Y39670D01*
X48140Y39740D01*
X48070Y39794D01*
X47988Y39828D01*
X47950Y39833D01*
Y39500D01*
Y39167D01*
X47988Y39172D01*
X48070Y39206D01*
X48140Y39260D01*
X48194Y39330D01*
X48197Y39339D01*
X48247Y39329D01*
Y38671D01*
X48197Y38661D01*
X48194Y38670D01*
X48140Y38740D01*
X48070Y38794D01*
X47988Y38828D01*
X47900Y38839D01*
X47812Y38828D01*
X47730Y38794D01*
X47660Y38740D01*
X47606Y38670D01*
X47572Y38588D01*
X47561Y38500D01*
X47572Y38412D01*
X47606Y38330D01*
X47660Y38260D01*
X47730Y38206D01*
X47812Y38172D01*
X47900Y38161D01*
X47988Y38172D01*
X48070Y38206D01*
X48140Y38260D01*
X48194Y38330D01*
X48197Y38339D01*
X48247Y38329D01*
Y37671D01*
X48197Y37661D01*
X48194Y37670D01*
X48140Y37740D01*
X48070Y37794D01*
X47988Y37828D01*
X47900Y37839D01*
X47812Y37828D01*
X47730Y37794D01*
X47660Y37740D01*
X47606Y37670D01*
X47572Y37588D01*
X47561Y37500D01*
X47572Y37412D01*
X47579Y37396D01*
X46242Y36058D01*
X45879D01*
X45826Y36094D01*
X45748Y36109D01*
X45670Y36094D01*
X45604Y36050D01*
X45560Y35984D01*
X45544Y35906D01*
X45549Y35879D01*
X45503Y35855D01*
X45079Y36279D01*
Y36928D01*
X45113D01*
X45198Y36945D01*
X45203Y36948D01*
X45472D01*
X45550Y36963D01*
X45616Y37007D01*
X45646Y37053D01*
X45932Y37339D01*
X46142D01*
X46181Y37347D01*
X46214Y37369D01*
X46236Y37402D01*
X46243Y37435D01*
X46299D01*
X46377Y37451D01*
X46442Y37495D01*
X46718Y37770D01*
X46762Y37836D01*
X46777Y37913D01*
Y38796D01*
X46870D01*
X46909Y38803D01*
X46942Y38826D01*
X46964Y38859D01*
X46972Y38898D01*
Y39409D01*
X46964Y39448D01*
X46964Y39449D01*
X46945Y39488D01*
X46964Y39527D01*
X46964Y39528D01*
X46972Y39567D01*
Y39773D01*
X46178D01*
Y39567D01*
X46185Y39528D01*
X46186Y39527D01*
X46204Y39488D01*
X46186Y39449D01*
X46185Y39448D01*
X46178Y39409D01*
Y38898D01*
X46185Y38859D01*
X46207Y38826D01*
X46241Y38803D01*
X46280Y38796D01*
X46372D01*
Y37997D01*
X46277Y37902D01*
X46214Y37907D01*
X46184Y37926D01*
X46182Y37953D01*
X46184Y37979D01*
X46214Y37999D01*
X46236Y38032D01*
X46244Y38071D01*
Y38465D01*
X46236Y38504D01*
X46214Y38537D01*
X46181Y38559D01*
X46142Y38567D01*
X45862D01*
X45671Y38758D01*
X45621Y38791D01*
X45563Y38803D01*
X45273D01*
X45270Y38807D01*
X45198Y38855D01*
X45113Y38872D01*
X45068D01*
Y39053D01*
X45171D01*
X45210Y39061D01*
X45211Y39061D01*
X45250Y39079D01*
X45289Y39061D01*
X45290Y39061D01*
X45329Y39053D01*
X45535D01*
Y39450D01*
Y39847D01*
X45329D01*
X45290Y39839D01*
X45257Y39817D01*
X45243D01*
X45210Y39839D01*
X45171Y39847D01*
X45153D01*
Y40015D01*
X45344Y40207D01*
X45378Y40256D01*
X45389Y40315D01*
Y40578D01*
X45425Y40631D01*
X45440Y40709D01*
X45425Y40787D01*
X45384Y40847D01*
X45391Y40872D01*
X45404Y40897D01*
X45881D01*
X45919Y40840D01*
X45985Y40796D01*
X46063Y40780D01*
X46141Y40796D01*
X46207Y40840D01*
X46251Y40906D01*
X46267Y40984D01*
X46251Y41062D01*
X46207Y41128D01*
X46141Y41173D01*
X46063Y41188D01*
X46061Y41188D01*
X46056Y41191D01*
X45997Y41203D01*
X44900D01*
X44887Y41200D01*
X44863Y41247D01*
X45079Y41462D01*
X45386D01*
Y41418D01*
X45394Y41379D01*
X45416Y41346D01*
X45449Y41324D01*
X45488Y41317D01*
X45843D01*
X45882Y41324D01*
X45915Y41346D01*
X45937Y41379D01*
X45944Y41418D01*
Y41812D01*
X45937Y41851D01*
X45915Y41884D01*
X45882Y41906D01*
X45843Y41914D01*
X45818D01*
Y42181D01*
X45854Y42188D01*
X45887Y42210D01*
X45910Y42243D01*
X45917Y42282D01*
Y42518D01*
X45910Y42557D01*
X45887Y42590D01*
X45854Y42612D01*
X45818Y42619D01*
Y42951D01*
X45843D01*
X45882Y42959D01*
X45915Y42981D01*
X45937Y43014D01*
X45944Y43053D01*
Y43447D01*
X45937Y43486D01*
X45915Y43519D01*
X45882Y43541D01*
X45843Y43549D01*
D02*
G37*
G36*
X46839Y42620D02*
X46712D01*
Y42450D01*
X46941D01*
Y42518D01*
X46933Y42557D01*
X46911Y42590D01*
X46878Y42612D01*
X46839Y42620D01*
D02*
G37*
G36*
X43425Y45496D02*
X43071D01*
X43032Y45488D01*
X42999Y45466D01*
X42977Y45433D01*
X42969Y45394D01*
Y45000D01*
X42977Y44961D01*
X42999Y44928D01*
X43032Y44906D01*
X43036Y44905D01*
Y44583D01*
X43032Y44582D01*
X42999Y44560D01*
X42977Y44527D01*
X42969Y44488D01*
Y44209D01*
X42642Y43882D01*
X42609Y43832D01*
X42597Y43774D01*
Y43474D01*
X42547Y43460D01*
X42507Y43520D01*
X42435Y43568D01*
X42350Y43585D01*
X41956D01*
X41871Y43568D01*
X41799Y43520D01*
X41750Y43448D01*
X41734Y43363D01*
X41750Y43278D01*
X41799Y43206D01*
X41871Y43158D01*
X41956Y43141D01*
X42000D01*
Y43070D01*
X41956D01*
X41871Y43053D01*
X41799Y43004D01*
X41796Y43000D01*
X41099D01*
Y43012D01*
X41091Y43051D01*
X41069Y43084D01*
X41036Y43106D01*
X40997Y43114D01*
X40603D01*
X40564Y43106D01*
X40531Y43084D01*
X40509Y43051D01*
X40501Y43012D01*
Y42657D01*
X40509Y42618D01*
X40531Y42585D01*
X40564Y42563D01*
X40603Y42556D01*
X40997D01*
X41036Y42563D01*
X41069Y42585D01*
X41091Y42618D01*
X41099Y42657D01*
Y42694D01*
X41796D01*
X41799Y42690D01*
X41871Y42642D01*
X41956Y42625D01*
X42350D01*
X42435Y42642D01*
X42507Y42690D01*
X42547Y42750D01*
X42597Y42737D01*
Y42563D01*
X42549Y42515D01*
X42507Y42489D01*
X42435Y42537D01*
X42350Y42554D01*
X41956D01*
X41871Y42537D01*
X41799Y42489D01*
X41750Y42417D01*
X41734Y42332D01*
X41750Y42246D01*
X41799Y42174D01*
X41871Y42126D01*
X41956Y42109D01*
X42350D01*
X42435Y42126D01*
X42507Y42174D01*
X42510Y42179D01*
X42582D01*
X42640Y42190D01*
X42680Y42217D01*
X42712Y42178D01*
X42507Y41973D01*
X42435Y42021D01*
X42350Y42038D01*
X41956D01*
X41871Y42021D01*
X41799Y41973D01*
X41750Y41901D01*
X41734Y41816D01*
X41750Y41731D01*
X41799Y41659D01*
X41871Y41610D01*
X41956Y41593D01*
X42350D01*
X42435Y41610D01*
X42507Y41659D01*
X42510Y41663D01*
X42566D01*
X42624Y41674D01*
X42674Y41708D01*
X43346Y42379D01*
X43372Y42362D01*
X43450Y42346D01*
X43528Y42362D01*
X43594Y42406D01*
X43638Y42472D01*
X43654Y42550D01*
X43638Y42628D01*
X43594Y42694D01*
X43528Y42738D01*
X43450Y42754D01*
X43372Y42738D01*
X43319Y42703D01*
X43300D01*
X43241Y42691D01*
X43192Y42658D01*
X42904Y42370D01*
X42865Y42402D01*
X42891Y42441D01*
X42903Y42500D01*
Y43710D01*
X43185Y43993D01*
X43465D01*
X43504Y44000D01*
X43537Y44022D01*
X43556Y44052D01*
X43583Y44055D01*
X43609Y44052D01*
X43629Y44022D01*
X43662Y44000D01*
X43701Y43993D01*
X43980D01*
X44047Y43926D01*
Y43585D01*
X44003D01*
X43918Y43568D01*
X43846Y43520D01*
X43798Y43448D01*
X43781Y43363D01*
X43798Y43278D01*
X43846Y43206D01*
X43918Y43158D01*
X44003Y43141D01*
X44047D01*
Y43070D01*
X44003D01*
X43918Y43053D01*
X43846Y43004D01*
X43798Y42932D01*
X43781Y42847D01*
X43798Y42762D01*
X43846Y42690D01*
X43918Y42642D01*
X44003Y42625D01*
X44397D01*
X44482Y42642D01*
X44554Y42690D01*
X44602Y42762D01*
X44619Y42847D01*
X44602Y42932D01*
X44554Y43004D01*
X44482Y43053D01*
X44397Y43070D01*
X44353D01*
Y43141D01*
X44397D01*
X44482Y43158D01*
X44554Y43206D01*
X44602Y43278D01*
X44619Y43363D01*
X44602Y43448D01*
X44554Y43520D01*
X44482Y43568D01*
X44397Y43585D01*
X44353D01*
Y43989D01*
X44341Y44047D01*
X44308Y44097D01*
X44196Y44209D01*
Y44488D01*
X44189Y44527D01*
X44167Y44560D01*
X44134Y44582D01*
X44094Y44590D01*
X43701D01*
X43662Y44582D01*
X43629Y44560D01*
X43609Y44531D01*
X43583Y44528D01*
X43556Y44531D01*
X43537Y44560D01*
X43504Y44582D01*
X43465Y44590D01*
X43342D01*
Y44898D01*
X43425D01*
X43464Y44906D01*
X43497Y44928D01*
X43519Y44961D01*
X43527Y45000D01*
Y45394D01*
X43519Y45433D01*
X43497Y45466D01*
X43464Y45488D01*
X43425Y45496D01*
D02*
G37*
G36*
X46612Y42620D02*
X46485D01*
X46446Y42612D01*
X46413Y42590D01*
X46390Y42557D01*
X46383Y42518D01*
Y42450D01*
X46612D01*
Y42620D01*
D02*
G37*
G36*
Y42350D02*
X46383D01*
Y42282D01*
X46390Y42243D01*
X46413Y42210D01*
X46446Y42188D01*
X46485Y42180D01*
X46612D01*
Y42350D01*
D02*
G37*
G36*
X46941D02*
X46712D01*
Y42180D01*
X46839D01*
X46878Y42188D01*
X46911Y42210D01*
X46933Y42243D01*
X46941Y42282D01*
Y42350D01*
D02*
G37*
G36*
X46079Y44788D02*
X45991Y44776D01*
X45909Y44743D01*
X45839Y44689D01*
X45785Y44618D01*
X45751Y44537D01*
X45740Y44449D01*
X45751Y44361D01*
X45785Y44279D01*
X45839Y44209D01*
X45909Y44155D01*
X45991Y44121D01*
X46079Y44110D01*
X46167Y44121D01*
X46248Y44155D01*
X46319Y44209D01*
X46372Y44279D01*
X46406Y44361D01*
X46418Y44449D01*
X46406Y44537D01*
X46372Y44618D01*
X46319Y44689D01*
X46248Y44743D01*
X46167Y44776D01*
X46079Y44788D01*
D02*
G37*
G36*
X35995Y45214D02*
Y44932D01*
X36277D01*
X36272Y44970D01*
X36239Y45051D01*
X36185Y45122D01*
X36114Y45176D01*
X36033Y45209D01*
X35995Y45214D01*
D02*
G37*
G36*
X43867Y45496D02*
X43740D01*
X43701Y45488D01*
X43668Y45466D01*
X43646Y45433D01*
X43638Y45394D01*
Y45247D01*
X43867D01*
Y45496D01*
D02*
G37*
G36*
X35895Y45214D02*
X35857Y45209D01*
X35775Y45176D01*
X35705Y45122D01*
X35651Y45051D01*
X35617Y44970D01*
X35612Y44932D01*
X35895D01*
Y45214D01*
D02*
G37*
G36*
X43867Y45147D02*
X43638D01*
Y45000D01*
X43646Y44961D01*
X43668Y44928D01*
X43701Y44906D01*
X43740Y44898D01*
X43867D01*
Y45147D01*
D02*
G37*
G36*
X44196D02*
X43967D01*
Y44898D01*
X44094D01*
X44134Y44906D01*
X44167Y44928D01*
X44189Y44961D01*
X44196Y45000D01*
Y45147D01*
D02*
G37*
G36*
X49450Y46038D02*
X49345Y46028D01*
X49197Y45982D01*
X49060Y45909D01*
X48939Y45811D01*
X48841Y45690D01*
X48768Y45553D01*
X48722Y45405D01*
X48712Y45300D01*
X49450D01*
Y46038D01*
D02*
G37*
G36*
X49550D02*
Y45300D01*
X50288D01*
X50278Y45405D01*
X50232Y45553D01*
X50159Y45690D01*
X50061Y45811D01*
X49940Y45909D01*
X49803Y45982D01*
X49655Y46028D01*
X49550Y46038D01*
D02*
G37*
G36*
X29800Y45988D02*
Y45250D01*
X30538D01*
X30528Y45355D01*
X30482Y45503D01*
X30409Y45640D01*
X30311Y45761D01*
X30190Y45859D01*
X30053Y45932D01*
X29905Y45978D01*
X29800Y45988D01*
D02*
G37*
G36*
X44094Y45496D02*
X43967D01*
Y45247D01*
X44196D01*
Y45394D01*
X44189Y45433D01*
X44167Y45466D01*
X44134Y45488D01*
X44094Y45496D01*
D02*
G37*
G36*
X29700Y45988D02*
X29595Y45978D01*
X29447Y45932D01*
X29310Y45859D01*
X29189Y45761D01*
X29091Y45640D01*
X29018Y45503D01*
X28972Y45355D01*
X28962Y45250D01*
X29700D01*
Y45988D01*
D02*
G37*
G36*
X30538Y45150D02*
X29800D01*
Y44412D01*
X29905Y44422D01*
X30053Y44468D01*
X30190Y44541D01*
X30311Y44639D01*
X30409Y44760D01*
X30482Y44897D01*
X30528Y45045D01*
X30538Y45150D01*
D02*
G37*
G36*
X49450Y45200D02*
X48712D01*
X48722Y45095D01*
X48768Y44947D01*
X48841Y44810D01*
X48939Y44689D01*
X49060Y44591D01*
X49197Y44518D01*
X49345Y44472D01*
X49450Y44462D01*
Y45200D01*
D02*
G37*
G36*
X29700Y45150D02*
X28962D01*
X28972Y45045D01*
X29018Y44897D01*
X29091Y44760D01*
X29189Y44639D01*
X29310Y44541D01*
X29447Y44468D01*
X29595Y44422D01*
X29700Y44412D01*
Y45150D01*
D02*
G37*
G36*
X47800Y44633D02*
X47762Y44628D01*
X47680Y44594D01*
X47610Y44540D01*
X47556Y44470D01*
X47522Y44388D01*
X47517Y44350D01*
X47800D01*
Y44633D01*
D02*
G37*
G36*
X47900D02*
Y44350D01*
X48183D01*
X48178Y44388D01*
X48144Y44470D01*
X48090Y44540D01*
X48020Y44594D01*
X47938Y44628D01*
X47900Y44633D01*
D02*
G37*
G36*
X36277Y44832D02*
X35995D01*
Y44549D01*
X36033Y44554D01*
X36114Y44588D01*
X36185Y44642D01*
X36239Y44712D01*
X36272Y44794D01*
X36277Y44832D01*
D02*
G37*
G36*
X35895D02*
X35612D01*
X35617Y44794D01*
X35651Y44712D01*
X35705Y44642D01*
X35775Y44588D01*
X35857Y44554D01*
X35895Y44549D01*
Y44832D01*
D02*
G37*
G36*
X37945Y45221D02*
X37857Y45209D01*
X37775Y45176D01*
X37705Y45122D01*
X37651Y45051D01*
X37617Y44970D01*
X37606Y44882D01*
X37617Y44794D01*
X37651Y44712D01*
X37705Y44642D01*
X37775Y44588D01*
X37792Y44581D01*
Y43441D01*
X37319Y42968D01*
X36583D01*
Y43169D01*
X36565Y43262D01*
X36512Y43341D01*
X36433Y43393D01*
X36341Y43412D01*
X36248Y43393D01*
X36169Y43341D01*
X36117Y43262D01*
X36116Y43260D01*
X36065D01*
X36065Y43262D01*
X36012Y43341D01*
X35993Y43353D01*
Y43769D01*
X36802Y44577D01*
X36857Y44554D01*
X36945Y44543D01*
X37033Y44554D01*
X37114Y44588D01*
X37185Y44642D01*
X37239Y44712D01*
X37272Y44794D01*
X37284Y44882D01*
X37272Y44970D01*
X37239Y45051D01*
X37185Y45122D01*
X37114Y45176D01*
X37033Y45209D01*
X36945Y45221D01*
X36857Y45209D01*
X36775Y45176D01*
X36705Y45122D01*
X36651Y45051D01*
X36617Y44970D01*
X36606Y44882D01*
X36614Y44822D01*
X35732Y43941D01*
X35699Y43891D01*
X35688Y43833D01*
Y43353D01*
X35669Y43341D01*
X35617Y43262D01*
X35616Y43260D01*
X35565D01*
X35565Y43262D01*
X35512Y43341D01*
X35493Y43353D01*
Y43557D01*
X35482Y43616D01*
X35449Y43665D01*
X34278Y44836D01*
X34284Y44882D01*
X34272Y44970D01*
X34239Y45051D01*
X34185Y45122D01*
X34114Y45176D01*
X34033Y45209D01*
X33945Y45221D01*
X33857Y45209D01*
X33775Y45176D01*
X33705Y45122D01*
X33651Y45051D01*
X33617Y44970D01*
X33606Y44882D01*
X33617Y44794D01*
X33651Y44712D01*
X33705Y44642D01*
X33775Y44588D01*
X33857Y44554D01*
X33945Y44543D01*
X34033Y44554D01*
X34099Y44582D01*
X35188Y43494D01*
Y43353D01*
X35169Y43341D01*
X35117Y43262D01*
X35116Y43260D01*
X35065D01*
X35065Y43262D01*
X35012Y43341D01*
X34933Y43393D01*
X34841Y43412D01*
X34748Y43393D01*
X34669Y43341D01*
X34617Y43262D01*
X34598Y43169D01*
Y42968D01*
X33784D01*
X33098Y43654D01*
Y44581D01*
X33114Y44588D01*
X33185Y44642D01*
X33239Y44712D01*
X33272Y44794D01*
X33284Y44882D01*
X33272Y44970D01*
X33239Y45051D01*
X33185Y45122D01*
X33114Y45176D01*
X33033Y45209D01*
X32945Y45221D01*
X32857Y45209D01*
X32775Y45176D01*
X32705Y45122D01*
X32651Y45051D01*
X32617Y44970D01*
X32606Y44882D01*
X32617Y44794D01*
X32651Y44712D01*
X32705Y44642D01*
X32775Y44588D01*
X32792Y44581D01*
Y43591D01*
X32804Y43532D01*
X32837Y43482D01*
X33612Y42707D01*
X33662Y42674D01*
X33720Y42662D01*
X34598D01*
Y42461D01*
X34617Y42368D01*
X34669Y42289D01*
X34748Y42237D01*
X34841Y42218D01*
X34933Y42237D01*
X35012Y42289D01*
X35065Y42368D01*
X35065Y42370D01*
X35116D01*
X35117Y42368D01*
X35169Y42289D01*
X35248Y42237D01*
X35341Y42218D01*
X35433Y42237D01*
X35512Y42289D01*
X35565Y42368D01*
X35565Y42370D01*
X35616D01*
X35617Y42368D01*
X35669Y42289D01*
X35748Y42237D01*
X35841Y42218D01*
X35933Y42237D01*
X36012Y42289D01*
X36065Y42368D01*
X36065Y42370D01*
X36116D01*
X36117Y42368D01*
X36169Y42289D01*
X36248Y42237D01*
X36341Y42218D01*
X36433Y42237D01*
X36512Y42289D01*
X36565Y42368D01*
X36583Y42461D01*
Y42662D01*
X37382D01*
X37440Y42674D01*
X37490Y42707D01*
X38053Y43270D01*
X38086Y43319D01*
X38098Y43378D01*
Y44581D01*
X38114Y44588D01*
X38185Y44642D01*
X38239Y44712D01*
X38272Y44794D01*
X38284Y44882D01*
X38272Y44970D01*
X38239Y45051D01*
X38185Y45122D01*
X38114Y45176D01*
X38033Y45209D01*
X37945Y45221D01*
D02*
G37*
G36*
X50288Y45200D02*
X49550D01*
Y44462D01*
X49655Y44472D01*
X49803Y44518D01*
X49940Y44591D01*
X50061Y44689D01*
X50159Y44810D01*
X50232Y44947D01*
X50278Y45095D01*
X50288Y45200D01*
D02*
G37*
G36*
X34945Y45221D02*
X34857Y45209D01*
X34775Y45176D01*
X34705Y45122D01*
X34651Y45051D01*
X34617Y44970D01*
X34606Y44882D01*
X34617Y44794D01*
X34651Y44712D01*
X34705Y44642D01*
X34775Y44588D01*
X34857Y44554D01*
X34945Y44543D01*
X35033Y44554D01*
X35114Y44588D01*
X35185Y44642D01*
X35239Y44712D01*
X35272Y44794D01*
X35284Y44882D01*
X35272Y44970D01*
X35239Y45051D01*
X35185Y45122D01*
X35114Y45176D01*
X35033Y45209D01*
X34945Y45221D01*
D02*
G37*
G36*
X30562Y40018D02*
Y39735D01*
X30844D01*
X30839Y39773D01*
X30805Y39855D01*
X30752Y39925D01*
X30681Y39979D01*
X30600Y40013D01*
X30562Y40018D01*
D02*
G37*
G36*
X30462D02*
X30424Y40013D01*
X30342Y39979D01*
X30272Y39925D01*
X30218Y39855D01*
X30184Y39773D01*
X30179Y39735D01*
X30462D01*
Y40018D01*
D02*
G37*
G36*
X43105Y38870D02*
X42495D01*
X42456Y38862D01*
X42423Y38840D01*
X42401Y38807D01*
X42393Y38768D01*
Y38532D01*
X42401Y38493D01*
X42423Y38460D01*
X42456Y38438D01*
X42495Y38430D01*
X43105D01*
X43144Y38438D01*
X43177Y38460D01*
X43199Y38493D01*
X43207Y38532D01*
Y38768D01*
X43199Y38807D01*
X43177Y38840D01*
X43144Y38862D01*
X43105Y38870D01*
D02*
G37*
G36*
X30512Y39024D02*
X30424Y39013D01*
X30342Y38979D01*
X30272Y38925D01*
X30218Y38855D01*
X30184Y38773D01*
X30173Y38685D01*
X30184Y38597D01*
X30218Y38515D01*
X30272Y38445D01*
X30342Y38391D01*
X30424Y38357D01*
X30512Y38346D01*
X30600Y38357D01*
X30681Y38391D01*
X30752Y38445D01*
X30805Y38515D01*
X30839Y38597D01*
X30851Y38685D01*
X30839Y38773D01*
X30805Y38855D01*
X30752Y38925D01*
X30681Y38979D01*
X30600Y39013D01*
X30512Y39024D01*
D02*
G37*
G36*
X39100Y39254D02*
X39022Y39238D01*
X38956Y39194D01*
X38912Y39128D01*
X38896Y39050D01*
X38912Y38972D01*
X38947Y38919D01*
Y38835D01*
X38959Y38776D01*
X38992Y38726D01*
X39201Y38517D01*
Y38257D01*
X39209Y38218D01*
X39231Y38185D01*
X39264Y38163D01*
X39303Y38156D01*
X39697D01*
X39736Y38163D01*
X39769Y38185D01*
X39791Y38218D01*
X39799Y38257D01*
Y38612D01*
X39791Y38651D01*
X39769Y38684D01*
X39736Y38706D01*
X39697Y38714D01*
X39437D01*
X39253Y38898D01*
Y38919D01*
X39288Y38972D01*
X39304Y39050D01*
X39288Y39128D01*
X39244Y39194D01*
X39178Y39238D01*
X39100Y39254D01*
D02*
G37*
G36*
X38364Y40000D02*
X38115D01*
Y39751D01*
X38262D01*
X38301Y39759D01*
X38334Y39781D01*
X38356Y39814D01*
X38364Y39853D01*
Y40000D01*
D02*
G37*
G36*
X36900Y41054D02*
X36822Y41038D01*
X36756Y40994D01*
X36712Y40928D01*
X36696Y40850D01*
X36712Y40772D01*
X36747Y40719D01*
Y40600D01*
X36759Y40541D01*
X36792Y40492D01*
X37136Y40147D01*
Y39853D01*
X37144Y39814D01*
X37166Y39781D01*
X37199Y39759D01*
X37238Y39751D01*
X37282D01*
Y38644D01*
X37026D01*
X36987Y38636D01*
X36954Y38614D01*
X36932Y38581D01*
X36924Y38542D01*
Y38424D01*
X36932Y38385D01*
X36932Y38384D01*
X36932Y38384D01*
X36924Y38345D01*
Y38336D01*
X36978D01*
X36987Y38329D01*
X37026Y38322D01*
X37420D01*
Y38250D01*
X37026D01*
X36987Y38242D01*
X36978Y38236D01*
X36924D01*
Y38227D01*
X36932Y38188D01*
X36932Y38187D01*
X36932Y38187D01*
X36924Y38148D01*
Y38030D01*
X36932Y37991D01*
X36932Y37991D01*
X36932Y37990D01*
X36924Y37951D01*
Y37833D01*
X36932Y37794D01*
X36932Y37794D01*
X36932Y37793D01*
X36924Y37754D01*
Y37636D01*
X36932Y37597D01*
X36932Y37597D01*
X36932Y37596D01*
X36924Y37557D01*
Y37439D01*
X36932Y37400D01*
X36932Y37400D01*
X36932Y37400D01*
X36924Y37361D01*
Y37258D01*
X36692D01*
X36688Y37278D01*
X36644Y37344D01*
X36578Y37388D01*
X36500Y37404D01*
X36422Y37388D01*
X36356Y37344D01*
X36312Y37278D01*
X36296Y37200D01*
X36312Y37122D01*
X36356Y37056D01*
X36422Y37012D01*
X36485Y36999D01*
X36487Y36997D01*
X36537Y36963D01*
X36595Y36952D01*
X36924D01*
Y36849D01*
X36932Y36810D01*
X36932Y36809D01*
X36932Y36809D01*
X36924Y36770D01*
Y36652D01*
X36932Y36613D01*
X36932Y36613D01*
X36932Y36612D01*
X36924Y36573D01*
Y36455D01*
X36932Y36416D01*
X36932Y36416D01*
X36932Y36415D01*
X36924Y36376D01*
Y36258D01*
X36932Y36219D01*
X36954Y36186D01*
X36987Y36164D01*
X37026Y36156D01*
X37399D01*
X37420Y36152D01*
X38710D01*
X39868Y34994D01*
X39847Y34944D01*
X39843D01*
X39804Y34937D01*
X39770Y34915D01*
X39748Y34882D01*
X39741Y34843D01*
Y34488D01*
X39748Y34449D01*
X39770Y34416D01*
X39804Y34394D01*
X39843Y34386D01*
X40236D01*
X40275Y34394D01*
X40308Y34416D01*
X40330Y34449D01*
X40338Y34488D01*
Y34843D01*
X40330Y34882D01*
X40308Y34915D01*
X40275Y34937D01*
X40236Y34944D01*
X40192D01*
Y35039D01*
X40181Y35098D01*
X40148Y35148D01*
X38882Y36413D01*
X38832Y36446D01*
X38774Y36458D01*
X37916D01*
Y36573D01*
X37908Y36612D01*
X37908Y36613D01*
X37908Y36613D01*
X37916Y36652D01*
Y36755D01*
X38057D01*
X38122Y36712D01*
X38200Y36696D01*
X38278Y36712D01*
X38344Y36756D01*
X38388Y36822D01*
X38404Y36900D01*
X38388Y36978D01*
X38344Y37044D01*
X38278Y37088D01*
X38234Y37097D01*
X38239Y37147D01*
X38337D01*
X40001Y35482D01*
X40051Y35449D01*
X40109Y35438D01*
X42152D01*
X42205Y35402D01*
X42283Y35387D01*
X42361Y35402D01*
X42428Y35446D01*
X42472Y35513D01*
X42487Y35591D01*
X42472Y35669D01*
X42428Y35735D01*
X42361Y35779D01*
X42283Y35794D01*
X42205Y35779D01*
X42152Y35743D01*
X40173D01*
X38508Y37408D01*
X38459Y37441D01*
X38400Y37453D01*
X37916D01*
Y37557D01*
X37908Y37596D01*
X37908Y37597D01*
X37908Y37597D01*
X37916Y37636D01*
Y37754D01*
X37908Y37793D01*
X37908Y37794D01*
X37908Y37794D01*
X37916Y37833D01*
Y37951D01*
X37908Y37990D01*
X37908Y37991D01*
X37908Y37991D01*
X37916Y38030D01*
Y38148D01*
X37908Y38187D01*
X37908Y38187D01*
X37908Y38188D01*
X37916Y38227D01*
Y38330D01*
X38289D01*
X38962Y37657D01*
X39011Y37624D01*
X39070Y37612D01*
X39201D01*
Y37588D01*
X39209Y37549D01*
X39231Y37516D01*
X39264Y37494D01*
X39303Y37486D01*
X39697D01*
X39736Y37494D01*
X39769Y37516D01*
X39791Y37549D01*
X39799Y37588D01*
Y37943D01*
X39791Y37982D01*
X39769Y38015D01*
X39736Y38037D01*
X39697Y38044D01*
X39303D01*
X39264Y38037D01*
X39231Y38015D01*
X39209Y37982D01*
X39201Y37943D01*
Y37918D01*
X39133D01*
X38643Y38408D01*
X38649Y38438D01*
Y38832D01*
X38641Y38871D01*
X38619Y38904D01*
X38590Y38924D01*
X38587Y38950D01*
X38590Y38976D01*
X38619Y38996D01*
X38641Y39029D01*
X38649Y39068D01*
Y39215D01*
X38051D01*
Y39068D01*
X38059Y39029D01*
X38081Y38996D01*
X38110Y38976D01*
X38113Y38950D01*
X38110Y38924D01*
X38081Y38904D01*
X38059Y38871D01*
X38051Y38832D01*
Y38636D01*
X37853D01*
X37853Y38636D01*
X37814Y38644D01*
X37588D01*
Y39751D01*
X37632D01*
X37671Y39759D01*
X37704Y39781D01*
X37724Y39810D01*
X37750Y39813D01*
X37776Y39810D01*
X37796Y39781D01*
X37829Y39759D01*
X37868Y39751D01*
X38015D01*
Y40050D01*
Y40349D01*
X37868D01*
X37829Y40341D01*
X37796Y40319D01*
X37776Y40290D01*
X37750Y40287D01*
X37724Y40290D01*
X37704Y40319D01*
X37671Y40341D01*
X37632Y40349D01*
X37367D01*
X37053Y40663D01*
Y40719D01*
X37088Y40772D01*
X37104Y40850D01*
X37088Y40928D01*
X37044Y40994D01*
X36978Y41038D01*
X36900Y41054D01*
D02*
G37*
G36*
X45943Y39400D02*
X45635D01*
Y39053D01*
X45841D01*
X45880Y39061D01*
X45913Y39083D01*
X45935Y39116D01*
X45943Y39155D01*
Y39400D01*
D02*
G37*
G36*
X38300Y39564D02*
X38153D01*
X38114Y39556D01*
X38081Y39534D01*
X38059Y39501D01*
X38051Y39462D01*
Y39315D01*
X38300D01*
Y39564D01*
D02*
G37*
G36*
X30462Y39635D02*
X30179D01*
X30184Y39597D01*
X30218Y39515D01*
X30272Y39445D01*
X30342Y39391D01*
X30424Y39357D01*
X30462Y39353D01*
Y39635D01*
D02*
G37*
G36*
X38547Y39564D02*
X38400D01*
Y39315D01*
X38649D01*
Y39462D01*
X38641Y39501D01*
X38619Y39534D01*
X38586Y39556D01*
X38547Y39564D01*
D02*
G37*
G36*
X47850Y39450D02*
X47567D01*
X47572Y39412D01*
X47606Y39330D01*
X47660Y39260D01*
X47730Y39206D01*
X47812Y39172D01*
X47850Y39167D01*
Y39450D01*
D02*
G37*
G36*
Y39833D02*
X47812Y39828D01*
X47730Y39794D01*
X47660Y39740D01*
X47606Y39670D01*
X47572Y39588D01*
X47567Y39550D01*
X47850D01*
Y39833D01*
D02*
G37*
G36*
X45841Y39847D02*
X45635D01*
Y39500D01*
X45943D01*
Y39745D01*
X45935Y39784D01*
X45913Y39817D01*
X45880Y39839D01*
X45841Y39847D01*
D02*
G37*
G36*
X30844Y39635D02*
X30562D01*
Y39353D01*
X30600Y39357D01*
X30681Y39391D01*
X30752Y39445D01*
X30805Y39515D01*
X30839Y39597D01*
X30844Y39635D01*
D02*
G37*
G36*
X45113Y38372D02*
X44739D01*
X44654Y38355D01*
X44582Y38307D01*
X44534Y38235D01*
X44517Y38150D01*
X44534Y38065D01*
X44582Y37993D01*
X44654Y37945D01*
X44739Y37928D01*
X45113D01*
X45198Y37945D01*
X45270Y37993D01*
X45318Y38065D01*
X45335Y38150D01*
X45318Y38235D01*
X45270Y38307D01*
X45198Y38355D01*
X45113Y38372D01*
D02*
G37*
G36*
X42103Y41007D02*
X41956D01*
X41871Y40990D01*
X41799Y40942D01*
X41750Y40869D01*
X41743Y40834D01*
X42103D01*
Y41007D01*
D02*
G37*
G36*
X42350D02*
X42203D01*
Y40834D01*
X42562D01*
X42555Y40869D01*
X42507Y40942D01*
X42435Y40990D01*
X42350Y41007D01*
D02*
G37*
G36*
X42103Y40734D02*
X41743D01*
X41750Y40699D01*
X41799Y40627D01*
X41871Y40579D01*
X41956Y40562D01*
X42103D01*
Y40734D01*
D02*
G37*
G36*
X42562D02*
X42203D01*
Y40562D01*
X42350D01*
X42435Y40579D01*
X42507Y40627D01*
X42555Y40699D01*
X42562Y40734D01*
D02*
G37*
G36*
X39949Y42765D02*
X39351D01*
Y42618D01*
X39359Y42579D01*
X39381Y42546D01*
X39410Y42526D01*
X39413Y42500D01*
X39410Y42474D01*
X39381Y42454D01*
X39359Y42421D01*
X39351Y42382D01*
Y41988D01*
X39359Y41949D01*
X39381Y41916D01*
X39414Y41894D01*
X39453Y41886D01*
X39847D01*
X39886Y41894D01*
X39919Y41916D01*
X39941Y41949D01*
X39949Y41988D01*
Y42012D01*
X40501D01*
Y41988D01*
X40509Y41949D01*
X40531Y41916D01*
X40564Y41894D01*
X40603Y41886D01*
X40647D01*
Y41600D01*
X40659Y41541D01*
X40692Y41492D01*
X40823Y41361D01*
X40807Y41306D01*
X40764Y41298D01*
X40686Y41245D01*
X40633Y41167D01*
X40625Y41124D01*
X40916D01*
X41208D01*
X41201Y41159D01*
X41224Y41209D01*
X41754D01*
X41799Y41143D01*
X41871Y41095D01*
X41956Y41078D01*
X42350D01*
X42435Y41095D01*
X42507Y41143D01*
X42555Y41215D01*
X42572Y41300D01*
X42555Y41385D01*
X42507Y41457D01*
X42435Y41505D01*
X42350Y41522D01*
X41956D01*
X41918Y41515D01*
X41102D01*
X40953Y41663D01*
Y41886D01*
X40997D01*
X41036Y41894D01*
X41069Y41916D01*
X41091Y41949D01*
X41099Y41988D01*
Y42343D01*
X41091Y42382D01*
X41069Y42415D01*
X41036Y42437D01*
X40997Y42444D01*
X40603D01*
X40564Y42437D01*
X40531Y42415D01*
X40509Y42382D01*
X40501Y42343D01*
Y42318D01*
X39949D01*
Y42382D01*
X39941Y42421D01*
X39919Y42454D01*
X39890Y42474D01*
X39887Y42500D01*
X39890Y42526D01*
X39919Y42546D01*
X39941Y42579D01*
X39949Y42618D01*
Y42765D01*
D02*
G37*
G36*
X35236Y42094D02*
X35158Y42078D01*
X35092Y42034D01*
X35048Y41968D01*
X35035Y41905D01*
X34741Y41611D01*
X34708Y41562D01*
X34697Y41503D01*
Y41430D01*
X34669Y41412D01*
X34620Y41338D01*
X34499D01*
Y41382D01*
X34491Y41421D01*
X34469Y41454D01*
X34440Y41474D01*
X34437Y41500D01*
X34440Y41526D01*
X34469Y41546D01*
X34491Y41579D01*
X34499Y41618D01*
Y41765D01*
X33901D01*
Y41618D01*
X33909Y41579D01*
X33931Y41546D01*
X33960Y41526D01*
X33963Y41500D01*
X33960Y41474D01*
X33931Y41454D01*
X33909Y41421D01*
X33901Y41382D01*
Y40988D01*
X33909Y40949D01*
X33931Y40916D01*
X33964Y40894D01*
X34003Y40886D01*
X34397D01*
X34436Y40894D01*
X34469Y40916D01*
X34491Y40949D01*
X34499Y40988D01*
Y41032D01*
X34598D01*
Y40532D01*
X34617Y40439D01*
X34639Y40405D01*
X34359Y40125D01*
X34326Y40076D01*
X34314Y40017D01*
Y39703D01*
X34314Y39703D01*
X34306Y39664D01*
Y39586D01*
X33399D01*
Y39632D01*
X33391Y39671D01*
X33369Y39704D01*
X33340Y39724D01*
X33337Y39750D01*
X33340Y39776D01*
X33369Y39796D01*
X33391Y39829D01*
X33399Y39868D01*
Y40015D01*
X32801D01*
Y39868D01*
X32809Y39829D01*
X32831Y39796D01*
X32860Y39776D01*
X32863Y39750D01*
X32860Y39724D01*
X32831Y39704D01*
X32809Y39671D01*
X32801Y39632D01*
Y39588D01*
X32616D01*
X32563Y39623D01*
X32485Y39639D01*
X32407Y39623D01*
X32341Y39579D01*
X32297Y39513D01*
X32284Y39450D01*
X31957Y39123D01*
X31924Y39074D01*
X31912Y39015D01*
Y36463D01*
X31907Y36458D01*
X31856D01*
X31798Y36446D01*
X31748Y36413D01*
X30443Y35108D01*
X30410Y35059D01*
X30407Y35044D01*
X30382Y35034D01*
X30311Y34980D01*
X30257Y34910D01*
X30224Y34828D01*
X30212Y34740D01*
X30224Y34652D01*
X30257Y34571D01*
X30311Y34500D01*
X30371Y34455D01*
X30359Y34406D01*
X30358Y34405D01*
X30300D01*
X30074Y34630D01*
Y37102D01*
X30357Y37385D01*
X30424Y37357D01*
X30512Y37346D01*
X30600Y37357D01*
X30681Y37391D01*
X30752Y37445D01*
X30805Y37515D01*
X30839Y37597D01*
X30851Y37685D01*
X30839Y37773D01*
X30805Y37855D01*
X30752Y37925D01*
X30681Y37979D01*
X30600Y38013D01*
X30512Y38024D01*
X30424Y38013D01*
X30342Y37979D01*
X30272Y37925D01*
X30218Y37855D01*
X30184Y37773D01*
X30173Y37685D01*
X30179Y37639D01*
X29813Y37273D01*
X29780Y37224D01*
X29768Y37165D01*
Y34567D01*
X29780Y34508D01*
X29813Y34459D01*
X30128Y34144D01*
X30178Y34111D01*
X30236Y34099D01*
X30408D01*
X30418Y34049D01*
X30382Y34034D01*
X30311Y33980D01*
X30257Y33910D01*
X30224Y33828D01*
X30212Y33740D01*
X30224Y33652D01*
X30257Y33571D01*
X30311Y33500D01*
X30359Y33464D01*
Y32425D01*
X30354D01*
X30315Y32417D01*
X30282Y32395D01*
X30260Y32362D01*
X30252Y32323D01*
Y31929D01*
X30260Y31890D01*
X30282Y31857D01*
X30315Y31835D01*
X30354Y31827D01*
X30709D01*
X30748Y31835D01*
X30781Y31857D01*
X30803Y31890D01*
X30811Y31929D01*
Y32323D01*
X30803Y32362D01*
X30781Y32395D01*
X30748Y32417D01*
X30709Y32425D01*
X30665D01*
Y33423D01*
X30721Y33446D01*
X30791Y33500D01*
X30845Y33571D01*
X30879Y33652D01*
X30890Y33740D01*
X30879Y33828D01*
X30845Y33910D01*
X30791Y33980D01*
X30721Y34034D01*
X30684Y34049D01*
X30694Y34099D01*
X31172D01*
X31332Y33940D01*
Y33537D01*
X31339Y33498D01*
X31361Y33465D01*
Y33422D01*
X31339Y33389D01*
X31332Y33350D01*
Y32750D01*
X31339Y32711D01*
X31361Y32678D01*
X31394Y32656D01*
X31433Y32648D01*
X31840D01*
X31877Y32624D01*
X31935Y32612D01*
X32615D01*
Y32559D01*
X32622Y32520D01*
X32644Y32487D01*
X32678Y32465D01*
X32717Y32457D01*
X33110D01*
X33149Y32465D01*
X33182Y32487D01*
X33204Y32520D01*
X33212Y32559D01*
Y32594D01*
X33704D01*
Y32466D01*
X33712Y32427D01*
X33734Y32394D01*
X33767Y32372D01*
X33806Y32364D01*
X34594D01*
X34633Y32372D01*
X34666Y32394D01*
X34688Y32427D01*
X34696Y32466D01*
Y32612D01*
X37029D01*
X37058Y32542D01*
X37115Y32468D01*
X37190Y32411D01*
X37276Y32375D01*
X37369Y32363D01*
X37645D01*
X37738Y32375D01*
X37824Y32411D01*
X37899Y32468D01*
X37956Y32542D01*
X37992Y32629D01*
X38004Y32722D01*
X37992Y32815D01*
X37956Y32901D01*
X37899Y32975D01*
X37824Y33033D01*
X37738Y33068D01*
X37645Y33081D01*
X37476D01*
Y33553D01*
X37496Y33583D01*
X37504Y33622D01*
Y34016D01*
X37496Y34055D01*
X37474Y34088D01*
X37441Y34110D01*
X37402Y34118D01*
X37047D01*
X37008Y34110D01*
X36975Y34088D01*
X36953Y34055D01*
X36945Y34016D01*
Y33622D01*
X36953Y33583D01*
X36975Y33550D01*
X37008Y33528D01*
X37047Y33520D01*
X37170D01*
Y33017D01*
X37115Y32975D01*
X37071Y32918D01*
X34696D01*
Y32978D01*
X34688Y33017D01*
X34666Y33050D01*
X34633Y33072D01*
X34594Y33080D01*
X33806D01*
X33767Y33072D01*
X33734Y33050D01*
X33712Y33017D01*
X33704Y32978D01*
Y32900D01*
X33212D01*
Y32953D01*
X33204Y32992D01*
X33182Y33025D01*
X33153Y33045D01*
X33150Y33071D01*
X33153Y33097D01*
X33182Y33117D01*
X33204Y33150D01*
X33212Y33189D01*
Y33336D01*
X32615D01*
Y33189D01*
X32622Y33150D01*
X32644Y33117D01*
X32674Y33097D01*
X32677Y33071D01*
X32674Y33045D01*
X32644Y33025D01*
X32622Y32992D01*
X32615Y32953D01*
Y32918D01*
X31998D01*
X31968Y32948D01*
Y33350D01*
X31961Y33389D01*
X31939Y33422D01*
Y33465D01*
X31961Y33498D01*
X31968Y33537D01*
Y33784D01*
X35287D01*
X35346Y33796D01*
X35396Y33829D01*
X35757Y34190D01*
X35790Y34240D01*
X35801Y34298D01*
Y35034D01*
X35889D01*
Y34908D01*
X35901Y34849D01*
X35934Y34800D01*
X36432Y34301D01*
X36482Y34268D01*
X36541Y34257D01*
X37709D01*
X37738Y34228D01*
Y34118D01*
X37717D01*
X37678Y34110D01*
X37644Y34088D01*
X37622Y34055D01*
X37615Y34016D01*
Y33622D01*
X37622Y33583D01*
X37644Y33550D01*
X37678Y33528D01*
X37717Y33520D01*
X37976D01*
X38469Y33027D01*
Y31732D01*
X38481Y31674D01*
X38514Y31624D01*
X38882Y31256D01*
Y31126D01*
X38858D01*
X38819Y31118D01*
X38786Y31096D01*
X38764Y31063D01*
X38756Y31024D01*
Y30630D01*
X38764Y30591D01*
X38786Y30558D01*
X38819Y30536D01*
X38858Y30528D01*
X39213D01*
X39252Y30536D01*
X39285Y30558D01*
X39307Y30591D01*
X39315Y30630D01*
Y31024D01*
X39307Y31063D01*
X39285Y31096D01*
X39252Y31118D01*
X39213Y31126D01*
X39188D01*
Y31319D01*
X39177Y31377D01*
X39144Y31427D01*
X38775Y31796D01*
Y33091D01*
X38763Y33149D01*
X38730Y33199D01*
X38173Y33756D01*
Y34016D01*
X38165Y34055D01*
X38143Y34088D01*
X38110Y34110D01*
X38071Y34118D01*
X38043D01*
Y34291D01*
Y34662D01*
X38110D01*
X38149Y34670D01*
X38182Y34692D01*
X38202Y34721D01*
X38228Y34724D01*
X38255Y34721D01*
X38274Y34692D01*
X38307Y34670D01*
X38346Y34662D01*
X38493D01*
Y34961D01*
Y35259D01*
X38346D01*
X38307Y35252D01*
X38274Y35230D01*
X38255Y35200D01*
X38228Y35197D01*
X38202Y35200D01*
X38182Y35230D01*
X38149Y35252D01*
X38110Y35259D01*
X37717D01*
X37678Y35252D01*
X37644Y35230D01*
X37622Y35196D01*
X37615Y35157D01*
Y34764D01*
X37622Y34725D01*
X37644Y34692D01*
X37678Y34670D01*
X37717Y34662D01*
X37738D01*
Y34591D01*
X37709Y34562D01*
X36604D01*
X36195Y34971D01*
Y35034D01*
X36298D01*
X36337Y35042D01*
X36337Y35042D01*
X36338Y35042D01*
X36377Y35034D01*
X36495D01*
X36534Y35042D01*
X36534Y35042D01*
X36535Y35042D01*
X36574Y35034D01*
X36692D01*
X36731Y35042D01*
X36764Y35064D01*
X36786Y35097D01*
X36794Y35136D01*
Y35924D01*
X36786Y35963D01*
X36764Y35996D01*
X36731Y36018D01*
X36692Y36026D01*
X36589D01*
Y36235D01*
X36606Y36261D01*
X36621Y36339D01*
X36606Y36417D01*
X36562Y36483D01*
X36495Y36527D01*
X36417Y36542D01*
X36339Y36527D01*
X36273Y36483D01*
X36229Y36417D01*
X36213Y36339D01*
X36221Y36300D01*
X36174Y36281D01*
X36150Y36316D01*
X36058Y36408D01*
X36009Y36441D01*
X35950Y36453D01*
X34600D01*
X34541Y36441D01*
X34492Y36408D01*
X34359Y36275D01*
X34326Y36226D01*
X34314Y36167D01*
Y35911D01*
X34305Y35865D01*
Y35683D01*
X33833D01*
Y36156D01*
X34074D01*
X34113Y36164D01*
X34146Y36186D01*
X34168Y36219D01*
X34176Y36258D01*
Y36376D01*
X34168Y36415D01*
X34168Y36416D01*
X34168Y36416D01*
X34176Y36455D01*
Y36464D01*
X34122D01*
X34113Y36471D01*
X34074Y36478D01*
X33680D01*
X33286D01*
X33247Y36471D01*
X33238Y36464D01*
X33184D01*
Y36458D01*
X32999D01*
Y36512D01*
X32991Y36551D01*
X32969Y36584D01*
X32936Y36606D01*
X32897Y36614D01*
X32503D01*
X32464Y36606D01*
X32431Y36584D01*
X32409Y36551D01*
X32401Y36512D01*
Y36458D01*
X32224D01*
X32218Y36463D01*
Y38853D01*
X32268Y38862D01*
X32306Y38806D01*
X32372Y38762D01*
X32372Y38762D01*
X32759Y38375D01*
X32803Y38345D01*
X32804Y38321D01*
X32797Y38293D01*
X32772Y38288D01*
X32706Y38244D01*
X32662Y38178D01*
X32646Y38100D01*
X32662Y38022D01*
X32706Y37956D01*
X32772Y37912D01*
X32850Y37896D01*
X32928Y37912D01*
X32965Y37936D01*
X33184D01*
Y37833D01*
X33192Y37794D01*
X33192Y37794D01*
X33192Y37793D01*
X33184Y37754D01*
Y37636D01*
X33192Y37597D01*
X33192Y37597D01*
X33192Y37596D01*
X33184Y37557D01*
Y37439D01*
X33192Y37400D01*
X33192Y37400D01*
X33192Y37400D01*
X33184Y37361D01*
Y37243D01*
X33192Y37204D01*
X33192Y37203D01*
X33192Y37203D01*
X33184Y37164D01*
Y37046D01*
X33192Y37007D01*
X33192Y37006D01*
X33192Y37006D01*
X33184Y36967D01*
Y36849D01*
X33192Y36810D01*
X33192Y36809D01*
X33192Y36809D01*
X33184Y36770D01*
Y36652D01*
X33192Y36613D01*
X33192Y36613D01*
X33192Y36612D01*
X33184Y36573D01*
Y36564D01*
X33238D01*
X33247Y36558D01*
X33286Y36550D01*
X33680D01*
X34074D01*
X34113Y36558D01*
X34122Y36564D01*
X34176D01*
Y36573D01*
X34168Y36612D01*
X34168Y36613D01*
X34168Y36613D01*
X34176Y36652D01*
Y36770D01*
X34168Y36809D01*
X34168Y36809D01*
X34168Y36810D01*
X34176Y36849D01*
Y36952D01*
X34476D01*
X34500Y36947D01*
X34619D01*
X34672Y36912D01*
X34750Y36896D01*
X34828Y36912D01*
X34894Y36956D01*
X34938Y37022D01*
X34954Y37100D01*
X34938Y37178D01*
X34925Y37199D01*
X34951Y37249D01*
X35019D01*
X35072Y37213D01*
X35150Y37198D01*
X35228Y37213D01*
X35294Y37257D01*
X35338Y37324D01*
X35354Y37402D01*
X35338Y37480D01*
X35294Y37546D01*
X35228Y37590D01*
X35150Y37605D01*
X35072Y37590D01*
X35019Y37555D01*
X34652D01*
X34639Y37552D01*
X34614Y37598D01*
X34737Y37721D01*
X35269D01*
X35322Y37686D01*
X35400Y37670D01*
X35478Y37686D01*
X35544Y37730D01*
X35588Y37796D01*
X35604Y37874D01*
X35588Y37952D01*
X35544Y38018D01*
X35478Y38062D01*
X35400Y38078D01*
X35322Y38062D01*
X35269Y38027D01*
X34674D01*
X34615Y38015D01*
X34566Y37982D01*
X34235Y37651D01*
X34176D01*
Y37754D01*
X34168Y37793D01*
X34168Y37794D01*
X34168Y37794D01*
X34176Y37833D01*
Y37951D01*
X34168Y37990D01*
X34168Y37991D01*
X34168Y37991D01*
X34176Y38030D01*
Y38148D01*
X34168Y38187D01*
X34168Y38187D01*
X34168Y38188D01*
X34176Y38227D01*
Y38345D01*
X34168Y38384D01*
X34168Y38384D01*
X34168Y38385D01*
X34176Y38424D01*
Y38542D01*
X34168Y38581D01*
X34146Y38614D01*
X34113Y38636D01*
X34074Y38644D01*
X33286D01*
X33247Y38636D01*
X33247Y38636D01*
X32931D01*
X32648Y38919D01*
X32654Y38950D01*
X32638Y39028D01*
X32594Y39094D01*
X32528Y39138D01*
X32484Y39147D01*
X32468Y39199D01*
X32501Y39234D01*
X32563Y39247D01*
X32616Y39282D01*
X32801D01*
Y39238D01*
X32809Y39199D01*
X32831Y39166D01*
X32864Y39144D01*
X32903Y39136D01*
X33297D01*
X33336Y39144D01*
X33369Y39166D01*
X33391Y39199D01*
X33399Y39238D01*
Y39280D01*
X34306D01*
Y38876D01*
X34314Y38837D01*
X34336Y38804D01*
X34369Y38782D01*
X34408Y38774D01*
X34526D01*
X34565Y38782D01*
X34566Y38782D01*
X34566Y38782D01*
X34605Y38774D01*
X34708D01*
Y38620D01*
X34673Y38567D01*
X34657Y38489D01*
X34673Y38411D01*
X34717Y38345D01*
X34783Y38301D01*
X34861Y38285D01*
X34939Y38301D01*
X35005Y38345D01*
X35049Y38411D01*
X35065Y38489D01*
X35049Y38567D01*
X35014Y38620D01*
Y38774D01*
X35117D01*
X35156Y38782D01*
X35156Y38782D01*
X35157Y38782D01*
X35196Y38774D01*
X35314D01*
X35353Y38782D01*
X35353Y38782D01*
X35354Y38782D01*
X35393Y38774D01*
X35511D01*
X35550Y38782D01*
X35550Y38782D01*
X35550Y38782D01*
X35589Y38774D01*
X35692D01*
Y38574D01*
X35662Y38528D01*
X35646Y38450D01*
X35662Y38372D01*
X35706Y38306D01*
X35772Y38262D01*
X35850Y38246D01*
X35928Y38262D01*
X35994Y38306D01*
X36038Y38372D01*
X36054Y38450D01*
X36038Y38528D01*
X35998Y38588D01*
Y38774D01*
X36101D01*
X36140Y38782D01*
X36141Y38782D01*
X36141Y38782D01*
X36180Y38774D01*
X36298D01*
X36337Y38782D01*
X36337Y38782D01*
X36338Y38782D01*
X36377Y38774D01*
X36495D01*
X36534Y38782D01*
X36534Y38782D01*
X36535Y38782D01*
X36574Y38774D01*
X36692D01*
X36731Y38782D01*
X36764Y38804D01*
X36786Y38837D01*
X36794Y38876D01*
Y39664D01*
X36786Y39703D01*
X36764Y39736D01*
X36731Y39758D01*
X36692Y39766D01*
X36574D01*
X36535Y39758D01*
X36534Y39758D01*
X36534Y39758D01*
X36495Y39766D01*
X36392D01*
Y39954D01*
X36394Y39956D01*
X36438Y40022D01*
X36454Y40100D01*
X36438Y40178D01*
X36394Y40244D01*
X36389Y40248D01*
X36400Y40301D01*
X36433Y40307D01*
X36512Y40360D01*
X36565Y40439D01*
X36583Y40532D01*
Y40836D01*
X36341D01*
Y40886D01*
X36291D01*
Y41473D01*
X36248Y41464D01*
X36169Y41412D01*
X36117Y41333D01*
X36116Y41330D01*
X36065D01*
X36065Y41333D01*
X36012Y41412D01*
X35933Y41464D01*
X35841Y41483D01*
X35748Y41464D01*
X35669Y41412D01*
X35617Y41333D01*
X35616Y41330D01*
X35565D01*
X35565Y41333D01*
X35512Y41412D01*
X35433Y41464D01*
X35341Y41483D01*
X35248Y41464D01*
X35169Y41412D01*
X35117Y41333D01*
X35116Y41330D01*
X35065D01*
X35065Y41333D01*
X35012Y41412D01*
X35024Y41461D01*
X35252Y41689D01*
X35314Y41701D01*
X35380Y41746D01*
X35425Y41812D01*
X35440Y41890D01*
X35425Y41968D01*
X35380Y42034D01*
X35314Y42078D01*
X35236Y42094D01*
D02*
G37*
G36*
X36391Y41473D02*
Y40936D01*
X36583D01*
Y41240D01*
X36565Y41333D01*
X36512Y41412D01*
X36433Y41464D01*
X36391Y41473D01*
D02*
G37*
G36*
X46512Y41914D02*
X46157D01*
X46118Y41906D01*
X46085Y41884D01*
X46063Y41851D01*
X46056Y41812D01*
Y41418D01*
X46063Y41379D01*
X46085Y41346D01*
X46118Y41324D01*
X46157Y41317D01*
X46417D01*
X46542Y41192D01*
X46591Y41159D01*
X46650Y41147D01*
X47549D01*
X47556Y41130D01*
X47610Y41060D01*
X47680Y41006D01*
X47762Y40972D01*
X47850Y40961D01*
X47938Y40972D01*
X48020Y41006D01*
X48090Y41060D01*
X48144Y41130D01*
X48178Y41212D01*
X48189Y41300D01*
X48178Y41388D01*
X48144Y41470D01*
X48090Y41540D01*
X48020Y41594D01*
X47938Y41628D01*
X47850Y41639D01*
X47762Y41628D01*
X47680Y41594D01*
X47610Y41540D01*
X47556Y41470D01*
X47549Y41453D01*
X46713D01*
X46614Y41553D01*
Y41812D01*
X46606Y41851D01*
X46584Y41884D01*
X46551Y41906D01*
X46512Y41914D01*
D02*
G37*
G36*
X38262Y40349D02*
X38115D01*
Y40100D01*
X38364D01*
Y40247D01*
X38356Y40286D01*
X38334Y40319D01*
X38301Y40341D01*
X38262Y40349D01*
D02*
G37*
G36*
X46870Y40181D02*
X46625D01*
Y39873D01*
X46972D01*
Y40079D01*
X46964Y40118D01*
X46942Y40151D01*
X46909Y40173D01*
X46870Y40181D01*
D02*
G37*
G36*
X46525D02*
X46280D01*
X46241Y40173D01*
X46207Y40151D01*
X46185Y40118D01*
X46178Y40079D01*
Y39873D01*
X46525D01*
Y40181D01*
D02*
G37*
G36*
X33050Y40364D02*
X32903D01*
X32864Y40356D01*
X32831Y40334D01*
X32809Y40301D01*
X32801Y40262D01*
Y40115D01*
X33050D01*
Y40364D01*
D02*
G37*
G36*
X30512Y41024D02*
X30424Y41013D01*
X30342Y40979D01*
X30272Y40925D01*
X30218Y40855D01*
X30184Y40773D01*
X30173Y40685D01*
X30184Y40597D01*
X30218Y40515D01*
X30272Y40445D01*
X30342Y40391D01*
X30424Y40357D01*
X30512Y40346D01*
X30600Y40357D01*
X30681Y40391D01*
X30752Y40445D01*
X30805Y40515D01*
X30839Y40597D01*
X30851Y40685D01*
X30839Y40773D01*
X30805Y40855D01*
X30752Y40925D01*
X30681Y40979D01*
X30600Y41013D01*
X30512Y41024D01*
D02*
G37*
G36*
X33297Y40364D02*
X33150D01*
Y40115D01*
X33399D01*
Y40262D01*
X33391Y40301D01*
X33369Y40334D01*
X33336Y40356D01*
X33297Y40364D01*
D02*
G37*
G36*
X42054Y38579D02*
X41346D01*
X41307Y38571D01*
X41274Y38549D01*
X41251Y38516D01*
X41244Y38477D01*
Y37965D01*
X41251Y37926D01*
X41274Y37893D01*
X41307Y37871D01*
X41346Y37863D01*
X42054D01*
X42093Y37871D01*
X42126Y37893D01*
X42149Y37926D01*
X42156Y37965D01*
Y37997D01*
X42453D01*
X42456Y37993D01*
X42528Y37945D01*
X42613Y37928D01*
X42987D01*
X43072Y37945D01*
X43144Y37993D01*
X43192Y38065D01*
X43209Y38150D01*
X43192Y38235D01*
X43144Y38307D01*
X43072Y38355D01*
X42987Y38372D01*
X42613D01*
X42528Y38355D01*
X42456Y38307D01*
X42453Y38303D01*
X42156D01*
Y38477D01*
X42149Y38516D01*
X42126Y38549D01*
X42093Y38571D01*
X42054Y38579D01*
D02*
G37*
%LPD*%
G36*
X33527Y35550D02*
Y34949D01*
X33418D01*
X33379Y34941D01*
X33346Y34919D01*
X33326Y34890D01*
X33300Y34887D01*
X33274Y34890D01*
X33254Y34919D01*
X33221Y34941D01*
X33182Y34949D01*
X33035D01*
Y34650D01*
Y34351D01*
X33182D01*
X33221Y34359D01*
X33254Y34381D01*
X33274Y34410D01*
X33300Y34413D01*
X33326Y34410D01*
X33346Y34381D01*
X33379Y34359D01*
X33418Y34351D01*
X33812D01*
X33851Y34359D01*
X33884Y34381D01*
X33906Y34414D01*
X33914Y34453D01*
Y34847D01*
X33906Y34886D01*
X33884Y34919D01*
X33851Y34941D01*
X33833Y34945D01*
Y35377D01*
X34305D01*
Y35195D01*
X34318Y35133D01*
X34353Y35081D01*
X34405Y35045D01*
X34467Y35033D01*
X34529Y35045D01*
X34545Y35056D01*
X34566Y35042D01*
X34605Y35034D01*
X34723D01*
X34762Y35042D01*
X34763Y35042D01*
X34763Y35042D01*
X34802Y35034D01*
X34920D01*
X34959Y35042D01*
X34959Y35042D01*
X34960Y35042D01*
X34998Y35035D01*
X35010Y35016D01*
X35022Y34988D01*
X34685Y34651D01*
X34622Y34638D01*
X34556Y34594D01*
X34512Y34528D01*
X34496Y34450D01*
X34512Y34372D01*
X34556Y34306D01*
X34622Y34262D01*
X34700Y34246D01*
X34778Y34262D01*
X34844Y34306D01*
X34888Y34372D01*
X34901Y34435D01*
X35196Y34730D01*
X35235Y34698D01*
X35209Y34659D01*
X35206Y34644D01*
X35206Y34644D01*
X35162Y34578D01*
X35146Y34500D01*
X35162Y34422D01*
X35206Y34356D01*
X35272Y34312D01*
X35350Y34296D01*
X35361Y34298D01*
X35386Y34252D01*
X35224Y34090D01*
X31968D01*
Y34137D01*
X31961Y34176D01*
X31939Y34209D01*
X31906Y34232D01*
X31872Y34238D01*
X31870Y34240D01*
X31811Y34251D01*
X31753Y34240D01*
X31752Y34239D01*
X31464D01*
X31344Y34360D01*
X31294Y34393D01*
X31235Y34405D01*
X30745D01*
X30744Y34406D01*
X30732Y34455D01*
X30791Y34500D01*
X30845Y34571D01*
X30879Y34652D01*
X30890Y34740D01*
X30879Y34828D01*
X30845Y34910D01*
X30791Y34980D01*
X30788Y35021D01*
X31920Y36152D01*
X32401D01*
Y36118D01*
X32409Y36079D01*
X32431Y36046D01*
X32460Y36026D01*
X32463Y36000D01*
X32460Y35974D01*
X32431Y35954D01*
X32409Y35921D01*
X32401Y35882D01*
Y35735D01*
X32700D01*
X32999D01*
Y35882D01*
X32991Y35921D01*
X32969Y35954D01*
X32940Y35974D01*
X32937Y36000D01*
X32940Y36026D01*
X32969Y36046D01*
X32991Y36079D01*
X32999Y36118D01*
Y36152D01*
X33527D01*
Y35550D01*
D02*
G37*
G36*
X35117Y40439D02*
X35169Y40360D01*
X35197Y40341D01*
Y40150D01*
X35209Y40091D01*
X35242Y40042D01*
X35299Y39985D01*
Y39766D01*
X35196D01*
X35157Y39758D01*
X35156Y39758D01*
X35156Y39758D01*
X35117Y39766D01*
X34999D01*
X34960Y39758D01*
X34959Y39758D01*
X34959Y39758D01*
X34920Y39766D01*
X34802D01*
X34763Y39758D01*
X34763Y39758D01*
X34762Y39758D01*
X34723Y39766D01*
X34620D01*
Y39954D01*
X34958Y40291D01*
X34991Y40341D01*
X34992Y40347D01*
X35012Y40360D01*
X35065Y40439D01*
X35065Y40441D01*
X35116D01*
X35117Y40439D01*
D02*
G37*
%LPC*%
G36*
X31769Y34674D02*
X31625D01*
Y34530D01*
X31653Y34536D01*
X31719Y34580D01*
X31763Y34646D01*
X31769Y34674D01*
D02*
G37*
G36*
X32935Y34949D02*
X32788D01*
X32749Y34941D01*
X32716Y34919D01*
X32694Y34886D01*
X32686Y34847D01*
Y34700D01*
X32935D01*
Y34949D01*
D02*
G37*
G36*
Y34600D02*
X32686D01*
Y34453D01*
X32694Y34414D01*
X32716Y34381D01*
X32749Y34359D01*
X32788Y34351D01*
X32935D01*
Y34600D01*
D02*
G37*
G36*
X31525Y34674D02*
X31381D01*
X31386Y34646D01*
X31431Y34580D01*
X31497Y34536D01*
X31525Y34530D01*
Y34674D01*
D02*
G37*
G36*
X32650Y35635D02*
X32401D01*
Y35488D01*
X32409Y35449D01*
X32431Y35416D01*
X32464Y35394D01*
X32503Y35386D01*
X32650D01*
Y35635D01*
D02*
G37*
G36*
X32999D02*
X32750D01*
Y35386D01*
X32897D01*
X32936Y35394D01*
X32969Y35416D01*
X32991Y35449D01*
X32999Y35488D01*
Y35635D01*
D02*
G37*
G36*
X31525Y34918D02*
X31497Y34913D01*
X31431Y34869D01*
X31386Y34802D01*
X31381Y34774D01*
X31525D01*
Y34918D01*
D02*
G37*
G36*
X31625D02*
Y34774D01*
X31769D01*
X31763Y34802D01*
X31719Y34869D01*
X31653Y34913D01*
X31625Y34918D01*
D02*
G37*
%LPD*%
D10*
X40039Y32195D02*
D03*
Y33002D02*
D03*
D11*
X45638Y42400D02*
D03*
X46662D02*
D03*
D12*
X34200Y32722D02*
D03*
D13*
Y30950D02*
D03*
X37507Y32722D02*
D03*
Y30950D02*
D03*
D14*
X32913Y32756D02*
D03*
Y33386D02*
D03*
X34200Y41185D02*
D03*
Y41815D02*
D03*
X33100Y39435D02*
D03*
Y40065D02*
D03*
X45945Y38268D02*
D03*
Y37638D02*
D03*
X32700Y36315D02*
D03*
Y35685D02*
D03*
X38350Y38635D02*
D03*
Y39265D02*
D03*
X46496Y34803D02*
D03*
Y35433D02*
D03*
X41750Y32765D02*
D03*
Y32135D02*
D03*
X39650Y42185D02*
D03*
Y42815D02*
D03*
D15*
X34467Y39270D02*
D03*
X34664D02*
D03*
X34861D02*
D03*
X35058D02*
D03*
X35255D02*
D03*
X35452D02*
D03*
X35648D02*
D03*
X35845D02*
D03*
X36042D02*
D03*
X36239D02*
D03*
X36436D02*
D03*
X36633D02*
D03*
Y35530D02*
D03*
X36436D02*
D03*
X36239D02*
D03*
X36042D02*
D03*
X35845D02*
D03*
X35648D02*
D03*
X35452D02*
D03*
X35255D02*
D03*
X35058D02*
D03*
X34861D02*
D03*
X34664D02*
D03*
D16*
X37420Y38483D02*
D03*
Y38286D02*
D03*
Y38089D02*
D03*
Y37892D02*
D03*
Y37695D02*
D03*
Y37498D02*
D03*
Y37302D02*
D03*
Y37105D02*
D03*
Y36908D02*
D03*
Y36711D02*
D03*
Y36514D02*
D03*
Y36317D02*
D03*
X33680D02*
D03*
Y36514D02*
D03*
Y36711D02*
D03*
Y36908D02*
D03*
Y37105D02*
D03*
Y37302D02*
D03*
Y37498D02*
D03*
Y37695D02*
D03*
Y37892D02*
D03*
Y38089D02*
D03*
Y38286D02*
D03*
Y38483D02*
D03*
D17*
X34467Y35530D02*
D03*
D18*
X40916Y40326D02*
D03*
X41614Y30453D02*
D03*
D19*
X40916Y41074D02*
D03*
X40050Y40700D02*
D03*
X41614Y31201D02*
D03*
X40748Y30827D02*
D03*
D20*
X43235Y39550D02*
D03*
X42565D02*
D03*
X40915Y39450D02*
D03*
X41585D02*
D03*
X39035Y30827D02*
D03*
X39705D02*
D03*
X30531Y32126D02*
D03*
X31201D02*
D03*
X43602Y31181D02*
D03*
X42933D02*
D03*
X45665Y43250D02*
D03*
X46335D02*
D03*
X46335Y41615D02*
D03*
X45665D02*
D03*
X43248Y45197D02*
D03*
X43917D02*
D03*
X37894Y33819D02*
D03*
X37224D02*
D03*
D21*
X39500Y37765D02*
D03*
Y38435D02*
D03*
X40800Y42835D02*
D03*
Y42165D02*
D03*
X40950Y34165D02*
D03*
Y34835D02*
D03*
X41750Y34535D02*
D03*
Y33865D02*
D03*
X45200Y30665D02*
D03*
Y31335D02*
D03*
X44450Y31335D02*
D03*
Y30665D02*
D03*
X40039Y34665D02*
D03*
Y33996D02*
D03*
X46496Y33012D02*
D03*
Y33681D02*
D03*
D22*
X42800Y38650D02*
D03*
D23*
Y38150D02*
D03*
Y37650D02*
D03*
Y37150D02*
D03*
X44926Y38650D02*
D03*
Y38150D02*
D03*
Y37650D02*
D03*
Y37150D02*
D03*
D24*
X36341Y42815D02*
D03*
X35841D02*
D03*
X35341D02*
D03*
X34841D02*
D03*
X36341Y40886D02*
D03*
X35841D02*
D03*
X35341D02*
D03*
X34841D02*
D03*
D25*
X37435Y40050D02*
D03*
X38065D02*
D03*
X33615Y34650D02*
D03*
X32985D02*
D03*
X43268Y44291D02*
D03*
X43898D02*
D03*
X37913Y34961D02*
D03*
X38543D02*
D03*
D26*
X42953Y35231D02*
D03*
Y34716D02*
D03*
Y34200D02*
D03*
Y33684D02*
D03*
Y33168D02*
D03*
Y32653D02*
D03*
Y32137D02*
D03*
X45000Y35231D02*
D03*
Y34716D02*
D03*
Y34200D02*
D03*
Y33684D02*
D03*
Y33168D02*
D03*
Y32653D02*
D03*
X42153Y43363D02*
D03*
Y42847D02*
D03*
Y42332D02*
D03*
Y41816D02*
D03*
Y41300D02*
D03*
Y40784D02*
D03*
Y40269D02*
D03*
X44200Y43363D02*
D03*
Y42847D02*
D03*
Y42332D02*
D03*
Y41816D02*
D03*
Y41300D02*
D03*
Y40784D02*
D03*
D27*
X45000Y32137D02*
D03*
X44200Y40269D02*
D03*
D28*
X31650Y33050D02*
D03*
Y33837D02*
D03*
D29*
X44915Y39450D02*
D03*
X45585D02*
D03*
D30*
X41700Y37079D02*
D03*
Y38221D02*
D03*
D31*
X46575Y39154D02*
D03*
Y39823D02*
D03*
D32*
X34652Y37402D02*
X35150D01*
X34550Y37300D02*
X34652Y37402D01*
X33680Y37302D02*
X34550Y37300D01*
X34298Y37498D02*
X34674Y37874D01*
X35400D01*
X34850Y41185D02*
Y41503D01*
X35236Y41890D01*
X44200Y42332D02*
X44401D01*
X46086Y31325D02*
X46929Y32168D01*
X45360Y31325D02*
X46086D01*
X46929Y32168D02*
Y32441D01*
X46361Y32936D02*
X46479D01*
X46078Y32653D02*
X46361Y32936D01*
X45000Y32653D02*
X46078D01*
X46483Y33701D02*
Y34109D01*
Y34200D01*
X46392D02*
X46483Y34109D01*
X46392Y34200D02*
X46483D01*
X45000D02*
X46392D01*
X46483Y34291D02*
Y34791D01*
Y34200D02*
Y34291D01*
X46392Y34200D02*
X46483Y34291D01*
Y34791D02*
X46496Y34803D01*
X45665Y41615D02*
Y43250D01*
X45000Y33168D02*
X45631D01*
X42953Y33684D02*
X43684D01*
X42953Y34200D02*
X43500D01*
X45000Y34716D02*
Y35231D01*
Y34716D02*
X45666D01*
X42366D02*
X42953D01*
Y35231D01*
X45000Y32137D02*
Y32653D01*
X41850Y33168D02*
X42953D01*
X46306Y35906D02*
X47900Y37500D01*
X41038Y41362D02*
X42153D01*
X38400Y37300D02*
X40109Y35591D01*
X42283D01*
X35341Y42815D02*
Y43557D01*
X34039Y44858D02*
X35341Y43557D01*
X35841Y43833D02*
X36850Y44843D01*
X35841Y42815D02*
Y43833D01*
X30551Y34740D02*
Y35000D01*
X29921Y34567D02*
Y37165D01*
Y34567D02*
X30236Y34252D01*
X31235D01*
X29921Y37165D02*
X30328Y37572D01*
X31235Y34252D02*
X31650Y33837D01*
Y33937D02*
X31811Y34098D01*
X37945Y43378D02*
Y44882D01*
X37382Y42815D02*
X37945Y43378D01*
X36341Y42815D02*
X37382D01*
X32945Y43591D02*
Y44882D01*
Y43591D02*
X33720Y42815D01*
X34841D01*
X43850Y33850D02*
Y38550D01*
X43700Y33700D02*
X43850Y33850D01*
X37435Y40050D02*
Y40065D01*
X36900Y40600D02*
X37435Y40065D01*
X36900Y40600D02*
Y40850D01*
X44200Y40784D02*
X44634D01*
X44900Y41050D01*
X46335Y41615D02*
X46650Y41300D01*
X47850D01*
X45665Y43250D02*
X45665Y43250D01*
X45015Y41615D02*
X45665D01*
X44700Y41300D02*
X45015Y41615D01*
X44200Y41300D02*
X44700D01*
X44200Y33700D02*
Y38650D01*
X45666Y34716D02*
X45700Y34750D01*
X41700Y38221D02*
X41771Y38150D01*
X42800D01*
X41700Y37079D02*
X41771Y37150D01*
X42800D01*
X42582Y42332D02*
X42750Y42500D01*
X42153Y42332D02*
X42582D01*
X44200Y42847D02*
Y43363D01*
Y40269D02*
Y40784D01*
X42153Y41300D02*
Y41362D01*
X40800Y41600D02*
X41038Y41362D01*
X40800Y41600D02*
Y42065D01*
X42153Y42847D02*
Y43363D01*
X40813Y42847D02*
X42153D01*
X40800Y42835D02*
X40813Y42847D01*
X39720Y42165D02*
X40800D01*
X39700Y42185D02*
X39720Y42165D01*
X44450Y31335D02*
X44450Y31335D01*
X42153Y41816D02*
X42566D01*
X43300Y42550D02*
X43450D01*
X42566Y41816D02*
X43300Y42550D01*
X41750Y33200D02*
X41782Y33168D01*
X41750Y33068D02*
X41850Y33168D01*
X41750Y32765D02*
Y33068D01*
Y33200D01*
X41782Y33168D02*
X41850D01*
X41750Y33268D02*
X41850Y33168D01*
X41750Y33268D02*
Y33765D01*
Y33200D02*
Y33268D01*
X40950Y34165D02*
Y34193D01*
X42945D02*
X42953Y34200D01*
X41750Y34535D02*
X42185D01*
X42366Y34716D01*
X44900Y39465D02*
X44915Y39450D01*
X43684Y33684D02*
X43700Y33700D01*
X44200D02*
X44984D01*
X45000Y33684D01*
X44915Y38661D02*
Y39450D01*
Y38661D02*
X44926Y38650D01*
X44200D02*
X44926D01*
X35452Y39270D02*
Y40048D01*
X35350Y40150D02*
X35452Y40048D01*
X35648Y39270D02*
Y39848D01*
X35652Y39852D02*
X35850Y40050D01*
X35652Y39848D02*
Y39852D01*
X33615Y34650D02*
X33680Y34715D01*
Y36305D02*
Y36317D01*
Y35550D02*
X33700Y35530D01*
X33680Y35550D02*
Y36305D01*
X33700Y35530D02*
X34467D01*
X33680Y34715D02*
Y35550D01*
X34467Y39270D02*
Y39433D01*
X33100Y39435D02*
X33102Y39433D01*
X32065Y36400D02*
X32160Y36305D01*
X41800Y39900D02*
X42300D01*
X42515Y39685D01*
X41550Y40150D02*
X41800Y39900D01*
X40916Y39451D02*
Y40326D01*
X40915Y39450D02*
X40916Y39451D01*
X37420Y38483D02*
X38348D01*
X38350Y38485D01*
X37420Y38495D02*
X37435Y38510D01*
X39450Y40700D02*
X40050D01*
X39400Y40650D02*
X39450Y40700D01*
X36239Y39270D02*
Y40089D01*
X36250Y40100D01*
X34467Y40017D02*
X34850Y40400D01*
X34467Y39433D02*
Y40017D01*
X39070Y37765D02*
X39500D01*
X38350Y38485D02*
X39070Y37765D01*
X39100Y38835D02*
X39500Y38435D01*
X39100Y38835D02*
Y39050D01*
X32861Y38089D02*
X33680D01*
X35287Y33937D02*
X35648Y34298D01*
Y35530D01*
X35350Y34500D02*
Y34600D01*
X35255Y35005D02*
Y35530D01*
X34700Y34450D02*
X35255Y35005D01*
X35452Y34702D02*
Y35530D01*
X35350Y34600D02*
X35452Y34702D01*
X45350Y31335D02*
X45360Y31325D01*
X44450Y31335D02*
X45200D01*
X45350D01*
X32065Y39015D02*
X32485Y39435D01*
X33100D01*
X32450Y38900D02*
X32867Y38483D01*
X33680D01*
X32450Y38900D02*
Y38950D01*
X32850Y38100D02*
X32861Y38089D01*
X34861Y38489D02*
Y39270D01*
X33680Y37105D02*
X34495D01*
X33680Y37498D02*
X34298D01*
X34467Y35530D02*
Y36167D01*
X34600Y36300D01*
X35950D01*
X36042Y35530D02*
Y36208D01*
X35950Y36300D02*
X36042Y36208D01*
X35845Y38455D02*
Y39270D01*
Y38455D02*
X35850Y38450D01*
X37420Y36908D02*
X38192D01*
X38200Y36900D01*
X34495Y37105D02*
X34500Y37100D01*
X34750D01*
X36595Y37105D02*
X37420D01*
X36500Y37200D02*
X36595Y37105D01*
X47850Y42300D02*
X48400Y41750D01*
X37900Y37300D02*
X38400D01*
X37420Y37302D02*
X37898D01*
X37900Y37300D01*
X41550Y40150D02*
Y40450D01*
X40050Y40700D02*
X41300D01*
X41550Y40450D01*
X41585Y39450D02*
X41600D01*
X41950Y39100D01*
X42681Y40269D02*
X42893Y40057D01*
X42153Y40269D02*
X42681D01*
X41950Y39100D02*
X42800D01*
X42893Y39193D01*
Y40057D01*
X43100Y40750D02*
Y41300D01*
X43616Y41816D01*
X44200D01*
X43235Y39550D02*
Y40615D01*
X43100Y40750D02*
X43235Y40615D01*
X31650Y33050D02*
X31935Y32765D01*
X40950Y34193D02*
X42945D01*
X48150Y35866D02*
X48400Y36117D01*
Y41750D01*
X44392Y42323D02*
X44401Y42332D01*
X44392Y42323D02*
X44882D01*
X45748Y35906D02*
X46306D01*
X44926Y36216D02*
Y37150D01*
Y36216D02*
X45827Y35315D01*
X45000Y39744D02*
Y40079D01*
X45236Y40315D01*
Y40709D01*
X43701Y38699D02*
X43850Y38550D01*
X43701Y38699D02*
Y38716D01*
X37435Y38510D02*
Y40050D01*
X36042Y34908D02*
Y35530D01*
X35350Y40150D02*
Y41185D01*
X30512Y32205D02*
Y33740D01*
X31650Y33937D02*
X35287D01*
X33921Y44858D02*
X34039D01*
X35850Y40050D02*
Y41185D01*
X42515Y39450D02*
Y39685D01*
X33067Y32747D02*
X33819D01*
X37507Y32765D02*
X37657Y32915D01*
X39705Y30827D02*
X40748D01*
X40039Y33041D02*
Y33996D01*
X38774Y36305D02*
X40039Y35039D01*
Y34724D02*
Y35039D01*
X37420Y36305D02*
X38774D01*
X36042Y34908D02*
X36541Y34409D01*
X39705Y30827D02*
Y31516D01*
X39291Y31929D02*
X39705Y31516D01*
X36436Y35530D02*
Y36357D01*
X39035Y30827D02*
Y31319D01*
X38622Y31732D02*
X39035Y31319D01*
X38622Y31732D02*
Y33091D01*
X37894Y33819D02*
X38622Y33091D01*
X37464Y32765D02*
X37507Y32722D01*
X37323Y32906D02*
X37464Y32765D01*
X37323Y32906D02*
Y33720D01*
X37224Y33819D02*
X37323Y33720D01*
X34134Y32765D02*
X37464D01*
X31935D02*
X32913D01*
X37772Y34409D02*
X37891Y34528D01*
X36541Y34409D02*
X37772D01*
X37891D01*
Y34528D01*
X37772Y34409D02*
X37891Y34291D01*
Y33822D02*
Y34291D01*
Y34409D01*
X41614Y30453D02*
X43248D01*
X43583Y30787D01*
Y31024D01*
X43504Y31102D02*
X43583Y31024D01*
X42953Y31102D02*
Y32137D01*
X45350Y30665D02*
X47398D01*
X47913Y31181D01*
Y31717D01*
Y31795D01*
X32065Y36400D02*
Y39015D01*
X30551Y35000D02*
X31856Y36305D01*
X31970D02*
X32160D01*
X31970D02*
X32065Y36400D01*
X31856Y36305D02*
X31970D01*
X44926Y38650D02*
X45563D01*
X45846Y38366D01*
X32160Y36305D02*
X33680D01*
X33102Y39433D02*
X34467D01*
X34850Y40400D02*
Y41185D01*
X34200D02*
X34850D01*
X37891Y34528D02*
Y34961D01*
X43185Y39450D02*
X44915D01*
X42750Y42500D02*
Y43774D01*
X43189Y44213D02*
X43268Y44291D01*
X43373Y44397D01*
X42750Y43774D02*
X43373Y44397D01*
X43189Y44213D02*
Y45200D01*
X44044Y44144D02*
X44200Y43989D01*
Y43363D02*
Y43989D01*
X44900Y41050D02*
X45997D01*
X46063Y40984D01*
X33092Y36514D02*
X33680D01*
X34388D01*
X35845Y34667D02*
Y35530D01*
X36632Y38286D02*
X37420D01*
X38013D01*
X34664Y38646D02*
Y39270D01*
X34611Y38593D02*
X34664Y38646D01*
X34611Y38548D02*
Y38593D01*
D33*
X44926Y37150D02*
X45472D01*
X45945Y37638D02*
X46299D01*
X45472Y37165D02*
X45945Y37638D01*
X46299D02*
X46575Y37913D01*
Y38996D01*
D34*
X47900Y39500D02*
D03*
Y38500D02*
D03*
Y36500D02*
D03*
Y37500D02*
D03*
X47913Y34717D02*
D03*
Y33717D02*
D03*
Y31717D02*
D03*
Y32717D02*
D03*
X32945Y44882D02*
D03*
X33945D02*
D03*
X35945D02*
D03*
X34945D02*
D03*
X36945D02*
D03*
X37945D02*
D03*
X30512Y36685D02*
D03*
Y37685D02*
D03*
Y39685D02*
D03*
Y38685D02*
D03*
Y40685D02*
D03*
Y41685D02*
D03*
X30551Y33740D02*
D03*
Y34740D02*
D03*
X46079Y44449D02*
D03*
X45079D02*
D03*
X47850Y44300D02*
D03*
Y43300D02*
D03*
Y41300D02*
D03*
Y42300D02*
D03*
D35*
X49450Y30750D02*
D03*
X29750D02*
D03*
Y45200D02*
D03*
X49500Y45250D02*
D03*
D36*
X35150Y37402D02*
D03*
X35400Y37874D02*
D03*
X35236Y41890D02*
D03*
X46063Y40984D02*
D03*
X46929Y32441D02*
D03*
X31575Y34724D02*
D03*
X42283Y35591D02*
D03*
X45666Y34716D02*
D03*
X43500Y34200D02*
D03*
X43450Y42550D02*
D03*
X45631Y33168D02*
D03*
X43700Y33700D02*
D03*
X44200D02*
D03*
Y38650D02*
D03*
X36900Y40850D02*
D03*
X39400Y40650D02*
D03*
X36250Y40100D02*
D03*
X39100Y39050D02*
D03*
X35350Y34500D02*
D03*
X34700Y34450D02*
D03*
X32450Y38950D02*
D03*
X32850Y38100D02*
D03*
X34861Y38489D02*
D03*
X35850Y38450D02*
D03*
X38200Y36900D02*
D03*
X34750Y37100D02*
D03*
X36500Y37200D02*
D03*
X43100Y40750D02*
D03*
X32485Y39435D02*
D03*
X45827Y35315D02*
D03*
X48150Y35866D02*
D03*
X44882Y42323D02*
D03*
X45748Y35906D02*
D03*
X45236Y40709D02*
D03*
X43701Y38716D02*
D03*
X39291Y31929D02*
D03*
X36417Y36339D02*
D03*
M02*
