G04 Layer_Color=32896*
%FSLAX24Y24*%
%MOIN*%
G70*
G01*
G75*
%ADD11C,0.0079*%
%ADD46C,0.0120*%
%ADD47C,0.0100*%
%ADD95C,0.0039*%
%ADD97C,0.0060*%
%ADD98C,0.0059*%
%ADD148C,0.0098*%
%ADD149C,0.0090*%
%ADD150C,0.0300*%
D11*
X53653Y24254D02*
Y24412D01*
X53968Y24254D02*
Y24412D01*
X62430Y17753D02*
Y18067D01*
X64036Y15407D02*
X64666D01*
X64036Y17376D02*
X64666D01*
Y15407D02*
Y17376D01*
X64036Y15407D02*
Y17376D01*
X53850Y29451D02*
Y29609D01*
X54165Y29451D02*
Y29609D01*
X53023Y30002D02*
Y30160D01*
X53338Y30002D02*
Y30160D01*
X52236Y30002D02*
Y30160D01*
X52551Y30002D02*
Y30160D01*
X50701Y28309D02*
Y28467D01*
X51016Y28309D02*
Y28467D01*
X49834Y28979D02*
Y29136D01*
X50149Y28979D02*
Y29136D01*
X47551Y24254D02*
Y24412D01*
X47866Y24254D02*
Y24412D01*
X45779Y23860D02*
X46094D01*
X47748Y29451D02*
Y29609D01*
X48063Y29451D02*
Y29609D01*
X46921Y30002D02*
Y30160D01*
X47236Y30002D02*
Y30160D01*
X46134Y30002D02*
Y30160D01*
X46449Y30002D02*
Y30160D01*
X44598Y28309D02*
Y28467D01*
X44913Y28309D02*
Y28467D01*
X43732Y28979D02*
Y29136D01*
X44047Y28979D02*
Y29136D01*
X41488Y24215D02*
Y24372D01*
X41803Y24215D02*
Y24372D01*
X41685Y29412D02*
Y29569D01*
X42000Y29412D02*
Y29569D01*
X40897Y29963D02*
Y30120D01*
X41212Y29963D02*
Y30120D01*
X40071Y29963D02*
Y30120D01*
X40386Y29963D02*
Y30120D01*
X38535Y28309D02*
Y28467D01*
X38850Y28309D02*
Y28467D01*
X39756Y23821D02*
X40071D01*
X37590Y28939D02*
Y29097D01*
X37905Y28939D02*
Y29097D01*
X35622Y29451D02*
Y29609D01*
X35937Y29451D02*
Y29609D01*
X34834Y30002D02*
Y30160D01*
X35149Y30002D02*
Y30160D01*
X34008Y30002D02*
Y30160D01*
X34323Y30002D02*
Y30160D01*
X32472Y28309D02*
Y28467D01*
X32787Y28309D02*
Y28467D01*
X31606Y28979D02*
Y29136D01*
X31921Y28979D02*
Y29136D01*
X35425Y24215D02*
Y24372D01*
X35740Y24215D02*
Y24372D01*
X33653Y23860D02*
X33968D01*
X29349Y24211D02*
Y24369D01*
X29664Y24211D02*
Y24369D01*
X27577Y23818D02*
X27892D01*
X28758Y29959D02*
Y30117D01*
X29073Y29959D02*
Y30117D01*
X29545Y29408D02*
Y29566D01*
X29860Y29408D02*
Y29566D01*
X27931Y29959D02*
Y30117D01*
X28246Y29959D02*
Y30117D01*
X26396Y28306D02*
Y28463D01*
X26711Y28306D02*
Y28463D01*
X25530Y28975D02*
Y29133D01*
X25845Y28975D02*
Y29133D01*
X21488Y23860D02*
X21803D01*
X23260Y24254D02*
Y24412D01*
X23575Y24254D02*
Y24412D01*
X23811Y28307D02*
X23969D01*
X23811Y27993D02*
X23969D01*
X23456Y29451D02*
Y29608D01*
X23771Y29451D02*
Y29608D01*
X21842Y30002D02*
Y30160D01*
X22157Y30002D02*
Y30160D01*
X20307Y28309D02*
Y28467D01*
X20622Y28309D02*
Y28467D01*
X19441Y28979D02*
Y29136D01*
X19756Y28979D02*
Y29136D01*
X17914Y28901D02*
X18072D01*
X17914Y29216D02*
X18072D01*
X18465Y27130D02*
Y27444D01*
X12206Y28071D02*
X12364D01*
X12206Y28386D02*
X12364D01*
X12206Y27284D02*
X12364D01*
X12206Y27599D02*
X12364D01*
X17985Y23154D02*
X18142D01*
X17985Y23469D02*
X18142D01*
X18536Y21382D02*
Y21697D01*
X11613Y24411D02*
Y24569D01*
X11927Y24411D02*
Y24569D01*
X13161Y24893D02*
X13319D01*
X13161Y25207D02*
X13319D01*
X12788Y23351D02*
X12945D01*
X12788Y23666D02*
X12945D01*
X12237Y22524D02*
X12394D01*
X12237Y22839D02*
X12394D01*
X12237Y21737D02*
X12394D01*
X12237Y22051D02*
X12394D01*
X13261Y19493D02*
X13419D01*
X13261Y19807D02*
X13419D01*
X13930Y20201D02*
X14087D01*
X13930Y20516D02*
X14087D01*
X13860Y25709D02*
X14017D01*
X13860Y26024D02*
X14017D01*
X51882Y23860D02*
X52197D01*
D46*
X12341Y25870D02*
X12370Y25840D01*
X50828Y30012D02*
X50858Y30042D01*
X44726Y30012D02*
X44756Y30042D01*
X38663Y30012D02*
X38693Y30042D01*
X32600Y30012D02*
X32630Y30042D01*
X26524Y30009D02*
X26553Y30038D01*
X20435Y30051D02*
X20464Y30081D01*
X12355Y20359D02*
X12384Y20329D01*
X51488Y29963D02*
X51517Y29992D01*
X45386Y29963D02*
X45415Y29992D01*
X39362Y29963D02*
X39392Y29992D01*
X33260Y29963D02*
X33289Y29992D01*
X27183Y29959D02*
X27213Y29989D01*
X21094Y30002D02*
X21124Y30032D01*
X12420Y26510D02*
X12449Y26480D01*
X12404Y21018D02*
X12434Y20989D01*
X65680Y27473D02*
Y28113D01*
X65467Y27900D01*
X65253Y28113D01*
Y27473D01*
X64934D02*
X64720D01*
X64614Y27580D01*
Y27793D01*
X64720Y27900D01*
X64934D01*
X65040Y27793D01*
Y27580D01*
X64934Y27473D01*
X64294Y28006D02*
Y27900D01*
X64400D01*
X64187D01*
X64294D01*
Y27580D01*
X64187Y27473D01*
X63761D02*
X63547D01*
X63441Y27580D01*
Y27793D01*
X63547Y27900D01*
X63761D01*
X63867Y27793D01*
Y27580D01*
X63761Y27473D01*
X63227Y27900D02*
Y27473D01*
Y27686D01*
X63121Y27793D01*
X63014Y27900D01*
X62908D01*
X61521Y28006D02*
X61628Y28113D01*
X61841D01*
X61948Y28006D01*
Y27580D01*
X61841Y27473D01*
X61628D01*
X61521Y27580D01*
X61201Y27473D02*
X60988D01*
X60882Y27580D01*
Y27793D01*
X60988Y27900D01*
X61201D01*
X61308Y27793D01*
Y27580D01*
X61201Y27473D01*
X60668D02*
Y27900D01*
X60348D01*
X60242Y27793D01*
Y27473D01*
X59922Y28006D02*
Y27900D01*
X60029D01*
X59815D01*
X59922D01*
Y27580D01*
X59815Y27473D01*
X59495Y27900D02*
Y27473D01*
Y27686D01*
X59389Y27793D01*
X59282Y27900D01*
X59175D01*
X58749Y27473D02*
X58536D01*
X58429Y27580D01*
Y27793D01*
X58536Y27900D01*
X58749D01*
X58856Y27793D01*
Y27580D01*
X58749Y27473D01*
X58216D02*
X58002D01*
X58109D01*
Y28113D01*
X58216D01*
X57683Y27473D02*
X57469D01*
X57576D01*
Y28113D01*
X57683D01*
X56830Y27473D02*
X57043D01*
X57149Y27580D01*
Y27793D01*
X57043Y27900D01*
X56830D01*
X56723Y27793D01*
Y27686D01*
X57149D01*
X56510Y27900D02*
Y27473D01*
Y27686D01*
X56403Y27793D01*
X56296Y27900D01*
X56190D01*
X65680Y27057D02*
Y26631D01*
X65467Y26417D01*
X65253Y26631D01*
Y27057D01*
X64614Y26417D02*
X65040D01*
X64614Y26844D01*
Y26950D01*
X64720Y27057D01*
X64934D01*
X65040Y26950D01*
X64400Y26417D02*
Y26524D01*
X64294D01*
Y26417D01*
X64400D01*
X63867Y26950D02*
X63761Y27057D01*
X63547D01*
X63441Y26950D01*
Y26524D01*
X63547Y26417D01*
X63761D01*
X63867Y26524D01*
Y26950D01*
X62588Y26417D02*
Y27057D01*
X62268D01*
X62161Y26950D01*
Y26737D01*
X62268Y26631D01*
X62588D01*
X62374D02*
X62161Y26417D01*
X61628D02*
X61841D01*
X61948Y26524D01*
Y26737D01*
X61841Y26844D01*
X61628D01*
X61521Y26737D01*
Y26631D01*
X61948D01*
X61308Y26844D02*
X61095Y26417D01*
X60882Y26844D01*
X60029Y26417D02*
Y26844D01*
X59815Y27057D01*
X59602Y26844D01*
Y26417D01*
Y26737D01*
X60029D01*
X65680Y24306D02*
Y24946D01*
X65467Y24732D01*
X65253Y24946D01*
Y24306D01*
X64934Y24732D02*
X64720D01*
X64614Y24626D01*
Y24306D01*
X64934D01*
X65040Y24412D01*
X64934Y24519D01*
X64614D01*
X63974Y24946D02*
Y24306D01*
X64294D01*
X64400Y24412D01*
Y24626D01*
X64294Y24732D01*
X63974D01*
X63441Y24306D02*
X63654D01*
X63761Y24412D01*
Y24626D01*
X63654Y24732D01*
X63441D01*
X63334Y24626D01*
Y24519D01*
X63761D01*
X62161Y24946D02*
X62374D01*
X62481Y24839D01*
Y24412D01*
X62374Y24306D01*
X62161D01*
X62055Y24412D01*
Y24839D01*
X62161Y24946D01*
X61841Y24306D02*
Y24732D01*
X61521D01*
X61415Y24626D01*
Y24306D01*
X61201Y24732D02*
X61095D01*
Y24626D01*
X61201D01*
Y24732D01*
Y24412D02*
X61095D01*
Y24306D01*
X61201D01*
Y24412D01*
X59602Y24946D02*
X60029D01*
Y24626D01*
X59815D01*
X60029D01*
Y24306D01*
X59069D02*
X59282D01*
X59389Y24412D01*
Y24626D01*
X59282Y24732D01*
X59069D01*
X58962Y24626D01*
Y24519D01*
X59389D01*
X58749Y24946D02*
Y24306D01*
X58429D01*
X58322Y24412D01*
Y24519D01*
Y24626D01*
X58429Y24732D01*
X58749D01*
X57469Y24306D02*
X57256D01*
X57363D01*
Y24946D01*
X57469Y24839D01*
X56936D02*
X56830Y24946D01*
X56616D01*
X56510Y24839D01*
Y24732D01*
X56616Y24626D01*
X56510Y24519D01*
Y24412D01*
X56616Y24306D01*
X56830D01*
X56936Y24412D01*
Y24519D01*
X56830Y24626D01*
X56936Y24732D01*
Y24839D01*
X56830Y24626D02*
X56616D01*
X56190Y24839D02*
Y24732D01*
X56296D01*
X56083D01*
X56190D01*
Y24412D01*
X56083Y24306D01*
X55763Y24946D02*
Y24306D01*
Y24626D01*
X55657Y24732D01*
X55443D01*
X55337Y24626D01*
Y24306D01*
X55017Y24199D02*
X54910Y24306D01*
Y24412D01*
X55017D01*
Y24306D01*
X54910D01*
X55017Y24199D01*
X55123Y24092D01*
X65253Y23250D02*
X65680D01*
X65253Y23677D01*
Y23783D01*
X65360Y23890D01*
X65573D01*
X65680Y23783D01*
X65040D02*
X64934Y23890D01*
X64720D01*
X64614Y23783D01*
Y23357D01*
X64720Y23250D01*
X64934D01*
X65040Y23357D01*
Y23783D01*
X64400Y23250D02*
X64187D01*
X64294D01*
Y23890D01*
X64400Y23783D01*
X63867D02*
X63761Y23890D01*
X63547D01*
X63441Y23783D01*
Y23677D01*
X63547Y23570D01*
X63441Y23463D01*
Y23357D01*
X63547Y23250D01*
X63761D01*
X63867Y23357D01*
Y23463D01*
X63761Y23570D01*
X63867Y23677D01*
Y23783D01*
X63761Y23570D02*
X63547D01*
D47*
X59860Y14090D02*
G03*
X59860Y14090I-50J0D01*
G01*
X28920Y20300D02*
G03*
X28920Y20300I-50J0D01*
G01*
X29280Y21500D02*
X38040D01*
Y19970D02*
Y21500D01*
X29300Y19970D02*
X38040D01*
X29280Y19950D02*
X29300Y19970D01*
X29280Y19950D02*
Y21500D01*
D95*
X48048Y26213D02*
G03*
X48235Y26213I93J0D01*
G01*
X41985D02*
G03*
X42172Y26213I93J0D01*
G01*
X35922D02*
G03*
X36109Y26213I93J0D01*
G01*
X29846Y26209D02*
G03*
X30033Y26209I93J0D01*
G01*
X23757Y26213D02*
G03*
X23944Y26213I93J0D01*
G01*
X16074Y29398D02*
G03*
X16074Y29585I0J93D01*
G01*
X16184Y23651D02*
G03*
X16184Y23838I0J93D01*
G01*
X54150Y26213D02*
G03*
X54337Y26213I93J0D01*
G01*
X13030Y25673D02*
Y25870D01*
X11730Y25673D02*
X13030D01*
X11730D02*
Y26067D01*
X13030D01*
Y25870D02*
Y26067D01*
X50858Y29353D02*
X51055D01*
Y30652D01*
X50661D02*
X51055D01*
X50661Y29353D02*
Y30652D01*
Y29353D02*
X50858D01*
X44559D02*
X44756D01*
X44559D02*
Y30652D01*
X44953D01*
Y29353D02*
Y30652D01*
X44756Y29353D02*
X44953D01*
X38693D02*
X38890D01*
Y30652D01*
X38496D02*
X38890D01*
X38496Y29353D02*
Y30652D01*
Y29353D02*
X38693D01*
X32433D02*
X32630D01*
X32433D02*
Y30652D01*
X32827D01*
Y29353D02*
Y30652D01*
X32630Y29353D02*
X32827D01*
X26553Y29349D02*
X26750D01*
Y30648D01*
X26356D02*
X26750D01*
X26356Y29349D02*
Y30648D01*
Y29349D02*
X26553D01*
X20267Y29392D02*
X20464D01*
X20267D02*
Y30691D01*
X20661D01*
Y29392D02*
Y30691D01*
X20464Y29392D02*
X20661D01*
X13044Y20359D02*
Y20555D01*
X11745D02*
X13044D01*
X11745Y20162D02*
Y20555D01*
Y20162D02*
X13044D01*
Y20359D01*
X51488Y30652D02*
X51685D01*
Y29353D02*
Y30652D01*
X51291Y29353D02*
X51685D01*
X51291D02*
Y30652D01*
X51488D01*
X45189D02*
X45386D01*
X45189Y29353D02*
Y30652D01*
Y29353D02*
X45582D01*
Y30652D01*
X45386D02*
X45582D01*
X39362D02*
X39559D01*
Y29353D02*
Y30652D01*
X39165Y29353D02*
X39559D01*
X39165D02*
Y30652D01*
X39362D01*
X33063D02*
X33260D01*
X33063Y29353D02*
Y30652D01*
Y29353D02*
X33456D01*
Y30652D01*
X33260D02*
X33456D01*
X27183Y30648D02*
X27380D01*
Y29349D02*
Y30648D01*
X26986Y29349D02*
X27380D01*
X26986D02*
Y30648D01*
X27183D01*
X20897Y30691D02*
X21094D01*
X20897Y29392D02*
Y30691D01*
Y29392D02*
X21291D01*
Y30691D01*
X21094D02*
X21291D01*
X11760Y26480D02*
Y26677D01*
X13060D01*
Y26283D02*
Y26677D01*
X11760Y26283D02*
X13060D01*
X11760D02*
Y26480D01*
X11745Y20792D02*
Y20989D01*
Y20792D02*
X13044D01*
Y21185D01*
X11745D02*
X13044D01*
X11745Y20989D02*
Y21185D01*
X66280Y10104D02*
Y14671D01*
X60059D02*
X66280D01*
X60059Y10104D02*
Y14671D01*
Y10104D02*
X66280D01*
X48023Y26213D02*
X48235D01*
X48048D02*
X48260D01*
Y25091D02*
Y26213D01*
X48023Y25091D02*
X48260D01*
X48023D02*
Y26213D01*
X41960D02*
X42172D01*
X41985D02*
X42197D01*
Y25091D02*
Y26213D01*
X41960Y25091D02*
X42197D01*
X41960D02*
Y26213D01*
X35897D02*
X36109D01*
X35922D02*
X36134D01*
Y25091D02*
Y26213D01*
X35897Y25091D02*
X36134D01*
X35897D02*
Y26213D01*
X29821Y26209D02*
X30033D01*
X29846D02*
X30057D01*
Y25087D02*
Y26209D01*
X29821Y25087D02*
X30057D01*
X29821D02*
Y26209D01*
X23732Y26213D02*
X23944D01*
X23757D02*
X23968D01*
Y25091D02*
Y26213D01*
X23732Y25091D02*
X23968D01*
X23732D02*
Y26213D01*
X16074Y29374D02*
Y29585D01*
Y29398D02*
Y29610D01*
X17196D01*
Y29374D02*
Y29610D01*
X16074Y29374D02*
X17196D01*
X16184Y23626D02*
Y23838D01*
Y23651D02*
Y23863D01*
X17306D01*
Y23626D02*
Y23863D01*
X16184Y23626D02*
X17306D01*
X54126Y26213D02*
X54337D01*
X54150D02*
X54362D01*
Y25091D02*
Y26213D01*
X54126Y25091D02*
X54362D01*
X54126D02*
Y26213D01*
D97*
X12272Y25880D02*
X12429Y26037D01*
X12272Y25870D02*
X12429Y25713D01*
Y26037D01*
X50701Y29953D02*
X51025D01*
X50701D02*
X50858Y30110D01*
X50868D02*
X51025Y29953D01*
X44766Y30110D02*
X44923Y29953D01*
X44598D02*
X44756Y30110D01*
X44598Y29953D02*
X44923D01*
X38535D02*
X38860D01*
X38535D02*
X38693Y30110D01*
X38703D02*
X38860Y29953D01*
X32640Y30110D02*
X32797Y29953D01*
X32472D02*
X32630Y30110D01*
X32472Y29953D02*
X32797D01*
X26396Y29950D02*
X26721D01*
X26396D02*
X26553Y30107D01*
X26563D02*
X26721Y29950D01*
X20474Y30150D02*
X20632Y29992D01*
X20307D02*
X20464Y30150D01*
X20307Y29992D02*
X20632D01*
X12443Y20201D02*
Y20526D01*
X12286Y20359D02*
X12443Y20201D01*
X12286Y20368D02*
X12443Y20526D01*
X51321Y30051D02*
X51478Y29894D01*
X51488D02*
X51645Y30051D01*
X51321D02*
X51645D01*
X45218D02*
X45543D01*
X45386Y29894D02*
X45543Y30051D01*
X45218D02*
X45376Y29894D01*
X39195Y30051D02*
X39352Y29894D01*
X39362D02*
X39519Y30051D01*
X39195D02*
X39519D01*
X33092D02*
X33417D01*
X33260Y29894D02*
X33417Y30051D01*
X33092D02*
X33250Y29894D01*
X27016Y30048D02*
X27173Y29890D01*
X27183D02*
X27341Y30048D01*
X27016D02*
X27341D01*
X20927Y30091D02*
X21252D01*
X21094Y29933D02*
X21252Y30091D01*
X20927D02*
X21084Y29933D01*
X12361Y26313D02*
X12518Y26470D01*
X12361Y26637D02*
X12518Y26480D01*
X12361Y26313D02*
Y26637D01*
X12345Y20821D02*
Y21146D01*
X12502Y20989D01*
X12345Y20821D02*
X12502Y20979D01*
X37615Y19146D02*
X37669Y19199D01*
X37775D01*
X37829Y19146D01*
Y19093D01*
X37775Y19040D01*
X37669D01*
X37615Y18986D01*
Y18933D01*
X37669Y18880D01*
X37775D01*
X37829Y18933D01*
X37455Y19146D02*
Y19093D01*
X37509D01*
X37402D01*
X37455D01*
Y18933D01*
X37402Y18880D01*
X37189Y19093D02*
X37082D01*
X37029Y19040D01*
Y18880D01*
X37189D01*
X37242Y18933D01*
X37189Y18986D01*
X37029D01*
X36922Y18880D02*
Y19093D01*
X36762D01*
X36709Y19040D01*
Y18880D01*
X36389Y19199D02*
Y18880D01*
X36549D01*
X36602Y18933D01*
Y19040D01*
X36549Y19093D01*
X36389D01*
X36229D02*
X36123D01*
X36069Y19040D01*
Y18880D01*
X36229D01*
X36282Y18933D01*
X36229Y18986D01*
X36069D01*
X35963Y19093D02*
Y18880D01*
Y18986D01*
X35909Y19040D01*
X35856Y19093D01*
X35803D01*
X35429Y19199D02*
Y18880D01*
X35589D01*
X35643Y18933D01*
Y19040D01*
X35589Y19093D01*
X35429D01*
X34790Y19199D02*
X34896Y19146D01*
X35003Y19040D01*
Y18933D01*
X34950Y18880D01*
X34843D01*
X34790Y18933D01*
Y18986D01*
X34843Y19040D01*
X35003D01*
X34683Y18773D02*
Y19093D01*
X34523D01*
X34470Y19040D01*
Y18933D01*
X34523Y18880D01*
X34683D01*
X34363D02*
X34256D01*
X34310D01*
Y19093D01*
X34363D01*
X34097Y18880D02*
Y19093D01*
X33937D01*
X33883Y19040D01*
Y18880D01*
X33457Y19146D02*
X33403Y19199D01*
X33297D01*
X33243Y19146D01*
Y19093D01*
X33297Y19040D01*
X33350D01*
X33297D01*
X33243Y18986D01*
Y18933D01*
X33297Y18880D01*
X33403D01*
X33457Y18933D01*
X33137Y19093D02*
X32924Y18880D01*
X33030Y18986D01*
X32924Y19093D01*
X33137Y18880D01*
X32604D02*
X32817D01*
X32604Y19093D01*
Y19146D01*
X32657Y19199D01*
X32764D01*
X32817Y19146D01*
X31964D02*
X32017Y19199D01*
X32124D01*
X32177Y19146D01*
Y18933D01*
X32124Y18880D01*
X32017D01*
X31964Y18933D01*
X31804Y18880D02*
X31697D01*
X31644Y18933D01*
Y19040D01*
X31697Y19093D01*
X31804D01*
X31857Y19040D01*
Y18933D01*
X31804Y18880D01*
X31537D02*
Y19093D01*
X31377D01*
X31324Y19040D01*
Y18880D01*
X31217D02*
Y19093D01*
X31058D01*
X31004Y19040D01*
Y18880D01*
X30738D02*
X30844D01*
X30898Y18933D01*
Y19040D01*
X30844Y19093D01*
X30738D01*
X30684Y19040D01*
Y18986D01*
X30898D01*
X30364Y19093D02*
X30524D01*
X30578Y19040D01*
Y18933D01*
X30524Y18880D01*
X30364D01*
X30204Y19146D02*
Y19093D01*
X30258D01*
X30151D01*
X30204D01*
Y18933D01*
X30151Y18880D01*
X29938D02*
X29831D01*
X29778Y18933D01*
Y19040D01*
X29831Y19093D01*
X29938D01*
X29991Y19040D01*
Y18933D01*
X29938Y18880D01*
X29671Y19093D02*
Y18880D01*
Y18986D01*
X29618Y19040D01*
X29565Y19093D01*
X29511D01*
X38842Y18565D02*
Y18245D01*
X38735Y18352D01*
X38628Y18245D01*
Y18565D01*
X38522D02*
Y18245D01*
Y18405D01*
X38468Y18458D01*
X38362D01*
X38309Y18405D01*
Y18245D01*
X38042D02*
X38149D01*
X38202Y18298D01*
Y18405D01*
X38149Y18458D01*
X38042D01*
X37989Y18405D01*
Y18352D01*
X38202D01*
X37882Y18245D02*
Y18458D01*
X37722D01*
X37669Y18405D01*
Y18245D01*
X37242D02*
X37136D01*
X37189D01*
Y18565D01*
X37242D01*
X36922Y18245D02*
X36816D01*
X36762Y18298D01*
Y18405D01*
X36816Y18458D01*
X36922D01*
X36976Y18405D01*
Y18298D01*
X36922Y18245D01*
X36602D02*
X36496D01*
X36442Y18298D01*
Y18405D01*
X36496Y18458D01*
X36602D01*
X36656Y18405D01*
Y18298D01*
X36602Y18245D01*
X36336D02*
Y18565D01*
Y18352D02*
X36176Y18458D01*
X36336Y18352D02*
X36176Y18245D01*
X36016D02*
X35909D01*
X35963D01*
Y18458D01*
X36016D01*
X35749Y18245D02*
Y18458D01*
X35589D01*
X35536Y18405D01*
Y18245D01*
X35323Y18138D02*
X35269D01*
X35216Y18192D01*
Y18458D01*
X35376D01*
X35429Y18405D01*
Y18298D01*
X35376Y18245D01*
X35216D01*
X34790D02*
X34630D01*
X34576Y18298D01*
X34630Y18352D01*
X34736D01*
X34790Y18405D01*
X34736Y18458D01*
X34576D01*
X34416Y18512D02*
Y18458D01*
X34470D01*
X34363D01*
X34416D01*
Y18298D01*
X34363Y18245D01*
X34203Y18458D02*
Y18245D01*
Y18352D01*
X34150Y18405D01*
X34097Y18458D01*
X34043D01*
X33830D02*
X33723D01*
X33670Y18405D01*
Y18245D01*
X33830D01*
X33883Y18298D01*
X33830Y18352D01*
X33670D01*
X33563Y18245D02*
X33457D01*
X33510D01*
Y18458D01*
X33563D01*
X33190Y18138D02*
X33137D01*
X33084Y18192D01*
Y18458D01*
X33243D01*
X33297Y18405D01*
Y18298D01*
X33243Y18245D01*
X33084D01*
X32977Y18565D02*
Y18245D01*
Y18405D01*
X32924Y18458D01*
X32817D01*
X32764Y18405D01*
Y18245D01*
X32604Y18512D02*
Y18458D01*
X32657D01*
X32550D01*
X32604D01*
Y18298D01*
X32550Y18245D01*
X32017Y18458D02*
X31911D01*
X31857Y18405D01*
Y18245D01*
X32017D01*
X32071Y18298D01*
X32017Y18352D01*
X31857D01*
X31697Y18512D02*
Y18458D01*
X31751D01*
X31644D01*
X31697D01*
Y18298D01*
X31644Y18245D01*
X30951Y18458D02*
X31111D01*
X31164Y18405D01*
Y18298D01*
X31111Y18245D01*
X30951D01*
X30791D02*
X30684D01*
X30631Y18298D01*
Y18405D01*
X30684Y18458D01*
X30791D01*
X30844Y18405D01*
Y18298D01*
X30791Y18245D01*
X30524D02*
Y18458D01*
X30364D01*
X30311Y18405D01*
Y18245D01*
X30204D02*
Y18458D01*
X30045D01*
X29991Y18405D01*
Y18245D01*
X29725D02*
X29831D01*
X29885Y18298D01*
Y18405D01*
X29831Y18458D01*
X29725D01*
X29671Y18405D01*
Y18352D01*
X29885D01*
X29351Y18458D02*
X29511D01*
X29565Y18405D01*
Y18298D01*
X29511Y18245D01*
X29351D01*
X29191Y18512D02*
Y18458D01*
X29245D01*
X29138D01*
X29191D01*
Y18298D01*
X29138Y18245D01*
X28925D02*
X28818D01*
X28765Y18298D01*
Y18405D01*
X28818Y18458D01*
X28925D01*
X28978Y18405D01*
Y18298D01*
X28925Y18245D01*
X28658Y18458D02*
Y18245D01*
Y18352D01*
X28605Y18405D01*
X28552Y18458D01*
X28498D01*
X39455Y17877D02*
X39242Y17664D01*
X39455D02*
X39242Y17877D01*
X39455Y17771D02*
X39242D01*
X39348Y17664D02*
Y17877D01*
X39135Y17930D02*
Y17611D01*
X38975D01*
X38922Y17664D01*
Y17877D01*
X38975Y17930D01*
X39135D01*
X38762Y17611D02*
X38655D01*
X38602Y17664D01*
Y17771D01*
X38655Y17824D01*
X38762D01*
X38815Y17771D01*
Y17664D01*
X38762Y17611D01*
X38442Y17877D02*
Y17824D01*
X38495D01*
X38388D01*
X38442D01*
Y17664D01*
X38388Y17611D01*
X37909D02*
X37802D01*
X37855D01*
Y17824D01*
X37909D01*
X37642Y17611D02*
X37482D01*
X37429Y17664D01*
X37482Y17717D01*
X37589D01*
X37642Y17771D01*
X37589Y17824D01*
X37429D01*
X37002Y17611D02*
X36896D01*
X36949D01*
Y17930D01*
X37002D01*
X36736Y17611D02*
X36629D01*
X36682D01*
Y17824D01*
X36736D01*
X36469Y17611D02*
Y17824D01*
X36309D01*
X36256Y17771D01*
Y17611D01*
X35989D02*
X36096D01*
X36149Y17664D01*
Y17771D01*
X36096Y17824D01*
X35989D01*
X35936Y17771D01*
Y17717D01*
X36149D01*
X35616Y17930D02*
Y17611D01*
X35776D01*
X35829Y17664D01*
Y17771D01*
X35776Y17824D01*
X35616D01*
X35190D02*
Y17664D01*
X35136Y17611D01*
X35083Y17664D01*
X35030Y17611D01*
X34976Y17664D01*
Y17824D01*
X34870Y17611D02*
X34763D01*
X34816D01*
Y17824D01*
X34870D01*
X34550Y17877D02*
Y17824D01*
X34603D01*
X34496D01*
X34550D01*
Y17664D01*
X34496Y17611D01*
X34336Y17930D02*
Y17611D01*
Y17771D01*
X34283Y17824D01*
X34177D01*
X34123Y17771D01*
Y17611D01*
X33643Y17877D02*
Y17824D01*
X33697D01*
X33590D01*
X33643D01*
Y17664D01*
X33590Y17611D01*
X33430Y17930D02*
Y17611D01*
Y17771D01*
X33377Y17824D01*
X33270D01*
X33217Y17771D01*
Y17611D01*
X32950D02*
X33057D01*
X33110Y17664D01*
Y17771D01*
X33057Y17824D01*
X32950D01*
X32897Y17771D01*
Y17717D01*
X33110D01*
X32470Y17504D02*
Y17824D01*
X32310D01*
X32257Y17771D01*
Y17664D01*
X32310Y17611D01*
X32470D01*
X32150D02*
X32044D01*
X32097D01*
Y17824D01*
X32150D01*
X31884Y17611D02*
Y17824D01*
X31724D01*
X31671Y17771D01*
Y17611D01*
X31564D02*
X31404D01*
X31351Y17664D01*
X31404Y17717D01*
X31511D01*
X31564Y17771D01*
X31511Y17824D01*
X31351D01*
X30871Y17611D02*
X30764D01*
X30711Y17664D01*
Y17771D01*
X30764Y17824D01*
X30871D01*
X30924Y17771D01*
Y17664D01*
X30871Y17611D01*
X30604D02*
Y17824D01*
X30444D01*
X30391Y17771D01*
Y17611D01*
X29911Y17877D02*
Y17824D01*
X29965D01*
X29858D01*
X29911D01*
Y17664D01*
X29858Y17611D01*
X29698Y17930D02*
Y17611D01*
Y17771D01*
X29645Y17824D01*
X29538D01*
X29485Y17771D01*
Y17611D01*
X29218D02*
X29325D01*
X29378Y17664D01*
Y17771D01*
X29325Y17824D01*
X29218D01*
X29165Y17771D01*
Y17717D01*
X29378D01*
X28738Y17611D02*
Y17930D01*
X28578D01*
X28525Y17877D01*
Y17771D01*
X28578Y17717D01*
X28738D01*
X28205Y17877D02*
X28258Y17930D01*
X28365D01*
X28418Y17877D01*
Y17664D01*
X28365Y17611D01*
X28258D01*
X28205Y17664D01*
X28098Y17930D02*
Y17611D01*
X27939D01*
X27885Y17664D01*
Y17717D01*
X27939Y17771D01*
X28098D01*
X27939D01*
X27885Y17824D01*
Y17877D01*
X27939Y17930D01*
X28098D01*
X66433Y14397D02*
X66380Y14450D01*
Y14557D01*
X66433Y14610D01*
X66647D01*
X66700Y14557D01*
Y14450D01*
X66647Y14397D01*
X66700Y14290D02*
X66380D01*
X66700Y14077D01*
X66380D01*
X66700Y13970D02*
Y13864D01*
Y13917D01*
X66380D01*
X66433Y13970D01*
Y13704D02*
X66380Y13650D01*
Y13544D01*
X66433Y13490D01*
X66487D01*
X66540Y13544D01*
Y13597D01*
Y13544D01*
X66593Y13490D01*
X66647D01*
X66700Y13544D01*
Y13650D01*
X66647Y13704D01*
X53470Y24800D02*
X53150D01*
Y24640D01*
X53203Y24587D01*
X53310D01*
X53363Y24640D01*
Y24800D01*
Y24693D02*
X53470Y24587D01*
X53150Y24480D02*
Y24267D01*
X53203D01*
X53417Y24480D01*
X53470D01*
X53203Y24160D02*
X53150Y24107D01*
Y24000D01*
X53203Y23947D01*
X53417D01*
X53470Y24000D01*
Y24107D01*
X53417Y24160D01*
X53203D01*
X62773Y18597D02*
X62720Y18650D01*
X62613D01*
X62560Y18597D01*
Y18383D01*
X62613Y18330D01*
X62720D01*
X62773Y18383D01*
X63040Y18330D02*
Y18650D01*
X62880Y18490D01*
X63093D01*
X63200Y18597D02*
X63253Y18650D01*
X63360D01*
X63413Y18597D01*
Y18543D01*
X63360Y18490D01*
X63306D01*
X63360D01*
X63413Y18437D01*
Y18383D01*
X63360Y18330D01*
X63253D01*
X63200Y18383D01*
X64870Y17850D02*
Y17583D01*
X64923Y17530D01*
X65030D01*
X65083Y17583D01*
Y17850D01*
X65403Y17530D02*
X65190D01*
X65403Y17743D01*
Y17797D01*
X65350Y17850D01*
X65243D01*
X65190Y17797D01*
X65723Y17850D02*
X65616Y17797D01*
X65510Y17690D01*
Y17583D01*
X65563Y17530D01*
X65670D01*
X65723Y17583D01*
Y17637D01*
X65670Y17690D01*
X65510D01*
X54290Y29110D02*
X54610D01*
Y29270D01*
X54557Y29323D01*
X54450D01*
X54397Y29270D01*
Y29110D01*
Y29217D02*
X54290Y29323D01*
X54610Y29643D02*
X54557Y29537D01*
X54450Y29430D01*
X54343D01*
X54290Y29483D01*
Y29590D01*
X54343Y29643D01*
X54397D01*
X54450Y29590D01*
Y29430D01*
X54343Y29750D02*
X54290Y29803D01*
Y29910D01*
X54343Y29963D01*
X54557D01*
X54610Y29910D01*
Y29803D01*
X54557Y29750D01*
X54503D01*
X54450Y29803D01*
Y29963D01*
X53430Y29670D02*
X53750D01*
Y29830D01*
X53697Y29883D01*
X53590D01*
X53537Y29830D01*
Y29670D01*
Y29777D02*
X53430Y29883D01*
X53750Y29990D02*
Y30203D01*
X53697D01*
X53483Y29990D01*
X53430D01*
Y30310D02*
Y30416D01*
Y30363D01*
X53750D01*
X53697Y30310D01*
X52620Y29710D02*
X52940D01*
Y29870D01*
X52887Y29923D01*
X52780D01*
X52727Y29870D01*
Y29710D01*
Y29817D02*
X52620Y29923D01*
X52940Y30030D02*
Y30243D01*
X52887D01*
X52673Y30030D01*
X52620D01*
Y30563D02*
Y30350D01*
X52833Y30563D01*
X52887D01*
X52940Y30510D01*
Y30403D01*
X52887Y30350D01*
X52060Y29860D02*
X51740D01*
Y30020D01*
X51793Y30073D01*
X52007D01*
X52060Y30020D01*
Y29860D01*
X51740Y30340D02*
X52060D01*
X51900Y30180D01*
Y30393D01*
X50280Y30330D02*
X50600D01*
Y30170D01*
X50547Y30117D01*
X50333D01*
X50280Y30170D01*
Y30330D01*
Y29797D02*
Y30010D01*
X50440D01*
X50387Y29903D01*
Y29850D01*
X50440Y29797D01*
X50547D01*
X50600Y29850D01*
Y29957D01*
X50547Y30010D01*
X50610Y29240D02*
X50290D01*
Y29080D01*
X50343Y29027D01*
X50450D01*
X50503Y29080D01*
Y29240D01*
Y29133D02*
X50610Y29027D01*
X50290Y28920D02*
Y28707D01*
X50343D01*
X50557Y28920D01*
X50610D01*
X50343Y28600D02*
X50290Y28547D01*
Y28440D01*
X50343Y28387D01*
X50397D01*
X50450Y28440D01*
Y28494D01*
Y28440D01*
X50503Y28387D01*
X50557D01*
X50610Y28440D01*
Y28547D01*
X50557Y28600D01*
X49670Y29520D02*
X49350D01*
Y29360D01*
X49403Y29307D01*
X49510D01*
X49563Y29360D01*
Y29520D01*
Y29413D02*
X49670Y29307D01*
X49350Y29200D02*
Y28987D01*
X49403D01*
X49617Y29200D01*
X49670D01*
Y28720D02*
X49350D01*
X49510Y28880D01*
Y28667D01*
X48017Y26463D02*
Y26677D01*
X48070Y26730D01*
X48177D01*
X48230Y26677D01*
Y26463D01*
X48177Y26410D01*
X48070D01*
X48123Y26517D02*
X48017Y26410D01*
X48070D02*
X48017Y26463D01*
X47697Y26410D02*
X47910D01*
X47697Y26623D01*
Y26677D01*
X47750Y26730D01*
X47857D01*
X47910Y26677D01*
X47400Y24790D02*
X47080D01*
Y24630D01*
X47133Y24577D01*
X47240D01*
X47293Y24630D01*
Y24790D01*
Y24683D02*
X47400Y24577D01*
X47080Y24470D02*
Y24257D01*
X47133D01*
X47347Y24470D01*
X47400D01*
X47080Y23937D02*
X47133Y24044D01*
X47240Y24150D01*
X47347D01*
X47400Y24097D01*
Y23990D01*
X47347Y23937D01*
X47293D01*
X47240Y23990D01*
Y24150D01*
X45383Y24907D02*
X45330Y24960D01*
Y25067D01*
X45383Y25120D01*
X45597D01*
X45650Y25067D01*
Y24960D01*
X45597Y24907D01*
X45650Y24640D02*
X45330D01*
X45490Y24800D01*
Y24587D01*
X45330Y24267D02*
Y24480D01*
X45490D01*
X45437Y24374D01*
Y24320D01*
X45490Y24267D01*
X45597D01*
X45650Y24320D01*
Y24427D01*
X45597Y24480D01*
X48200Y29040D02*
X48520D01*
Y29200D01*
X48467Y29253D01*
X48360D01*
X48307Y29200D01*
Y29040D01*
Y29147D02*
X48200Y29253D01*
X48520Y29360D02*
Y29573D01*
X48467D01*
X48253Y29360D01*
X48200D01*
X48520Y29893D02*
Y29680D01*
X48360D01*
X48413Y29786D01*
Y29840D01*
X48360Y29893D01*
X48253D01*
X48200Y29840D01*
Y29733D01*
X48253Y29680D01*
X47660Y30380D02*
X47340D01*
Y30220D01*
X47393Y30167D01*
X47500D01*
X47553Y30220D01*
Y30380D01*
Y30273D02*
X47660Y30167D01*
X47340Y30060D02*
Y29847D01*
X47393D01*
X47607Y30060D01*
X47660D01*
X47340Y29740D02*
Y29527D01*
X47393D01*
X47607Y29740D01*
X47660D01*
X46510Y29680D02*
X46830D01*
Y29840D01*
X46777Y29893D01*
X46670D01*
X46617Y29840D01*
Y29680D01*
Y29787D02*
X46510Y29893D01*
X46830Y30000D02*
Y30213D01*
X46777D01*
X46563Y30000D01*
X46510D01*
X46777Y30320D02*
X46830Y30373D01*
Y30480D01*
X46777Y30533D01*
X46723D01*
X46670Y30480D01*
X46617Y30533D01*
X46563D01*
X46510Y30480D01*
Y30373D01*
X46563Y30320D01*
X46617D01*
X46670Y30373D01*
X46723Y30320D01*
X46777D01*
X46670Y30373D02*
Y30480D01*
X45940Y29710D02*
X45620D01*
Y29870D01*
X45673Y29923D01*
X45887D01*
X45940Y29870D01*
Y29710D01*
Y30243D02*
X45887Y30137D01*
X45780Y30030D01*
X45673D01*
X45620Y30083D01*
Y30190D01*
X45673Y30243D01*
X45727D01*
X45780Y30190D01*
Y30030D01*
X44190Y30190D02*
X44510D01*
Y30030D01*
X44457Y29977D01*
X44243D01*
X44190Y30030D01*
Y30190D01*
Y29870D02*
Y29657D01*
X44243D01*
X44457Y29870D01*
X44510D01*
X44500Y29200D02*
X44180D01*
Y29040D01*
X44233Y28987D01*
X44340D01*
X44393Y29040D01*
Y29200D01*
Y29093D02*
X44500Y28987D01*
X44180Y28880D02*
Y28667D01*
X44233D01*
X44447Y28880D01*
X44500D01*
X44447Y28560D02*
X44500Y28507D01*
Y28400D01*
X44447Y28347D01*
X44233D01*
X44180Y28400D01*
Y28507D01*
X44233Y28560D01*
X44287D01*
X44340Y28507D01*
Y28347D01*
X43600Y29410D02*
X43280D01*
Y29250D01*
X43333Y29197D01*
X43440D01*
X43493Y29250D01*
Y29410D01*
Y29303D02*
X43600Y29197D01*
X43333Y29090D02*
X43280Y29037D01*
Y28930D01*
X43333Y28877D01*
X43387D01*
X43440Y28930D01*
X43493Y28877D01*
X43547D01*
X43600Y28930D01*
Y29037D01*
X43547Y29090D01*
X43493D01*
X43440Y29037D01*
X43387Y29090D01*
X43333D01*
X43440Y29037D02*
Y28930D01*
X43333Y28770D02*
X43280Y28717D01*
Y28610D01*
X43333Y28557D01*
X43547D01*
X43600Y28610D01*
Y28717D01*
X43547Y28770D01*
X43333D01*
X41787Y26423D02*
Y26637D01*
X41840Y26690D01*
X41947D01*
X42000Y26637D01*
Y26423D01*
X41947Y26370D01*
X41840D01*
X41893Y26477D02*
X41787Y26370D01*
X41840D02*
X41787Y26423D01*
X41680Y26637D02*
X41627Y26690D01*
X41520D01*
X41467Y26637D01*
Y26583D01*
X41520Y26530D01*
X41573D01*
X41520D01*
X41467Y26477D01*
Y26423D01*
X41520Y26370D01*
X41627D01*
X41680Y26423D01*
X41360Y24770D02*
X41040D01*
Y24610D01*
X41093Y24557D01*
X41200D01*
X41253Y24610D01*
Y24770D01*
Y24663D02*
X41360Y24557D01*
X41093Y24450D02*
X41040Y24397D01*
Y24290D01*
X41093Y24237D01*
X41147D01*
X41200Y24290D01*
X41253Y24237D01*
X41307D01*
X41360Y24290D01*
Y24397D01*
X41307Y24450D01*
X41253D01*
X41200Y24397D01*
X41147Y24450D01*
X41093D01*
X41200Y24397D02*
Y24290D01*
X41360Y23917D02*
Y24130D01*
X41147Y23917D01*
X41093D01*
X41040Y23970D01*
Y24077D01*
X41093Y24130D01*
X42150Y29170D02*
X42470D01*
Y29330D01*
X42417Y29383D01*
X42310D01*
X42257Y29330D01*
Y29170D01*
Y29277D02*
X42150Y29383D01*
X42417Y29490D02*
X42470Y29543D01*
Y29650D01*
X42417Y29703D01*
X42363D01*
X42310Y29650D01*
X42257Y29703D01*
X42203D01*
X42150Y29650D01*
Y29543D01*
X42203Y29490D01*
X42257D01*
X42310Y29543D01*
X42363Y29490D01*
X42417D01*
X42310Y29543D02*
Y29650D01*
X42150Y29810D02*
Y29916D01*
Y29863D01*
X42470D01*
X42417Y29810D01*
X41330Y29490D02*
X41650D01*
Y29650D01*
X41597Y29703D01*
X41490D01*
X41437Y29650D01*
Y29490D01*
Y29597D02*
X41330Y29703D01*
X41597Y29810D02*
X41650Y29863D01*
Y29970D01*
X41597Y30023D01*
X41543D01*
X41490Y29970D01*
X41437Y30023D01*
X41383D01*
X41330Y29970D01*
Y29863D01*
X41383Y29810D01*
X41437D01*
X41490Y29863D01*
X41543Y29810D01*
X41597D01*
X41490Y29863D02*
Y29970D01*
X41597Y30130D02*
X41650Y30183D01*
Y30290D01*
X41597Y30343D01*
X41543D01*
X41490Y30290D01*
Y30236D01*
Y30290D01*
X41437Y30343D01*
X41383D01*
X41330Y30290D01*
Y30183D01*
X41383Y30130D01*
X40500Y29690D02*
X40820D01*
Y29850D01*
X40767Y29903D01*
X40660D01*
X40607Y29850D01*
Y29690D01*
Y29797D02*
X40500Y29903D01*
X40767Y30010D02*
X40820Y30063D01*
Y30170D01*
X40767Y30223D01*
X40713D01*
X40660Y30170D01*
X40607Y30223D01*
X40553D01*
X40500Y30170D01*
Y30063D01*
X40553Y30010D01*
X40607D01*
X40660Y30063D01*
X40713Y30010D01*
X40767D01*
X40660Y30063D02*
Y30170D01*
X40500Y30490D02*
X40820D01*
X40660Y30330D01*
Y30543D01*
X39940Y29970D02*
X39620D01*
Y30130D01*
X39673Y30183D01*
X39887D01*
X39940Y30130D01*
Y29970D01*
X39887Y30290D02*
X39940Y30343D01*
Y30450D01*
X39887Y30503D01*
X39833D01*
X39780Y30450D01*
X39727Y30503D01*
X39673D01*
X39620Y30450D01*
Y30343D01*
X39673Y30290D01*
X39727D01*
X39780Y30343D01*
X39833Y30290D01*
X39887D01*
X39780Y30343D02*
Y30450D01*
X38140Y30260D02*
X38460D01*
Y30100D01*
X38407Y30047D01*
X38193D01*
X38140Y30100D01*
Y30260D01*
X38407Y29940D02*
X38460Y29887D01*
Y29780D01*
X38407Y29727D01*
X38193D01*
X38140Y29780D01*
Y29887D01*
X38193Y29940D01*
X38247D01*
X38300Y29887D01*
Y29727D01*
X38410Y29000D02*
X38090D01*
Y28840D01*
X38143Y28787D01*
X38250D01*
X38303Y28840D01*
Y29000D01*
Y28893D02*
X38410Y28787D01*
X38143Y28680D02*
X38090Y28627D01*
Y28520D01*
X38143Y28467D01*
X38197D01*
X38250Y28520D01*
X38303Y28467D01*
X38357D01*
X38410Y28520D01*
Y28627D01*
X38357Y28680D01*
X38303D01*
X38250Y28627D01*
X38197Y28680D01*
X38143D01*
X38250Y28627D02*
Y28520D01*
X38090Y28147D02*
Y28360D01*
X38250D01*
X38197Y28254D01*
Y28200D01*
X38250Y28147D01*
X38357D01*
X38410Y28200D01*
Y28307D01*
X38357Y28360D01*
X39323Y24857D02*
X39270Y24910D01*
Y25017D01*
X39323Y25070D01*
X39537D01*
X39590Y25017D01*
Y24910D01*
X39537Y24857D01*
X39590Y24590D02*
X39270D01*
X39430Y24750D01*
Y24537D01*
X39270Y24217D02*
X39323Y24324D01*
X39430Y24430D01*
X39537D01*
X39590Y24377D01*
Y24270D01*
X39537Y24217D01*
X39483D01*
X39430Y24270D01*
Y24430D01*
X37510Y29390D02*
X37190D01*
Y29230D01*
X37243Y29177D01*
X37350D01*
X37403Y29230D01*
Y29390D01*
Y29283D02*
X37510Y29177D01*
X37243Y29070D02*
X37190Y29017D01*
Y28910D01*
X37243Y28857D01*
X37297D01*
X37350Y28910D01*
X37403Y28857D01*
X37457D01*
X37510Y28910D01*
Y29017D01*
X37457Y29070D01*
X37403D01*
X37350Y29017D01*
X37297Y29070D01*
X37243D01*
X37350Y29017D02*
Y28910D01*
X37190Y28537D02*
X37243Y28644D01*
X37350Y28750D01*
X37457D01*
X37510Y28697D01*
Y28590D01*
X37457Y28537D01*
X37403D01*
X37350Y28590D01*
Y28750D01*
X36070Y29180D02*
X36390D01*
Y29340D01*
X36337Y29393D01*
X36230D01*
X36177Y29340D01*
Y29180D01*
Y29287D02*
X36070Y29393D01*
X36337Y29500D02*
X36390Y29553D01*
Y29660D01*
X36337Y29713D01*
X36283D01*
X36230Y29660D01*
X36177Y29713D01*
X36123D01*
X36070Y29660D01*
Y29553D01*
X36123Y29500D01*
X36177D01*
X36230Y29553D01*
X36283Y29500D01*
X36337D01*
X36230Y29553D02*
Y29660D01*
X36390Y29820D02*
Y30033D01*
X36337D01*
X36123Y29820D01*
X36070D01*
X35240Y29620D02*
X35560D01*
Y29780D01*
X35507Y29833D01*
X35400D01*
X35347Y29780D01*
Y29620D01*
Y29727D02*
X35240Y29833D01*
X35507Y29940D02*
X35560Y29993D01*
Y30100D01*
X35507Y30153D01*
X35453D01*
X35400Y30100D01*
X35347Y30153D01*
X35293D01*
X35240Y30100D01*
Y29993D01*
X35293Y29940D01*
X35347D01*
X35400Y29993D01*
X35453Y29940D01*
X35507D01*
X35400Y29993D02*
Y30100D01*
X35293Y30260D02*
X35240Y30313D01*
Y30420D01*
X35293Y30473D01*
X35507D01*
X35560Y30420D01*
Y30313D01*
X35507Y30260D01*
X35453D01*
X35400Y30313D01*
Y30473D01*
X34430Y29720D02*
X34750D01*
Y29880D01*
X34697Y29933D01*
X34590D01*
X34537Y29880D01*
Y29720D01*
Y29827D02*
X34430Y29933D01*
X34483Y30040D02*
X34430Y30093D01*
Y30200D01*
X34483Y30253D01*
X34697D01*
X34750Y30200D01*
Y30093D01*
X34697Y30040D01*
X34643D01*
X34590Y30093D01*
Y30253D01*
X34697Y30360D02*
X34750Y30413D01*
Y30520D01*
X34697Y30573D01*
X34483D01*
X34430Y30520D01*
Y30413D01*
X34483Y30360D01*
X34697D01*
X33840Y29780D02*
X33520D01*
Y29940D01*
X33573Y29993D01*
X33787D01*
X33840Y29940D01*
Y29780D01*
X33520Y30100D02*
Y30207D01*
Y30153D01*
X33840D01*
X33787Y30100D01*
Y30366D02*
X33840Y30420D01*
Y30526D01*
X33787Y30580D01*
X33573D01*
X33520Y30526D01*
Y30420D01*
X33573Y30366D01*
X33787D01*
X32050Y30223D02*
X32370D01*
Y30063D01*
X32317Y30010D01*
X32103D01*
X32050Y30063D01*
Y30223D01*
X32370Y29903D02*
Y29797D01*
Y29850D01*
X32050D01*
X32103Y29903D01*
X32370Y29637D02*
Y29530D01*
Y29583D01*
X32050D01*
X32103Y29637D01*
X32380Y28750D02*
X32060D01*
Y28590D01*
X32113Y28537D01*
X32220D01*
X32273Y28590D01*
Y28750D01*
Y28643D02*
X32380Y28537D01*
X32327Y28430D02*
X32380Y28377D01*
Y28270D01*
X32327Y28217D01*
X32113D01*
X32060Y28270D01*
Y28377D01*
X32113Y28430D01*
X32167D01*
X32220Y28377D01*
Y28217D01*
X32380Y28110D02*
Y28004D01*
Y28057D01*
X32060D01*
X32113Y28110D01*
X31460Y29450D02*
X31140D01*
Y29290D01*
X31193Y29237D01*
X31300D01*
X31353Y29290D01*
Y29450D01*
Y29343D02*
X31460Y29237D01*
X31407Y29130D02*
X31460Y29077D01*
Y28970D01*
X31407Y28917D01*
X31193D01*
X31140Y28970D01*
Y29077D01*
X31193Y29130D01*
X31247D01*
X31300Y29077D01*
Y28917D01*
X31460Y28597D02*
Y28810D01*
X31247Y28597D01*
X31193D01*
X31140Y28650D01*
Y28757D01*
X31193Y28810D01*
X36803Y25743D02*
X37017D01*
X37070Y25690D01*
Y25583D01*
X37017Y25530D01*
X36803D01*
X36750Y25583D01*
Y25690D01*
X36857Y25637D02*
X36750Y25743D01*
Y25690D02*
X36803Y25743D01*
X36750Y26010D02*
X37070D01*
X36910Y25850D01*
Y26063D01*
X35250Y24740D02*
X34930D01*
Y24580D01*
X34983Y24527D01*
X35090D01*
X35143Y24580D01*
Y24740D01*
Y24633D02*
X35250Y24527D01*
X34983Y24420D02*
X34930Y24367D01*
Y24260D01*
X34983Y24207D01*
X35037D01*
X35090Y24260D01*
X35143Y24207D01*
X35197D01*
X35250Y24260D01*
Y24367D01*
X35197Y24420D01*
X35143D01*
X35090Y24367D01*
X35037Y24420D01*
X34983D01*
X35090Y24367D02*
Y24260D01*
X34983Y24100D02*
X34930Y24047D01*
Y23940D01*
X34983Y23887D01*
X35037D01*
X35090Y23940D01*
X35143Y23887D01*
X35197D01*
X35250Y23940D01*
Y24047D01*
X35197Y24100D01*
X35143D01*
X35090Y24047D01*
X35037Y24100D01*
X34983D01*
X35090Y24047D02*
Y23940D01*
X33163Y24877D02*
X33110Y24930D01*
Y25037D01*
X33163Y25090D01*
X33377D01*
X33430Y25037D01*
Y24930D01*
X33377Y24877D01*
X33430Y24610D02*
X33110D01*
X33270Y24770D01*
Y24557D01*
X33110Y24450D02*
Y24237D01*
X33163D01*
X33377Y24450D01*
X33430D01*
X29637Y26503D02*
Y26717D01*
X29690Y26770D01*
X29797D01*
X29850Y26717D01*
Y26503D01*
X29797Y26450D01*
X29690D01*
X29743Y26557D02*
X29637Y26450D01*
X29690D02*
X29637Y26503D01*
X29317Y26770D02*
X29530D01*
Y26610D01*
X29423Y26663D01*
X29370D01*
X29317Y26610D01*
Y26503D01*
X29370Y26450D01*
X29477D01*
X29530Y26503D01*
X29190Y24640D02*
X28870D01*
Y24480D01*
X28923Y24427D01*
X29030D01*
X29083Y24480D01*
Y24640D01*
Y24533D02*
X29190Y24427D01*
X29137Y24320D02*
X29190Y24267D01*
Y24160D01*
X29137Y24107D01*
X28923D01*
X28870Y24160D01*
Y24267D01*
X28923Y24320D01*
X28977D01*
X29030Y24267D01*
Y24107D01*
X29190Y23840D02*
X28870D01*
X29030Y24000D01*
Y23787D01*
X27143Y24867D02*
X27090Y24920D01*
Y25027D01*
X27143Y25080D01*
X27357D01*
X27410Y25027D01*
Y24920D01*
X27357Y24867D01*
X27410Y24600D02*
X27090D01*
X27250Y24760D01*
Y24547D01*
X27143Y24440D02*
X27090Y24387D01*
Y24280D01*
X27143Y24227D01*
X27197D01*
X27250Y24280D01*
X27303Y24227D01*
X27357D01*
X27410Y24280D01*
Y24387D01*
X27357Y24440D01*
X27303D01*
X27250Y24387D01*
X27197Y24440D01*
X27143D01*
X27250Y24387D02*
Y24280D01*
X29170Y29610D02*
X29490D01*
Y29770D01*
X29437Y29823D01*
X29330D01*
X29277Y29770D01*
Y29610D01*
Y29717D02*
X29170Y29823D01*
X29223Y29930D02*
X29170Y29983D01*
Y30090D01*
X29223Y30143D01*
X29437D01*
X29490Y30090D01*
Y29983D01*
X29437Y29930D01*
X29383D01*
X29330Y29983D01*
Y30143D01*
X29490Y30463D02*
Y30250D01*
X29330D01*
X29383Y30356D01*
Y30410D01*
X29330Y30463D01*
X29223D01*
X29170Y30410D01*
Y30303D01*
X29223Y30250D01*
X29980Y29040D02*
X30300D01*
Y29200D01*
X30247Y29253D01*
X30140D01*
X30087Y29200D01*
Y29040D01*
Y29147D02*
X29980Y29253D01*
X30033Y29360D02*
X29980Y29413D01*
Y29520D01*
X30033Y29573D01*
X30247D01*
X30300Y29520D01*
Y29413D01*
X30247Y29360D01*
X30193D01*
X30140Y29413D01*
Y29573D01*
X30247Y29680D02*
X30300Y29733D01*
Y29840D01*
X30247Y29893D01*
X30193D01*
X30140Y29840D01*
Y29786D01*
Y29840D01*
X30087Y29893D01*
X30033D01*
X29980Y29840D01*
Y29733D01*
X30033Y29680D01*
X28360Y29620D02*
X28680D01*
Y29780D01*
X28627Y29833D01*
X28520D01*
X28467Y29780D01*
Y29620D01*
Y29727D02*
X28360Y29833D01*
X28413Y29940D02*
X28360Y29993D01*
Y30100D01*
X28413Y30153D01*
X28627D01*
X28680Y30100D01*
Y29993D01*
X28627Y29940D01*
X28573D01*
X28520Y29993D01*
Y30153D01*
X28680Y30473D02*
X28627Y30366D01*
X28520Y30260D01*
X28413D01*
X28360Y30313D01*
Y30420D01*
X28413Y30473D01*
X28467D01*
X28520Y30420D01*
Y30260D01*
X27760Y29570D02*
X27440D01*
Y29730D01*
X27493Y29783D01*
X27707D01*
X27760Y29730D01*
Y29570D01*
X27440Y29890D02*
Y29997D01*
Y29943D01*
X27760D01*
X27707Y29890D01*
X27440Y30370D02*
Y30156D01*
X27653Y30370D01*
X27707D01*
X27760Y30316D01*
Y30210D01*
X27707Y30156D01*
X25960Y30520D02*
X26280D01*
Y30360D01*
X26227Y30307D01*
X26013D01*
X25960Y30360D01*
Y30520D01*
X26280Y30200D02*
Y30093D01*
Y30147D01*
X25960D01*
X26013Y30200D01*
Y29934D02*
X25960Y29880D01*
Y29774D01*
X26013Y29720D01*
X26067D01*
X26120Y29774D01*
Y29827D01*
Y29774D01*
X26173Y29720D01*
X26227D01*
X26280Y29774D01*
Y29880D01*
X26227Y29934D01*
X26300Y28760D02*
X25980D01*
Y28600D01*
X26033Y28547D01*
X26140D01*
X26193Y28600D01*
Y28760D01*
Y28653D02*
X26300Y28547D01*
X26247Y28440D02*
X26300Y28387D01*
Y28280D01*
X26247Y28227D01*
X26033D01*
X25980Y28280D01*
Y28387D01*
X26033Y28440D01*
X26087D01*
X26140Y28387D01*
Y28227D01*
X25980Y28120D02*
Y27907D01*
X26033D01*
X26247Y28120D01*
X26300D01*
X23607Y26373D02*
Y26587D01*
X23660Y26640D01*
X23767D01*
X23820Y26587D01*
Y26373D01*
X23767Y26320D01*
X23660D01*
X23713Y26427D02*
X23607Y26320D01*
X23660D02*
X23607Y26373D01*
X23287Y26640D02*
X23393Y26587D01*
X23500Y26480D01*
Y26373D01*
X23447Y26320D01*
X23340D01*
X23287Y26373D01*
Y26427D01*
X23340Y26480D01*
X23500D01*
X25370Y29450D02*
X25050D01*
Y29290D01*
X25103Y29237D01*
X25210D01*
X25263Y29290D01*
Y29450D01*
Y29343D02*
X25370Y29237D01*
X25317Y29130D02*
X25370Y29077D01*
Y28970D01*
X25317Y28917D01*
X25103D01*
X25050Y28970D01*
Y29077D01*
X25103Y29130D01*
X25157D01*
X25210Y29077D01*
Y28917D01*
X25103Y28810D02*
X25050Y28757D01*
Y28650D01*
X25103Y28597D01*
X25157D01*
X25210Y28650D01*
X25263Y28597D01*
X25317D01*
X25370Y28650D01*
Y28757D01*
X25317Y28810D01*
X25263D01*
X25210Y28757D01*
X25157Y28810D01*
X25103D01*
X25210Y28757D02*
Y28650D01*
X21103Y24857D02*
X21050Y24910D01*
Y25017D01*
X21103Y25070D01*
X21317D01*
X21370Y25017D01*
Y24910D01*
X21317Y24857D01*
X21370Y24590D02*
X21050D01*
X21210Y24750D01*
Y24537D01*
X21317Y24430D02*
X21370Y24377D01*
Y24270D01*
X21317Y24217D01*
X21103D01*
X21050Y24270D01*
Y24377D01*
X21103Y24430D01*
X21157D01*
X21210Y24377D01*
Y24217D01*
X23100Y24800D02*
X22780D01*
Y24640D01*
X22833Y24587D01*
X22940D01*
X22993Y24640D01*
Y24800D01*
Y24693D02*
X23100Y24587D01*
Y24480D02*
Y24373D01*
Y24427D01*
X22780D01*
X22833Y24480D01*
Y24214D02*
X22780Y24160D01*
Y24054D01*
X22833Y24000D01*
X23047D01*
X23100Y24054D01*
Y24160D01*
X23047Y24214D01*
X22833D01*
X23100Y23894D02*
Y23787D01*
Y23840D01*
X22780D01*
X22833Y23894D01*
X24230Y27560D02*
Y27880D01*
X24070D01*
X24017Y27827D01*
Y27720D01*
X24070Y27667D01*
X24230D01*
X24123D02*
X24017Y27560D01*
X23910Y27613D02*
X23857Y27560D01*
X23750D01*
X23697Y27613D01*
Y27827D01*
X23750Y27880D01*
X23857D01*
X23910Y27827D01*
Y27773D01*
X23857Y27720D01*
X23697D01*
X23590Y27613D02*
X23537Y27560D01*
X23430D01*
X23377Y27613D01*
Y27827D01*
X23430Y27880D01*
X23537D01*
X23590Y27827D01*
Y27773D01*
X23537Y27720D01*
X23377D01*
X23320Y30090D02*
X23000D01*
Y29930D01*
X23053Y29877D01*
X23160D01*
X23213Y29930D01*
Y30090D01*
Y29983D02*
X23320Y29877D01*
Y29770D02*
Y29663D01*
Y29717D01*
X23000D01*
X23053Y29770D01*
Y29504D02*
X23000Y29450D01*
Y29344D01*
X23053Y29290D01*
X23267D01*
X23320Y29344D01*
Y29450D01*
X23267Y29504D01*
X23053D01*
Y29184D02*
X23000Y29130D01*
Y29024D01*
X23053Y28970D01*
X23267D01*
X23320Y29024D01*
Y29130D01*
X23267Y29184D01*
X23053D01*
X22300Y29520D02*
X22620D01*
Y29680D01*
X22567Y29733D01*
X22460D01*
X22407Y29680D01*
Y29520D01*
Y29627D02*
X22300Y29733D01*
Y29840D02*
Y29947D01*
Y29893D01*
X22620D01*
X22567Y29840D01*
Y30106D02*
X22620Y30160D01*
Y30266D01*
X22567Y30320D01*
X22353D01*
X22300Y30266D01*
Y30160D01*
X22353Y30106D01*
X22567D01*
X22300Y30640D02*
Y30426D01*
X22513Y30640D01*
X22567D01*
X22620Y30586D01*
Y30480D01*
X22567Y30426D01*
X21690Y29640D02*
X21370D01*
Y29800D01*
X21423Y29853D01*
X21637D01*
X21690Y29800D01*
Y29640D01*
X21370Y29960D02*
Y30067D01*
Y30013D01*
X21690D01*
X21637Y29960D01*
X21370Y30386D02*
X21690D01*
X21530Y30226D01*
Y30440D01*
X19870Y30380D02*
X20190D01*
Y30220D01*
X20137Y30167D01*
X19923D01*
X19870Y30220D01*
Y30380D01*
X20190Y30060D02*
Y29953D01*
Y30007D01*
X19870D01*
X19923Y30060D01*
X19870Y29580D02*
Y29794D01*
X20030D01*
X19977Y29687D01*
Y29634D01*
X20030Y29580D01*
X20137D01*
X20190Y29634D01*
Y29740D01*
X20137Y29794D01*
X20190Y28800D02*
X19870D01*
Y28640D01*
X19923Y28587D01*
X20030D01*
X20083Y28640D01*
Y28800D01*
Y28693D02*
X20190Y28587D01*
Y28480D02*
Y28373D01*
Y28427D01*
X19870D01*
X19923Y28480D01*
Y28214D02*
X19870Y28160D01*
Y28054D01*
X19923Y28000D01*
X20137D01*
X20190Y28054D01*
Y28160D01*
X20137Y28214D01*
X19923D01*
Y27894D02*
X19870Y27840D01*
Y27734D01*
X19923Y27680D01*
X19977D01*
X20030Y27734D01*
Y27787D01*
Y27734D01*
X20083Y27680D01*
X20137D01*
X20190Y27734D01*
Y27840D01*
X20137Y27894D01*
X19250Y29560D02*
X18930D01*
Y29400D01*
X18983Y29347D01*
X19090D01*
X19143Y29400D01*
Y29560D01*
Y29453D02*
X19250Y29347D01*
Y29240D02*
Y29133D01*
Y29187D01*
X18930D01*
X18983Y29240D01*
Y28974D02*
X18930Y28920D01*
Y28814D01*
X18983Y28760D01*
X19197D01*
X19250Y28814D01*
Y28920D01*
X19197Y28974D01*
X18983D01*
X19250Y28494D02*
X18930D01*
X19090Y28654D01*
Y28440D01*
X18610Y29460D02*
Y29780D01*
X18450D01*
X18397Y29727D01*
Y29620D01*
X18450Y29567D01*
X18610D01*
X18503D02*
X18397Y29460D01*
X18290D02*
X18183D01*
X18237D01*
Y29780D01*
X18290Y29727D01*
X18024D02*
X17970Y29780D01*
X17864D01*
X17810Y29727D01*
Y29513D01*
X17864Y29460D01*
X17970D01*
X18024Y29513D01*
Y29727D01*
X17490Y29780D02*
X17597Y29727D01*
X17704Y29620D01*
Y29513D01*
X17650Y29460D01*
X17544D01*
X17490Y29513D01*
Y29567D01*
X17544Y29620D01*
X17704D01*
X16647Y30403D02*
Y30617D01*
X16700Y30670D01*
X16807D01*
X16860Y30617D01*
Y30403D01*
X16807Y30350D01*
X16700D01*
X16753Y30457D02*
X16647Y30350D01*
X16700D02*
X16647Y30403D01*
X16540Y30617D02*
X16487Y30670D01*
X16380D01*
X16327Y30617D01*
Y30563D01*
X16380Y30510D01*
X16327Y30457D01*
Y30403D01*
X16380Y30350D01*
X16487D01*
X16540Y30403D01*
Y30457D01*
X16487Y30510D01*
X16540Y30563D01*
Y30617D01*
X16487Y30510D02*
X16380D01*
X18147Y27857D02*
X18200Y27910D01*
X18307D01*
X18360Y27857D01*
Y27643D01*
X18307Y27590D01*
X18200D01*
X18147Y27643D01*
X17827Y27910D02*
X18040D01*
Y27750D01*
X17933Y27803D01*
X17880D01*
X17827Y27750D01*
Y27643D01*
X17880Y27590D01*
X17987D01*
X18040Y27643D01*
X17720Y27590D02*
X17614D01*
X17667D01*
Y27910D01*
X17720Y27857D01*
X12850Y28510D02*
Y28830D01*
X12690D01*
X12637Y28777D01*
Y28670D01*
X12690Y28617D01*
X12850D01*
X12743D02*
X12637Y28510D01*
X12530D02*
X12423D01*
X12477D01*
Y28830D01*
X12530Y28777D01*
X12264Y28510D02*
X12157D01*
X12210D01*
Y28830D01*
X12264Y28777D01*
X11784Y28830D02*
X11997D01*
Y28670D01*
X11890Y28723D01*
X11837D01*
X11784Y28670D01*
Y28563D01*
X11837Y28510D01*
X11944D01*
X11997Y28563D01*
X12930Y27690D02*
Y28010D01*
X12770D01*
X12717Y27957D01*
Y27850D01*
X12770Y27797D01*
X12930D01*
X12823D02*
X12717Y27690D01*
X12610D02*
X12503D01*
X12557D01*
Y28010D01*
X12610Y27957D01*
X12344Y27690D02*
X12237D01*
X12290D01*
Y28010D01*
X12344Y27957D01*
X11917Y27690D02*
Y28010D01*
X12077Y27850D01*
X11864D01*
X12930Y27090D02*
Y26770D01*
X12770D01*
X12717Y26823D01*
Y27037D01*
X12770Y27090D01*
X12930D01*
X12610Y26770D02*
X12503D01*
X12557D01*
Y27090D01*
X12610Y27037D01*
X12130Y27090D02*
X12237Y27037D01*
X12344Y26930D01*
Y26823D01*
X12290Y26770D01*
X12184D01*
X12130Y26823D01*
Y26877D01*
X12184Y26930D01*
X12344D01*
X12500Y25300D02*
Y25620D01*
X12660D01*
X12713Y25567D01*
Y25353D01*
X12660Y25300D01*
X12500D01*
X12820Y25620D02*
X12927D01*
X12873D01*
Y25300D01*
X12820Y25353D01*
X13086Y25567D02*
X13140Y25620D01*
X13246D01*
X13300Y25567D01*
Y25353D01*
X13246Y25300D01*
X13140D01*
X13086Y25353D01*
Y25407D01*
X13140Y25460D01*
X13300D01*
X15913Y23007D02*
Y22793D01*
X15860Y22740D01*
X15753D01*
X15700Y22793D01*
Y23007D01*
X15753Y23060D01*
X15860D01*
X15807Y22953D02*
X15913Y23060D01*
X15860D02*
X15913Y23007D01*
X16020Y22740D02*
X16233D01*
Y22793D01*
X16020Y23007D01*
Y23060D01*
X18680Y23610D02*
Y23930D01*
X18520D01*
X18467Y23877D01*
Y23770D01*
X18520Y23717D01*
X18680D01*
X18573D02*
X18467Y23610D01*
X18360D02*
X18253D01*
X18307D01*
Y23930D01*
X18360Y23877D01*
X18094D02*
X18040Y23930D01*
X17934D01*
X17880Y23877D01*
Y23663D01*
X17934Y23610D01*
X18040D01*
X18094Y23663D01*
Y23877D01*
X17560Y23930D02*
X17774D01*
Y23770D01*
X17667Y23823D01*
X17614D01*
X17560Y23770D01*
Y23663D01*
X17614Y23610D01*
X17720D01*
X17774Y23663D01*
X18187Y22117D02*
X18240Y22170D01*
X18347D01*
X18400Y22117D01*
Y21903D01*
X18347Y21850D01*
X18240D01*
X18187Y21903D01*
X17867Y22170D02*
X18080D01*
Y22010D01*
X17973Y22063D01*
X17920D01*
X17867Y22010D01*
Y21903D01*
X17920Y21850D01*
X18027D01*
X18080Y21903D01*
X17760Y22117D02*
X17707Y22170D01*
X17600D01*
X17547Y22117D01*
Y21903D01*
X17600Y21850D01*
X17707D01*
X17760Y21903D01*
Y22117D01*
X11370Y22710D02*
X11690D01*
Y22870D01*
X11637Y22923D01*
X11530D01*
X11477Y22870D01*
Y22710D01*
Y22817D02*
X11370Y22923D01*
Y23030D02*
Y23137D01*
Y23083D01*
X11690D01*
X11637Y23030D01*
X11370Y23296D02*
Y23403D01*
Y23350D01*
X11690D01*
X11637Y23296D01*
X11690Y23776D02*
X11637Y23670D01*
X11530Y23563D01*
X11423D01*
X11370Y23616D01*
Y23723D01*
X11423Y23776D01*
X11477D01*
X11530Y23723D01*
Y23563D01*
X12730Y24740D02*
Y24420D01*
X12890D01*
X12943Y24473D01*
Y24580D01*
X12890Y24633D01*
X12730D01*
X12837D02*
X12943Y24740D01*
X13050D02*
X13157D01*
X13103D01*
Y24420D01*
X13050Y24473D01*
X13316Y24740D02*
X13423D01*
X13370D01*
Y24420D01*
X13316Y24473D01*
X13583D02*
X13636Y24420D01*
X13743D01*
X13796Y24473D01*
Y24687D01*
X13743Y24740D01*
X13636D01*
X13583Y24687D01*
Y24473D01*
X13390Y23880D02*
Y24200D01*
X13230D01*
X13177Y24147D01*
Y24040D01*
X13230Y23987D01*
X13390D01*
X13283D02*
X13177Y23880D01*
X13070D02*
X12963D01*
X13017D01*
Y24200D01*
X13070Y24147D01*
X12804Y23880D02*
X12697D01*
X12750D01*
Y24200D01*
X12804Y24147D01*
X12537Y23880D02*
X12430D01*
X12484D01*
Y24200D01*
X12537Y24147D01*
X12900Y22930D02*
Y23250D01*
X12740D01*
X12687Y23197D01*
Y23090D01*
X12740Y23037D01*
X12900D01*
X12793D02*
X12687Y22930D01*
X12580D02*
X12473D01*
X12527D01*
Y23250D01*
X12580Y23197D01*
X12314Y22930D02*
X12207D01*
X12260D01*
Y23250D01*
X12314Y23197D01*
X12047D02*
X11994Y23250D01*
X11887D01*
X11834Y23197D01*
Y23143D01*
X11887Y23090D01*
X11940D01*
X11887D01*
X11834Y23037D01*
Y22983D01*
X11887Y22930D01*
X11994D01*
X12047Y22983D01*
X12930Y22110D02*
Y22430D01*
X12770D01*
X12717Y22377D01*
Y22270D01*
X12770Y22217D01*
X12930D01*
X12823D02*
X12717Y22110D01*
X12610D02*
X12503D01*
X12557D01*
Y22430D01*
X12610Y22377D01*
X12344Y22110D02*
X12237D01*
X12290D01*
Y22430D01*
X12344Y22377D01*
X11864Y22110D02*
X12077D01*
X11864Y22323D01*
Y22377D01*
X11917Y22430D01*
X12024D01*
X12077Y22377D01*
X12730Y21610D02*
Y21290D01*
X12570D01*
X12517Y21343D01*
Y21557D01*
X12570Y21610D01*
X12730D01*
X12410Y21290D02*
X12303D01*
X12357D01*
Y21610D01*
X12410Y21557D01*
X12144D02*
X12090Y21610D01*
X11984D01*
X11930Y21557D01*
Y21503D01*
X11984Y21450D01*
X11930Y21397D01*
Y21343D01*
X11984Y21290D01*
X12090D01*
X12144Y21343D01*
Y21397D01*
X12090Y21450D01*
X12144Y21503D01*
Y21557D01*
X12090Y21450D02*
X11984D01*
X11970Y19770D02*
Y20090D01*
X12130D01*
X12183Y20037D01*
Y19823D01*
X12130Y19770D01*
X11970D01*
X12290Y20090D02*
X12397D01*
X12343D01*
Y19770D01*
X12290Y19823D01*
X12556Y19770D02*
X12770D01*
Y19823D01*
X12556Y20037D01*
Y20090D01*
X12789Y19359D02*
Y19039D01*
X12949D01*
X13002Y19092D01*
Y19199D01*
X12949Y19252D01*
X12789D01*
X12896D02*
X13002Y19359D01*
X13109D02*
X13216D01*
X13162D01*
Y19039D01*
X13109Y19092D01*
X13376D02*
X13429Y19039D01*
X13536D01*
X13589Y19092D01*
Y19306D01*
X13536Y19359D01*
X13429D01*
X13376Y19306D01*
Y19092D01*
X13696Y19306D02*
X13749Y19359D01*
X13855D01*
X13909Y19306D01*
Y19092D01*
X13855Y19039D01*
X13749D01*
X13696Y19092D01*
Y19146D01*
X13749Y19199D01*
X13909D01*
X52077Y25697D02*
X52130Y25750D01*
X52237D01*
X52290Y25697D01*
Y25483D01*
X52237Y25430D01*
X52130D01*
X52077Y25483D01*
X51810Y25430D02*
Y25750D01*
X51970Y25590D01*
X51757D01*
X51490Y25430D02*
Y25750D01*
X51650Y25590D01*
X51437D01*
X54637Y26633D02*
Y26847D01*
X54690Y26900D01*
X54797D01*
X54850Y26847D01*
Y26633D01*
X54797Y26580D01*
X54690D01*
X54743Y26687D02*
X54637Y26580D01*
X54690D02*
X54637Y26633D01*
X54530Y26580D02*
X54423D01*
X54477D01*
Y26900D01*
X54530Y26847D01*
X14580Y20990D02*
Y21310D01*
X14420D01*
X14367Y21257D01*
Y21150D01*
X14420Y21097D01*
X14580D01*
X14473D02*
X14367Y20990D01*
X14260D02*
X14153D01*
X14207D01*
Y21310D01*
X14260Y21257D01*
X13994D02*
X13940Y21310D01*
X13834D01*
X13780Y21257D01*
Y21043D01*
X13834Y20990D01*
X13940D01*
X13994Y21043D01*
Y21257D01*
X13674Y21310D02*
X13460D01*
Y21257D01*
X13674Y21043D01*
Y20990D01*
X14510Y26490D02*
Y26810D01*
X14350D01*
X14297Y26757D01*
Y26650D01*
X14350Y26597D01*
X14510D01*
X14403D02*
X14297Y26490D01*
X14190D02*
X14083D01*
X14137D01*
Y26810D01*
X14190Y26757D01*
X13924D02*
X13870Y26810D01*
X13764D01*
X13710Y26757D01*
Y26543D01*
X13764Y26490D01*
X13870D01*
X13924Y26543D01*
Y26757D01*
X13604D02*
X13550Y26810D01*
X13444D01*
X13390Y26757D01*
Y26703D01*
X13444Y26650D01*
X13390Y26597D01*
Y26543D01*
X13444Y26490D01*
X13550D01*
X13604Y26543D01*
Y26597D01*
X13550Y26650D01*
X13604Y26703D01*
Y26757D01*
X13550Y26650D02*
X13444D01*
D98*
X60452Y22409D02*
X60501Y22459D01*
X60601D01*
X60651Y22409D01*
Y22359D01*
X60601Y22309D01*
X60501D01*
X60452Y22259D01*
Y22210D01*
X60501Y22160D01*
X60601D01*
X60651Y22210D01*
X60352Y22459D02*
Y22160D01*
X60252Y22259D01*
X60152Y22160D01*
Y22459D01*
X60053D02*
Y22160D01*
X59903D01*
X59853Y22210D01*
Y22409D01*
X59903Y22459D01*
X60053D01*
X59454D02*
X59355D01*
X59405D01*
Y22160D01*
X59454D01*
X59355D01*
X59205D02*
Y22359D01*
X59056D01*
X59006Y22309D01*
Y22160D01*
X58856Y22409D02*
Y22359D01*
X58906D01*
X58806D01*
X58856D01*
Y22210D01*
X58806Y22160D01*
X58507D02*
X58607D01*
X58657Y22210D01*
Y22309D01*
X58607Y22359D01*
X58507D01*
X58457Y22309D01*
Y22259D01*
X58657D01*
X58358Y22359D02*
Y22160D01*
Y22259D01*
X58308Y22309D01*
X58258Y22359D01*
X58208D01*
X58009Y22160D02*
Y22409D01*
Y22309D01*
X58059D01*
X57959D01*
X58009D01*
Y22409D01*
X57959Y22459D01*
X57759Y22359D02*
X57660D01*
X57610Y22309D01*
Y22160D01*
X57759D01*
X57809Y22210D01*
X57759Y22259D01*
X57610D01*
X57311Y22359D02*
X57460D01*
X57510Y22309D01*
Y22210D01*
X57460Y22160D01*
X57311D01*
X57062D02*
X57161D01*
X57211Y22210D01*
Y22309D01*
X57161Y22359D01*
X57062D01*
X57012Y22309D01*
Y22259D01*
X57211D01*
X60651Y21659D02*
Y21958D01*
X60501D01*
X60452Y21908D01*
Y21809D01*
X60501Y21759D01*
X60651D01*
X60352Y21659D02*
X60252D01*
X60302D01*
Y21858D01*
X60352D01*
X60103Y21659D02*
Y21858D01*
X59953D01*
X59903Y21809D01*
Y21659D01*
X59006Y21958D02*
X59205D01*
Y21809D01*
X59106D01*
X59205D01*
Y21659D01*
X58906Y21858D02*
Y21709D01*
X58856Y21659D01*
X58707D01*
Y21858D01*
X58607Y21659D02*
Y21858D01*
X58457D01*
X58408Y21809D01*
Y21659D01*
X58108Y21858D02*
X58258D01*
X58308Y21809D01*
Y21709D01*
X58258Y21659D01*
X58108D01*
X58861Y18889D02*
X58910Y18939D01*
X59010D01*
X59060Y18889D01*
Y18839D01*
X59010Y18790D01*
X58910D01*
X58861Y18740D01*
Y18690D01*
X58910Y18640D01*
X59010D01*
X59060Y18690D01*
X58761Y18939D02*
Y18640D01*
X58661Y18740D01*
X58561Y18640D01*
Y18939D01*
X58312D02*
X58412D01*
X58462Y18889D01*
Y18690D01*
X58412Y18640D01*
X58312D01*
X58262Y18690D01*
Y18889D01*
X58312Y18939D01*
X59210Y19150D02*
Y19449D01*
X59010Y19150D01*
Y19449D01*
X58910Y19150D02*
Y19449D01*
X58761D01*
X58711Y19399D01*
Y19300D01*
X58761Y19250D01*
X58910D01*
X58811D02*
X58711Y19150D01*
X58412Y19399D02*
X58462Y19449D01*
X58561D01*
X58611Y19399D01*
Y19349D01*
X58561Y19300D01*
X58462D01*
X58412Y19250D01*
Y19200D01*
X58462Y19150D01*
X58561D01*
X58611Y19200D01*
X58312Y19449D02*
X58113D01*
X58213D01*
Y19150D01*
X59135Y19859D02*
X59185Y19909D01*
X59284D01*
X59334Y19859D01*
Y19809D01*
X59284Y19760D01*
X59185D01*
X59135Y19710D01*
Y19660D01*
X59185Y19610D01*
X59284D01*
X59334Y19660D01*
X59035Y19909D02*
Y19610D01*
X58935Y19710D01*
X58836Y19610D01*
Y19909D01*
X58736D02*
Y19610D01*
X58586D01*
X58537Y19660D01*
Y19859D01*
X58586Y19909D01*
X58736D01*
X58437D02*
X58337D01*
X58387D01*
Y19610D01*
X58437D01*
X58337D01*
X58038Y19909D02*
X58138D01*
X58188Y19859D01*
Y19660D01*
X58138Y19610D01*
X58038D01*
X57988Y19660D01*
Y19859D01*
X58038Y19909D01*
X58861Y20329D02*
X58910Y20379D01*
X59010D01*
X59060Y20329D01*
Y20130D01*
X59010Y20080D01*
X58910D01*
X58861Y20130D01*
Y20230D01*
X58960D01*
X58761Y20080D02*
Y20379D01*
X58561Y20080D01*
Y20379D01*
X58462D02*
Y20080D01*
X58312D01*
X58262Y20130D01*
Y20329D01*
X58312Y20379D01*
X58462D01*
X59160Y20859D02*
X59210Y20909D01*
X59309D01*
X59359Y20859D01*
Y20809D01*
X59309Y20760D01*
X59210D01*
X59160Y20710D01*
Y20660D01*
X59210Y20610D01*
X59309D01*
X59359Y20660D01*
X59060Y20909D02*
Y20610D01*
X58960Y20710D01*
X58861Y20610D01*
Y20909D01*
X58561Y20859D02*
X58611Y20909D01*
X58711D01*
X58761Y20859D01*
Y20660D01*
X58711Y20610D01*
X58611D01*
X58561Y20660D01*
X58462Y20909D02*
Y20610D01*
X58262D01*
X58163Y20909D02*
Y20610D01*
Y20710D01*
X57963Y20909D01*
X58113Y20760D01*
X57963Y20610D01*
X59060Y21369D02*
X59010Y21419D01*
X58910D01*
X58861Y21369D01*
Y21319D01*
X58910Y21270D01*
X58960D01*
X58910D01*
X58861Y21220D01*
Y21170D01*
X58910Y21120D01*
X59010D01*
X59060Y21170D01*
X58761Y21419D02*
Y21220D01*
X58661Y21120D01*
X58561Y21220D01*
Y21419D01*
X58462Y21369D02*
X58412Y21419D01*
X58312D01*
X58262Y21369D01*
Y21319D01*
X58312Y21270D01*
X58362D01*
X58312D01*
X58262Y21220D01*
Y21170D01*
X58312Y21120D01*
X58412D01*
X58462Y21170D01*
X60370Y21120D02*
X60270D01*
X60320D01*
Y21419D01*
X60370Y21369D01*
X60220Y20610D02*
X60420D01*
X60220Y20809D01*
Y20859D01*
X60270Y20909D01*
X60370D01*
X60420Y20859D01*
Y20329D02*
X60370Y20379D01*
X60270D01*
X60220Y20329D01*
Y20279D01*
X60270Y20230D01*
X60320D01*
X60270D01*
X60220Y20180D01*
Y20130D01*
X60270Y20080D01*
X60370D01*
X60420Y20130D01*
X60270Y19610D02*
Y19909D01*
X60420Y19760D01*
X60221D01*
X60220Y19449D02*
X60420D01*
Y19300D01*
X60320Y19349D01*
X60270D01*
X60220Y19300D01*
Y19200D01*
X60270Y19150D01*
X60370D01*
X60420Y19200D01*
X60220Y18939D02*
X60320Y18889D01*
X60420Y18790D01*
Y18690D01*
X60370Y18640D01*
X60270D01*
X60220Y18690D01*
Y18740D01*
X60270Y18790D01*
X60420D01*
X65550Y15119D02*
X65650Y15069D01*
X65750Y14970D01*
Y14870D01*
X65700Y14820D01*
X65600D01*
X65550Y14870D01*
Y14920D01*
X65600Y14970D01*
X65750D01*
X64550Y15119D02*
X64750D01*
Y14970D01*
X64650Y15019D01*
X64600D01*
X64550Y14970D01*
Y14870D01*
X64600Y14820D01*
X64700D01*
X64750Y14870D01*
X63600Y14820D02*
Y15119D01*
X63750Y14970D01*
X63550D01*
X62750Y15069D02*
X62700Y15119D01*
X62600D01*
X62550Y15069D01*
Y15019D01*
X62600Y14970D01*
X62650D01*
X62600D01*
X62550Y14920D01*
Y14870D01*
X62600Y14820D01*
X62700D01*
X62750Y14870D01*
X61550Y14820D02*
X61750D01*
X61550Y15019D01*
Y15069D01*
X61600Y15119D01*
X61700D01*
X61750Y15069D01*
X60700Y14820D02*
X60600D01*
X60650D01*
Y15119D01*
X60700Y15069D01*
X59651Y14281D02*
X59601Y14330D01*
Y14430D01*
X59651Y14480D01*
X59701D01*
X59750Y14430D01*
Y14330D01*
X59800Y14281D01*
X59850D01*
X59900Y14330D01*
Y14430D01*
X59850Y14480D01*
X59601Y14181D02*
X59900D01*
X59800Y14081D01*
X59900Y13981D01*
X59601D01*
Y13882D02*
X59900D01*
Y13732D01*
X59850Y13682D01*
X59651D01*
X59601Y13732D01*
Y13882D01*
Y13284D02*
Y13184D01*
Y13234D01*
X59900D01*
Y13284D01*
Y13184D01*
Y13034D02*
X59701D01*
Y12885D01*
X59750Y12835D01*
X59900D01*
X59651Y12685D02*
X59701D01*
Y12735D01*
Y12635D01*
Y12685D01*
X59850D01*
X59900Y12635D01*
Y12336D02*
Y12436D01*
X59850Y12486D01*
X59750D01*
X59701Y12436D01*
Y12336D01*
X59750Y12286D01*
X59800D01*
Y12486D01*
X59701Y12187D02*
X59900D01*
X59800D01*
X59750Y12137D01*
X59701Y12087D01*
Y12037D01*
X59900Y11838D02*
X59651D01*
X59750D01*
Y11888D01*
Y11788D01*
Y11838D01*
X59651D01*
X59601Y11788D01*
X59701Y11589D02*
Y11489D01*
X59750Y11439D01*
X59900D01*
Y11589D01*
X59850Y11638D01*
X59800Y11589D01*
Y11439D01*
X59701Y11140D02*
Y11289D01*
X59750Y11339D01*
X59850D01*
X59900Y11289D01*
Y11140D01*
Y10891D02*
Y10990D01*
X59850Y11040D01*
X59750D01*
X59701Y10990D01*
Y10891D01*
X59750Y10841D01*
X59800D01*
Y11040D01*
X37648Y20175D02*
Y20474D01*
X37499D01*
X37449Y20424D01*
Y20324D01*
X37499Y20275D01*
X37648D01*
X37349Y20474D02*
Y20175D01*
X37249Y20275D01*
X37150Y20175D01*
Y20474D01*
X37050Y20175D02*
Y20474D01*
X36950Y20374D01*
X36851Y20474D01*
Y20175D01*
X36751Y20125D02*
X36551D01*
X36302Y20474D02*
X36402D01*
X36452Y20424D01*
Y20225D01*
X36402Y20175D01*
X36302D01*
X36252Y20225D01*
Y20424D01*
X36302Y20474D01*
X36153D02*
Y20225D01*
X36103Y20175D01*
X36003D01*
X35953Y20225D01*
Y20474D01*
X35854D02*
X35654D01*
X35754D01*
Y20175D01*
X32530Y20990D02*
Y21289D01*
X32430Y21189D01*
X32331Y21289D01*
Y20990D01*
X32081Y21289D02*
X32181D01*
X32231Y21239D01*
Y21040D01*
X32181Y20990D01*
X32081D01*
X32031Y21040D01*
Y21239D01*
X32081Y21289D01*
X31932D02*
X31732D01*
X31832D01*
Y20990D01*
X31483Y21289D02*
X31583D01*
X31633Y21239D01*
Y21040D01*
X31583Y20990D01*
X31483D01*
X31433Y21040D01*
Y21239D01*
X31483Y21289D01*
X31334Y20990D02*
Y21289D01*
X31184D01*
X31134Y21239D01*
Y21140D01*
X31184Y21090D01*
X31334D01*
X31234D02*
X31134Y20990D01*
X31034Y20940D02*
X30835D01*
X30735Y20990D02*
Y21289D01*
X30586D01*
X30536Y21239D01*
Y21140D01*
X30586Y21090D01*
X30735D01*
X30287Y21289D02*
X30386D01*
X30436Y21239D01*
Y21040D01*
X30386Y20990D01*
X30287D01*
X30237Y21040D01*
Y21239D01*
X30287Y21289D01*
X30137D02*
Y20990D01*
X29938D01*
X29639Y21289D02*
X29838D01*
Y20990D01*
X29639D01*
X29838Y21140D02*
X29738D01*
X31284Y20399D02*
X31334Y20449D01*
X31433D01*
X31483Y20399D01*
Y20200D01*
X31433Y20150D01*
X31334D01*
X31284Y20200D01*
Y20300D01*
X31383D01*
X31184Y20150D02*
Y20449D01*
X30985Y20150D01*
Y20449D01*
X30885D02*
Y20150D01*
X30735D01*
X30685Y20200D01*
Y20399D01*
X30735Y20449D01*
X30885D01*
X35400Y21289D02*
X35201D01*
X35300D01*
Y20990D01*
X35101Y21289D02*
Y20990D01*
Y21140D01*
X34901D01*
Y21289D01*
Y20990D01*
X34602Y21289D02*
X34802D01*
Y20990D01*
X34602D01*
X34802Y21140D02*
X34702D01*
X34503Y20990D02*
Y21289D01*
X34353D01*
X34303Y21239D01*
Y21140D01*
X34353Y21090D01*
X34503D01*
X34403D02*
X34303Y20990D01*
X34204D02*
Y21289D01*
X34104Y21189D01*
X34004Y21289D01*
Y20990D01*
X33904Y20940D02*
X33705D01*
X33605Y21289D02*
X33506D01*
X33555D01*
Y20990D01*
X33605D01*
X33506D01*
X33356D02*
Y21289D01*
X33157Y20990D01*
Y21289D01*
X36851Y21214D02*
X36900Y21264D01*
X37000D01*
X37050Y21214D01*
Y21015D01*
X37000Y20965D01*
X36900D01*
X36851Y21015D01*
Y21115D01*
X36950D01*
X36751Y20965D02*
Y21264D01*
X36551Y20965D01*
Y21264D01*
X36452D02*
Y20965D01*
X36302D01*
X36252Y21015D01*
Y21214D01*
X36302Y21264D01*
X36452D01*
X34528Y20150D02*
Y20449D01*
X34328Y20150D01*
Y20449D01*
X34029Y20399D02*
X34079Y20449D01*
X34179D01*
X34228Y20399D01*
Y20200D01*
X34179Y20150D01*
X34079D01*
X34029Y20200D01*
X69660Y24530D02*
Y24729D01*
X69560Y24829D01*
X69461Y24729D01*
Y24530D01*
Y24680D01*
X69660D01*
X69361Y24829D02*
Y24530D01*
X69211D01*
X69161Y24580D01*
Y24779D01*
X69211Y24829D01*
X69361D01*
X68862Y24779D02*
X68912Y24829D01*
X69012D01*
X69062Y24779D01*
Y24580D01*
X69012Y24530D01*
X68912D01*
X68862Y24580D01*
X67590Y23199D02*
X67391D01*
X67291Y23099D01*
X67391Y22999D01*
X67590D01*
X67440D01*
Y23199D01*
X67291Y22900D02*
X67590D01*
Y22750D01*
X67540Y22700D01*
X67341D01*
X67291Y22750D01*
Y22900D01*
X67341Y22401D02*
X67291Y22451D01*
Y22551D01*
X67341Y22601D01*
X67540D01*
X67590Y22551D01*
Y22451D01*
X67540Y22401D01*
X69079Y22151D02*
X69030Y22101D01*
X68930D01*
X68880Y22151D01*
Y22350D01*
X68930Y22400D01*
X69030D01*
X69079Y22350D01*
Y22250D01*
X68980D01*
X69179Y22400D02*
Y22101D01*
X69379Y22400D01*
Y22101D01*
X69478D02*
Y22400D01*
X69628D01*
X69678Y22350D01*
Y22151D01*
X69628Y22101D01*
X69478D01*
X67321Y23999D02*
X67271Y24049D01*
Y24149D01*
X67321Y24199D01*
X67520D01*
X67570Y24149D01*
Y24049D01*
X67520Y23999D01*
X67420D01*
Y24099D01*
X67570Y23900D02*
X67271D01*
X67570Y23700D01*
X67271D01*
Y23601D02*
X67570D01*
Y23451D01*
X67520Y23401D01*
X67321D01*
X67271Y23451D01*
Y23601D01*
D148*
X63436Y17496D02*
G03*
X63436Y17496I-49J0D01*
G01*
D149*
X12370Y25840D02*
Y25939D01*
X50828Y30012D02*
X50927D01*
X44726D02*
X44825D01*
X38663D02*
X38762D01*
X32600D02*
X32699D01*
X26524Y30009D02*
X26622D01*
X20435Y30051D02*
X20533D01*
X12384Y20329D02*
Y20427D01*
X51419Y29992D02*
X51517D01*
X45317D02*
X45415D01*
X39293D02*
X39392D01*
X33191D02*
X33289D01*
X27114Y29989D02*
X27213D01*
X21025Y30032D02*
X21124D01*
X12420Y26411D02*
Y26510D01*
X12404Y20920D02*
Y21018D01*
D150*
X51720Y20729D02*
Y22062D01*
X51054Y22729D01*
X50387Y22062D01*
Y20729D01*
Y21729D01*
X51720D01*
X49721Y22729D02*
Y21062D01*
X49387Y20729D01*
X48721D01*
X48388Y21062D01*
Y22729D01*
X47721D02*
Y21396D01*
X47055Y20729D01*
X46388Y21396D01*
Y22729D01*
X45722D02*
X45055D01*
X45389D01*
Y20729D01*
X45722D01*
X45055D01*
X42723Y22395D02*
X43056Y22729D01*
X43723D01*
X44056Y22395D01*
Y21062D01*
X43723Y20729D01*
X43056D01*
X42723Y21062D01*
X49387Y17610D02*
X50720D01*
X49387Y18943D01*
Y19276D01*
X49721Y19609D01*
X50387D01*
X50720Y19276D01*
X48721D02*
X48388Y19609D01*
X47721D01*
X47388Y19276D01*
Y17943D01*
X47721Y17610D01*
X48388D01*
X48721Y17943D01*
Y19276D01*
X46722Y17610D02*
X46055D01*
X46388D01*
Y19609D01*
X46722Y19276D01*
X45055D02*
X44722Y19609D01*
X44056D01*
X43723Y19276D01*
Y18943D01*
X44056Y18610D01*
X43723Y18276D01*
Y17943D01*
X44056Y17610D01*
X44722D01*
X45055Y17943D01*
Y18276D01*
X44722Y18610D01*
X45055Y18943D01*
Y19276D01*
X44722Y18610D02*
X44056D01*
M02*
