G04 Layer_Color=65535*
%FSLAX24Y24*%
%MOIN*%
G70*
G01*
G75*
%ADD32C,0.0100*%
%ADD33C,0.0197*%
%ADD44C,0.0039*%
%ADD45C,0.0079*%
%ADD46C,0.0098*%
%ADD47C,0.0059*%
%ADD48R,0.0630X0.0217*%
D32*
X48609Y31726D02*
X49059D01*
X48530Y33765D02*
X48980D01*
X48570Y38568D02*
X49020D01*
X48570Y36529D02*
X49020D01*
X48530Y41293D02*
X48980D01*
X48609Y43332D02*
X49059D01*
X29406Y37649D02*
X29856D01*
X29406Y39699D02*
X29856D01*
X29406Y41699D02*
X29856D01*
X38880Y44997D02*
Y45397D01*
X39079Y45597D01*
X39279Y45397D01*
Y44997D01*
Y45297D01*
X38880D01*
X39479Y45597D02*
Y45097D01*
X39579Y44997D01*
X39779D01*
X39879Y45097D01*
Y45597D01*
X40079D02*
Y45197D01*
X40279Y44997D01*
X40479Y45197D01*
Y45597D01*
X40679Y44997D02*
X40879D01*
X40779D01*
Y45397D01*
X40679D01*
X41579D02*
X41279D01*
X41179Y45297D01*
Y45097D01*
X41279Y44997D01*
X41579D01*
X39579Y44037D02*
X39179D01*
X39579Y44437D01*
Y44537D01*
X39479Y44637D01*
X39279D01*
X39179Y44537D01*
X39779D02*
X39879Y44637D01*
X40079D01*
X40179Y44537D01*
Y44137D01*
X40079Y44037D01*
X39879D01*
X39779Y44137D01*
Y44537D01*
X40379Y44037D02*
X40579D01*
X40479D01*
Y44637D01*
X40379Y44537D01*
X40879Y44637D02*
X41279D01*
Y44537D01*
X40879Y44137D01*
Y44037D01*
D33*
X33992Y35599D02*
G03*
X33997Y35559I-76J-29D01*
G01*
X33898Y43898D02*
Y43998D01*
X33998D01*
Y43898D01*
X33898D01*
X36890D02*
Y43998D01*
X36990D01*
Y43898D01*
X36890D01*
D44*
X40577Y40139D02*
G03*
X40390Y40139I-93J0D01*
G01*
X41275Y30266D02*
G03*
X41088Y30266I-93J0D01*
G01*
X45953Y42400D02*
X46150Y42203D01*
X46150Y42400D02*
X46347D01*
X45953Y42203D02*
Y42597D01*
X46150Y42203D02*
Y42597D01*
X45953Y42400D02*
X46150Y42597D01*
X46977Y42046D02*
Y42400D01*
X45363Y42046D02*
X46977D01*
X45363D02*
Y42754D01*
X46977D01*
Y42400D02*
Y42754D01*
X33679Y33122D02*
X38029D01*
Y30522D02*
Y33122D01*
X33679Y30522D02*
X38029D01*
X33679D02*
Y33122D01*
X34928Y38646D02*
X36796D01*
Y36154D02*
Y38646D01*
X34304Y36154D02*
X36796D01*
X34304D02*
Y38634D01*
X34316Y38646D02*
X34616D01*
X34304Y38634D02*
X34316Y38646D01*
X34616D02*
X34928D01*
X40365Y40139D02*
X40577D01*
X40390D02*
X40601D01*
Y41261D01*
X40365D02*
X40601D01*
X40365Y40139D02*
Y41261D01*
X48491Y35957D02*
Y40091D01*
X47309D02*
X48491D01*
X47309Y35957D02*
Y40091D01*
Y35957D02*
X48491D01*
X48504Y31173D02*
Y35307D01*
X47323D02*
X48504D01*
X47323Y31173D02*
Y35307D01*
Y31173D02*
X48504D01*
X32354Y44291D02*
Y45472D01*
X38535D01*
Y44291D02*
Y45472D01*
X32354Y44291D02*
X38535D01*
X29921Y36094D02*
X31102D01*
X29921D02*
Y42276D01*
X31102D01*
Y36094D02*
Y42276D01*
X29961Y35315D02*
X30463D01*
X29961Y33150D02*
Y35315D01*
Y33150D02*
X31142D01*
Y35315D01*
X30463D02*
X31142D01*
X41063Y30266D02*
X41275D01*
X41088D02*
X41299D01*
Y31388D01*
X41063D02*
X41299D01*
X41063Y30266D02*
Y31388D01*
X44504Y43858D02*
Y44360D01*
Y43858D02*
X46669D01*
Y45039D01*
X44504D02*
X46669D01*
X44504Y44360D02*
Y45039D01*
X48441Y40757D02*
Y44891D01*
X47259D02*
X48441D01*
X47259Y40757D02*
Y44891D01*
Y40757D02*
X48441D01*
D45*
X43738Y38900D02*
G03*
X43988Y38900I125J0D01*
G01*
X44105Y31879D02*
G03*
X43847Y31879I-129J0D01*
G01*
X43305Y40011D02*
G03*
X43047Y40011I-129J0D01*
G01*
X39724Y32559D02*
X40354D01*
X40039D02*
Y32638D01*
X32756Y33701D02*
X33071D01*
X34043Y42130D02*
X34357D01*
X32943Y40380D02*
X33257D01*
X42821Y39393D02*
X42979D01*
X42821Y39707D02*
X42979D01*
X41171Y39607D02*
X41329D01*
X41171Y39293D02*
X41329D01*
X39343Y38021D02*
Y38179D01*
X39657Y38021D02*
Y38179D01*
X39291Y30984D02*
X39449D01*
X39291Y30669D02*
X39449D01*
X45787Y37323D02*
X46102D01*
X43434Y38900D02*
X43738D01*
X43988D02*
X44292D01*
Y36900D02*
Y38900D01*
X43434Y36900D02*
X44292D01*
X43434D02*
Y38900D01*
X36575Y41535D02*
Y42165D01*
X34606Y41535D02*
Y42165D01*
X36575D01*
X34606Y41535D02*
X36575D01*
X32543Y35370D02*
X32857D01*
X40957Y42421D02*
Y42579D01*
X40643Y42421D02*
Y42579D01*
X38193Y39580D02*
X38507D01*
X40793Y34421D02*
Y34579D01*
X41107Y34421D02*
Y34579D01*
X38380Y39893D02*
Y40207D01*
X44356Y31879D02*
Y35489D01*
X43596D02*
X44356D01*
X43596Y31879D02*
Y35489D01*
Y31879D02*
X43847D01*
X44105D02*
X44356D01*
X41907Y34121D02*
Y34279D01*
X41593Y34121D02*
Y34279D01*
X43556Y40011D02*
Y43621D01*
X42796D02*
X43556D01*
X42796Y40011D02*
Y43621D01*
Y40011D02*
X43047D01*
X43305D02*
X43556D01*
X30787Y32283D02*
X30945D01*
X30787Y31969D02*
X30945D01*
X32670Y34493D02*
Y34807D01*
X45959Y39194D02*
Y39706D01*
X41385Y37807D02*
X42015D01*
X41385Y37493D02*
Y37807D01*
X42015Y37493D02*
Y37807D01*
X46339Y35748D02*
X46654D01*
X45043Y30921D02*
Y31079D01*
X45357Y30921D02*
Y31079D01*
X44607Y30921D02*
Y31079D01*
X44293Y30921D02*
Y31079D01*
X43189Y31024D02*
X43346D01*
X43189Y31339D02*
X43346D01*
X41593Y31820D02*
X41907D01*
X40197Y34252D02*
Y34409D01*
X39882Y34252D02*
Y34409D01*
X45921Y43407D02*
X46079D01*
X45921Y43093D02*
X46079D01*
X45921Y41458D02*
X46079D01*
X45921Y41773D02*
X46079D01*
X44213Y44134D02*
Y44449D01*
X43504Y45354D02*
X43661D01*
X43504Y45039D02*
X43661D01*
X39493Y43130D02*
X39807D01*
X46339Y33268D02*
Y33425D01*
X46654Y33268D02*
Y33425D01*
X46319Y40197D02*
X46831D01*
X37480Y33661D02*
X37638D01*
X37480Y33976D02*
X37638D01*
X38858Y34803D02*
Y35118D01*
X34843Y33307D02*
Y33701D01*
X35039D01*
X35105Y33635D01*
Y33504D01*
X35039Y33438D01*
X34843D01*
X34974D02*
X35105Y33307D01*
X35433D02*
X35302D01*
X35236Y33373D01*
Y33504D01*
X35302Y33569D01*
X35433D01*
X35498Y33504D01*
Y33438D01*
X35236D01*
X35630Y33307D02*
X35826D01*
X35892Y33373D01*
X35826Y33438D01*
X35695D01*
X35630Y33504D01*
X35695Y33569D01*
X35892D01*
X36220Y33307D02*
X36089D01*
X36023Y33373D01*
Y33504D01*
X36089Y33569D01*
X36220D01*
X36286Y33504D01*
Y33438D01*
X36023D01*
X36482Y33635D02*
Y33569D01*
X36417D01*
X36548D01*
X36482D01*
Y33373D01*
X36548Y33307D01*
D46*
X34535Y40886D02*
G03*
X34535Y40886I-49J0D01*
G01*
D47*
X32579Y45650D02*
Y45945D01*
X32726D01*
X32776Y45896D01*
Y45797D01*
X32726Y45748D01*
X32579D01*
X32677D02*
X32776Y45650D01*
X33071Y45896D02*
X33022Y45945D01*
X32923D01*
X32874Y45896D01*
Y45846D01*
X32923Y45797D01*
X33022D01*
X33071Y45748D01*
Y45699D01*
X33022Y45650D01*
X32923D01*
X32874Y45699D01*
X33317Y45650D02*
Y45945D01*
X33169Y45797D01*
X33366D01*
X33661Y45945D02*
X33464D01*
Y45797D01*
X33563Y45846D01*
X33612D01*
X33661Y45797D01*
Y45699D01*
X33612Y45650D01*
X33513D01*
X33464Y45699D01*
X33759Y45896D02*
X33809Y45945D01*
X33907D01*
X33956Y45896D01*
Y45846D01*
X33907Y45797D01*
X33956Y45748D01*
Y45699D01*
X33907Y45650D01*
X33809D01*
X33759Y45699D01*
Y45748D01*
X33809Y45797D01*
X33759Y45846D01*
Y45896D01*
X33809Y45797D02*
X33907D01*
X34350Y45945D02*
X34448D01*
X34399D01*
Y45650D01*
X34350D01*
X34448D01*
X34596D02*
Y45945D01*
X34793Y45650D01*
Y45945D01*
X34891Y45797D02*
X35088D01*
X35186Y45945D02*
Y45748D01*
X35285Y45650D01*
X35383Y45748D01*
Y45945D01*
X35481Y45650D02*
X35580D01*
X35531D01*
Y45846D01*
X35481D01*
X35727Y45650D02*
Y45846D01*
X35875D01*
X35924Y45797D01*
Y45650D01*
X36023Y45797D02*
X36219D01*
X36514Y45896D02*
X36465Y45945D01*
X36367D01*
X36318Y45896D01*
Y45699D01*
X36367Y45650D01*
X36465D01*
X36514Y45699D01*
Y45797D01*
X36416D01*
X36613Y45650D02*
Y45945D01*
X36810Y45650D01*
Y45945D01*
X36908D02*
Y45650D01*
X37056D01*
X37105Y45699D01*
Y45896D01*
X37056Y45945D01*
X36908D01*
X37203Y45797D02*
X37400D01*
X37646Y45945D02*
X37548D01*
X37498Y45896D01*
Y45699D01*
X37548Y45650D01*
X37646D01*
X37695Y45699D01*
Y45896D01*
X37646Y45945D01*
X37794D02*
Y45699D01*
X37843Y45650D01*
X37941D01*
X37990Y45699D01*
Y45945D01*
X38089D02*
X38286D01*
X38187D01*
Y45650D01*
X29445Y33642D02*
X29744D01*
Y33791D01*
X29694Y33841D01*
X29644D01*
X29595Y33791D01*
Y33642D01*
Y33791D01*
X29545Y33841D01*
X29495D01*
X29445Y33791D01*
Y33642D01*
Y34090D02*
Y33991D01*
X29495Y33941D01*
X29694D01*
X29744Y33991D01*
Y34090D01*
X29694Y34140D01*
X29495D01*
X29445Y34090D01*
Y34390D02*
Y34290D01*
X29495Y34240D01*
X29694D01*
X29744Y34290D01*
Y34390D01*
X29694Y34439D01*
X29495D01*
X29445Y34390D01*
Y34539D02*
Y34738D01*
Y34639D01*
X29744D01*
X29495Y34838D02*
X29445Y34888D01*
Y34988D01*
X29495Y35038D01*
X29694D01*
X29744Y34988D01*
Y34888D01*
X29694Y34838D01*
X29495D01*
X46793Y33860D02*
X47092D01*
Y33711D01*
X47042Y33661D01*
X46942D01*
X46893Y33711D01*
Y33860D01*
Y33760D02*
X46793Y33661D01*
Y33561D02*
Y33461D01*
Y33511D01*
X47092D01*
X47042Y33561D01*
X46793Y33162D02*
X47092D01*
X46942Y33312D01*
Y33112D01*
X42498Y44291D02*
X42449Y44241D01*
Y44141D01*
X42498Y44091D01*
X42698D01*
X42748Y44141D01*
Y44241D01*
X42698Y44291D01*
X42748Y44390D02*
Y44490D01*
Y44440D01*
X42449D01*
X42498Y44390D01*
X39042Y42522D02*
X38992Y42472D01*
Y42373D01*
X39042Y42323D01*
X39241D01*
X39291Y42373D01*
Y42472D01*
X39241Y42522D01*
X39042Y42622D02*
X38992Y42672D01*
Y42772D01*
X39042Y42821D01*
X39092D01*
X39142Y42772D01*
Y42722D01*
Y42772D01*
X39192Y42821D01*
X39241D01*
X39291Y42772D01*
Y42672D01*
X39241Y42622D01*
X47178Y35252D02*
X47227Y35302D01*
Y35401D01*
X47178Y35451D01*
X46978D01*
X46928Y35401D01*
Y35302D01*
X46978Y35252D01*
X47178Y35152D02*
X47227Y35102D01*
Y35003D01*
X47178Y34953D01*
X47128D01*
X47078Y35003D01*
X47028Y34953D01*
X46978D01*
X46928Y35003D01*
Y35102D01*
X46978Y35152D01*
X47028D01*
X47078Y35102D01*
X47128Y35152D01*
X47178D01*
X47078Y35102D02*
Y35003D01*
X41001Y32399D02*
X40951Y32350D01*
Y32250D01*
X41001Y32200D01*
X41200D01*
X41250Y32250D01*
Y32350D01*
X41200Y32399D01*
Y32499D02*
X41250Y32549D01*
Y32649D01*
X41200Y32699D01*
X41001D01*
X40951Y32649D01*
Y32549D01*
X41001Y32499D01*
X41051D01*
X41100Y32549D01*
Y32699D01*
X40951Y37549D02*
X40901Y37500D01*
Y37400D01*
X40951Y37350D01*
X41150D01*
X41200Y37400D01*
Y37500D01*
X41150Y37549D01*
X41200Y37649D02*
Y37749D01*
Y37699D01*
X40901D01*
X40951Y37649D01*
X41200Y37898D02*
Y37998D01*
Y37948D01*
X40901D01*
X40951Y37898D01*
X33029Y32152D02*
X33079Y32102D01*
X33178D01*
X33228Y32152D01*
Y32352D01*
X33178Y32402D01*
X33079D01*
X33029Y32352D01*
X32929Y32402D02*
X32830D01*
X32879D01*
Y32102D01*
X32929Y32152D01*
X32481Y32102D02*
X32580Y32152D01*
X32680Y32252D01*
Y32352D01*
X32630Y32402D01*
X32530D01*
X32481Y32352D01*
Y32302D01*
X32530Y32252D01*
X32680D01*
X33570Y41341D02*
X33520Y41291D01*
Y41192D01*
X33570Y41142D01*
X33769D01*
X33819Y41192D01*
Y41291D01*
X33769Y41341D01*
X33819Y41441D02*
Y41541D01*
Y41491D01*
X33520D01*
X33570Y41441D01*
X33520Y41690D02*
Y41890D01*
X33570D01*
X33769Y41690D01*
X33819D01*
X32113Y36105D02*
X32063Y36055D01*
Y35955D01*
X32113Y35906D01*
X32312D01*
X32362Y35955D01*
Y36055D01*
X32312Y36105D01*
X32362Y36205D02*
Y36304D01*
Y36254D01*
X32063D01*
X32113Y36205D01*
Y36454D02*
X32063Y36504D01*
Y36603D01*
X32113Y36653D01*
X32163D01*
X32213Y36603D01*
X32262Y36653D01*
X32312D01*
X32362Y36603D01*
Y36504D01*
X32312Y36454D01*
X32262D01*
X32213Y36504D01*
X32163Y36454D01*
X32113D01*
X32213Y36504D02*
Y36603D01*
X32270Y34491D02*
X32221Y34441D01*
Y34341D01*
X32270Y34291D01*
X32470D01*
X32520Y34341D01*
Y34441D01*
X32470Y34491D01*
X32520Y34590D02*
Y34690D01*
Y34640D01*
X32221D01*
X32270Y34590D01*
X32470Y34840D02*
X32520Y34890D01*
Y34989D01*
X32470Y35039D01*
X32270D01*
X32221Y34989D01*
Y34890D01*
X32270Y34840D01*
X32320D01*
X32370Y34890D01*
Y35039D01*
X38289Y40129D02*
X38240Y40179D01*
X38140D01*
X38090Y40129D01*
Y39930D01*
X38140Y39880D01*
X38240D01*
X38289Y39930D01*
X38589Y39880D02*
X38389D01*
X38589Y40079D01*
Y40129D01*
X38539Y40179D01*
X38439D01*
X38389Y40129D01*
X38688D02*
X38738Y40179D01*
X38838D01*
X38888Y40129D01*
Y39930D01*
X38838Y39880D01*
X38738D01*
X38688Y39930D01*
Y40129D01*
X37379Y40869D02*
X37330Y40919D01*
X37230D01*
X37180Y40869D01*
Y40670D01*
X37230Y40620D01*
X37330D01*
X37379Y40670D01*
X37679Y40620D02*
X37479D01*
X37679Y40819D01*
Y40869D01*
X37629Y40919D01*
X37529D01*
X37479Y40869D01*
X37778Y40620D02*
X37878D01*
X37828D01*
Y40919D01*
X37778Y40869D01*
X32389Y39963D02*
X32339Y39913D01*
Y39814D01*
X32389Y39764D01*
X32588D01*
X32638Y39814D01*
Y39913D01*
X32588Y39963D01*
X32638Y40262D02*
Y40063D01*
X32438Y40262D01*
X32389D01*
X32339Y40212D01*
Y40113D01*
X32389Y40063D01*
X32638Y40561D02*
Y40362D01*
X32438Y40561D01*
X32389D01*
X32339Y40512D01*
Y40412D01*
X32389Y40362D01*
X38136Y35639D02*
X38086Y35688D01*
X37986D01*
X37936Y35639D01*
Y35439D01*
X37986Y35389D01*
X38086D01*
X38136Y35439D01*
X38435Y35389D02*
X38235D01*
X38435Y35589D01*
Y35639D01*
X38385Y35688D01*
X38285D01*
X38235Y35639D01*
X38534D02*
X38584Y35688D01*
X38684D01*
X38734Y35639D01*
Y35589D01*
X38684Y35539D01*
X38634D01*
X38684D01*
X38734Y35489D01*
Y35439D01*
X38684Y35389D01*
X38584D01*
X38534Y35439D01*
X46139Y36916D02*
X46189Y36866D01*
X46289D01*
X46339Y36916D01*
Y37115D01*
X46289Y37165D01*
X46189D01*
X46139Y37115D01*
X45840Y37165D02*
X46039D01*
X45840Y36966D01*
Y36916D01*
X45890Y36866D01*
X45990D01*
X46039Y36916D01*
X45541Y36866D02*
X45641Y36916D01*
X45740Y37016D01*
Y37115D01*
X45690Y37165D01*
X45591D01*
X45541Y37115D01*
Y37066D01*
X45591Y37016D01*
X45740D01*
X30161Y42804D02*
X30111Y42854D01*
X30012D01*
X29962Y42804D01*
Y42605D01*
X30012Y42555D01*
X30111D01*
X30161Y42605D01*
X30261Y42555D02*
Y42854D01*
X30460Y42555D01*
Y42854D01*
X30560Y42555D02*
X30660D01*
X30610D01*
Y42854D01*
X30560Y42804D01*
X48068Y40381D02*
X48118Y40331D01*
X48218D01*
X48268Y40381D01*
Y40580D01*
X48218Y40630D01*
X48118D01*
X48068Y40580D01*
X47969Y40630D02*
Y40331D01*
X47769Y40630D01*
Y40331D01*
X47470Y40630D02*
X47669D01*
X47470Y40431D01*
Y40381D01*
X47520Y40331D01*
X47620D01*
X47669Y40381D01*
X48068Y35538D02*
X48118Y35488D01*
X48218D01*
X48268Y35538D01*
Y35738D01*
X48218Y35787D01*
X48118D01*
X48068Y35738D01*
X47969Y35787D02*
Y35488D01*
X47769Y35787D01*
Y35488D01*
X47669Y35538D02*
X47620Y35488D01*
X47520D01*
X47470Y35538D01*
Y35588D01*
X47520Y35638D01*
X47570D01*
X47520D01*
X47470Y35688D01*
Y35738D01*
X47520Y35787D01*
X47620D01*
X47669Y35738D01*
X48068Y30735D02*
X48118Y30685D01*
X48218D01*
X48268Y30735D01*
Y30934D01*
X48218Y30984D01*
X48118D01*
X48068Y30934D01*
X47969Y30984D02*
Y30685D01*
X47769Y30984D01*
Y30685D01*
X47520Y30984D02*
Y30685D01*
X47669Y30835D01*
X47470D01*
X31837Y44648D02*
X31788Y44598D01*
Y44499D01*
X31837Y44449D01*
X32037D01*
X32087Y44499D01*
Y44598D01*
X32037Y44648D01*
X32087Y44748D02*
X31788D01*
X32087Y44947D01*
X31788D01*
Y45246D02*
Y45047D01*
X31937D01*
X31887Y45147D01*
Y45197D01*
X31937Y45246D01*
X32037D01*
X32087Y45197D01*
Y45097D01*
X32037Y45047D01*
X44898Y42520D02*
X45197D01*
Y42669D01*
X45147Y42719D01*
X44948D01*
X44898Y42669D01*
Y42520D01*
X45197Y42819D02*
Y42919D01*
Y42869D01*
X44898D01*
X44948Y42819D01*
X39307Y32323D02*
X39606D01*
Y32472D01*
X39556Y32522D01*
X39357D01*
X39307Y32472D01*
Y32323D01*
Y32622D02*
Y32821D01*
X39357D01*
X39556Y32622D01*
X39606D01*
X30201Y35889D02*
X30101D01*
X30151D01*
Y35640D01*
X30101Y35590D01*
X30051D01*
X30001Y35640D01*
X30300Y35590D02*
Y35889D01*
X30450D01*
X30500Y35839D01*
Y35740D01*
X30450Y35690D01*
X30300D01*
X30599Y35590D02*
X30699D01*
X30649D01*
Y35889D01*
X30599Y35839D01*
X39714Y41144D02*
X39515D01*
X39465Y41094D01*
Y40995D01*
X39515Y40945D01*
X39714D01*
X39764Y40995D01*
Y41094D01*
X39664Y41045D02*
X39764Y41144D01*
Y41094D02*
X39714Y41144D01*
X39764Y41244D02*
Y41344D01*
Y41294D01*
X39465D01*
X39515Y41244D01*
X40766Y31721D02*
Y31921D01*
X40716Y31970D01*
X40616D01*
X40566Y31921D01*
Y31721D01*
X40616Y31671D01*
X40716D01*
X40666Y31771D02*
X40766Y31671D01*
X40716D02*
X40766Y31721D01*
X40865Y31921D02*
X40915Y31970D01*
X41015D01*
X41065Y31921D01*
Y31871D01*
X41015Y31821D01*
X40965D01*
X41015D01*
X41065Y31771D01*
Y31721D01*
X41015Y31671D01*
X40915D01*
X40865Y31721D01*
X45866Y41220D02*
Y40921D01*
X45717D01*
X45667Y40971D01*
Y41071D01*
X45717Y41121D01*
X45866D01*
X45766D02*
X45667Y41220D01*
X45567D02*
X45467D01*
X45517D01*
Y40921D01*
X45567Y40971D01*
X45197Y43189D02*
X44898D01*
Y43339D01*
X44948Y43388D01*
X45047D01*
X45097Y43339D01*
Y43189D01*
Y43289D02*
X45197Y43388D01*
X44948Y43488D02*
X44898Y43538D01*
Y43638D01*
X44948Y43688D01*
X44997D01*
X45047Y43638D01*
Y43588D01*
Y43638D01*
X45097Y43688D01*
X45147D01*
X45197Y43638D01*
Y43538D01*
X45147Y43488D01*
X40394Y42402D02*
X40095D01*
Y42551D01*
X40144Y42601D01*
X40244D01*
X40294Y42551D01*
Y42402D01*
Y42501D02*
X40394Y42601D01*
Y42850D02*
X40095D01*
X40244Y42701D01*
Y42900D01*
X42733Y44847D02*
X42434D01*
Y44996D01*
X42483Y45046D01*
X42583D01*
X42633Y44996D01*
Y44847D01*
Y44947D02*
X42733Y45046D01*
X42434Y45345D02*
Y45146D01*
X42583D01*
X42533Y45246D01*
Y45296D01*
X42583Y45345D01*
X42683D01*
X42733Y45296D01*
Y45196D01*
X42683Y45146D01*
X42244Y39291D02*
X41945D01*
Y39441D01*
X41995Y39491D01*
X42095D01*
X42144Y39441D01*
Y39291D01*
Y39391D02*
X42244Y39491D01*
X41945Y39790D02*
X41995Y39690D01*
X42095Y39590D01*
X42194D01*
X42244Y39640D01*
Y39740D01*
X42194Y39790D01*
X42144D01*
X42095Y39740D01*
Y39590D01*
X40512Y39094D02*
X40213D01*
Y39244D01*
X40263Y39294D01*
X40362D01*
X40412Y39244D01*
Y39094D01*
Y39194D02*
X40512Y39294D01*
Y39394D02*
Y39493D01*
Y39443D01*
X40213D01*
X40263Y39394D01*
X40512Y39842D02*
Y39643D01*
X40312Y39842D01*
X40263D01*
X40213Y39792D01*
Y39693D01*
X40263Y39643D01*
X46150Y31350D02*
X46449D01*
Y31200D01*
X46399Y31151D01*
X46300D01*
X46250Y31200D01*
Y31350D01*
Y31250D02*
X46150Y31151D01*
Y31051D02*
Y30951D01*
Y31001D01*
X46449D01*
X46399Y31051D01*
Y30802D02*
X46449Y30752D01*
Y30652D01*
X46399Y30602D01*
X46349D01*
X46300Y30652D01*
Y30702D01*
Y30652D01*
X46250Y30602D01*
X46200D01*
X46150Y30652D01*
Y30752D01*
X46200Y30802D01*
X45650Y31350D02*
X45949D01*
Y31200D01*
X45899Y31151D01*
X45800D01*
X45750Y31200D01*
Y31350D01*
Y31250D02*
X45650Y31151D01*
Y31051D02*
Y30951D01*
Y31001D01*
X45949D01*
X45899Y31051D01*
X45949Y30602D02*
Y30802D01*
X45800D01*
X45849Y30702D01*
Y30652D01*
X45800Y30602D01*
X45700D01*
X45650Y30652D01*
Y30752D01*
X45700Y30802D01*
X41490Y35090D02*
Y35389D01*
X41640D01*
X41689Y35339D01*
Y35240D01*
X41640Y35190D01*
X41490D01*
X41590D02*
X41689Y35090D01*
X41789D02*
X41889D01*
X41839D01*
Y35389D01*
X41789Y35339D01*
X42238Y35389D02*
X42138Y35339D01*
X42038Y35240D01*
Y35140D01*
X42088Y35090D01*
X42188D01*
X42238Y35140D01*
Y35190D01*
X42188Y35240D01*
X42038D01*
X40690Y35390D02*
Y35689D01*
X40840D01*
X40889Y35639D01*
Y35540D01*
X40840Y35490D01*
X40690D01*
X40790D02*
X40889Y35390D01*
X40989D02*
X41089D01*
X41039D01*
Y35689D01*
X40989Y35639D01*
X41238Y35689D02*
X41438D01*
Y35639D01*
X41238Y35440D01*
Y35390D01*
X39070Y37765D02*
X38771D01*
Y37915D01*
X38820Y37965D01*
X38920D01*
X38970Y37915D01*
Y37765D01*
Y37865D02*
X39070Y37965D01*
Y38064D02*
Y38164D01*
Y38114D01*
X38771D01*
X38820Y38064D01*
Y38314D02*
X38771Y38364D01*
Y38463D01*
X38820Y38513D01*
X38870D01*
X38920Y38463D01*
X38970Y38513D01*
X39020D01*
X39070Y38463D01*
Y38364D01*
X39020Y38314D01*
X38970D01*
X38920Y38364D01*
X38870Y38314D01*
X38820D01*
X38920Y38364D02*
Y38463D01*
X36575Y34213D02*
Y34512D01*
X36724D01*
X36774Y34462D01*
Y34362D01*
X36724Y34312D01*
X36575D01*
X36675D02*
X36774Y34213D01*
X37073D02*
X36874D01*
X37073Y34412D01*
Y34462D01*
X37023Y34512D01*
X36924D01*
X36874Y34462D01*
X37372Y34512D02*
X37173D01*
Y34362D01*
X37273Y34412D01*
X37323D01*
X37372Y34362D01*
Y34262D01*
X37323Y34213D01*
X37223D01*
X37173Y34262D01*
X39646Y33937D02*
X39347D01*
Y34087D01*
X39396Y34136D01*
X39496D01*
X39546Y34087D01*
Y33937D01*
Y34037D02*
X39646Y34136D01*
Y34436D02*
Y34236D01*
X39446Y34436D01*
X39396D01*
X39347Y34386D01*
Y34286D01*
X39396Y34236D01*
X39347Y34735D02*
X39396Y34635D01*
X39496Y34535D01*
X39596D01*
X39646Y34585D01*
Y34685D01*
X39596Y34735D01*
X39546D01*
X39496Y34685D01*
Y34535D01*
X31316Y31726D02*
Y31427D01*
X31167D01*
X31117Y31477D01*
Y31576D01*
X31167Y31626D01*
X31316D01*
X31216D02*
X31117Y31726D01*
X30818D02*
X31017D01*
X30818Y31527D01*
Y31477D01*
X30867Y31427D01*
X30967D01*
X31017Y31477D01*
X30718Y31427D02*
X30519D01*
Y31477D01*
X30718Y31676D01*
Y31726D01*
X39055Y31260D02*
Y31559D01*
X39205D01*
X39255Y31509D01*
Y31409D01*
X39205Y31360D01*
X39055D01*
X39155D02*
X39255Y31260D01*
X39354Y31509D02*
X39404Y31559D01*
X39504D01*
X39554Y31509D01*
Y31459D01*
X39504Y31409D01*
X39454D01*
X39504D01*
X39554Y31360D01*
Y31310D01*
X39504Y31260D01*
X39404D01*
X39354Y31310D01*
X39653Y31260D02*
X39753D01*
X39703D01*
Y31559D01*
X39653Y31509D01*
X43668Y30781D02*
Y30482D01*
X43518D01*
X43468Y30532D01*
Y30632D01*
X43518Y30681D01*
X43668D01*
X43568D02*
X43468Y30781D01*
X43369Y30532D02*
X43319Y30482D01*
X43219D01*
X43169Y30532D01*
Y30582D01*
X43219Y30632D01*
X43269D01*
X43219D01*
X43169Y30681D01*
Y30731D01*
X43219Y30781D01*
X43319D01*
X43369Y30731D01*
X42870Y30781D02*
X43069D01*
X42870Y30582D01*
Y30532D01*
X42920Y30482D01*
X43020D01*
X43069Y30532D01*
X32297Y33619D02*
X32346Y33669D01*
Y33769D01*
X32297Y33819D01*
X32247D01*
X32197Y33769D01*
Y33669D01*
X32147Y33619D01*
X32097D01*
X32047Y33669D01*
Y33769D01*
X32097Y33819D01*
X32346Y33520D02*
X32047D01*
Y33370D01*
X32097Y33320D01*
X32147D01*
X32197Y33370D01*
Y33520D01*
Y33370D01*
X32247Y33320D01*
X32297D01*
X32346Y33370D01*
Y33520D01*
X32047Y33221D02*
Y33121D01*
Y33171D01*
X32346D01*
X32297Y33221D01*
X38478Y31808D02*
X38527Y31858D01*
Y31958D01*
X38478Y32008D01*
X38428D01*
X38378Y31958D01*
Y31858D01*
X38328Y31808D01*
X38278D01*
X38228Y31858D01*
Y31958D01*
X38278Y32008D01*
X38527Y31709D02*
X38228D01*
X38328Y31609D01*
X38228Y31509D01*
X38527D01*
X38228Y31410D02*
Y31310D01*
Y31360D01*
X38527D01*
X38478Y31410D01*
X41860Y44219D02*
Y43970D01*
X41910Y43920D01*
X42010D01*
X42059Y43970D01*
Y44219D01*
X42159Y43920D02*
X42259D01*
X42209D01*
Y44219D01*
X42159Y44169D01*
X42660Y36089D02*
Y35840D01*
X42710Y35790D01*
X42810D01*
X42859Y35840D01*
Y36089D01*
X42959Y36039D02*
X43009Y36089D01*
X43109D01*
X43159Y36039D01*
Y35989D01*
X43109Y35940D01*
X43059D01*
X43109D01*
X43159Y35890D01*
Y35840D01*
X43109Y35790D01*
X43009D01*
X42959Y35840D01*
X43622Y39433D02*
Y39184D01*
X43672Y39134D01*
X43772D01*
X43821Y39184D01*
Y39433D01*
X44071Y39134D02*
Y39433D01*
X43921Y39283D01*
X44121D01*
X33701Y40142D02*
Y39892D01*
X33751Y39843D01*
X33850D01*
X33900Y39892D01*
Y40142D01*
X34000D02*
X34199D01*
Y40092D01*
X34000Y39892D01*
Y39843D01*
X45149Y40199D02*
X45100Y40249D01*
X45000D01*
X44950Y40199D01*
Y40000D01*
X45000Y39950D01*
X45100D01*
X45149Y40000D01*
X45249Y39950D02*
X45349D01*
X45299D01*
Y40249D01*
X45249Y40199D01*
X45498D02*
X45548Y40249D01*
X45648D01*
X45698Y40199D01*
Y40000D01*
X45648Y39950D01*
X45548D01*
X45498Y40000D01*
Y40199D01*
X37110Y42087D02*
X36861D01*
X36811Y42037D01*
Y41937D01*
X36861Y41887D01*
X37110D01*
X37060Y41788D02*
X37110Y41738D01*
Y41638D01*
X37060Y41588D01*
X37010D01*
X36961Y41638D01*
X36911Y41588D01*
X36861D01*
X36811Y41638D01*
Y41738D01*
X36861Y41788D01*
X36911D01*
X36961Y41738D01*
X37010Y41788D01*
X37060D01*
X36961Y41738D02*
Y41638D01*
X46421Y40744D02*
X46371Y40794D01*
X46272D01*
X46222Y40744D01*
Y40545D01*
X46272Y40495D01*
X46371D01*
X46421Y40545D01*
X46521Y40744D02*
X46571Y40794D01*
X46671D01*
X46720Y40744D01*
Y40694D01*
X46671Y40644D01*
X46621D01*
X46671D01*
X46720Y40595D01*
Y40545D01*
X46671Y40495D01*
X46571D01*
X46521Y40545D01*
X46820Y40744D02*
X46870Y40794D01*
X46970D01*
X47020Y40744D01*
Y40545D01*
X46970Y40495D01*
X46870D01*
X46820Y40545D01*
Y40744D01*
X47110Y44682D02*
Y44782D01*
Y44732D01*
X46861D01*
X46811Y44782D01*
Y44832D01*
X46861Y44882D01*
X46811Y44583D02*
X47110D01*
Y44433D01*
X47060Y44383D01*
X46961D01*
X46911Y44433D01*
Y44583D01*
X46811Y44084D02*
Y44284D01*
X47010Y44084D01*
X47060D01*
X47110Y44134D01*
Y44234D01*
X47060Y44284D01*
X49921Y34213D02*
X50220D01*
X50121Y34113D01*
X50220Y34013D01*
X49921D01*
Y33864D02*
Y33764D01*
X49971Y33714D01*
X50071D01*
X50121Y33764D01*
Y33864D01*
X50071Y33913D01*
X49971D01*
X49921Y33864D01*
X50171Y33565D02*
X50121D01*
Y33614D01*
Y33515D01*
Y33565D01*
X49971D01*
X49921Y33515D01*
Y33315D02*
Y33216D01*
X49971Y33166D01*
X50071D01*
X50121Y33216D01*
Y33315D01*
X50071Y33365D01*
X49971D01*
X49921Y33315D01*
X50121Y33066D02*
X49921D01*
X50021D01*
X50071Y33016D01*
X50121Y32966D01*
Y32916D01*
X50171Y32468D02*
X50220Y32418D01*
Y32318D01*
X50171Y32268D01*
X50121D01*
X50071Y32318D01*
Y32368D01*
Y32318D01*
X50021Y32268D01*
X49971D01*
X49921Y32318D01*
Y32418D01*
X49971Y32468D01*
X49921Y39016D02*
X50220D01*
X50121Y38916D01*
X50220Y38816D01*
X49921D01*
Y38667D02*
Y38567D01*
X49971Y38517D01*
X50071D01*
X50121Y38567D01*
Y38667D01*
X50071Y38717D01*
X49971D01*
X49921Y38667D01*
X50171Y38368D02*
X50121D01*
Y38418D01*
Y38318D01*
Y38368D01*
X49971D01*
X49921Y38318D01*
Y38118D02*
Y38019D01*
X49971Y37969D01*
X50071D01*
X50121Y38019D01*
Y38118D01*
X50071Y38168D01*
X49971D01*
X49921Y38118D01*
X50121Y37869D02*
X49921D01*
X50021D01*
X50071Y37819D01*
X50121Y37769D01*
Y37720D01*
X49921Y37071D02*
Y37271D01*
X50121Y37071D01*
X50171D01*
X50220Y37121D01*
Y37221D01*
X50171Y37271D01*
X49882Y43701D02*
X50181D01*
X50081Y43601D01*
X50181Y43501D01*
X49882D01*
Y43352D02*
Y43252D01*
X49932Y43202D01*
X50031D01*
X50081Y43252D01*
Y43352D01*
X50031Y43402D01*
X49932D01*
X49882Y43352D01*
X50131Y43053D02*
X50081D01*
Y43103D01*
Y43003D01*
Y43053D01*
X49932D01*
X49882Y43003D01*
Y42803D02*
Y42704D01*
X49932Y42654D01*
X50031D01*
X50081Y42704D01*
Y42803D01*
X50031Y42853D01*
X49932D01*
X49882Y42803D01*
X50081Y42554D02*
X49882D01*
X49982D01*
X50031Y42504D01*
X50081Y42454D01*
Y42405D01*
X49882Y41956D02*
Y41856D01*
Y41906D01*
X50181D01*
X50131Y41956D01*
X49213Y32638D02*
X49512D01*
Y32488D01*
X49462Y32438D01*
X49362D01*
X49312Y32488D01*
Y32638D01*
X49213Y32289D02*
Y32189D01*
X49262Y32139D01*
X49362D01*
X49412Y32189D01*
Y32289D01*
X49362Y32339D01*
X49262D01*
X49213Y32289D01*
Y32040D02*
Y31940D01*
Y31990D01*
X49512D01*
Y32040D01*
X49213Y31641D02*
Y31740D01*
X49262Y31790D01*
X49362D01*
X49412Y31740D01*
Y31641D01*
X49362Y31591D01*
X49312D01*
Y31790D01*
X48661Y33425D02*
X48961D01*
X48861Y33325D01*
X48961Y33226D01*
X48661D01*
Y33076D02*
Y32977D01*
X48711Y32927D01*
X48811D01*
X48861Y32977D01*
Y33076D01*
X48811Y33126D01*
X48711D01*
X48661Y33076D01*
X48911Y32777D02*
X48861D01*
Y32827D01*
Y32727D01*
Y32777D01*
X48711D01*
X48661Y32727D01*
Y32528D02*
Y32428D01*
X48711Y32378D01*
X48811D01*
X48861Y32428D01*
Y32528D01*
X48811Y32578D01*
X48711D01*
X48661Y32528D01*
X48861Y32279D02*
X48661D01*
X48761D01*
X48811Y32229D01*
X48861Y32179D01*
Y32129D01*
X49134Y34055D02*
X49433D01*
X49134Y33856D01*
X49433D01*
X49383Y33557D02*
X49433Y33606D01*
Y33706D01*
X49383Y33756D01*
X49184D01*
X49134Y33706D01*
Y33606D01*
X49184Y33557D01*
X48868Y34911D02*
X48918Y34961D01*
Y35060D01*
X48868Y35110D01*
X48668D01*
X48619Y35060D01*
Y34961D01*
X48668Y34911D01*
X48768D01*
Y35011D01*
X48619Y34811D02*
X48918D01*
X48619Y34612D01*
X48918D01*
Y34512D02*
X48619D01*
Y34362D01*
X48668Y34313D01*
X48868D01*
X48918Y34362D01*
Y34512D01*
X48828Y39714D02*
X48878Y39764D01*
Y39864D01*
X48828Y39913D01*
X48629D01*
X48579Y39864D01*
Y39764D01*
X48629Y39714D01*
X48729D01*
Y39814D01*
X48579Y39614D02*
X48878D01*
X48579Y39415D01*
X48878D01*
Y39315D02*
X48579D01*
Y39166D01*
X48629Y39116D01*
X48828D01*
X48878Y39166D01*
Y39315D01*
X49213Y38858D02*
X49512D01*
X49213Y38659D01*
X49512D01*
X49462Y38360D02*
X49512Y38410D01*
Y38509D01*
X49462Y38559D01*
X49262D01*
X49213Y38509D01*
Y38410D01*
X49262Y38360D01*
X48622Y38228D02*
X48921D01*
X48821Y38129D01*
X48921Y38029D01*
X48622D01*
Y37879D02*
Y37780D01*
X48672Y37730D01*
X48772D01*
X48821Y37780D01*
Y37879D01*
X48772Y37929D01*
X48672D01*
X48622Y37879D01*
X48871Y37580D02*
X48821D01*
Y37630D01*
Y37530D01*
Y37580D01*
X48672D01*
X48622Y37530D01*
Y37331D02*
Y37231D01*
X48672Y37181D01*
X48772D01*
X48821Y37231D01*
Y37331D01*
X48772Y37381D01*
X48672D01*
X48622Y37331D01*
X48821Y37082D02*
X48622D01*
X48722D01*
X48772Y37032D01*
X48821Y36982D01*
Y36932D01*
X49173Y37087D02*
X49472D01*
Y36937D01*
X49422Y36887D01*
X49323D01*
X49273Y36937D01*
Y37087D01*
X49173Y36738D02*
Y36638D01*
X49223Y36588D01*
X49323D01*
X49373Y36638D01*
Y36738D01*
X49323Y36788D01*
X49223D01*
X49173Y36738D01*
Y36488D02*
Y36389D01*
Y36439D01*
X49472D01*
Y36488D01*
X49173Y36090D02*
Y36189D01*
X49223Y36239D01*
X49323D01*
X49373Y36189D01*
Y36090D01*
X49323Y36040D01*
X49273D01*
Y36239D01*
X49134Y41811D02*
X49433D01*
Y41661D01*
X49383Y41612D01*
X49283D01*
X49234Y41661D01*
Y41811D01*
X49134Y41462D02*
Y41362D01*
X49184Y41312D01*
X49283D01*
X49333Y41362D01*
Y41462D01*
X49283Y41512D01*
X49184D01*
X49134Y41462D01*
Y41213D02*
Y41113D01*
Y41163D01*
X49433D01*
Y41213D01*
X49134Y40814D02*
Y40914D01*
X49184Y40964D01*
X49283D01*
X49333Y40914D01*
Y40814D01*
X49283Y40764D01*
X49234D01*
Y40964D01*
X48583Y42992D02*
X48882D01*
X48782Y42892D01*
X48882Y42793D01*
X48583D01*
Y42643D02*
Y42543D01*
X48633Y42494D01*
X48732D01*
X48782Y42543D01*
Y42643D01*
X48732Y42693D01*
X48633D01*
X48583Y42643D01*
X48832Y42344D02*
X48782D01*
Y42394D01*
Y42294D01*
Y42344D01*
X48633D01*
X48583Y42294D01*
Y42095D02*
Y41995D01*
X48633Y41945D01*
X48732D01*
X48782Y41995D01*
Y42095D01*
X48732Y42145D01*
X48633D01*
X48583Y42095D01*
X48782Y41846D02*
X48583D01*
X48682D01*
X48732Y41796D01*
X48782Y41746D01*
Y41696D01*
X49551Y43740D02*
X49252D01*
Y43591D01*
X49302Y43541D01*
X49352D01*
X49402Y43591D01*
Y43740D01*
Y43591D01*
X49451Y43541D01*
X49501D01*
X49551Y43591D01*
Y43740D01*
Y43242D02*
Y43441D01*
X49252D01*
Y43242D01*
X49402Y43441D02*
Y43341D01*
X49501Y42943D02*
X49551Y42992D01*
Y43092D01*
X49501Y43142D01*
X49302D01*
X49252Y43092D01*
Y42992D01*
X49302Y42943D01*
X48789Y44478D02*
X48839Y44528D01*
Y44627D01*
X48789Y44677D01*
X48590D01*
X48540Y44627D01*
Y44528D01*
X48590Y44478D01*
X48689D01*
Y44577D01*
X48540Y44378D02*
X48839D01*
X48540Y44179D01*
X48839D01*
Y44079D02*
X48540D01*
Y43929D01*
X48590Y43880D01*
X48789D01*
X48839Y43929D01*
Y44079D01*
X34803Y44058D02*
X35003Y43858D01*
X34903Y43958D01*
X35003Y44058D01*
X34803Y43858D01*
X29306Y37149D02*
X29006D01*
X29306Y37349D01*
X29006D01*
X29306Y37448D02*
X29006D01*
Y37598D01*
X29056Y37648D01*
X29156D01*
X29206Y37598D01*
Y37448D01*
Y37548D02*
X29306Y37648D01*
X29056Y37947D02*
X29006Y37897D01*
Y37797D01*
X29056Y37747D01*
X29106D01*
X29156Y37797D01*
Y37897D01*
X29206Y37947D01*
X29256D01*
X29306Y37897D01*
Y37797D01*
X29256Y37747D01*
X29006Y38047D02*
Y38246D01*
Y38146D01*
X29306D01*
X29556Y36399D02*
X29506Y36349D01*
Y36249D01*
X29556Y36199D01*
X29606D01*
X29656Y36249D01*
Y36349D01*
X29706Y36399D01*
X29756D01*
X29806Y36349D01*
Y36249D01*
X29756Y36199D01*
X29506Y36498D02*
X29806D01*
X29706Y36598D01*
X29806Y36698D01*
X29506D01*
Y36947D02*
Y36847D01*
X29556Y36797D01*
X29756D01*
X29806Y36847D01*
Y36947D01*
X29756Y36997D01*
X29556D01*
X29506Y36947D01*
X29556Y38249D02*
X29506Y38199D01*
Y38099D01*
X29556Y38049D01*
X29606D01*
X29656Y38099D01*
Y38199D01*
X29706Y38249D01*
X29756D01*
X29806Y38199D01*
Y38099D01*
X29756Y38049D01*
X29506Y38348D02*
X29806D01*
X29706Y38448D01*
X29806Y38548D01*
X29506D01*
Y38647D02*
X29806D01*
Y38797D01*
X29756Y38847D01*
X29556D01*
X29506Y38797D01*
Y38647D01*
Y38947D02*
Y39046D01*
Y38996D01*
X29806D01*
Y38947D01*
Y39046D01*
X29506Y39345D02*
Y39246D01*
X29556Y39196D01*
X29756D01*
X29806Y39246D01*
Y39345D01*
X29756Y39395D01*
X29556D01*
X29506Y39345D01*
X29006Y39499D02*
X28956Y39449D01*
Y39349D01*
X29006Y39299D01*
X29206D01*
X29256Y39349D01*
Y39449D01*
X29206Y39499D01*
X29106D01*
Y39399D01*
X29256Y39598D02*
X28956D01*
X29256Y39798D01*
X28956D01*
Y39897D02*
X29256D01*
Y40047D01*
X29206Y40097D01*
X29006D01*
X28956Y40047D01*
Y39897D01*
X29506Y40099D02*
X29456Y40049D01*
Y39949D01*
X29506Y39899D01*
X29556D01*
X29606Y39949D01*
Y40049D01*
X29656Y40099D01*
X29706D01*
X29756Y40049D01*
Y39949D01*
X29706Y39899D01*
X29456Y40198D02*
X29756D01*
X29656Y40298D01*
X29756Y40398D01*
X29456D01*
X29506Y40697D02*
X29456Y40647D01*
Y40547D01*
X29506Y40497D01*
X29706D01*
X29756Y40547D01*
Y40647D01*
X29706Y40697D01*
X29456Y40797D02*
X29756D01*
Y40996D01*
X29456Y41096D02*
X29756D01*
X29656D01*
X29456Y41295D01*
X29606Y41146D01*
X29756Y41295D01*
X28956Y41199D02*
X28906Y41249D01*
Y41349D01*
X28956Y41399D01*
X29006D01*
X29056Y41349D01*
Y41299D01*
Y41349D01*
X29106Y41399D01*
X29156D01*
X29206Y41349D01*
Y41249D01*
X29156Y41199D01*
X29206Y41498D02*
X29156D01*
Y41548D01*
X29206D01*
Y41498D01*
X28956Y41748D02*
X28906Y41797D01*
Y41897D01*
X28956Y41947D01*
X29006D01*
X29056Y41897D01*
Y41847D01*
Y41897D01*
X29106Y41947D01*
X29156D01*
X29206Y41897D01*
Y41797D01*
X29156Y41748D01*
X28906Y42047D02*
X29106D01*
X29206Y42146D01*
X29106Y42246D01*
X28906D01*
X29318Y43388D02*
X29268Y43339D01*
Y43239D01*
X29318Y43189D01*
X29368D01*
X29417Y43239D01*
Y43339D01*
X29467Y43388D01*
X29517D01*
X29567Y43339D01*
Y43239D01*
X29517Y43189D01*
X29268Y43488D02*
X29567D01*
X29467Y43588D01*
X29567Y43688D01*
X29268D01*
Y43787D02*
X29567D01*
Y43937D01*
X29517Y43987D01*
X29318D01*
X29268Y43937D01*
Y43787D01*
X44370Y45614D02*
Y45315D01*
X44520D01*
X44569Y45365D01*
Y45415D01*
X44520Y45465D01*
X44370D01*
X44520D01*
X44569Y45514D01*
Y45564D01*
X44520Y45614D01*
X44370D01*
X44869D02*
X44669D01*
Y45315D01*
X44869D01*
X44669Y45465D02*
X44769D01*
X45168Y45564D02*
X45118Y45614D01*
X45018D01*
X44968Y45564D01*
Y45365D01*
X45018Y45315D01*
X45118D01*
X45168Y45365D01*
X45716Y45315D02*
X45616D01*
X45567Y45365D01*
Y45465D01*
X45616Y45514D01*
X45716D01*
X45766Y45465D01*
Y45415D01*
X45567D01*
X45866Y45315D02*
Y45514D01*
X46015D01*
X46065Y45465D01*
Y45315D01*
X46215Y45514D02*
X46314D01*
X46364Y45465D01*
Y45315D01*
X46215D01*
X46165Y45365D01*
X46215Y45415D01*
X46364D01*
X46464Y45614D02*
Y45315D01*
X46613D01*
X46663Y45365D01*
Y45415D01*
Y45465D01*
X46613Y45514D01*
X46464D01*
X46763Y45315D02*
X46863D01*
X46813D01*
Y45614D01*
X46763D01*
X47162Y45315D02*
X47062D01*
X47012Y45365D01*
Y45465D01*
X47062Y45514D01*
X47162D01*
X47212Y45465D01*
Y45415D01*
X47012D01*
D48*
X41700Y37699D02*
D03*
M02*
