M48
;Layer_Color=9474304
;FILE_FORMAT=2:4
INCH
;TYPE=PLATED
T1F00S00C0.0100
T2F00S00C0.0319
T3F00S00C0.0354
T4F00S00C0.0400
T5F00S00C0.0488
T6F00S00C0.0512
T7F00S00C0.0591
T8F00S00C0.1181
%
T01
X060650Y010390
X060220Y012440
X059850Y015240
X064260Y014730
X065040Y015080
X065970Y012490
X063667Y012063
X063730Y011338
X063950Y017920
X063870Y018815
X063568Y018560
X064970Y019800
X066530Y019292
X064500Y021402
X064510Y022990
X064360Y023500
X064020Y023582
X064520Y024710
X064320Y025252
X063372Y025250
X062584Y025228
X063170Y027070
X064300Y027700
X064905Y026617
X065560Y026830
X065183Y025502
X065880Y024978
X067153Y025582
X066070Y023012
X062860Y021070
X060510Y021660
X060230Y021390
X059910Y021210
X059740Y020900
X060090Y022340
X059860Y022588
X059970Y022995
X059960Y023378
X060700Y023630
X060480Y022180
X058200Y022440
X058330Y023678
X057520Y023190
X057480Y017110
X058460Y016220
X058930Y017650
X060590Y017530
X060190Y018910
X059840Y018590
X062180Y018440
X060650Y015660
X054350Y015702
X049720Y015682
X051200Y019100
X047902Y018860
X047402
X048581Y026602
X049220Y026930
X049520Y027230
X050370Y028170
X050094Y030029
X048594Y030416
X047896Y028636
X050435Y025598
X051644Y026129
X052567Y025083
X051572Y024051
X054679Y026595
X053994Y028629
X055060Y029220
X056086Y029510
X055990Y028330
X062470Y027000
X045546Y026136
X044337Y025605
X043090Y027000
X042530Y026579
X041845Y028614
X044130Y028160
X043996Y030036
X037945Y030014
X038130Y028040
X037020Y027030
X036463Y026592
X035778Y028627
X033330Y027600
X033428Y026127
X032219Y025596
X031980Y027300
X031570Y027620
X031878Y030027
X032050Y023200
X031760Y022830
X031300Y022780
X033356Y024049
X034351Y025080
X038286Y025583
X039495Y026114
X040418Y025067
X039423Y024035
X041334Y023080
X045475Y024058
X046469Y025089
X046402Y018860
X045900Y018900
X045010Y015652
X040340Y015680
X035570Y015702
X036300Y020670
X028740Y021700
X027590Y020660
X026990Y019890
X028140Y019340
X024230Y020110
X024134Y022160
X024293Y026607
X024730Y027630
X026146Y027115
X026137Y025583
X027346Y026115
X027330Y027530
X028269Y025068
X027274Y024036
X030381Y026580
X029696Y028615
X027681Y030780
X025796Y030015
X024256Y029864
X023608Y028641
X020930Y027610
X019660
X020058Y027141
X020049Y025610
X021258Y026141
X022181Y025095
X021187Y024063
X020100Y022740
X019104Y020880
X018344Y021077
X017313Y022072
X016266Y021149
X016797Y019940
X019600Y019330
X020084Y019300
X021094Y019370
X021604Y019380
X021034Y016500
X026190Y015670
X030740Y015660
X015801Y024183
X016708Y025664
X016720Y026970
X016703Y027546
X017223Y027796
X016177Y026873
X018255Y026802
X019708Y030041
X015711Y029908
X015000Y025080
X014210Y025323
X012277
X012323Y024393
X013766Y023499
X014930Y019930
X012366Y019599
T02
X047078Y028073
Y028860
X051606Y028860
Y028073
X052393
X053181
Y028860
X052393
X046291Y028860
X045504
Y028073
X046291
X041016
X040228
X039441
Y028860
X040228
X041016
X034953Y028860
X034165
X033378
Y028073
X034165
X034953
X028876Y028070
X028089
X027301
Y028857
X028089
X028876
X022787Y028860
X022000
X021212
Y028073
X022000
X022787
X014323Y028229
Y027441
Y026654
X013536
Y027441
Y028229
Y022681
Y021894
Y021107
X014323
Y021894
Y022681
T03
X060650Y014080
X061650
X062650
X063650
X064650
X065650
X067110Y011880
Y010880
X069310Y020470
Y021470
X062010Y016889
Y015889
T04
X068300Y022800
X069300
Y023800
X068300
X062830Y029470
Y030470
X061830
Y029470
X060830
X059830
Y030470
X060830
T05
X068610Y014363
Y015741
Y017119
Y018497
T06
X012340Y012660
Y014707
X017261
Y012660
X017110Y016407
Y018454
X012189
Y016407
T07
X023390Y011900
X025359
X028040
X030008
X032750
X034718
X037520
X039488
X042170
X044138
X046860
X048829
X051630
X053598
X056300
X058268
T08
X012280Y011330
X068650
Y030070
X055940Y020500
X025950
X012280Y030070
M30
