G04 Layer_Color=16711935*
%FSLAX24Y24*%
%MOIN*%
G70*
G01*
G75*
%ADD100R,0.0474X0.0474*%
%ADD101R,0.0434X0.0474*%
%ADD102R,0.0474X0.0434*%
%ADD105R,0.0474X0.0474*%
%ADD132C,0.0552*%
%ADD133C,0.1458*%
%ADD134C,0.0789*%
%ADD135C,0.0680*%
%ADD136C,0.0630*%
%ADD137O,0.1005X0.0966*%
%ADD138C,0.0966*%
%ADD139C,0.0867*%
%ADD140R,4.7250X0.2750*%
%ADD141R,0.0395X0.0316*%
%ADD142R,0.0316X0.0395*%
%ADD143O,0.1064X0.0356*%
%ADD144R,0.0474X0.0356*%
%ADD145O,0.0474X0.0356*%
%ADD146R,0.0356X0.0474*%
%ADD147O,0.0356X0.0474*%
D100*
X62745Y17910D02*
D03*
X63375D02*
D03*
X17520Y27287D02*
D03*
X18150D02*
D03*
X17591Y21540D02*
D03*
X18221D02*
D03*
D101*
X24225Y28150D02*
D03*
X23555D02*
D03*
X17658Y29059D02*
D03*
X18327D02*
D03*
X11950Y28229D02*
D03*
X12619D02*
D03*
X11950Y27441D02*
D03*
X12619D02*
D03*
X17729Y23311D02*
D03*
X18398D02*
D03*
X12905Y25050D02*
D03*
X13575D02*
D03*
X12532Y23508D02*
D03*
X13201D02*
D03*
X11981Y22681D02*
D03*
X12650D02*
D03*
X11981Y21894D02*
D03*
X12650D02*
D03*
X13005Y19650D02*
D03*
X13675D02*
D03*
X13674Y20359D02*
D03*
X14343D02*
D03*
X13604Y25867D02*
D03*
X14273D02*
D03*
D102*
X53811Y24668D02*
D03*
Y23998D02*
D03*
X54008Y29864D02*
D03*
Y29195D02*
D03*
X53181Y30416D02*
D03*
Y29746D02*
D03*
X52393Y30416D02*
D03*
Y29746D02*
D03*
X50858Y28723D02*
D03*
Y28053D02*
D03*
X49992Y29392D02*
D03*
Y28723D02*
D03*
X47708Y24668D02*
D03*
Y23998D02*
D03*
X47905Y29864D02*
D03*
Y29195D02*
D03*
X47078Y30416D02*
D03*
Y29746D02*
D03*
X46291Y30416D02*
D03*
Y29746D02*
D03*
X44756Y28723D02*
D03*
Y28053D02*
D03*
X43890Y29392D02*
D03*
Y28723D02*
D03*
X41645Y24628D02*
D03*
Y23959D02*
D03*
X41842Y29825D02*
D03*
Y29156D02*
D03*
X41055Y30376D02*
D03*
Y29707D02*
D03*
X40228Y30376D02*
D03*
Y29707D02*
D03*
X38693Y28723D02*
D03*
Y28053D02*
D03*
X37748Y29353D02*
D03*
Y28683D02*
D03*
X35779Y29864D02*
D03*
Y29195D02*
D03*
X34992Y30416D02*
D03*
Y29746D02*
D03*
X34165Y30416D02*
D03*
Y29746D02*
D03*
X32630Y28723D02*
D03*
Y28053D02*
D03*
X31764Y29392D02*
D03*
Y28723D02*
D03*
X35582Y24628D02*
D03*
Y23959D02*
D03*
X29506Y24625D02*
D03*
Y23955D02*
D03*
X28915Y30373D02*
D03*
Y29703D02*
D03*
X29703Y29822D02*
D03*
Y29152D02*
D03*
X28089Y30373D02*
D03*
Y29703D02*
D03*
X26553Y28719D02*
D03*
Y28050D02*
D03*
X25687Y29388D02*
D03*
Y28719D02*
D03*
X23417Y24667D02*
D03*
Y23998D02*
D03*
X23614Y29864D02*
D03*
Y29195D02*
D03*
X22000Y30416D02*
D03*
Y29746D02*
D03*
X20464Y28723D02*
D03*
Y28053D02*
D03*
X19598Y29392D02*
D03*
Y28723D02*
D03*
X11770Y24825D02*
D03*
Y24155D02*
D03*
D105*
X45937Y24805D02*
D03*
Y24175D02*
D03*
X39913Y24766D02*
D03*
Y24136D02*
D03*
X33811Y24805D02*
D03*
Y24175D02*
D03*
X27734Y24763D02*
D03*
Y24133D02*
D03*
X21645Y24805D02*
D03*
Y24175D02*
D03*
X52039Y24805D02*
D03*
Y24175D02*
D03*
D132*
X65650Y14080D02*
D03*
X64650D02*
D03*
X61650D02*
D03*
X60650D02*
D03*
X63650D02*
D03*
X62650D02*
D03*
X67110Y11880D02*
D03*
Y10880D02*
D03*
X51606Y28073D02*
D03*
X52393D02*
D03*
X53181D02*
D03*
Y28860D02*
D03*
X52393D02*
D03*
X51606D02*
D03*
X45504Y28860D02*
D03*
X46291D02*
D03*
X47078D02*
D03*
Y28073D02*
D03*
X46291D02*
D03*
X45504D02*
D03*
X39441D02*
D03*
X40228D02*
D03*
X41016D02*
D03*
Y28860D02*
D03*
X40228D02*
D03*
X39441D02*
D03*
X33378Y28860D02*
D03*
X34165D02*
D03*
X34953D02*
D03*
Y28073D02*
D03*
X34165D02*
D03*
X33378D02*
D03*
X27301Y28070D02*
D03*
X28089D02*
D03*
X28876D02*
D03*
Y28857D02*
D03*
X28089D02*
D03*
X27301D02*
D03*
X21212Y28860D02*
D03*
X22000D02*
D03*
X22787D02*
D03*
Y28073D02*
D03*
X22000D02*
D03*
X21212D02*
D03*
X14323Y26654D02*
D03*
Y27441D02*
D03*
Y28229D02*
D03*
X13536D02*
D03*
Y27441D02*
D03*
Y26654D02*
D03*
Y21107D02*
D03*
Y21894D02*
D03*
Y22681D02*
D03*
X14323D02*
D03*
Y21894D02*
D03*
Y21107D02*
D03*
X69310Y21470D02*
D03*
Y20470D02*
D03*
X62010Y15889D02*
D03*
Y16889D02*
D03*
D133*
X68650Y11330D02*
D03*
X12280Y30070D02*
D03*
X68650D02*
D03*
X12280Y11330D02*
D03*
X25950Y20500D02*
D03*
X55940D02*
D03*
D134*
X12340Y12660D02*
D03*
X17261D02*
D03*
Y14707D02*
D03*
X12340D02*
D03*
X12189Y18454D02*
D03*
X17110D02*
D03*
Y16407D02*
D03*
X12189D02*
D03*
D135*
X62830Y30470D02*
D03*
Y29470D02*
D03*
X59830D02*
D03*
X60830D02*
D03*
X61830D02*
D03*
Y30470D02*
D03*
X60830D02*
D03*
X59830D02*
D03*
D136*
X69300Y23800D02*
D03*
Y22800D02*
D03*
X68300D02*
D03*
Y23800D02*
D03*
D137*
X58268Y11900D02*
D03*
X53598D02*
D03*
X48829D02*
D03*
X44138D02*
D03*
X39488D02*
D03*
X34718D02*
D03*
X30008D02*
D03*
X25359D02*
D03*
D138*
X56300D02*
D03*
X51630D02*
D03*
X46860D02*
D03*
X42170D02*
D03*
X37520D02*
D03*
X32750D02*
D03*
X28040D02*
D03*
X23390D02*
D03*
D139*
X68610Y18497D02*
D03*
Y17119D02*
D03*
Y15741D02*
D03*
Y14363D02*
D03*
D140*
X35225Y13925D02*
D03*
D141*
X12793Y25870D02*
D03*
X11967D02*
D03*
X11981Y20359D02*
D03*
X12808D02*
D03*
X11997Y26480D02*
D03*
X12823D02*
D03*
X12808Y20989D02*
D03*
X11981D02*
D03*
D142*
X50858Y30416D02*
D03*
Y29589D02*
D03*
X44756D02*
D03*
Y30416D02*
D03*
X38693D02*
D03*
Y29589D02*
D03*
X32630D02*
D03*
Y30416D02*
D03*
X26553Y30412D02*
D03*
Y29585D02*
D03*
X20464Y29628D02*
D03*
Y30455D02*
D03*
X51488Y30416D02*
D03*
Y29589D02*
D03*
X45386D02*
D03*
Y30416D02*
D03*
X39362D02*
D03*
Y29589D02*
D03*
X33260D02*
D03*
Y30416D02*
D03*
X27183Y30412D02*
D03*
Y29585D02*
D03*
X21094Y29628D02*
D03*
Y30455D02*
D03*
D143*
X65316Y15641D02*
D03*
Y16141D02*
D03*
Y16641D02*
D03*
Y17141D02*
D03*
X63387Y15641D02*
D03*
Y16141D02*
D03*
Y16641D02*
D03*
Y17141D02*
D03*
D144*
X48575Y26026D02*
D03*
X42512D02*
D03*
X36449D02*
D03*
X30372Y26022D02*
D03*
X24283Y26026D02*
D03*
X54677Y26026D02*
D03*
D145*
X48575Y25278D02*
D03*
X47708Y25652D02*
D03*
X42512Y25278D02*
D03*
X41645Y25652D02*
D03*
X36449Y25278D02*
D03*
X35582Y25652D02*
D03*
X30372Y25274D02*
D03*
X29506Y25648D02*
D03*
X24283Y25278D02*
D03*
X23417Y25652D02*
D03*
X54677Y25278D02*
D03*
X53811Y25652D02*
D03*
D146*
X16261Y29925D02*
D03*
X16371Y24177D02*
D03*
D147*
X17009Y29925D02*
D03*
X16635Y29059D02*
D03*
X17119Y24177D02*
D03*
X16745Y23311D02*
D03*
M02*
