G04 Layer_Color=65535*
%FSLAX24Y24*%
%MOIN*%
G70*
G01*
G75*
%ADD10C,0.0118*%
%ADD11C,0.0079*%
%ADD47C,0.0100*%
%ADD95C,0.0039*%
%ADD96C,0.0020*%
%ADD97C,0.0060*%
%ADD98C,0.0059*%
D10*
X15376Y11478D02*
X15475Y11380D01*
X15672D01*
X15770Y11478D01*
Y11872D01*
X15672Y11970D01*
X15475D01*
X15376Y11872D01*
Y11675D01*
X15573D01*
X15180Y11970D02*
Y11380D01*
X14786Y11970D01*
Y11380D01*
X14589D02*
Y11970D01*
X14294D01*
X14196Y11872D01*
Y11478D01*
X14294Y11380D01*
X14589D01*
X12610Y19790D02*
Y19397D01*
X12807Y19200D01*
X13004Y19397D01*
Y19790D01*
X13200D02*
Y19200D01*
X13496D01*
X13594Y19298D01*
Y19397D01*
X13496Y19495D01*
X13200D01*
X13496D01*
X13594Y19594D01*
Y19692D01*
X13496Y19790D01*
X13200D01*
X13791Y19200D02*
Y19594D01*
X13988Y19790D01*
X14184Y19594D01*
Y19200D01*
Y19495D01*
X13791D01*
X14381Y19790D02*
X14775D01*
X14578D01*
Y19200D01*
X13820Y11070D02*
Y10677D01*
X14017Y10480D01*
X14214Y10677D01*
Y11070D01*
X14410Y10480D02*
X14607D01*
X14509D01*
Y10874D01*
X14410D01*
X14902Y10480D02*
Y10874D01*
X15198D01*
X15296Y10775D01*
Y10480D01*
X16477Y11070D02*
X16083D01*
Y10775D01*
X16280Y10874D01*
X16378D01*
X16477Y10775D01*
Y10578D01*
X16378Y10480D01*
X16181D01*
X16083Y10578D01*
X16673Y10775D02*
X17067D01*
X17264Y10972D02*
X17362Y11070D01*
X17559D01*
X17657Y10972D01*
Y10874D01*
X17559Y10775D01*
X17461D01*
X17559D01*
X17657Y10677D01*
Y10578D01*
X17559Y10480D01*
X17362D01*
X17264Y10578D01*
X17854Y10972D02*
X17953Y11070D01*
X18149D01*
X18248Y10972D01*
Y10578D01*
X18149Y10480D01*
X17953D01*
X17854Y10578D01*
Y10972D01*
X18444Y11070D02*
Y10677D01*
X18641Y10480D01*
X18838Y10677D01*
Y11070D01*
X18780Y18510D02*
X18387D01*
X18190Y18313D01*
X18387Y18116D01*
X18780D01*
Y17920D02*
X18190D01*
Y17624D01*
X18288Y17526D01*
X18387D01*
X18485Y17624D01*
Y17920D01*
Y17624D01*
X18584Y17526D01*
X18682D01*
X18780Y17624D01*
Y17920D01*
X18190Y17329D02*
X18584D01*
X18780Y17132D01*
X18584Y16936D01*
X18190D01*
X18485D01*
Y17329D01*
X18780Y16739D02*
Y16345D01*
Y16542D01*
X18190D01*
X18902Y14106D02*
X19000Y14205D01*
Y14402D01*
X18902Y14500D01*
X18508D01*
X18410Y14402D01*
Y14205D01*
X18508Y14106D01*
X18705D01*
Y14303D01*
X18410Y13910D02*
X19000D01*
X18410Y13516D01*
X19000D01*
Y13319D02*
X18410D01*
Y13024D01*
X18508Y12926D01*
X18902D01*
X19000Y13024D01*
Y13319D01*
D11*
X51910Y27386D02*
G03*
X52168Y27386I129J0D01*
G01*
X45808Y27425D02*
G03*
X46066Y27425I129J0D01*
G01*
X39745Y27386D02*
G03*
X40003Y27386I129J0D01*
G01*
X33682D02*
G03*
X33940Y27386I129J0D01*
G01*
X27605Y27383D02*
G03*
X27863Y27383I129J0D01*
G01*
X21516Y27425D02*
G03*
X21774Y27425I129J0D01*
G01*
X15010Y21411D02*
G03*
X15010Y21669I0J129D01*
G01*
X14900Y27119D02*
G03*
X14900Y27377I0J129D01*
G01*
X40149Y21702D02*
G03*
X40399Y21702I125J0D01*
G01*
X64060Y15073D02*
Y15387D01*
X54283Y27286D02*
X54441D01*
X54283Y26971D02*
X54441D01*
X54874Y25947D02*
Y26262D01*
X54086Y25002D02*
Y25160D01*
X53771Y25002D02*
Y25160D01*
X54519Y24687D02*
Y24845D01*
X54834Y24687D02*
Y24845D01*
X51659Y23776D02*
Y27386D01*
Y23776D02*
X52419D01*
Y27386D01*
X52168D02*
X52419D01*
X51659D02*
X51910D01*
X50189Y26301D02*
Y26459D01*
X49874Y26301D02*
Y26459D01*
X49874Y24136D02*
X50189D01*
X48456Y24687D02*
Y24845D01*
X48771Y24687D02*
Y24845D01*
X48023Y25002D02*
Y25160D01*
X47708Y25002D02*
Y25160D01*
X48811Y25947D02*
Y26262D01*
X48181Y27325D02*
X48338D01*
X48181Y27010D02*
X48338D01*
X45557Y23815D02*
Y27425D01*
Y23815D02*
X46317D01*
Y27425D01*
X46066D02*
X46317D01*
X45557D02*
X45808D01*
X43771Y24136D02*
X44086D01*
X44086Y26301D02*
Y26459D01*
X43771Y26301D02*
Y26459D01*
X42118Y27286D02*
X42275D01*
X42118Y26971D02*
X42275D01*
X42748Y25947D02*
Y26262D01*
X41960Y24963D02*
Y25120D01*
X41645Y24963D02*
Y25120D01*
X42354Y24609D02*
Y24766D01*
X42669Y24609D02*
Y24766D01*
X39494Y23776D02*
Y27386D01*
Y23776D02*
X40254D01*
Y27386D01*
X40003D02*
X40254D01*
X39494D02*
X39745D01*
X38063Y26262D02*
Y26420D01*
X37748Y26262D02*
Y26420D01*
X37748Y24136D02*
X38063D01*
X36055Y27286D02*
X36212D01*
X36055Y26971D02*
X36212D01*
X36685Y25947D02*
Y26262D01*
X35897Y25002D02*
Y25160D01*
X35582Y25002D02*
Y25160D01*
X36330Y24648D02*
Y24805D01*
X36645Y24648D02*
Y24805D01*
X33431Y23776D02*
Y27386D01*
Y23776D02*
X34191D01*
Y27386D01*
X33940D02*
X34191D01*
X33431D02*
X33682D01*
X32000Y26301D02*
Y26459D01*
X31685Y26301D02*
Y26459D01*
X31685Y24136D02*
X32000D01*
X29978Y27282D02*
X30136D01*
X29978Y26967D02*
X30136D01*
X30608Y25944D02*
Y26259D01*
X29821Y24959D02*
Y25117D01*
X29506Y24959D02*
Y25117D01*
X30254Y24644D02*
Y24802D01*
X30569Y24644D02*
Y24802D01*
X27354Y23772D02*
Y27383D01*
Y23772D02*
X28114D01*
Y27383D01*
X27863D02*
X28114D01*
X27354D02*
X27605D01*
X25884Y26259D02*
Y26416D01*
X25569Y26259D02*
Y26416D01*
X25569Y24133D02*
X25884D01*
X24519Y25986D02*
Y26301D01*
X23732Y25002D02*
Y25160D01*
X23417Y25002D02*
Y25160D01*
X24165Y24687D02*
Y24845D01*
X24480Y24687D02*
Y24845D01*
X23890Y27325D02*
X24047D01*
X23890Y27010D02*
X24047D01*
X21266Y23815D02*
Y27425D01*
Y23815D02*
X22025D01*
Y27425D01*
X21774D02*
X22025D01*
X21266D02*
X21516D01*
X19834Y26301D02*
Y26459D01*
X19519Y26301D02*
Y26459D01*
X19519Y24136D02*
X19834D01*
X18350Y19603D02*
Y19917D01*
X15881Y19897D02*
X16039D01*
X15881Y19583D02*
X16039D01*
X18190Y25122D02*
Y25437D01*
X17552Y24059D02*
X17709D01*
X17552Y24374D02*
X17709D01*
X16134Y24374D02*
X16449D01*
X17237Y23587D02*
X17394D01*
X17237Y23272D02*
X17394D01*
X15010Y21160D02*
X18621D01*
Y21920D01*
X15010D02*
X18621D01*
X15010Y21669D02*
Y21920D01*
Y21160D02*
Y21411D01*
X15111Y23784D02*
Y23941D01*
X15426Y23784D02*
Y23941D01*
X15001Y29492D02*
Y29649D01*
X15316Y29492D02*
Y29649D01*
X16024Y30122D02*
X16339D01*
X17481Y29767D02*
X17638D01*
X17481Y30082D02*
X17638D01*
X17166Y29334D02*
X17324D01*
X17166Y29019D02*
X17324D01*
X14900Y26868D02*
X18511D01*
Y27628D01*
X14900D02*
X18511D01*
X14900Y27377D02*
Y27628D01*
Y26868D02*
Y27119D01*
X19263Y23770D02*
X19577D01*
X59123Y15251D02*
Y15409D01*
X59437Y15251D02*
Y15409D01*
X55670Y14582D02*
Y16078D01*
X56930Y14582D02*
Y16078D01*
X54763Y15281D02*
Y15439D01*
X55077Y15281D02*
Y15439D01*
X51000Y14582D02*
Y16078D01*
X52260Y14582D02*
Y16078D01*
X50173Y15251D02*
Y15409D01*
X50487Y15251D02*
Y15409D01*
X46230Y14582D02*
Y16078D01*
X47490Y14582D02*
Y16078D01*
X45443Y15191D02*
Y15349D01*
X45757Y15191D02*
Y15349D01*
X41540Y14582D02*
Y16078D01*
X42800Y14582D02*
Y16078D01*
X40723Y15171D02*
Y15329D01*
X41037Y15171D02*
Y15329D01*
X36890Y14582D02*
Y16078D01*
X38150Y14582D02*
Y16078D01*
X35973Y15231D02*
Y15389D01*
X36287Y15231D02*
Y15389D01*
X32120Y14582D02*
Y16078D01*
X33380Y14582D02*
Y16078D01*
X31113Y15211D02*
Y15369D01*
X31427Y15211D02*
Y15369D01*
X19602Y18090D02*
X21098D01*
X19602Y16830D02*
X21098D01*
X28854Y20849D02*
X29169D01*
X29943Y21471D02*
Y21629D01*
X30257Y21471D02*
Y21629D01*
X31836Y21731D02*
Y22046D01*
X31147Y21286D02*
X31305D01*
X31147Y20971D02*
X31305D01*
X33770Y21673D02*
Y21987D01*
X35079Y20804D02*
Y21316D01*
X34693Y19240D02*
X35007D01*
X39845Y19702D02*
Y21702D01*
Y19702D02*
X40704D01*
Y21702D01*
X40399D02*
X40704D01*
X39845D02*
X40149D01*
X37964Y19751D02*
X38476D01*
X43489Y19684D02*
Y20196D01*
X42083Y22470D02*
X42397D01*
X44945Y20643D02*
X45260D01*
X57613Y25730D02*
X57927D01*
X60053Y27500D02*
X60367D01*
X64171Y29993D02*
X64329D01*
X64171Y30307D02*
X64329D01*
X64171Y29293D02*
X64329D01*
X64171Y29607D02*
X64329D01*
X58371Y30257D02*
X58529D01*
X58371Y29943D02*
X58529D01*
X58371Y29507D02*
X58529D01*
X58371Y29193D02*
X58529D01*
X65992Y11859D02*
X66307D01*
X64143Y27580D02*
X64457D01*
X66521Y28443D02*
X66679D01*
X66521Y28757D02*
X66679D01*
X66521Y27293D02*
X66679D01*
X66521Y27607D02*
X66679D01*
X66521Y26043D02*
X66679D01*
X66521Y26357D02*
X66679D01*
X67997Y24921D02*
Y25079D01*
X67683Y24921D02*
Y25079D01*
X66353Y25280D02*
X66667D01*
X68887Y24823D02*
X69044D01*
X68887Y24508D02*
X69044D01*
X68307Y20671D02*
Y20829D01*
X67993Y20671D02*
Y20829D01*
X67030Y22253D02*
Y22567D01*
X65903Y20470D02*
X66217D01*
X66577Y15601D02*
Y15759D01*
X66263Y15601D02*
Y15759D01*
X65498Y18893D02*
Y19207D01*
Y18153D02*
Y18467D01*
X58263Y18107D02*
Y18422D01*
X58253Y18807D02*
Y19122D01*
X58043Y19715D02*
X58357D01*
X65241Y13143D02*
X65399D01*
X65241Y13457D02*
X65399D01*
X63921Y13447D02*
X64079D01*
X63921Y13133D02*
X64079D01*
X61912Y13023D02*
X62069D01*
X61912Y13337D02*
X62069D01*
X62893Y11991D02*
Y12149D01*
X63207Y11991D02*
Y12149D01*
X61883Y11991D02*
Y12149D01*
X62197Y11991D02*
Y12149D01*
X27410Y14582D02*
Y16078D01*
X28670Y14582D02*
Y16078D01*
X26543Y15261D02*
Y15419D01*
X26857Y15261D02*
Y15419D01*
X21523Y15011D02*
Y15169D01*
X21837Y15011D02*
Y15169D01*
X22760Y14582D02*
Y16078D01*
X24020Y14582D02*
Y16078D01*
X31753Y20340D02*
X32067D01*
X19483Y13840D02*
X19797D01*
X15867Y25437D02*
X16024D01*
X15867Y25122D02*
X16024D01*
X58353Y25720D02*
X58667D01*
D47*
X61031Y14070D02*
G03*
X61031Y14070I-371J0D01*
G01*
X59840Y14100D02*
G03*
X59840Y14100I-50J0D01*
G01*
X14340Y23830D02*
G03*
X14340Y23830I-50J0D01*
G01*
X14330Y29370D02*
G03*
X14330Y29370I-50J0D01*
G01*
X50540Y28870D02*
G03*
X50540Y28870I-50J0D01*
G01*
X44440D02*
G03*
X44440Y28870I-50J0D01*
G01*
X38400D02*
G03*
X38400Y28870I-50J0D01*
G01*
X26170D02*
G03*
X26170Y28870I-50J0D01*
G01*
X20120D02*
G03*
X20120Y28870I-50J0D01*
G01*
X32300D02*
G03*
X32300Y28870I-50J0D01*
G01*
Y28860D02*
G03*
X32300Y28860I-50J0D01*
G01*
X58481Y14601D02*
G03*
X58481Y14601I-20J0D01*
G01*
X53891Y14641D02*
G03*
X53891Y14641I-20J0D01*
G01*
X49091Y14631D02*
G03*
X49091Y14631I-20J0D01*
G01*
X44421Y14601D02*
G03*
X44421Y14601I-20J0D01*
G01*
X39791Y14621D02*
G03*
X39791Y14621I-20J0D01*
G01*
X35080D02*
G03*
X35080Y14621I-20J0D01*
G01*
X30231D02*
G03*
X30231Y14621I-20J0D01*
G01*
X25661Y14631D02*
G03*
X25661Y14631I-20J0D01*
G01*
X60660Y14440D02*
Y14620D01*
X59990D02*
X61340Y14610D01*
X57792Y14798D02*
X58048D01*
Y15762D01*
X57792D02*
X58048D01*
X57792Y14798D02*
Y15762D01*
X53202Y14838D02*
X53458D01*
Y15802D01*
X53202D02*
X53458D01*
X53202Y14838D02*
Y15802D01*
X48402Y14828D02*
X48658D01*
Y15792D01*
X48402D02*
X48658D01*
X48402Y14828D02*
Y15792D01*
X43732Y14798D02*
X43988D01*
Y15762D01*
X43732D02*
X43988D01*
X43732Y14798D02*
Y15762D01*
X39102Y14818D02*
X39358D01*
Y15782D01*
X39102D02*
X39358D01*
X39102Y14818D02*
Y15782D01*
X34391Y14818D02*
X34647D01*
Y15782D01*
X34391D02*
X34647D01*
X34391Y14818D02*
Y15782D01*
X29542Y14818D02*
X29798D01*
Y15782D01*
X29542D02*
X29798D01*
X29542Y14818D02*
Y15782D01*
X11631Y12109D02*
X18261D01*
Y15107D01*
X18061Y15307D02*
X18261Y15107D01*
X11631Y15307D02*
X18061D01*
X11631Y12109D02*
Y15307D01*
X11480Y15856D02*
Y19054D01*
X17910D01*
X18110Y18854D01*
Y15856D02*
Y18854D01*
X11480Y15856D02*
X18110D01*
X68380Y28511D02*
Y28689D01*
X68321Y28748D02*
X68380Y28689D01*
X68321Y28748D02*
Y28748D01*
X68489Y28580D01*
Y28580D02*
Y28580D01*
X68321Y28413D02*
Y28748D01*
Y28413D02*
X68489Y28580D01*
X68321Y27263D02*
X68489Y27430D01*
X68321Y27263D02*
Y27598D01*
X68489Y27430D02*
Y27430D01*
X68321Y27598D02*
X68489Y27430D01*
X68321Y27598D02*
Y27598D01*
Y27598D02*
X68380Y27539D01*
Y27361D02*
Y27539D01*
X68321Y26013D02*
X68489Y26180D01*
X68321Y26013D02*
Y26348D01*
X68489Y26180D02*
Y26180D01*
X68321Y26348D02*
X68489Y26180D01*
X68321Y26348D02*
Y26348D01*
Y26348D02*
X68380Y26289D01*
Y26111D02*
Y26289D01*
X24972Y14828D02*
X25228D01*
Y15792D01*
X24972D02*
X25228D01*
X24972Y14828D02*
Y15792D01*
D95*
X19350Y20947D02*
G03*
X19350Y21197I0J125D01*
G01*
X24100Y21541D02*
G03*
X24287Y21541I93J0D01*
G01*
X30293Y20603D02*
G03*
X30421Y20603I64J0D01*
G01*
X45652Y20442D02*
G03*
X45652Y20692I0J125D01*
G01*
X64568Y16023D02*
G03*
X64371Y16023I-98J0D01*
G01*
X65090Y10571D02*
G03*
X64844Y10571I-123J0D01*
G01*
X20148Y14955D02*
G03*
X20148Y15053I0J49D01*
G01*
X50533Y21187D02*
G03*
X50720Y21187I93J0D01*
G01*
X67021Y12455D02*
X67701D01*
Y10289D02*
Y12455D01*
X66519Y10289D02*
X67701D01*
X66519D02*
Y12455D01*
X67021D01*
X50740Y27679D02*
X54047D01*
X50740D02*
Y31931D01*
X54047D01*
Y27679D02*
Y31931D01*
X47945Y27679D02*
Y31931D01*
X44638D02*
X47945D01*
X44638Y27679D02*
Y31931D01*
Y27679D02*
X47945D01*
X38575D02*
X41882D01*
X38575D02*
Y31931D01*
X41882D01*
Y27679D02*
Y31931D01*
X35819Y27679D02*
Y31931D01*
X32512D02*
X35819D01*
X32512Y27679D02*
Y31931D01*
Y27679D02*
X35819D01*
X26435Y27676D02*
X29742D01*
X26435D02*
Y31928D01*
X29742D01*
Y27676D02*
Y31928D01*
X23653Y27679D02*
Y31931D01*
X20346D02*
X23653D01*
X20346Y27679D02*
Y31931D01*
Y27679D02*
X23653D01*
X14717Y25788D02*
Y29095D01*
X10465Y25788D02*
X14717D01*
X10465D02*
Y29095D01*
X14717D01*
X10465Y23548D02*
X14717D01*
X10465Y20240D02*
Y23548D01*
Y20240D02*
X14717D01*
Y23548D01*
X19350Y20690D02*
X23350D01*
Y21454D01*
X19350D02*
X23350D01*
X19350Y21197D02*
Y21454D01*
Y20690D02*
Y20947D01*
X24100Y21541D02*
X24330D01*
X24060D02*
X24287D01*
X24060Y20419D02*
Y21541D01*
Y20419D02*
X24330D01*
Y21541D01*
X30312Y20603D02*
X30390D01*
X29516Y19481D02*
X31246D01*
Y19766D02*
Y20278D01*
Y19481D02*
Y19766D01*
Y20278D02*
Y20603D01*
X29516Y19481D02*
Y20603D01*
X31248D01*
X45652Y20185D02*
X49652D01*
Y20948D01*
X45652D02*
X49652D01*
X45652Y20692D02*
Y20948D01*
Y20185D02*
Y20442D01*
X67593Y28246D02*
Y28718D01*
Y28246D02*
X69207D01*
Y28954D01*
X67593D02*
X69207D01*
X67593Y28718D02*
Y28954D01*
Y27568D02*
Y27804D01*
X69207D01*
Y27096D02*
Y27804D01*
X67593Y27096D02*
X69207D01*
X67593D02*
Y27568D01*
Y26318D02*
Y26554D01*
X69207D01*
Y25846D02*
Y26554D01*
X67593Y25846D02*
X69207D01*
X67593D02*
Y26318D01*
X67700Y22200D02*
X69900D01*
X67700D02*
Y24400D01*
X69900D01*
Y22200D02*
Y24400D01*
X69221Y22045D02*
X69901D01*
Y19879D02*
Y22045D01*
X68719Y19879D02*
X69901D01*
X68719D02*
Y22045D01*
X69221D01*
X64568Y16023D02*
X64784D01*
X64134D02*
X64371D01*
X64134D02*
Y17204D01*
X64784D01*
Y16023D02*
Y17204D01*
X64268Y10551D02*
Y12598D01*
X65665D01*
Y10551D02*
Y12598D01*
X64922Y10551D02*
X65665D01*
X64268D02*
X65011D01*
X59371Y10050D02*
Y11666D01*
X55198Y10050D02*
X59371D01*
X55198D02*
Y13750D01*
X59371D01*
Y11666D02*
Y13750D01*
X54701Y11666D02*
Y13750D01*
X50528D02*
X54701D01*
X50528Y10050D02*
Y13750D01*
Y10050D02*
X54701D01*
Y11666D01*
X49931Y10050D02*
Y11666D01*
X45758Y10050D02*
X49931D01*
X45758D02*
Y13750D01*
X49931D01*
Y11666D02*
Y13750D01*
X45241Y11666D02*
Y13750D01*
X41068D02*
X45241D01*
X41068Y10050D02*
Y13750D01*
Y10050D02*
X45241D01*
Y11666D01*
X40591Y10050D02*
Y11666D01*
X36418Y10050D02*
X40591D01*
X36418D02*
Y13750D01*
X40591D01*
Y11666D02*
Y13750D01*
X35821Y11666D02*
Y13750D01*
X31648D02*
X35821D01*
X31648Y10050D02*
Y13750D01*
Y10050D02*
X35821D01*
Y11666D01*
X31111Y10050D02*
Y11666D01*
X26938Y10050D02*
X31111D01*
X26938D02*
Y13750D01*
X31111D01*
Y11666D02*
Y13750D01*
X26461Y11666D02*
Y13750D01*
X22288D02*
X26461D01*
X22288Y10050D02*
Y13750D01*
Y10050D02*
X26461D01*
Y11666D01*
X20148Y14713D02*
X21132D01*
Y15295D01*
X20148D02*
X21132D01*
X20148Y15053D02*
Y15295D01*
Y14713D02*
Y14955D01*
X70010Y13497D02*
Y19397D01*
X67210Y13497D02*
X70010D01*
X67210D02*
Y19397D01*
X70010D01*
X61419Y15315D02*
X62099D01*
X61419D02*
Y17480D01*
X62601D01*
Y15315D02*
Y17480D01*
X62099Y15315D02*
X62601D01*
X64250Y20259D02*
X64716Y20725D01*
X59665Y20259D02*
X64250D01*
X59665D02*
Y25310D01*
X64716D01*
Y20725D02*
Y25310D01*
X50533Y21187D02*
X50764D01*
X50494D02*
X50720D01*
X50494Y20065D02*
Y21187D01*
Y20065D02*
X50764D01*
Y21187D01*
D96*
X32484Y19099D02*
Y20181D01*
X34236D01*
Y19099D02*
Y20181D01*
X32484Y19099D02*
X34236D01*
D97*
X59255Y31011D02*
X63419D01*
Y28895D02*
Y31011D01*
X59255Y29879D02*
Y31011D01*
Y28895D02*
X63419D01*
X59255D02*
Y29879D01*
X63487Y14563D02*
X63540Y14510D01*
X63647D01*
X63700Y14563D01*
Y14777D01*
X63647Y14830D01*
X63540D01*
X63487Y14777D01*
X63380Y14563D02*
X63327Y14510D01*
X63220D01*
X63167Y14563D01*
Y14617D01*
X63220Y14670D01*
X63273D01*
X63220D01*
X63167Y14723D01*
Y14777D01*
X63220Y14830D01*
X63327D01*
X63380Y14777D01*
X62847Y14510D02*
X63060D01*
Y14670D01*
X62954Y14617D01*
X62900D01*
X62847Y14670D01*
Y14777D01*
X62900Y14830D01*
X63007D01*
X63060Y14777D01*
X68800Y12390D02*
Y12710D01*
X68907Y12603D01*
X69013Y12710D01*
Y12390D01*
X69120Y12710D02*
Y12390D01*
Y12550D01*
X69333D01*
Y12710D01*
Y12390D01*
X69653Y12710D02*
X69440D01*
Y12550D01*
X69546Y12603D01*
X69600D01*
X69653Y12550D01*
Y12443D01*
X69600Y12390D01*
X69493D01*
X69440Y12443D01*
X66773Y13050D02*
X66667D01*
X66720D01*
Y12783D01*
X66667Y12730D01*
X66613D01*
X66560Y12783D01*
X66880Y12730D02*
Y13050D01*
X67040D01*
X67093Y12997D01*
Y12890D01*
X67040Y12837D01*
X66880D01*
X67200Y12997D02*
X67253Y13050D01*
X67360D01*
X67413Y12997D01*
Y12943D01*
X67360Y12890D01*
X67306D01*
X67360D01*
X67413Y12837D01*
Y12783D01*
X67360Y12730D01*
X67253D01*
X67200Y12783D01*
X54240Y27460D02*
Y27780D01*
X54400D01*
X54453Y27727D01*
Y27620D01*
X54400Y27567D01*
X54240D01*
X54347D02*
X54453Y27460D01*
X54720D02*
Y27780D01*
X54560Y27620D01*
X54773D01*
X54880Y27727D02*
X54933Y27780D01*
X55040D01*
X55093Y27727D01*
Y27673D01*
X55040Y27620D01*
X55093Y27567D01*
Y27513D01*
X55040Y27460D01*
X54933D01*
X54880Y27513D01*
Y27567D01*
X54933Y27620D01*
X54880Y27673D01*
Y27727D01*
X54933Y27620D02*
X55040D01*
X54907Y25533D02*
X54960Y25480D01*
X55067D01*
X55120Y25533D01*
Y25747D01*
X55067Y25800D01*
X54960D01*
X54907Y25747D01*
X54587Y25800D02*
X54800D01*
X54587Y25587D01*
Y25533D01*
X54640Y25480D01*
X54747D01*
X54800Y25533D01*
X54480D02*
X54427Y25480D01*
X54320D01*
X54267Y25533D01*
Y25587D01*
X54320Y25640D01*
X54267Y25693D01*
Y25747D01*
X54320Y25800D01*
X54427D01*
X54480Y25747D01*
Y25693D01*
X54427Y25640D01*
X54480Y25587D01*
Y25533D01*
X54427Y25640D02*
X54320D01*
X54300Y24480D02*
Y24160D01*
X54140D01*
X54087Y24213D01*
Y24320D01*
X54140Y24373D01*
X54300D01*
X54193D02*
X54087Y24480D01*
X53820D02*
Y24160D01*
X53980Y24320D01*
X53767D01*
X53660Y24160D02*
X53447D01*
Y24213D01*
X53660Y24427D01*
Y24480D01*
X54990Y25110D02*
X55310D01*
Y24950D01*
X55257Y24897D01*
X55150D01*
X55097Y24950D01*
Y25110D01*
Y25003D02*
X54990Y24897D01*
Y24630D02*
X55310D01*
X55150Y24790D01*
Y24577D01*
X55043Y24470D02*
X54990Y24417D01*
Y24310D01*
X55043Y24257D01*
X55257D01*
X55310Y24310D01*
Y24417D01*
X55257Y24470D01*
X55203D01*
X55150Y24417D01*
Y24257D01*
X52450Y23340D02*
Y23607D01*
X52397Y23660D01*
X52290D01*
X52237Y23607D01*
Y23340D01*
X51917Y23660D02*
X52130D01*
X51917Y23447D01*
Y23393D01*
X51970Y23340D01*
X52077D01*
X52130Y23393D01*
X51810Y23660D02*
X51704D01*
X51757D01*
Y23340D01*
X51810Y23393D01*
X49700Y25730D02*
X49380D01*
Y25890D01*
X49433Y25943D01*
X49540D01*
X49593Y25890D01*
Y25730D01*
Y25837D02*
X49700Y25943D01*
Y26210D02*
X49380D01*
X49540Y26050D01*
Y26263D01*
X49700Y26530D02*
X49380D01*
X49540Y26370D01*
Y26583D01*
X49453Y24503D02*
X49400Y24450D01*
Y24343D01*
X49453Y24290D01*
X49667D01*
X49720Y24343D01*
Y24450D01*
X49667Y24503D01*
X49720Y24823D02*
Y24610D01*
X49507Y24823D01*
X49453D01*
X49400Y24770D01*
Y24663D01*
X49453Y24610D01*
X49400Y24930D02*
Y25143D01*
X49453D01*
X49667Y24930D01*
X49720D01*
X50403Y29530D02*
X50350Y29477D01*
Y29370D01*
X50403Y29317D01*
X50617D01*
X50670Y29370D01*
Y29477D01*
X50617Y29530D01*
X50670Y29637D02*
X50350D01*
X50670Y29850D01*
X50350D01*
X50670Y29957D02*
Y30063D01*
Y30010D01*
X50350D01*
X50403Y29957D01*
Y30223D02*
X50350Y30276D01*
Y30383D01*
X50403Y30436D01*
X50617D01*
X50670Y30383D01*
Y30276D01*
X50617Y30223D01*
X50403D01*
X44243Y29663D02*
X44190Y29610D01*
Y29503D01*
X44243Y29450D01*
X44457D01*
X44510Y29503D01*
Y29610D01*
X44457Y29663D01*
X44510Y29770D02*
X44190D01*
X44510Y29983D01*
X44190D01*
X44457Y30090D02*
X44510Y30143D01*
Y30250D01*
X44457Y30303D01*
X44243D01*
X44190Y30250D01*
Y30143D01*
X44243Y30090D01*
X44297D01*
X44350Y30143D01*
Y30303D01*
X48910Y25180D02*
X49230D01*
Y25020D01*
X49177Y24967D01*
X49070D01*
X49017Y25020D01*
Y25180D01*
Y25073D02*
X48910Y24967D01*
Y24700D02*
X49230D01*
X49070Y24860D01*
Y24647D01*
X49177Y24540D02*
X49230Y24487D01*
Y24380D01*
X49177Y24327D01*
X49123D01*
X49070Y24380D01*
Y24434D01*
Y24380D01*
X49017Y24327D01*
X48963D01*
X48910Y24380D01*
Y24487D01*
X48963Y24540D01*
X48140Y24460D02*
Y24140D01*
X47980D01*
X47927Y24193D01*
Y24300D01*
X47980Y24353D01*
X48140D01*
X48033D02*
X47927Y24460D01*
X47660D02*
Y24140D01*
X47820Y24300D01*
X47607D01*
X47500Y24460D02*
X47394D01*
X47447D01*
Y24140D01*
X47500Y24193D01*
X47763Y26747D02*
X47710Y26800D01*
X47603D01*
X47550Y26747D01*
Y26533D01*
X47603Y26480D01*
X47710D01*
X47763Y26533D01*
X48083Y26480D02*
X47870D01*
X48083Y26693D01*
Y26747D01*
X48030Y26800D01*
X47923D01*
X47870Y26747D01*
X48403Y26800D02*
X48296Y26747D01*
X48190Y26640D01*
Y26533D01*
X48243Y26480D01*
X48350D01*
X48403Y26533D01*
Y26587D01*
X48350Y26640D01*
X48190D01*
X48040Y27510D02*
Y27830D01*
X48200D01*
X48253Y27777D01*
Y27670D01*
X48200Y27617D01*
X48040D01*
X48147D02*
X48253Y27510D01*
X48520D02*
Y27830D01*
X48360Y27670D01*
X48573D01*
X48893Y27510D02*
X48680D01*
X48893Y27723D01*
Y27777D01*
X48840Y27830D01*
X48733D01*
X48680Y27777D01*
X46290Y23370D02*
Y23637D01*
X46237Y23690D01*
X46130D01*
X46077Y23637D01*
Y23370D01*
X45970Y23690D02*
X45863D01*
X45917D01*
Y23370D01*
X45970Y23423D01*
X45704Y23370D02*
X45490D01*
Y23423D01*
X45704Y23637D01*
Y23690D01*
X43353Y24473D02*
X43300Y24420D01*
Y24313D01*
X43353Y24260D01*
X43567D01*
X43620Y24313D01*
Y24420D01*
X43567Y24473D01*
X43620Y24793D02*
Y24580D01*
X43407Y24793D01*
X43353D01*
X43300Y24740D01*
Y24633D01*
X43353Y24580D01*
X43620Y25060D02*
X43300D01*
X43460Y24900D01*
Y25113D01*
X43620Y25960D02*
X43300D01*
Y26120D01*
X43353Y26173D01*
X43460D01*
X43513Y26120D01*
Y25960D01*
Y26067D02*
X43620Y26173D01*
X43353Y26280D02*
X43300Y26333D01*
Y26440D01*
X43353Y26493D01*
X43407D01*
X43460Y26440D01*
Y26387D01*
Y26440D01*
X43513Y26493D01*
X43567D01*
X43620Y26440D01*
Y26333D01*
X43567Y26280D01*
X43353Y26600D02*
X43300Y26653D01*
Y26760D01*
X43353Y26813D01*
X43407D01*
X43460Y26760D01*
X43513Y26813D01*
X43567D01*
X43620Y26760D01*
Y26653D01*
X43567Y26600D01*
X43513D01*
X43460Y26653D01*
X43407Y26600D01*
X43353D01*
X43460Y26653D02*
Y26760D01*
X42030Y27490D02*
Y27810D01*
X42190D01*
X42243Y27757D01*
Y27650D01*
X42190Y27597D01*
X42030D01*
X42137D02*
X42243Y27490D01*
X42350Y27757D02*
X42403Y27810D01*
X42510D01*
X42563Y27757D01*
Y27703D01*
X42510Y27650D01*
X42457D01*
X42510D01*
X42563Y27597D01*
Y27543D01*
X42510Y27490D01*
X42403D01*
X42350Y27543D01*
X42883Y27810D02*
X42776Y27757D01*
X42670Y27650D01*
Y27543D01*
X42723Y27490D01*
X42830D01*
X42883Y27543D01*
Y27597D01*
X42830Y27650D01*
X42670D01*
X42747Y25543D02*
X42800Y25490D01*
X42907D01*
X42960Y25543D01*
Y25757D01*
X42907Y25810D01*
X42800D01*
X42747Y25757D01*
X42427Y25810D02*
X42640D01*
X42427Y25597D01*
Y25543D01*
X42480Y25490D01*
X42587D01*
X42640Y25543D01*
X42320Y25810D02*
X42214D01*
X42267D01*
Y25490D01*
X42320Y25543D01*
X42180Y24460D02*
Y24140D01*
X42020D01*
X41967Y24193D01*
Y24300D01*
X42020Y24353D01*
X42180D01*
X42073D02*
X41967Y24460D01*
X41860Y24193D02*
X41807Y24140D01*
X41700D01*
X41647Y24193D01*
Y24247D01*
X41700Y24300D01*
X41753D01*
X41700D01*
X41647Y24353D01*
Y24407D01*
X41700Y24460D01*
X41807D01*
X41860Y24407D01*
X41327Y24140D02*
X41540D01*
Y24300D01*
X41434Y24247D01*
X41380D01*
X41327Y24300D01*
Y24407D01*
X41380Y24460D01*
X41487D01*
X41540Y24407D01*
X42820Y25090D02*
X43140D01*
Y24930D01*
X43087Y24877D01*
X42980D01*
X42927Y24930D01*
Y25090D01*
Y24983D02*
X42820Y24877D01*
X43087Y24770D02*
X43140Y24717D01*
Y24610D01*
X43087Y24557D01*
X43033D01*
X42980Y24610D01*
Y24663D01*
Y24610D01*
X42927Y24557D01*
X42873D01*
X42820Y24610D01*
Y24717D01*
X42873Y24770D01*
X43140Y24450D02*
Y24237D01*
X43087D01*
X42873Y24450D01*
X42820D01*
X38233Y29663D02*
X38180Y29610D01*
Y29503D01*
X38233Y29450D01*
X38447D01*
X38500Y29503D01*
Y29610D01*
X38447Y29663D01*
X38500Y29770D02*
X38180D01*
X38500Y29983D01*
X38180D01*
X38233Y30090D02*
X38180Y30143D01*
Y30250D01*
X38233Y30303D01*
X38287D01*
X38340Y30250D01*
X38393Y30303D01*
X38447D01*
X38500Y30250D01*
Y30143D01*
X38447Y30090D01*
X38393D01*
X38340Y30143D01*
X38287Y30090D01*
X38233D01*
X38340Y30143D02*
Y30250D01*
X40250Y23350D02*
Y23617D01*
X40197Y23670D01*
X40090D01*
X40037Y23617D01*
Y23350D01*
X39930Y23670D02*
X39823D01*
X39877D01*
Y23350D01*
X39930Y23403D01*
X39504Y23670D02*
Y23350D01*
X39664Y23510D01*
X39450D01*
X37600Y25900D02*
X37280D01*
Y26060D01*
X37333Y26113D01*
X37440D01*
X37493Y26060D01*
Y25900D01*
Y26007D02*
X37600Y26113D01*
X37333Y26220D02*
X37280Y26273D01*
Y26380D01*
X37333Y26433D01*
X37387D01*
X37440Y26380D01*
Y26327D01*
Y26380D01*
X37493Y26433D01*
X37547D01*
X37600Y26380D01*
Y26273D01*
X37547Y26220D01*
X37600Y26753D02*
Y26540D01*
X37387Y26753D01*
X37333D01*
X37280Y26700D01*
Y26593D01*
X37333Y26540D01*
X37363Y24503D02*
X37310Y24450D01*
Y24343D01*
X37363Y24290D01*
X37577D01*
X37630Y24343D01*
Y24450D01*
X37577Y24503D01*
X37630Y24610D02*
Y24717D01*
Y24663D01*
X37310D01*
X37363Y24610D01*
X37577Y24876D02*
X37630Y24930D01*
Y25036D01*
X37577Y25090D01*
X37363D01*
X37310Y25036D01*
Y24930D01*
X37363Y24876D01*
X37417D01*
X37470Y24930D01*
Y25090D01*
X35910Y27460D02*
Y27780D01*
X36070D01*
X36123Y27727D01*
Y27620D01*
X36070Y27567D01*
X35910D01*
X36017D02*
X36123Y27460D01*
X36443D02*
X36230D01*
X36443Y27673D01*
Y27727D01*
X36390Y27780D01*
X36283D01*
X36230Y27727D01*
X36550D02*
X36603Y27780D01*
X36710D01*
X36763Y27727D01*
Y27673D01*
X36710Y27620D01*
X36763Y27567D01*
Y27513D01*
X36710Y27460D01*
X36603D01*
X36550Y27513D01*
Y27567D01*
X36603Y27620D01*
X36550Y27673D01*
Y27727D01*
X36603Y27620D02*
X36710D01*
X36647Y25543D02*
X36700Y25490D01*
X36807D01*
X36860Y25543D01*
Y25757D01*
X36807Y25810D01*
X36700D01*
X36647Y25757D01*
X36540Y25810D02*
X36433D01*
X36487D01*
Y25490D01*
X36540Y25543D01*
X36274D02*
X36220Y25490D01*
X36114D01*
X36060Y25543D01*
Y25597D01*
X36114Y25650D01*
X36060Y25703D01*
Y25757D01*
X36114Y25810D01*
X36220D01*
X36274Y25757D01*
Y25703D01*
X36220Y25650D01*
X36274Y25597D01*
Y25543D01*
X36220Y25650D02*
X36114D01*
X36070Y24480D02*
Y24160D01*
X35910D01*
X35857Y24213D01*
Y24320D01*
X35910Y24373D01*
X36070D01*
X35963D02*
X35857Y24480D01*
X35537D02*
X35750D01*
X35537Y24267D01*
Y24213D01*
X35590Y24160D01*
X35697D01*
X35750Y24213D01*
X35430Y24160D02*
X35217D01*
Y24213D01*
X35430Y24427D01*
Y24480D01*
X36810Y25160D02*
X37130D01*
Y25000D01*
X37077Y24947D01*
X36970D01*
X36917Y25000D01*
Y25160D01*
Y25053D02*
X36810Y24947D01*
X37077Y24840D02*
X37130Y24787D01*
Y24680D01*
X37077Y24627D01*
X37023D01*
X36970Y24680D01*
Y24733D01*
Y24680D01*
X36917Y24627D01*
X36863D01*
X36810Y24680D01*
Y24787D01*
X36863Y24840D01*
X37077Y24520D02*
X37130Y24467D01*
Y24360D01*
X37077Y24307D01*
X36863D01*
X36810Y24360D01*
Y24467D01*
X36863Y24520D01*
X37077D01*
X32083Y29813D02*
X32030Y29760D01*
Y29653D01*
X32083Y29600D01*
X32297D01*
X32350Y29653D01*
Y29760D01*
X32297Y29813D01*
X32350Y29920D02*
X32030D01*
X32350Y30133D01*
X32030D01*
Y30240D02*
Y30453D01*
X32083D01*
X32297Y30240D01*
X32350D01*
X34190Y23330D02*
Y23597D01*
X34137Y23650D01*
X34030D01*
X33977Y23597D01*
Y23330D01*
X33870Y23650D02*
X33763D01*
X33817D01*
Y23330D01*
X33870Y23383D01*
X33604Y23650D02*
X33497D01*
X33550D01*
Y23330D01*
X33604Y23383D01*
X31540Y25990D02*
X31220D01*
Y26150D01*
X31273Y26203D01*
X31380D01*
X31433Y26150D01*
Y25990D01*
Y26097D02*
X31540Y26203D01*
Y26523D02*
Y26310D01*
X31327Y26523D01*
X31273D01*
X31220Y26470D01*
Y26363D01*
X31273Y26310D01*
X31220Y26843D02*
Y26630D01*
X31380D01*
X31327Y26736D01*
Y26790D01*
X31380Y26843D01*
X31487D01*
X31540Y26790D01*
Y26683D01*
X31487Y26630D01*
X31273Y24553D02*
X31220Y24500D01*
Y24393D01*
X31273Y24340D01*
X31487D01*
X31540Y24393D01*
Y24500D01*
X31487Y24553D01*
X31540Y24660D02*
Y24767D01*
Y24713D01*
X31220D01*
X31273Y24660D01*
Y24926D02*
X31220Y24980D01*
Y25086D01*
X31273Y25140D01*
X31327D01*
X31380Y25086D01*
Y25033D01*
Y25086D01*
X31433Y25140D01*
X31487D01*
X31540Y25086D01*
Y24980D01*
X31487Y24926D01*
X26053Y29663D02*
X26000Y29610D01*
Y29503D01*
X26053Y29450D01*
X26267D01*
X26320Y29503D01*
Y29610D01*
X26267Y29663D01*
X26320Y29770D02*
X26000D01*
X26320Y29983D01*
X26000D01*
Y30303D02*
X26053Y30196D01*
X26160Y30090D01*
X26267D01*
X26320Y30143D01*
Y30250D01*
X26267Y30303D01*
X26213D01*
X26160Y30250D01*
Y30090D01*
X30170Y26820D02*
Y26500D01*
X30010D01*
X29957Y26553D01*
Y26660D01*
X30010Y26713D01*
X30170D01*
X30063D02*
X29957Y26820D01*
X29637D02*
X29850D01*
X29637Y26607D01*
Y26553D01*
X29690Y26500D01*
X29797D01*
X29850Y26553D01*
X29530D02*
X29477Y26500D01*
X29370D01*
X29317Y26553D01*
Y26767D01*
X29370Y26820D01*
X29477D01*
X29530Y26767D01*
Y26553D01*
X30447Y25553D02*
X30500Y25500D01*
X30607D01*
X30660Y25553D01*
Y25767D01*
X30607Y25820D01*
X30500D01*
X30447Y25767D01*
X30340Y25820D02*
X30233D01*
X30287D01*
Y25500D01*
X30340Y25553D01*
X30074Y25820D02*
X29967D01*
X30020D01*
Y25500D01*
X30074Y25553D01*
X30040Y24440D02*
Y24120D01*
X29880D01*
X29827Y24173D01*
Y24280D01*
X29880Y24333D01*
X30040D01*
X29933D02*
X29827Y24440D01*
X29720D02*
X29613D01*
X29667D01*
Y24120D01*
X29720Y24173D01*
X29454Y24387D02*
X29400Y24440D01*
X29294D01*
X29240Y24387D01*
Y24173D01*
X29294Y24120D01*
X29400D01*
X29454Y24173D01*
Y24227D01*
X29400Y24280D01*
X29240D01*
X30710Y25180D02*
X31030D01*
Y25020D01*
X30977Y24967D01*
X30870D01*
X30817Y25020D01*
Y25180D01*
Y25073D02*
X30710Y24967D01*
Y24647D02*
Y24860D01*
X30923Y24647D01*
X30977D01*
X31030Y24700D01*
Y24807D01*
X30977Y24860D01*
X30710Y24327D02*
Y24540D01*
X30923Y24327D01*
X30977D01*
X31030Y24380D01*
Y24487D01*
X30977Y24540D01*
X28030Y23370D02*
Y23637D01*
X27977Y23690D01*
X27870D01*
X27817Y23637D01*
Y23370D01*
X27710Y23423D02*
X27657Y23370D01*
X27550D01*
X27497Y23423D01*
Y23477D01*
X27550Y23530D01*
X27497Y23583D01*
Y23637D01*
X27550Y23690D01*
X27657D01*
X27710Y23637D01*
Y23583D01*
X27657Y23530D01*
X27710Y23477D01*
Y23423D01*
X27657Y23530D02*
X27550D01*
X25430Y25860D02*
X25110D01*
Y26020D01*
X25163Y26073D01*
X25270D01*
X25323Y26020D01*
Y25860D01*
Y25967D02*
X25430Y26073D01*
Y26180D02*
Y26287D01*
Y26233D01*
X25110D01*
X25163Y26180D01*
X25110Y26660D02*
X25163Y26553D01*
X25270Y26446D01*
X25377D01*
X25430Y26500D01*
Y26606D01*
X25377Y26660D01*
X25323D01*
X25270Y26606D01*
Y26446D01*
X25747Y23763D02*
X25800Y23710D01*
X25907D01*
X25960Y23763D01*
Y23977D01*
X25907Y24030D01*
X25800D01*
X25747Y23977D01*
X25640D02*
X25587Y24030D01*
X25480D01*
X25427Y23977D01*
Y23763D01*
X25480Y23710D01*
X25587D01*
X25640Y23763D01*
Y23817D01*
X25587Y23870D01*
X25427D01*
X19953Y29663D02*
X19900Y29610D01*
Y29503D01*
X19953Y29450D01*
X20167D01*
X20220Y29503D01*
Y29610D01*
X20167Y29663D01*
X20220Y29770D02*
X19900D01*
X20220Y29983D01*
X19900D01*
Y30303D02*
Y30090D01*
X20060D01*
X20007Y30196D01*
Y30250D01*
X20060Y30303D01*
X20167D01*
X20220Y30250D01*
Y30143D01*
X20167Y30090D01*
X24277Y25563D02*
X24330Y25510D01*
X24437D01*
X24490Y25563D01*
Y25777D01*
X24437Y25830D01*
X24330D01*
X24277Y25777D01*
X24170Y25563D02*
X24117Y25510D01*
X24010D01*
X23957Y25563D01*
Y25617D01*
X24010Y25670D01*
X23957Y25723D01*
Y25777D01*
X24010Y25830D01*
X24117D01*
X24170Y25777D01*
Y25723D01*
X24117Y25670D01*
X24170Y25617D01*
Y25563D01*
X24117Y25670D02*
X24010D01*
X23920Y24490D02*
Y24170D01*
X23760D01*
X23707Y24223D01*
Y24330D01*
X23760Y24383D01*
X23920D01*
X23813D02*
X23707Y24490D01*
X23600D02*
X23493D01*
X23547D01*
Y24170D01*
X23600Y24223D01*
X23334D02*
X23280Y24170D01*
X23174D01*
X23120Y24223D01*
Y24277D01*
X23174Y24330D01*
X23227D01*
X23174D01*
X23120Y24383D01*
Y24437D01*
X23174Y24490D01*
X23280D01*
X23334Y24437D01*
X24640Y25150D02*
X24960D01*
Y24990D01*
X24907Y24937D01*
X24800D01*
X24747Y24990D01*
Y25150D01*
Y25043D02*
X24640Y24937D01*
Y24830D02*
Y24723D01*
Y24777D01*
X24960D01*
X24907Y24830D01*
X24960Y24350D02*
Y24564D01*
X24800D01*
X24853Y24457D01*
Y24404D01*
X24800Y24350D01*
X24693D01*
X24640Y24404D01*
Y24510D01*
X24693Y24564D01*
X24050Y26840D02*
Y26520D01*
X23890D01*
X23837Y26573D01*
Y26680D01*
X23890Y26733D01*
X24050D01*
X23943D02*
X23837Y26840D01*
X23730D02*
X23623D01*
X23677D01*
Y26520D01*
X23730Y26573D01*
X23304Y26840D02*
Y26520D01*
X23464Y26680D01*
X23250D01*
X22000Y23400D02*
Y23667D01*
X21947Y23720D01*
X21840D01*
X21787Y23667D01*
Y23400D01*
X21467D02*
X21680D01*
Y23560D01*
X21573Y23507D01*
X21520D01*
X21467Y23560D01*
Y23667D01*
X21520Y23720D01*
X21627D01*
X21680Y23667D01*
X19380Y26010D02*
X19060D01*
Y26170D01*
X19113Y26223D01*
X19220D01*
X19273Y26170D01*
Y26010D01*
Y26117D02*
X19380Y26223D01*
Y26330D02*
Y26437D01*
Y26383D01*
X19060D01*
X19113Y26330D01*
Y26596D02*
X19060Y26650D01*
Y26756D01*
X19113Y26810D01*
X19327D01*
X19380Y26756D01*
Y26650D01*
X19327Y26596D01*
X19113D01*
Y24683D02*
X19060Y24630D01*
Y24523D01*
X19113Y24470D01*
X19327D01*
X19380Y24523D01*
Y24630D01*
X19327Y24683D01*
X19060Y24790D02*
Y25003D01*
X19113D01*
X19327Y24790D01*
X19380D01*
X17797Y19213D02*
X17850Y19160D01*
X17957D01*
X18010Y19213D01*
Y19427D01*
X17957Y19480D01*
X17850D01*
X17797Y19427D01*
X17530Y19480D02*
Y19160D01*
X17690Y19320D01*
X17477D01*
X16220Y19510D02*
Y19190D01*
X16060D01*
X16007Y19243D01*
Y19350D01*
X16060Y19403D01*
X16220D01*
X16113D02*
X16007Y19510D01*
X15740D02*
Y19190D01*
X15900Y19350D01*
X15687D01*
X18607Y25347D02*
X18660Y25400D01*
Y25507D01*
X18607Y25560D01*
X18393D01*
X18340Y25507D01*
Y25400D01*
X18393Y25347D01*
X18607Y25240D02*
X18660Y25187D01*
Y25080D01*
X18607Y25027D01*
X18553D01*
X18500Y25080D01*
Y25133D01*
Y25080D01*
X18447Y25027D01*
X18393D01*
X18340Y25080D01*
Y25187D01*
X18393Y25240D01*
X17320Y24520D02*
Y24840D01*
X17480D01*
X17533Y24787D01*
Y24680D01*
X17480Y24627D01*
X17320D01*
X17427D02*
X17533Y24520D01*
X17640Y24787D02*
X17693Y24840D01*
X17800D01*
X17853Y24787D01*
Y24733D01*
X17800Y24680D01*
X17853Y24627D01*
Y24573D01*
X17800Y24520D01*
X17693D01*
X17640Y24573D01*
Y24627D01*
X17693Y24680D01*
X17640Y24733D01*
Y24787D01*
X17693Y24680D02*
X17800D01*
X16867Y24117D02*
X16920Y24170D01*
Y24277D01*
X16867Y24330D01*
X16653D01*
X16600Y24277D01*
Y24170D01*
X16653Y24117D01*
X16600Y23797D02*
Y24010D01*
X16813Y23797D01*
X16867D01*
X16920Y23850D01*
Y23957D01*
X16867Y24010D01*
X17960Y23740D02*
X18280D01*
Y23580D01*
X18227Y23527D01*
X18120D01*
X18067Y23580D01*
Y23740D01*
Y23633D02*
X17960Y23527D01*
X18280Y23207D02*
X18227Y23313D01*
X18120Y23420D01*
X18013D01*
X17960Y23367D01*
Y23260D01*
X18013Y23207D01*
X18067D01*
X18120Y23260D01*
Y23420D01*
X19090Y21880D02*
X18823D01*
X18770Y21827D01*
Y21720D01*
X18823Y21667D01*
X19090D01*
X18770Y21347D02*
Y21560D01*
X18983Y21347D01*
X19037D01*
X19090Y21400D01*
Y21507D01*
X19037Y21560D01*
X14890Y23710D02*
X14570D01*
Y23870D01*
X14623Y23923D01*
X14730D01*
X14783Y23870D01*
Y23710D01*
Y23817D02*
X14890Y23923D01*
Y24243D02*
Y24030D01*
X14677Y24243D01*
X14623D01*
X14570Y24190D01*
Y24083D01*
X14623Y24030D01*
X14870Y30230D02*
Y30550D01*
X15030D01*
X15083Y30497D01*
Y30390D01*
X15030Y30337D01*
X14870D01*
X14977D02*
X15083Y30230D01*
X15190D02*
X15297D01*
X15243D01*
Y30550D01*
X15190Y30497D01*
X16173Y30557D02*
X16120Y30610D01*
X16013D01*
X15960Y30557D01*
Y30343D01*
X16013Y30290D01*
X16120D01*
X16173Y30343D01*
X16280Y30290D02*
X16387D01*
X16333D01*
Y30610D01*
X16280Y30557D01*
X17280Y30240D02*
Y30560D01*
X17440D01*
X17493Y30507D01*
Y30400D01*
X17440Y30347D01*
X17280D01*
X17387D02*
X17493Y30240D01*
X17600Y30560D02*
X17813D01*
Y30507D01*
X17600Y30293D01*
Y30240D01*
X17930Y29450D02*
X18250D01*
Y29290D01*
X18197Y29237D01*
X18090D01*
X18037Y29290D01*
Y29450D01*
Y29343D02*
X17930Y29237D01*
X18250Y28917D02*
Y29130D01*
X18090D01*
X18143Y29023D01*
Y28970D01*
X18090Y28917D01*
X17983D01*
X17930Y28970D01*
Y29077D01*
X17983Y29130D01*
X19050Y27430D02*
X18783D01*
X18730Y27377D01*
Y27270D01*
X18783Y27217D01*
X19050D01*
X18730Y27110D02*
Y27003D01*
Y27057D01*
X19050D01*
X18997Y27110D01*
X13150Y30830D02*
X13470D01*
X13363Y30723D01*
X13470Y30617D01*
X13150D01*
X13470Y30510D02*
X13150D01*
X13310D01*
Y30297D01*
X13470D01*
X13150D01*
Y29977D02*
Y30190D01*
X13363Y29977D01*
X13417D01*
X13470Y30030D01*
Y30137D01*
X13417Y30190D01*
X12007Y25413D02*
X12060Y25360D01*
X12167D01*
X12220Y25413D01*
Y25627D01*
X12167Y25680D01*
X12060D01*
X12007Y25627D01*
X11900Y25680D02*
Y25360D01*
X11687Y25680D01*
Y25360D01*
X11367Y25680D02*
X11580D01*
X11367Y25467D01*
Y25413D01*
X11420Y25360D01*
X11527D01*
X11580Y25413D01*
X11793Y23957D02*
X11740Y24010D01*
X11633D01*
X11580Y23957D01*
Y23743D01*
X11633Y23690D01*
X11740D01*
X11793Y23743D01*
X11900Y23690D02*
Y24010D01*
X12113Y23690D01*
Y24010D01*
X12220Y23690D02*
X12326D01*
X12273D01*
Y24010D01*
X12220Y23957D01*
X18783Y22933D02*
X18730Y22880D01*
Y22773D01*
X18783Y22720D01*
X18997D01*
X19050Y22773D01*
Y22880D01*
X18997Y22933D01*
X18730Y23253D02*
Y23040D01*
X18890D01*
X18837Y23147D01*
Y23200D01*
X18890Y23253D01*
X18997D01*
X19050Y23200D01*
Y23093D01*
X18997Y23040D01*
X21130Y22970D02*
Y22703D01*
X21183Y22650D01*
X21290D01*
X21343Y22703D01*
Y22970D01*
X21450Y22917D02*
X21503Y22970D01*
X21610D01*
X21663Y22917D01*
Y22863D01*
X21610Y22810D01*
X21557D01*
X21610D01*
X21663Y22757D01*
Y22703D01*
X21610Y22650D01*
X21503D01*
X21450Y22703D01*
X23650Y21980D02*
Y21713D01*
X23703Y21660D01*
X23810D01*
X23863Y21713D01*
Y21980D01*
X24183D02*
X24077Y21927D01*
X23970Y21820D01*
Y21713D01*
X24023Y21660D01*
X24130D01*
X24183Y21713D01*
Y21767D01*
X24130Y21820D01*
X23970D01*
X59050Y16050D02*
Y16370D01*
X59210D01*
X59263Y16317D01*
Y16210D01*
X59210Y16157D01*
X59050D01*
X59157D02*
X59263Y16050D01*
X59583Y16370D02*
X59370D01*
Y16210D01*
X59477Y16263D01*
X59530D01*
X59583Y16210D01*
Y16103D01*
X59530Y16050D01*
X59423D01*
X59370Y16103D01*
X59850Y16050D02*
Y16370D01*
X59690Y16210D01*
X59903D01*
X57250Y16390D02*
Y16123D01*
X57303Y16070D01*
X57410D01*
X57463Y16123D01*
Y16390D01*
X57783Y16070D02*
X57570D01*
X57783Y16283D01*
Y16337D01*
X57730Y16390D01*
X57623D01*
X57570Y16337D01*
X57890D02*
X57943Y16390D01*
X58050D01*
X58103Y16337D01*
Y16283D01*
X58050Y16230D01*
X57996D01*
X58050D01*
X58103Y16177D01*
Y16123D01*
X58050Y16070D01*
X57943D01*
X57890Y16123D01*
X55520Y14220D02*
X55200D01*
Y14380D01*
X55253Y14433D01*
X55360D01*
X55413Y14380D01*
Y14220D01*
Y14327D02*
X55520Y14433D01*
X55200Y14753D02*
Y14540D01*
X55360D01*
X55307Y14647D01*
Y14700D01*
X55360Y14753D01*
X55467D01*
X55520Y14700D01*
Y14593D01*
X55467Y14540D01*
X55520Y14860D02*
Y14966D01*
Y14913D01*
X55200D01*
X55253Y14860D01*
X54540Y16120D02*
Y16440D01*
X54700D01*
X54753Y16387D01*
Y16280D01*
X54700Y16227D01*
X54540D01*
X54647D02*
X54753Y16120D01*
X55073Y16440D02*
X54860D01*
Y16280D01*
X54967Y16333D01*
X55020D01*
X55073Y16280D01*
Y16173D01*
X55020Y16120D01*
X54913D01*
X54860Y16173D01*
X55180Y16387D02*
X55233Y16440D01*
X55340D01*
X55393Y16387D01*
Y16173D01*
X55340Y16120D01*
X55233D01*
X55180Y16173D01*
Y16387D01*
X52890Y16370D02*
Y16103D01*
X52943Y16050D01*
X53050D01*
X53103Y16103D01*
Y16370D01*
X53423Y16050D02*
X53210D01*
X53423Y16263D01*
Y16317D01*
X53370Y16370D01*
X53263D01*
X53210Y16317D01*
X53743Y16050D02*
X53530D01*
X53743Y16263D01*
Y16317D01*
X53690Y16370D01*
X53583D01*
X53530Y16317D01*
X50860Y14220D02*
X50540D01*
Y14380D01*
X50593Y14433D01*
X50700D01*
X50753Y14380D01*
Y14220D01*
Y14327D02*
X50860Y14433D01*
Y14700D02*
X50540D01*
X50700Y14540D01*
Y14753D01*
X50540Y15073D02*
X50593Y14966D01*
X50700Y14860D01*
X50807D01*
X50860Y14913D01*
Y15020D01*
X50807Y15073D01*
X50753D01*
X50700Y15020D01*
Y14860D01*
X49810Y16150D02*
Y16470D01*
X49970D01*
X50023Y16417D01*
Y16310D01*
X49970Y16257D01*
X49810D01*
X49917D02*
X50023Y16150D01*
X50290D02*
Y16470D01*
X50130Y16310D01*
X50343D01*
X50663Y16470D02*
X50450D01*
Y16310D01*
X50556Y16363D01*
X50610D01*
X50663Y16310D01*
Y16203D01*
X50610Y16150D01*
X50503D01*
X50450Y16203D01*
X48100Y16420D02*
Y16153D01*
X48153Y16100D01*
X48260D01*
X48313Y16153D01*
Y16420D01*
X48420Y16100D02*
X48527D01*
X48473D01*
Y16420D01*
X48420Y16367D01*
X48686Y16153D02*
X48740Y16100D01*
X48846D01*
X48900Y16153D01*
Y16367D01*
X48846Y16420D01*
X48740D01*
X48686Y16367D01*
Y16313D01*
X48740Y16260D01*
X48900D01*
X46130Y14110D02*
X45810D01*
Y14270D01*
X45863Y14323D01*
X45970D01*
X46023Y14270D01*
Y14110D01*
Y14217D02*
X46130Y14323D01*
Y14590D02*
X45810D01*
X45970Y14430D01*
Y14643D01*
X45863Y14750D02*
X45810Y14803D01*
Y14910D01*
X45863Y14963D01*
X46077D01*
X46130Y14910D01*
Y14803D01*
X46077Y14750D01*
X45863D01*
X45150Y16010D02*
Y16330D01*
X45310D01*
X45363Y16277D01*
Y16170D01*
X45310Y16117D01*
X45150D01*
X45257D02*
X45363Y16010D01*
X45470Y16277D02*
X45523Y16330D01*
X45630D01*
X45683Y16277D01*
Y16223D01*
X45630Y16170D01*
X45577D01*
X45630D01*
X45683Y16117D01*
Y16063D01*
X45630Y16010D01*
X45523D01*
X45470Y16063D01*
X45790D02*
X45843Y16010D01*
X45950D01*
X46003Y16063D01*
Y16277D01*
X45950Y16330D01*
X45843D01*
X45790Y16277D01*
Y16223D01*
X45843Y16170D01*
X46003D01*
X43540Y16320D02*
Y16053D01*
X43593Y16000D01*
X43700D01*
X43753Y16053D01*
Y16320D01*
X43860Y16000D02*
X43967D01*
X43913D01*
Y16320D01*
X43860Y16267D01*
X44340Y16320D02*
X44233Y16267D01*
X44126Y16160D01*
Y16053D01*
X44180Y16000D01*
X44286D01*
X44340Y16053D01*
Y16107D01*
X44286Y16160D01*
X44126D01*
X41440Y14090D02*
X41120D01*
Y14250D01*
X41173Y14303D01*
X41280D01*
X41333Y14250D01*
Y14090D01*
Y14197D02*
X41440Y14303D01*
X41173Y14410D02*
X41120Y14463D01*
Y14570D01*
X41173Y14623D01*
X41227D01*
X41280Y14570D01*
Y14517D01*
Y14570D01*
X41333Y14623D01*
X41387D01*
X41440Y14570D01*
Y14463D01*
X41387Y14410D01*
X41440Y14890D02*
X41120D01*
X41280Y14730D01*
Y14943D01*
X40370Y16110D02*
Y16430D01*
X40530D01*
X40583Y16377D01*
Y16270D01*
X40530Y16217D01*
X40370D01*
X40477D02*
X40583Y16110D01*
X40690Y16377D02*
X40743Y16430D01*
X40850D01*
X40903Y16377D01*
Y16323D01*
X40850Y16270D01*
X40797D01*
X40850D01*
X40903Y16217D01*
Y16163D01*
X40850Y16110D01*
X40743D01*
X40690Y16163D01*
X41010Y16377D02*
X41063Y16430D01*
X41170D01*
X41223Y16377D01*
Y16323D01*
X41170Y16270D01*
X41116D01*
X41170D01*
X41223Y16217D01*
Y16163D01*
X41170Y16110D01*
X41063D01*
X41010Y16163D01*
X38770Y16440D02*
Y16173D01*
X38823Y16120D01*
X38930D01*
X38983Y16173D01*
Y16440D01*
X39090Y16120D02*
X39197D01*
X39143D01*
Y16440D01*
X39090Y16387D01*
X39356D02*
X39410Y16440D01*
X39516D01*
X39570Y16387D01*
Y16333D01*
X39516Y16280D01*
X39463D01*
X39516D01*
X39570Y16227D01*
Y16173D01*
X39516Y16120D01*
X39410D01*
X39356Y16173D01*
X36740Y14100D02*
X36420D01*
Y14260D01*
X36473Y14313D01*
X36580D01*
X36633Y14260D01*
Y14100D01*
Y14207D02*
X36740Y14313D01*
X36473Y14420D02*
X36420Y14473D01*
Y14580D01*
X36473Y14633D01*
X36527D01*
X36580Y14580D01*
Y14527D01*
Y14580D01*
X36633Y14633D01*
X36687D01*
X36740Y14580D01*
Y14473D01*
X36687Y14420D01*
X36740Y14740D02*
Y14846D01*
Y14793D01*
X36420D01*
X36473Y14740D01*
X35680Y16040D02*
Y16360D01*
X35840D01*
X35893Y16307D01*
Y16200D01*
X35840Y16147D01*
X35680D01*
X35787D02*
X35893Y16040D01*
X36213D02*
X36000D01*
X36213Y16253D01*
Y16307D01*
X36160Y16360D01*
X36053D01*
X36000Y16307D01*
X36320Y16093D02*
X36373Y16040D01*
X36480D01*
X36533Y16093D01*
Y16307D01*
X36480Y16360D01*
X36373D01*
X36320Y16307D01*
Y16253D01*
X36373Y16200D01*
X36533D01*
X34220Y16370D02*
Y16103D01*
X34273Y16050D01*
X34380D01*
X34433Y16103D01*
Y16370D01*
X34540Y16050D02*
X34647D01*
X34593D01*
Y16370D01*
X34540Y16317D01*
X35020Y16050D02*
X34806D01*
X35020Y16263D01*
Y16317D01*
X34966Y16370D01*
X34860D01*
X34806Y16317D01*
X31930Y14030D02*
X31610D01*
Y14190D01*
X31663Y14243D01*
X31770D01*
X31823Y14190D01*
Y14030D01*
Y14137D02*
X31930Y14243D01*
Y14563D02*
Y14350D01*
X31717Y14563D01*
X31663D01*
X31610Y14510D01*
Y14403D01*
X31663Y14350D01*
X31610Y14883D02*
X31663Y14776D01*
X31770Y14670D01*
X31877D01*
X31930Y14723D01*
Y14830D01*
X31877Y14883D01*
X31823D01*
X31770Y14830D01*
Y14670D01*
X30850Y16010D02*
Y16330D01*
X31010D01*
X31063Y16277D01*
Y16170D01*
X31010Y16117D01*
X30850D01*
X30957D02*
X31063Y16010D01*
X31383D02*
X31170D01*
X31383Y16223D01*
Y16277D01*
X31330Y16330D01*
X31223D01*
X31170Y16277D01*
X31650Y16010D02*
Y16330D01*
X31490Y16170D01*
X31703D01*
X29490Y16330D02*
Y16063D01*
X29543Y16010D01*
X29650D01*
X29703Y16063D01*
Y16330D01*
X29810Y16063D02*
X29863Y16010D01*
X29970D01*
X30023Y16063D01*
Y16277D01*
X29970Y16330D01*
X29863D01*
X29810Y16277D01*
Y16223D01*
X29863Y16170D01*
X30023D01*
X13653Y15697D02*
X13600Y15750D01*
X13493D01*
X13440Y15697D01*
Y15483D01*
X13493Y15430D01*
X13600D01*
X13653Y15483D01*
X13760Y15430D02*
Y15750D01*
X13973Y15430D01*
Y15750D01*
X14240Y15430D02*
Y15750D01*
X14080Y15590D01*
X14293D01*
X16593Y19447D02*
X16540Y19500D01*
X16433D01*
X16380Y19447D01*
Y19233D01*
X16433Y19180D01*
X16540D01*
X16593Y19233D01*
X16700Y19180D02*
Y19500D01*
X16913Y19180D01*
Y19500D01*
X17020Y19447D02*
X17073Y19500D01*
X17180D01*
X17233Y19447D01*
Y19393D01*
X17180Y19340D01*
X17126D01*
X17180D01*
X17233Y19287D01*
Y19233D01*
X17180Y19180D01*
X17073D01*
X17020Y19233D01*
X67720Y29810D02*
X67400D01*
X67507Y29917D01*
X67400Y30023D01*
X67720D01*
X67400Y30130D02*
X67720D01*
X67560D01*
Y30343D01*
X67400D01*
X67720D01*
X67400Y30663D02*
X67453Y30556D01*
X67560Y30450D01*
X67667D01*
X67720Y30503D01*
Y30610D01*
X67667Y30663D01*
X67613D01*
X67560Y30610D01*
Y30450D01*
X20070Y18240D02*
Y18560D01*
X20230D01*
X20283Y18507D01*
Y18400D01*
X20230Y18347D01*
X20070D01*
X20177D02*
X20283Y18240D01*
X20390Y18293D02*
X20443Y18240D01*
X20550D01*
X20603Y18293D01*
Y18507D01*
X20550Y18560D01*
X20443D01*
X20390Y18507D01*
Y18453D01*
X20443Y18400D01*
X20603D01*
X30340Y19050D02*
Y19317D01*
X30287Y19370D01*
X30180D01*
X30127Y19317D01*
Y19050D01*
X30020Y19370D02*
X29913D01*
X29967D01*
Y19050D01*
X30020Y19103D01*
X29754D02*
X29700Y19050D01*
X29594D01*
X29540Y19103D01*
Y19317D01*
X29594Y19370D01*
X29700D01*
X29754Y19317D01*
Y19103D01*
X28373Y20033D02*
X28320Y19980D01*
Y19873D01*
X28373Y19820D01*
X28587D01*
X28640Y19873D01*
Y19980D01*
X28587Y20033D01*
X28640Y20140D02*
Y20247D01*
Y20193D01*
X28320D01*
X28373Y20140D01*
Y20406D02*
X28320Y20460D01*
Y20566D01*
X28373Y20620D01*
X28587D01*
X28640Y20566D01*
Y20460D01*
X28587Y20406D01*
X28373D01*
X29830Y22210D02*
Y22530D01*
X29990D01*
X30043Y22477D01*
Y22370D01*
X29990Y22317D01*
X29830D01*
X29937D02*
X30043Y22210D01*
X30363D02*
X30150D01*
X30363Y22423D01*
Y22477D01*
X30310Y22530D01*
X30203D01*
X30150Y22477D01*
X30470Y22210D02*
X30576D01*
X30523D01*
Y22530D01*
X30470Y22477D01*
X31193Y22487D02*
X31140Y22540D01*
X31033D01*
X30980Y22487D01*
Y22273D01*
X31033Y22220D01*
X31140D01*
X31193Y22273D01*
X31300Y22220D02*
X31407D01*
X31353D01*
Y22540D01*
X31300Y22487D01*
X31780Y22220D02*
X31566D01*
X31780Y22433D01*
Y22487D01*
X31726Y22540D01*
X31620D01*
X31566Y22487D01*
X32000Y21360D02*
X32320D01*
Y21200D01*
X32267Y21147D01*
X32160D01*
X32107Y21200D01*
Y21360D01*
Y21253D02*
X32000Y21147D01*
Y20827D02*
Y21040D01*
X32213Y20827D01*
X32267D01*
X32320Y20880D01*
Y20987D01*
X32267Y21040D01*
Y20720D02*
X32320Y20667D01*
Y20560D01*
X32267Y20507D01*
X32213D01*
X32160Y20560D01*
Y20614D01*
Y20560D01*
X32107Y20507D01*
X32053D01*
X32000Y20560D01*
Y20667D01*
X32053Y20720D01*
X33370Y20570D02*
Y20250D01*
X33583D01*
X33690D02*
X33797D01*
X33743D01*
Y20570D01*
X33690Y20517D01*
X34233Y22467D02*
X34180Y22520D01*
X34073D01*
X34020Y22467D01*
Y22253D01*
X34073Y22200D01*
X34180D01*
X34233Y22253D01*
X34340Y22200D02*
X34447D01*
X34393D01*
Y22520D01*
X34340Y22467D01*
X34820Y22520D02*
X34713Y22467D01*
X34606Y22360D01*
Y22253D01*
X34660Y22200D01*
X34766D01*
X34820Y22253D01*
Y22307D01*
X34766Y22360D01*
X34606D01*
X35467Y21177D02*
X35520Y21230D01*
Y21337D01*
X35467Y21390D01*
X35253D01*
X35200Y21337D01*
Y21230D01*
X35253Y21177D01*
X35200Y21070D02*
Y20963D01*
Y21017D01*
X35520D01*
X35467Y21070D01*
X35520Y20590D02*
Y20804D01*
X35360D01*
X35413Y20697D01*
Y20644D01*
X35360Y20590D01*
X35253D01*
X35200Y20644D01*
Y20750D01*
X35253Y20804D01*
X35477Y20057D02*
X35530Y20110D01*
Y20217D01*
X35477Y20270D01*
X35263D01*
X35210Y20217D01*
Y20110D01*
X35263Y20057D01*
X35210Y19950D02*
Y19843D01*
Y19897D01*
X35530D01*
X35477Y19950D01*
X35530Y19684D02*
Y19470D01*
X35477D01*
X35263Y19684D01*
X35210D01*
X39080Y22160D02*
Y21893D01*
X39133Y21840D01*
X39240D01*
X39293Y21893D01*
Y22160D01*
X39400Y21840D02*
X39507D01*
X39453D01*
Y22160D01*
X39400Y22107D01*
X39880Y22160D02*
X39666D01*
Y22000D01*
X39773Y22053D01*
X39826D01*
X39880Y22000D01*
Y21893D01*
X39826Y21840D01*
X39720D01*
X39666Y21893D01*
X37583Y20273D02*
X37530Y20220D01*
Y20113D01*
X37583Y20060D01*
X37797D01*
X37850Y20113D01*
Y20220D01*
X37797Y20273D01*
X37850Y20593D02*
Y20380D01*
X37637Y20593D01*
X37583D01*
X37530Y20540D01*
Y20433D01*
X37583Y20380D01*
Y20700D02*
X37530Y20753D01*
Y20860D01*
X37583Y20913D01*
X37797D01*
X37850Y20860D01*
Y20753D01*
X37797Y20700D01*
X37583D01*
X42663Y20627D02*
X42610Y20680D01*
X42503D01*
X42450Y20627D01*
Y20413D01*
X42503Y20360D01*
X42610D01*
X42663Y20413D01*
X42983Y20360D02*
X42770D01*
X42983Y20573D01*
Y20627D01*
X42930Y20680D01*
X42823D01*
X42770Y20627D01*
X43090D02*
X43143Y20680D01*
X43250D01*
X43303Y20627D01*
Y20573D01*
X43250Y20520D01*
X43196D01*
X43250D01*
X43303Y20467D01*
Y20413D01*
X43250Y20360D01*
X43143D01*
X43090Y20413D01*
X42847Y21897D02*
X42900Y21950D01*
Y22057D01*
X42847Y22110D01*
X42633D01*
X42580Y22057D01*
Y21950D01*
X42633Y21897D01*
X42580Y21577D02*
Y21790D01*
X42793Y21577D01*
X42847D01*
X42900Y21630D01*
Y21737D01*
X42847Y21790D01*
X42580Y21257D02*
Y21470D01*
X42793Y21257D01*
X42847D01*
X42900Y21310D01*
Y21417D01*
X42847Y21470D01*
X45420Y22480D02*
Y22213D01*
X45473Y22160D01*
X45580D01*
X45633Y22213D01*
Y22480D01*
X45740Y22160D02*
X45847D01*
X45793D01*
Y22480D01*
X45740Y22427D01*
X46006D02*
X46060Y22480D01*
X46166D01*
X46220Y22427D01*
Y22373D01*
X46166Y22320D01*
X46220Y22267D01*
Y22213D01*
X46166Y22160D01*
X46060D01*
X46006Y22213D01*
Y22267D01*
X46060Y22320D01*
X46006Y22373D01*
Y22427D01*
X46060Y22320D02*
X46166D01*
X44533Y21093D02*
X44480Y21040D01*
Y20933D01*
X44533Y20880D01*
X44747D01*
X44800Y20933D01*
Y21040D01*
X44747Y21093D01*
X44800Y21413D02*
Y21200D01*
X44587Y21413D01*
X44533D01*
X44480Y21360D01*
Y21253D01*
X44533Y21200D01*
X44480Y21733D02*
Y21520D01*
X44640D01*
X44587Y21626D01*
Y21680D01*
X44640Y21733D01*
X44747D01*
X44800Y21680D01*
Y21573D01*
X44747Y21520D01*
X57143Y26283D02*
X57090Y26230D01*
Y26123D01*
X57143Y26070D01*
X57357D01*
X57410Y26123D01*
Y26230D01*
X57357Y26283D01*
X57410Y26603D02*
Y26390D01*
X57197Y26603D01*
X57143D01*
X57090Y26550D01*
Y26443D01*
X57143Y26390D01*
X57357Y26710D02*
X57410Y26763D01*
Y26870D01*
X57357Y26923D01*
X57143D01*
X57090Y26870D01*
Y26763D01*
X57143Y26710D01*
X57197D01*
X57250Y26763D01*
Y26923D01*
X60817Y26937D02*
X60870Y26990D01*
Y27097D01*
X60817Y27150D01*
X60603D01*
X60550Y27097D01*
Y26990D01*
X60603Y26937D01*
X60817Y26830D02*
X60870Y26777D01*
Y26670D01*
X60817Y26617D01*
X60763D01*
X60710Y26670D01*
Y26723D01*
Y26670D01*
X60657Y26617D01*
X60603D01*
X60550Y26670D01*
Y26777D01*
X60603Y26830D01*
X60550Y26350D02*
X60870D01*
X60710Y26510D01*
Y26297D01*
X58403Y30797D02*
X58350Y30850D01*
X58243D01*
X58190Y30797D01*
Y30583D01*
X58243Y30530D01*
X58350D01*
X58403Y30583D01*
X58510Y30530D02*
Y30850D01*
X58723Y30530D01*
Y30850D01*
X58830Y30530D02*
X58936D01*
X58883D01*
Y30850D01*
X58830Y30797D01*
X59096Y30530D02*
X59203D01*
X59150D01*
Y30850D01*
X59096Y30797D01*
X63970Y30420D02*
Y30740D01*
X64130D01*
X64183Y30687D01*
Y30580D01*
X64130Y30527D01*
X63970D01*
X64077D02*
X64183Y30420D01*
X64503Y30740D02*
X64397Y30687D01*
X64290Y30580D01*
Y30473D01*
X64343Y30420D01*
X64450D01*
X64503Y30473D01*
Y30527D01*
X64450Y30580D01*
X64290D01*
X64610Y30687D02*
X64663Y30740D01*
X64770D01*
X64823Y30687D01*
Y30473D01*
X64770Y30420D01*
X64663D01*
X64610Y30473D01*
Y30687D01*
X64470Y29110D02*
Y28790D01*
X64310D01*
X64257Y28843D01*
Y28950D01*
X64310Y29003D01*
X64470D01*
X64363D02*
X64257Y29110D01*
X63937Y28790D02*
X64150D01*
Y28950D01*
X64043Y28897D01*
X63990D01*
X63937Y28950D01*
Y29057D01*
X63990Y29110D01*
X64097D01*
X64150Y29057D01*
X63830D02*
X63777Y29110D01*
X63670D01*
X63617Y29057D01*
Y28843D01*
X63670Y28790D01*
X63777D01*
X63830Y28843D01*
Y28897D01*
X63777Y28950D01*
X63617D01*
X57720Y30040D02*
X57400D01*
Y30200D01*
X57453Y30253D01*
X57560D01*
X57613Y30200D01*
Y30040D01*
Y30147D02*
X57720Y30253D01*
X57400Y30573D02*
Y30360D01*
X57560D01*
X57507Y30467D01*
Y30520D01*
X57560Y30573D01*
X57667D01*
X57720Y30520D01*
Y30413D01*
X57667Y30360D01*
X57453Y30680D02*
X57400Y30733D01*
Y30840D01*
X57453Y30893D01*
X57507D01*
X57560Y30840D01*
Y30786D01*
Y30840D01*
X57613Y30893D01*
X57667D01*
X57720Y30840D01*
Y30733D01*
X57667Y30680D01*
X57700Y28880D02*
X57380D01*
Y29040D01*
X57433Y29093D01*
X57540D01*
X57593Y29040D01*
Y28880D01*
Y28987D02*
X57700Y29093D01*
X57380Y29413D02*
Y29200D01*
X57540D01*
X57487Y29307D01*
Y29360D01*
X57540Y29413D01*
X57647D01*
X57700Y29360D01*
Y29253D01*
X57647Y29200D01*
X57700Y29733D02*
Y29520D01*
X57487Y29733D01*
X57433D01*
X57380Y29680D01*
Y29573D01*
X57433Y29520D01*
X65903Y12277D02*
X65850Y12330D01*
X65743D01*
X65690Y12277D01*
Y12063D01*
X65743Y12010D01*
X65850D01*
X65903Y12063D01*
X66170Y12010D02*
Y12330D01*
X66010Y12170D01*
X66223D01*
X66330Y12010D02*
X66436D01*
X66383D01*
Y12330D01*
X66330Y12277D01*
X64877Y27377D02*
X64930Y27430D01*
Y27537D01*
X64877Y27590D01*
X64663D01*
X64610Y27537D01*
Y27430D01*
X64663Y27377D01*
X64877Y27270D02*
X64930Y27217D01*
Y27110D01*
X64877Y27057D01*
X64823D01*
X64770Y27110D01*
Y27163D01*
Y27110D01*
X64717Y27057D01*
X64663D01*
X64610Y27110D01*
Y27217D01*
X64663Y27270D01*
X64930Y26737D02*
X64877Y26844D01*
X64770Y26950D01*
X64663D01*
X64610Y26897D01*
Y26790D01*
X64663Y26737D01*
X64717D01*
X64770Y26790D01*
Y26950D01*
X66170Y28930D02*
Y29250D01*
X66330D01*
X66383Y29197D01*
Y29090D01*
X66330Y29037D01*
X66170D01*
X66277D02*
X66383Y28930D01*
X66703Y29250D02*
X66597Y29197D01*
X66490Y29090D01*
Y28983D01*
X66543Y28930D01*
X66650D01*
X66703Y28983D01*
Y29037D01*
X66650Y29090D01*
X66490D01*
X66970Y28930D02*
Y29250D01*
X66810Y29090D01*
X67023D01*
X67650Y29380D02*
Y29060D01*
X67810D01*
X67863Y29113D01*
Y29327D01*
X67810Y29380D01*
X67650D01*
X67970Y29327D02*
X68023Y29380D01*
X68130D01*
X68183Y29327D01*
Y29273D01*
X68130Y29220D01*
X68077D01*
X68130D01*
X68183Y29167D01*
Y29113D01*
X68130Y29060D01*
X68023D01*
X67970Y29113D01*
X67660Y28190D02*
Y27870D01*
X67820D01*
X67873Y27923D01*
Y28137D01*
X67820Y28190D01*
X67660D01*
X68193Y27870D02*
X67980D01*
X68193Y28083D01*
Y28137D01*
X68140Y28190D01*
X68033D01*
X67980Y28137D01*
X66190Y27730D02*
Y28050D01*
X66350D01*
X66403Y27997D01*
Y27890D01*
X66350Y27837D01*
X66190D01*
X66297D02*
X66403Y27730D01*
X66723Y28050D02*
X66617Y27997D01*
X66510Y27890D01*
Y27783D01*
X66563Y27730D01*
X66670D01*
X66723Y27783D01*
Y27837D01*
X66670Y27890D01*
X66510D01*
X66830Y27997D02*
X66883Y28050D01*
X66990D01*
X67043Y27997D01*
Y27943D01*
X66990Y27890D01*
X66936D01*
X66990D01*
X67043Y27837D01*
Y27783D01*
X66990Y27730D01*
X66883D01*
X66830Y27783D01*
X66230Y26520D02*
Y26840D01*
X66390D01*
X66443Y26787D01*
Y26680D01*
X66390Y26627D01*
X66230D01*
X66337D02*
X66443Y26520D01*
X66763Y26840D02*
X66657Y26787D01*
X66550Y26680D01*
Y26573D01*
X66603Y26520D01*
X66710D01*
X66763Y26573D01*
Y26627D01*
X66710Y26680D01*
X66550D01*
X67083Y26520D02*
X66870D01*
X67083Y26733D01*
Y26787D01*
X67030Y26840D01*
X66923D01*
X66870Y26787D01*
X67880Y26960D02*
Y26640D01*
X68040D01*
X68093Y26693D01*
Y26907D01*
X68040Y26960D01*
X67880D01*
X68200Y26640D02*
X68307D01*
X68253D01*
Y26960D01*
X68200Y26907D01*
X68120Y25800D02*
X68440D01*
Y25640D01*
X68387Y25587D01*
X68280D01*
X68227Y25640D01*
Y25800D01*
Y25693D02*
X68120Y25587D01*
X68440Y25267D02*
X68387Y25373D01*
X68280Y25480D01*
X68173D01*
X68120Y25427D01*
Y25320D01*
X68173Y25267D01*
X68227D01*
X68280Y25320D01*
Y25480D01*
X68440Y24947D02*
X68387Y25054D01*
X68280Y25160D01*
X68173D01*
X68120Y25107D01*
Y25000D01*
X68173Y24947D01*
X68227D01*
X68280Y25000D01*
Y25160D01*
X67107Y25257D02*
X67160Y25310D01*
Y25417D01*
X67107Y25470D01*
X66893D01*
X66840Y25417D01*
Y25310D01*
X66893Y25257D01*
X66840Y24990D02*
X67160D01*
X67000Y25150D01*
Y24937D01*
X66840Y24617D02*
Y24830D01*
X67053Y24617D01*
X67107D01*
X67160Y24670D01*
Y24777D01*
X67107Y24830D01*
X68590Y25000D02*
Y25320D01*
X68750D01*
X68803Y25267D01*
Y25160D01*
X68750Y25107D01*
X68590D01*
X68697D02*
X68803Y25000D01*
X69123Y25320D02*
X69017Y25267D01*
X68910Y25160D01*
Y25053D01*
X68963Y25000D01*
X69070D01*
X69123Y25053D01*
Y25107D01*
X69070Y25160D01*
X68910D01*
X69230Y25267D02*
X69283Y25320D01*
X69390D01*
X69443Y25267D01*
Y25213D01*
X69390Y25160D01*
X69443Y25107D01*
Y25053D01*
X69390Y25000D01*
X69283D01*
X69230Y25053D01*
Y25107D01*
X69283Y25160D01*
X69230Y25213D01*
Y25267D01*
X69283Y25160D02*
X69390D01*
X67353Y21483D02*
X67300Y21430D01*
Y21323D01*
X67353Y21270D01*
X67567D01*
X67620Y21323D01*
Y21430D01*
X67567Y21483D01*
X67620Y21590D02*
X67300D01*
X67620Y21803D01*
X67300D01*
X67620Y21910D02*
Y22016D01*
Y21963D01*
X67300D01*
X67353Y21910D01*
X67620Y22390D02*
Y22176D01*
X67407Y22390D01*
X67353D01*
X67300Y22336D01*
Y22230D01*
X67353Y22176D01*
X68300Y21293D02*
Y21187D01*
Y21240D01*
X68567D01*
X68620Y21187D01*
Y21133D01*
X68567Y21080D01*
X68620Y21400D02*
X68300D01*
Y21560D01*
X68353Y21613D01*
X68460D01*
X68513Y21560D01*
Y21400D01*
X68620Y21933D02*
Y21720D01*
X68407Y21933D01*
X68353D01*
X68300Y21880D01*
Y21773D01*
X68353Y21720D01*
X67880Y20260D02*
X67560D01*
Y20420D01*
X67613Y20473D01*
X67720D01*
X67773Y20420D01*
Y20260D01*
Y20367D02*
X67880Y20473D01*
X67560Y20793D02*
X67613Y20687D01*
X67720Y20580D01*
X67827D01*
X67880Y20633D01*
Y20740D01*
X67827Y20793D01*
X67773D01*
X67720Y20740D01*
Y20580D01*
X67560Y20900D02*
Y21113D01*
X67613D01*
X67827Y20900D01*
X67880D01*
X66637Y21823D02*
X66690Y21770D01*
X66797D01*
X66850Y21823D01*
Y22037D01*
X66797Y22090D01*
X66690D01*
X66637Y22037D01*
X66370Y22090D02*
Y21770D01*
X66530Y21930D01*
X66317D01*
X66210Y21823D02*
X66157Y21770D01*
X66050D01*
X65997Y21823D01*
Y22037D01*
X66050Y22090D01*
X66157D01*
X66210Y22037D01*
Y21823D01*
X66617Y21157D02*
X66670Y21210D01*
Y21317D01*
X66617Y21370D01*
X66403D01*
X66350Y21317D01*
Y21210D01*
X66403Y21157D01*
X66617Y21050D02*
X66670Y20997D01*
Y20890D01*
X66617Y20837D01*
X66563D01*
X66510Y20890D01*
Y20943D01*
Y20890D01*
X66457Y20837D01*
X66403D01*
X66350Y20890D01*
Y20997D01*
X66403Y21050D01*
Y20730D02*
X66350Y20677D01*
Y20570D01*
X66403Y20517D01*
X66617D01*
X66670Y20570D01*
Y20677D01*
X66617Y20730D01*
X66563D01*
X66510Y20677D01*
Y20517D01*
X66050Y15270D02*
X65730D01*
Y15430D01*
X65783Y15483D01*
X65890D01*
X65943Y15430D01*
Y15270D01*
Y15377D02*
X66050Y15483D01*
X65730Y15803D02*
X65783Y15697D01*
X65890Y15590D01*
X65997D01*
X66050Y15643D01*
Y15750D01*
X65997Y15803D01*
X65943D01*
X65890Y15750D01*
Y15590D01*
X65730Y16123D02*
Y15910D01*
X65890D01*
X65837Y16016D01*
Y16070D01*
X65890Y16123D01*
X65997D01*
X66050Y16070D01*
Y15963D01*
X65997Y15910D01*
X65917Y19187D02*
X65970Y19240D01*
Y19347D01*
X65917Y19400D01*
X65703D01*
X65650Y19347D01*
Y19240D01*
X65703Y19187D01*
X65917Y19080D02*
X65970Y19027D01*
Y18920D01*
X65917Y18867D01*
X65863D01*
X65810Y18920D01*
Y18973D01*
Y18920D01*
X65757Y18867D01*
X65703D01*
X65650Y18920D01*
Y19027D01*
X65703Y19080D01*
X65917Y18760D02*
X65970Y18707D01*
Y18600D01*
X65917Y18547D01*
X65863D01*
X65810Y18600D01*
X65757Y18547D01*
X65703D01*
X65650Y18600D01*
Y18707D01*
X65703Y18760D01*
X65757D01*
X65810Y18707D01*
X65863Y18760D01*
X65917D01*
X65810Y18707D02*
Y18600D01*
X65107Y17703D02*
X65160Y17650D01*
X65267D01*
X65320Y17703D01*
Y17917D01*
X65267Y17970D01*
X65160D01*
X65107Y17917D01*
X65000Y17703D02*
X64947Y17650D01*
X64840D01*
X64787Y17703D01*
Y17757D01*
X64840Y17810D01*
X64893D01*
X64840D01*
X64787Y17863D01*
Y17917D01*
X64840Y17970D01*
X64947D01*
X65000Y17917D01*
X64680Y17650D02*
X64467D01*
Y17703D01*
X64680Y17917D01*
Y17970D01*
X64134Y17524D02*
Y17258D01*
X64188Y17204D01*
X64294D01*
X64348Y17258D01*
Y17524D01*
X64668Y17204D02*
X64454D01*
X64668Y17418D01*
Y17471D01*
X64614Y17524D01*
X64508D01*
X64454Y17471D01*
X64934Y17204D02*
Y17524D01*
X64774Y17364D01*
X64988D01*
X57873Y17973D02*
X57820Y17920D01*
Y17813D01*
X57873Y17760D01*
X58087D01*
X58140Y17813D01*
Y17920D01*
X58087Y17973D01*
X57873Y18080D02*
X57820Y18133D01*
Y18240D01*
X57873Y18293D01*
X57927D01*
X57980Y18240D01*
Y18187D01*
Y18240D01*
X58033Y18293D01*
X58087D01*
X58140Y18240D01*
Y18133D01*
X58087Y18080D01*
X57873Y18400D02*
X57820Y18453D01*
Y18560D01*
X57873Y18613D01*
X57927D01*
X57980Y18560D01*
Y18506D01*
Y18560D01*
X58033Y18613D01*
X58087D01*
X58140Y18560D01*
Y18453D01*
X58087Y18400D01*
X58553Y19587D02*
X58500Y19640D01*
X58393D01*
X58340Y19587D01*
Y19373D01*
X58393Y19320D01*
X58500D01*
X58553Y19373D01*
X58660Y19587D02*
X58713Y19640D01*
X58820D01*
X58873Y19587D01*
Y19533D01*
X58820Y19480D01*
X58767D01*
X58820D01*
X58873Y19427D01*
Y19373D01*
X58820Y19320D01*
X58713D01*
X58660Y19373D01*
X59193Y19320D02*
X58980D01*
X59193Y19533D01*
Y19587D01*
X59140Y19640D01*
X59033D01*
X58980Y19587D01*
X57533Y20243D02*
X57480Y20190D01*
Y20083D01*
X57533Y20030D01*
X57747D01*
X57800Y20083D01*
Y20190D01*
X57747Y20243D01*
X57533Y20350D02*
X57480Y20403D01*
Y20510D01*
X57533Y20563D01*
X57587D01*
X57640Y20510D01*
Y20457D01*
Y20510D01*
X57693Y20563D01*
X57747D01*
X57800Y20510D01*
Y20403D01*
X57747Y20350D01*
X57533Y20670D02*
X57480Y20723D01*
Y20830D01*
X57533Y20883D01*
X57747D01*
X57800Y20830D01*
Y20723D01*
X57747Y20670D01*
X57533D01*
X65700Y13020D02*
Y12700D01*
X65540D01*
X65487Y12753D01*
Y12860D01*
X65540Y12913D01*
X65700D01*
X65593D02*
X65487Y13020D01*
X65167Y12700D02*
X65273Y12753D01*
X65380Y12860D01*
Y12967D01*
X65327Y13020D01*
X65220D01*
X65167Y12967D01*
Y12913D01*
X65220Y12860D01*
X65380D01*
X65060Y13020D02*
X64954D01*
X65007D01*
Y12700D01*
X65060Y12753D01*
X63870Y11500D02*
X64137D01*
X64190Y11553D01*
Y11660D01*
X64137Y11713D01*
X63870D01*
X64190Y12033D02*
Y11820D01*
X63977Y12033D01*
X63923D01*
X63870Y11980D01*
Y11873D01*
X63923Y11820D01*
X63870Y12353D02*
Y12140D01*
X64030D01*
X63977Y12246D01*
Y12300D01*
X64030Y12353D01*
X64137D01*
X64190Y12300D01*
Y12193D01*
X64137Y12140D01*
X64180Y12960D02*
Y12640D01*
X64020D01*
X63967Y12693D01*
Y12800D01*
X64020Y12853D01*
X64180D01*
X64073D02*
X63967Y12960D01*
X63647Y12640D02*
X63860D01*
Y12800D01*
X63753Y12747D01*
X63700D01*
X63647Y12800D01*
Y12907D01*
X63700Y12960D01*
X63807D01*
X63860Y12907D01*
X63540Y12693D02*
X63487Y12640D01*
X63380D01*
X63327Y12693D01*
Y12747D01*
X63380Y12800D01*
X63327Y12853D01*
Y12907D01*
X63380Y12960D01*
X63487D01*
X63540Y12907D01*
Y12853D01*
X63487Y12800D01*
X63540Y12747D01*
Y12693D01*
X63487Y12800D02*
X63380D01*
X62700Y13570D02*
X63020D01*
Y13410D01*
X62967Y13357D01*
X62860D01*
X62807Y13410D01*
Y13570D01*
Y13463D02*
X62700Y13357D01*
X63020Y13037D02*
Y13250D01*
X62860D01*
X62913Y13143D01*
Y13090D01*
X62860Y13037D01*
X62753D01*
X62700Y13090D01*
Y13197D01*
X62753Y13250D01*
X63020Y12717D02*
Y12930D01*
X62860D01*
X62913Y12824D01*
Y12770D01*
X62860Y12717D01*
X62753D01*
X62700Y12770D01*
Y12877D01*
X62753Y12930D01*
X62760Y11790D02*
X62440D01*
Y11950D01*
X62493Y12003D01*
X62600D01*
X62653Y11950D01*
Y11790D01*
Y11897D02*
X62760Y12003D01*
X62440Y12323D02*
Y12110D01*
X62600D01*
X62547Y12217D01*
Y12270D01*
X62600Y12323D01*
X62707D01*
X62760Y12270D01*
Y12163D01*
X62707Y12110D01*
X62440Y12430D02*
Y12643D01*
X62493D01*
X62707Y12430D01*
X62760D01*
X61730Y11770D02*
X61410D01*
Y11930D01*
X61463Y11983D01*
X61570D01*
X61623Y11930D01*
Y11770D01*
Y11877D02*
X61730Y11983D01*
X61410Y12303D02*
Y12090D01*
X61570D01*
X61517Y12197D01*
Y12250D01*
X61570Y12303D01*
X61677D01*
X61730Y12250D01*
Y12143D01*
X61677Y12090D01*
X61410Y12623D02*
X61463Y12516D01*
X61570Y12410D01*
X61677D01*
X61730Y12463D01*
Y12570D01*
X61677Y12623D01*
X61623D01*
X61570Y12570D01*
Y12410D01*
X11440Y10160D02*
Y10480D01*
X11547Y10373D01*
X11653Y10480D01*
Y10160D01*
X11760Y10480D02*
Y10160D01*
Y10320D01*
X11973D01*
Y10480D01*
Y10160D01*
X12080D02*
X12186D01*
X12133D01*
Y10480D01*
X12080Y10427D01*
X27230Y13930D02*
X26910D01*
Y14090D01*
X26963Y14143D01*
X27070D01*
X27123Y14090D01*
Y13930D01*
Y14037D02*
X27230Y14143D01*
Y14250D02*
Y14357D01*
Y14303D01*
X26910D01*
X26963Y14250D01*
Y14516D02*
X26910Y14570D01*
Y14676D01*
X26963Y14730D01*
X27017D01*
X27070Y14676D01*
X27123Y14730D01*
X27177D01*
X27230Y14676D01*
Y14570D01*
X27177Y14516D01*
X27123D01*
X27070Y14570D01*
X27017Y14516D01*
X26963D01*
X27070Y14570D02*
Y14676D01*
X24890Y16380D02*
Y16113D01*
X24943Y16060D01*
X25050D01*
X25103Y16113D01*
Y16380D01*
X25210D02*
X25423D01*
Y16327D01*
X25210Y16113D01*
Y16060D01*
X26310Y16080D02*
Y16400D01*
X26470D01*
X26523Y16347D01*
Y16240D01*
X26470Y16187D01*
X26310D01*
X26417D02*
X26523Y16080D01*
X26630D02*
X26737D01*
X26683D01*
Y16400D01*
X26630Y16347D01*
X26896Y16400D02*
X27110D01*
Y16347D01*
X26896Y16133D01*
Y16080D01*
X21310Y15730D02*
Y16050D01*
X21470D01*
X21523Y15997D01*
Y15890D01*
X21470Y15837D01*
X21310D01*
X21417D02*
X21523Y15730D01*
X21630D02*
X21737D01*
X21683D01*
Y16050D01*
X21630Y15997D01*
X21896Y15730D02*
X22003D01*
X21950D01*
Y16050D01*
X21896Y15997D01*
X22650Y14540D02*
X22330D01*
Y14700D01*
X22383Y14753D01*
X22490D01*
X22543Y14700D01*
Y14540D01*
Y14647D02*
X22650Y14753D01*
Y14860D02*
Y14967D01*
Y14913D01*
X22330D01*
X22383Y14860D01*
X22650Y15340D02*
Y15126D01*
X22437Y15340D01*
X22383D01*
X22330Y15286D01*
Y15180D01*
X22383Y15126D01*
X54780Y12273D02*
Y12167D01*
Y12220D01*
X55047D01*
X55100Y12167D01*
Y12113D01*
X55047Y12060D01*
X54833Y12380D02*
X54780Y12433D01*
Y12540D01*
X54833Y12593D01*
X54887D01*
X54940Y12540D01*
X54993Y12593D01*
X55047D01*
X55100Y12540D01*
Y12433D01*
X55047Y12380D01*
X54993D01*
X54940Y12433D01*
X54887Y12380D01*
X54833D01*
X54940Y12433D02*
Y12540D01*
X50050Y12273D02*
Y12167D01*
Y12220D01*
X50317D01*
X50370Y12167D01*
Y12113D01*
X50317Y12060D01*
X50050Y12380D02*
Y12593D01*
X50103D01*
X50317Y12380D01*
X50370D01*
X45300Y12273D02*
Y12167D01*
Y12220D01*
X45567D01*
X45620Y12167D01*
Y12113D01*
X45567Y12060D01*
X45300Y12593D02*
X45353Y12487D01*
X45460Y12380D01*
X45567D01*
X45620Y12433D01*
Y12540D01*
X45567Y12593D01*
X45513D01*
X45460Y12540D01*
Y12380D01*
X40650Y12273D02*
Y12167D01*
Y12220D01*
X40917D01*
X40970Y12167D01*
Y12113D01*
X40917Y12060D01*
X40650Y12593D02*
Y12380D01*
X40810D01*
X40757Y12487D01*
Y12540D01*
X40810Y12593D01*
X40917D01*
X40970Y12540D01*
Y12433D01*
X40917Y12380D01*
X35970Y12273D02*
Y12167D01*
Y12220D01*
X36237D01*
X36290Y12167D01*
Y12113D01*
X36237Y12060D01*
X36290Y12540D02*
X35970D01*
X36130Y12380D01*
Y12593D01*
X31220Y12273D02*
Y12167D01*
Y12220D01*
X31487D01*
X31540Y12167D01*
Y12113D01*
X31487Y12060D01*
X31273Y12380D02*
X31220Y12433D01*
Y12540D01*
X31273Y12593D01*
X31327D01*
X31380Y12540D01*
Y12487D01*
Y12540D01*
X31433Y12593D01*
X31487D01*
X31540Y12540D01*
Y12433D01*
X31487Y12380D01*
X26510Y12273D02*
Y12167D01*
Y12220D01*
X26777D01*
X26830Y12167D01*
Y12113D01*
X26777Y12060D01*
X26830Y12593D02*
Y12380D01*
X26617Y12593D01*
X26563D01*
X26510Y12540D01*
Y12433D01*
X26563Y12380D01*
X21800Y12327D02*
Y12220D01*
Y12273D01*
X22067D01*
X22120Y12220D01*
Y12167D01*
X22067Y12113D01*
X22120Y12433D02*
Y12540D01*
Y12487D01*
X21800D01*
X21853Y12433D01*
X58473Y27507D02*
X58420Y27560D01*
X58313D01*
X58260Y27507D01*
Y27293D01*
X58313Y27240D01*
X58420D01*
X58473Y27293D01*
X58580Y27507D02*
X58633Y27560D01*
X58740D01*
X58793Y27507D01*
Y27453D01*
X58740Y27400D01*
X58687D01*
X58740D01*
X58793Y27347D01*
Y27293D01*
X58740Y27240D01*
X58633D01*
X58580Y27293D01*
X58900Y27240D02*
X59006D01*
X58953D01*
Y27560D01*
X58900Y27507D01*
X32077Y18793D02*
X32130Y18740D01*
X32237D01*
X32290Y18793D01*
Y19007D01*
X32237Y19060D01*
X32130D01*
X32077Y19007D01*
X31970Y19060D02*
X31863D01*
X31917D01*
Y18740D01*
X31970Y18793D01*
X31544Y19060D02*
Y18740D01*
X31704Y18900D01*
X31490D01*
X19253Y15477D02*
X19200Y15530D01*
X19093D01*
X19040Y15477D01*
Y15263D01*
X19093Y15210D01*
X19200D01*
X19253Y15263D01*
X19573Y15530D02*
X19467Y15477D01*
X19360Y15370D01*
Y15263D01*
X19413Y15210D01*
X19520D01*
X19573Y15263D01*
Y15317D01*
X19520Y15370D01*
X19360D01*
X67453Y20030D02*
X67347D01*
X67400D01*
Y19763D01*
X67347Y19710D01*
X67293D01*
X67240Y19763D01*
X67560D02*
X67613Y19710D01*
X67720D01*
X67773Y19763D01*
Y19977D01*
X67720Y20030D01*
X67613D01*
X67560Y19977D01*
Y19923D01*
X67613Y19870D01*
X67773D01*
X61673Y18080D02*
X61567D01*
X61620D01*
Y17813D01*
X61567Y17760D01*
X61513D01*
X61460Y17813D01*
X61780Y17760D02*
Y18080D01*
X61940D01*
X61993Y18027D01*
Y17920D01*
X61940Y17867D01*
X61780D01*
X62100Y17760D02*
X62206D01*
X62153D01*
Y18080D01*
X62100Y18027D01*
X25280Y21490D02*
Y21810D01*
X25387Y21703D01*
X25493Y21810D01*
Y21490D01*
X25600Y21810D02*
Y21490D01*
Y21650D01*
X25813D01*
Y21810D01*
Y21490D01*
X25920Y21757D02*
X25973Y21810D01*
X26080D01*
X26133Y21757D01*
Y21703D01*
X26080Y21650D01*
X26026D01*
X26080D01*
X26133Y21597D01*
Y21543D01*
X26080Y21490D01*
X25973D01*
X25920Y21543D01*
X55270Y21490D02*
Y21810D01*
X55377Y21703D01*
X55483Y21810D01*
Y21490D01*
X55590Y21810D02*
Y21490D01*
Y21650D01*
X55803D01*
Y21810D01*
Y21490D01*
X56070D02*
Y21810D01*
X55910Y21650D01*
X56123D01*
X16240Y24970D02*
Y24650D01*
X16080D01*
X16027Y24703D01*
Y24810D01*
X16080Y24863D01*
X16240D01*
X16133D02*
X16027Y24970D01*
X15920Y24703D02*
X15867Y24650D01*
X15760D01*
X15707Y24703D01*
Y24757D01*
X15760Y24810D01*
X15813D01*
X15760D01*
X15707Y24863D01*
Y24917D01*
X15760Y24970D01*
X15867D01*
X15920Y24917D01*
X20110Y16780D02*
Y16513D01*
X20163Y16460D01*
X20270D01*
X20323Y16513D01*
Y16780D01*
X20590Y16460D02*
Y16780D01*
X20430Y16620D01*
X20643D01*
X50010Y21800D02*
Y21533D01*
X50063Y21480D01*
X50170D01*
X50223Y21533D01*
Y21800D01*
X50543Y21480D02*
X50330D01*
X50543Y21693D01*
Y21747D01*
X50490Y21800D01*
X50383D01*
X50330Y21747D01*
X50650D02*
X50703Y21800D01*
X50810D01*
X50863Y21747D01*
Y21533D01*
X50810Y21480D01*
X50703D01*
X50650Y21533D01*
Y21747D01*
X58980Y26630D02*
Y26577D01*
X59087Y26470D01*
X59193Y26577D01*
Y26630D01*
X59087Y26470D02*
Y26310D01*
X59300D02*
X59407D01*
X59353D01*
Y26630D01*
X59300Y26577D01*
X69890Y28420D02*
X69677D01*
X69570Y28527D01*
X69677Y28633D01*
X69890D01*
X69730D01*
Y28420D01*
X69890Y28740D02*
Y28847D01*
Y28793D01*
X69570D01*
Y28740D01*
X69890Y29006D02*
Y29113D01*
Y29060D01*
X69677D01*
Y29006D01*
Y29273D02*
X69890Y29380D01*
X69677Y29486D01*
X69890Y29753D02*
Y29646D01*
X69837Y29593D01*
X69730D01*
X69677Y29646D01*
Y29753D01*
X69730Y29806D01*
X69783D01*
Y29593D01*
X69560Y26940D02*
X69880D01*
Y27153D01*
X69560Y27473D02*
Y27260D01*
X69880D01*
Y27473D01*
X69720Y27260D02*
Y27367D01*
X69560Y27580D02*
X69880D01*
Y27740D01*
X69827Y27793D01*
X69613D01*
X69560Y27740D01*
Y27580D01*
X69880Y27900D02*
Y28006D01*
Y27953D01*
X69560D01*
X69613Y27900D01*
X69580Y25340D02*
X69900D01*
Y25553D01*
X69580Y25873D02*
Y25660D01*
X69900D01*
Y25873D01*
X69740Y25660D02*
Y25767D01*
X69580Y25980D02*
X69900D01*
Y26140D01*
X69847Y26193D01*
X69633D01*
X69580Y26140D01*
Y25980D01*
X69900Y26513D02*
Y26300D01*
X69687Y26513D01*
X69633D01*
X69580Y26460D01*
Y26353D01*
X69633Y26300D01*
D98*
X66831Y22799D02*
X67130D01*
X67031Y22899D01*
X67130Y22998D01*
X66831D01*
X66931Y23148D02*
Y23248D01*
X66981Y23298D01*
X67130D01*
Y23148D01*
X67080Y23098D01*
X67031Y23148D01*
Y23298D01*
X66881Y23447D02*
X66931D01*
Y23397D01*
Y23497D01*
Y23447D01*
X67080D01*
X67130Y23497D01*
Y23796D02*
Y23696D01*
X67080Y23647D01*
X66981D01*
X66931Y23696D01*
Y23796D01*
X66981Y23846D01*
X67031D01*
Y23647D01*
X66931Y23946D02*
X67130D01*
X67031D01*
X66981Y23996D01*
X66931Y24045D01*
Y24095D01*
X67382Y22998D02*
X67332Y22949D01*
Y22849D01*
X67382Y22799D01*
X67432D01*
X67481Y22849D01*
Y22949D01*
X67531Y22998D01*
X67581D01*
X67631Y22949D01*
Y22849D01*
X67581Y22799D01*
X67631Y23248D02*
Y23148D01*
X67581Y23098D01*
X67481D01*
X67432Y23148D01*
Y23248D01*
X67481Y23298D01*
X67531D01*
Y23098D01*
X67631Y23397D02*
X67432D01*
Y23547D01*
X67481Y23597D01*
X67631D01*
Y23696D02*
Y23846D01*
X67581Y23896D01*
X67531Y23846D01*
Y23746D01*
X67481Y23696D01*
X67432Y23746D01*
Y23896D01*
X67631Y24045D02*
Y24145D01*
X67581Y24195D01*
X67481D01*
X67432Y24145D01*
Y24045D01*
X67481Y23996D01*
X67581D01*
X67631Y24045D01*
X67432Y24295D02*
X67631D01*
X67531D01*
X67481Y24344D01*
X67432Y24394D01*
Y24444D01*
X61199Y24732D02*
X61299D01*
X61249D01*
Y24931D01*
X61199D01*
X61498Y24732D02*
Y24981D01*
Y24881D01*
X61448D01*
X61548D01*
X61498D01*
Y24981D01*
X61548Y25031D01*
X62196Y24981D02*
X62146Y25031D01*
X62047D01*
X61997Y24981D01*
Y24931D01*
X62047Y24881D01*
X62146D01*
X62196Y24832D01*
Y24782D01*
X62146Y24732D01*
X62047D01*
X61997Y24782D01*
X62296Y25031D02*
Y24732D01*
Y24881D01*
X62346Y24931D01*
X62445D01*
X62495Y24881D01*
Y24732D01*
X62645Y24931D02*
X62744D01*
X62794Y24881D01*
Y24732D01*
X62645D01*
X62595Y24782D01*
X62645Y24832D01*
X62794D01*
X62894Y24732D02*
Y24931D01*
X63044D01*
X63093Y24881D01*
Y24732D01*
X63193Y24931D02*
X63243D01*
Y24881D01*
X63193D01*
Y24931D01*
Y24782D02*
X63243D01*
Y24732D01*
X63193D01*
Y24782D01*
X61797Y24132D02*
Y24431D01*
X61947D01*
X61997Y24381D01*
Y24281D01*
X61947Y24231D01*
X61797D01*
X62146Y24431D02*
X62246D01*
X62296Y24381D01*
Y24231D01*
X62146D01*
X62096Y24281D01*
X62146Y24331D01*
X62296D01*
X62396Y24231D02*
X62545D01*
X62595Y24281D01*
X62545Y24331D01*
X62445D01*
X62396Y24381D01*
X62445Y24431D01*
X62595D01*
X62695Y24231D02*
X62844D01*
X62894Y24281D01*
X62844Y24331D01*
X62744D01*
X62695Y24381D01*
X62744Y24431D01*
X62894D01*
X61349Y23631D02*
X61249D01*
X61199Y23681D01*
Y23780D01*
X61249Y23830D01*
X61349D01*
X61398Y23780D01*
Y23731D01*
X61199D01*
X61498Y23631D02*
X61598D01*
X61548D01*
Y23930D01*
X61498D01*
X61747Y23631D02*
X61897D01*
X61947Y23681D01*
X61897Y23731D01*
X61797D01*
X61747Y23780D01*
X61797Y23830D01*
X61947D01*
X62196Y23631D02*
X62096D01*
X62047Y23681D01*
Y23780D01*
X62096Y23830D01*
X62196D01*
X62246Y23780D01*
Y23731D01*
X62047D01*
X62346Y23830D02*
X62396D01*
Y23780D01*
X62346D01*
Y23830D01*
Y23681D02*
X62396D01*
Y23631D01*
X62346D01*
Y23681D01*
X61797Y23330D02*
Y23180D01*
X61847Y23130D01*
X61897Y23180D01*
X61947Y23130D01*
X61997Y23180D01*
Y23330D01*
X62146D02*
X62246D01*
X62296Y23280D01*
Y23130D01*
X62146D01*
X62096Y23180D01*
X62146Y23230D01*
X62296D01*
X62396Y23330D02*
Y23130D01*
Y23230D01*
X62445Y23280D01*
X62495Y23330D01*
X62545D01*
X62695Y23130D02*
Y23330D01*
X62844D01*
X62894Y23280D01*
Y23130D01*
X62994D02*
X63093D01*
X63044D01*
Y23330D01*
X62994D01*
X63243Y23130D02*
Y23330D01*
X63393D01*
X63442Y23280D01*
Y23130D01*
X63642Y23030D02*
X63692D01*
X63742Y23080D01*
Y23330D01*
X63592D01*
X63542Y23280D01*
Y23180D01*
X63592Y23130D01*
X63742D01*
X61199Y22530D02*
X61299D01*
X61249D01*
Y22729D01*
X61199D01*
X61498Y22530D02*
Y22779D01*
Y22679D01*
X61448D01*
X61548D01*
X61498D01*
Y22779D01*
X61548Y22829D01*
X62196Y22779D02*
X62146Y22829D01*
X62047D01*
X61997Y22779D01*
Y22580D01*
X62047Y22530D01*
X62146D01*
X62196Y22580D01*
Y22679D01*
X62096D01*
X62346Y22729D02*
X62445D01*
X62495Y22679D01*
Y22530D01*
X62346D01*
X62296Y22580D01*
X62346Y22630D01*
X62495D01*
X62595Y22829D02*
Y22530D01*
X62744D01*
X62794Y22580D01*
Y22630D01*
Y22679D01*
X62744Y22729D01*
X62595D01*
X63044Y22530D02*
X62944D01*
X62894Y22580D01*
Y22679D01*
X62944Y22729D01*
X63044D01*
X63093Y22679D01*
Y22630D01*
X62894D01*
X63692Y22530D02*
X63492Y22729D01*
X61249Y22029D02*
X61349D01*
X61398Y22079D01*
Y22179D01*
X61349Y22229D01*
X61249D01*
X61199Y22179D01*
Y22079D01*
X61249Y22029D01*
X61498Y22229D02*
Y22029D01*
Y22129D01*
X61548Y22179D01*
X61598Y22229D01*
X61648D01*
X62096Y22328D02*
Y22029D01*
X62296D01*
X62396Y22229D02*
Y22079D01*
X62445Y22029D01*
X62595D01*
Y21979D01*
X62545Y21929D01*
X62495D01*
X62595Y22029D02*
Y22229D01*
X62894Y22328D02*
Y22029D01*
X62744D01*
X62695Y22079D01*
Y22179D01*
X62744Y22229D01*
X62894D01*
X63143Y22029D02*
X63044D01*
X62994Y22079D01*
Y22179D01*
X63044Y22229D01*
X63143D01*
X63193Y22179D01*
Y22129D01*
X62994D01*
X63293Y22029D02*
Y22229D01*
X63442D01*
X63492Y22179D01*
Y22029D01*
X63592Y22229D02*
X63642D01*
Y22179D01*
X63592D01*
Y22229D01*
Y22079D02*
X63642D01*
Y22029D01*
X63592D01*
Y22079D01*
X61797Y21429D02*
X61947D01*
X61997Y21479D01*
X61947Y21528D01*
X61847D01*
X61797Y21578D01*
X61847Y21628D01*
X61997D01*
X62096D02*
Y21479D01*
X62146Y21429D01*
X62296D01*
Y21628D01*
X62396Y21329D02*
Y21628D01*
X62545D01*
X62595Y21578D01*
Y21479D01*
X62545Y21429D01*
X62396D01*
X62844D02*
X62744D01*
X62695Y21479D01*
Y21578D01*
X62744Y21628D01*
X62844D01*
X62894Y21578D01*
Y21528D01*
X62695D01*
X62994Y21628D02*
Y21429D01*
Y21528D01*
X63044Y21578D01*
X63093Y21628D01*
X63143D01*
X63293Y21429D02*
X63393D01*
X63343D01*
Y21728D01*
X63293D01*
X63592Y21429D02*
X63692D01*
X63742Y21479D01*
Y21578D01*
X63692Y21628D01*
X63592D01*
X63542Y21578D01*
Y21479D01*
X63592Y21429D01*
X63841D02*
X63941D01*
X63891D01*
Y21728D01*
X63841D01*
X60250Y13419D02*
X60300Y13469D01*
X60400D01*
X60449Y13419D01*
Y13369D01*
X60400Y13320D01*
X60350D01*
X60400D01*
X60449Y13270D01*
Y13220D01*
X60400Y13170D01*
X60300D01*
X60250Y13220D01*
X60549Y13469D02*
Y13270D01*
X60649Y13170D01*
X60749Y13270D01*
Y13469D01*
X60848Y13419D02*
X60898Y13469D01*
X60998D01*
X61048Y13419D01*
Y13369D01*
X60998Y13320D01*
X60948D01*
X60998D01*
X61048Y13270D01*
Y13220D01*
X60998Y13170D01*
X60898D01*
X60848Y13220D01*
X60027Y14740D02*
Y15039D01*
X60176D01*
X60226Y14989D01*
Y14890D01*
X60176Y14840D01*
X60027D01*
X60326Y14740D02*
X60426D01*
X60376D01*
Y14939D01*
X60326D01*
X60575Y14740D02*
Y14939D01*
X60725D01*
X60775Y14890D01*
Y14740D01*
X61173D02*
X61273D01*
X61223D01*
Y15039D01*
X61173Y14989D01*
X60449Y15469D02*
X60400Y15519D01*
X60300D01*
X60250Y15469D01*
Y15419D01*
X60300Y15370D01*
X60400D01*
X60449Y15320D01*
Y15270D01*
X60400Y15220D01*
X60300D01*
X60250Y15270D01*
X60549Y15519D02*
Y15220D01*
X60649Y15320D01*
X60749Y15220D01*
Y15519D01*
X60848D02*
Y15220D01*
X60998D01*
X61048Y15270D01*
Y15469D01*
X60998Y15519D01*
X60848D01*
X68009Y10651D02*
X68059Y10700D01*
Y10800D01*
X68009Y10850D01*
X67959D01*
X67910Y10800D01*
Y10700D01*
X67860Y10651D01*
X67810D01*
X67760Y10700D01*
Y10800D01*
X67810Y10850D01*
X68009Y10351D02*
X68059Y10401D01*
Y10501D01*
X68009Y10551D01*
X67810D01*
X67760Y10501D01*
Y10401D01*
X67810Y10351D01*
X68059Y10252D02*
X67760D01*
Y10052D01*
X68099Y12601D02*
X68149Y12650D01*
Y12750D01*
X68099Y12800D01*
X68049D01*
X68000Y12750D01*
Y12650D01*
X67950Y12601D01*
X67900D01*
X67850Y12650D01*
Y12750D01*
X67900Y12800D01*
X68149Y12501D02*
X67850D01*
Y12351D01*
X67900Y12301D01*
X68099D01*
X68149Y12351D01*
Y12501D01*
X67850Y12202D02*
X68049D01*
X68149Y12102D01*
X68049Y12002D01*
X67850D01*
X68000D01*
Y12202D01*
X66811Y13964D02*
Y13865D01*
X66861Y13815D01*
X67060D01*
X67110Y13865D01*
Y13964D01*
X67060Y14014D01*
X66861D01*
X66811Y13964D01*
Y14114D02*
X67060D01*
X67110Y14164D01*
Y14263D01*
X67060Y14313D01*
X66811D01*
Y14413D02*
Y14612D01*
Y14513D01*
X67110D01*
X66960Y14712D02*
Y14911D01*
X66861Y14812D02*
X67060D01*
X66811Y15342D02*
Y15243D01*
X66861Y15193D01*
X67060D01*
X67110Y15243D01*
Y15342D01*
X67060Y15392D01*
X66861D01*
X66811Y15342D01*
Y15492D02*
X67060D01*
X67110Y15542D01*
Y15641D01*
X67060Y15691D01*
X66811D01*
Y15791D02*
Y15990D01*
Y15891D01*
X67110D01*
X66960Y16090D02*
Y16289D01*
X66811Y16745D02*
Y16845D01*
Y16795D01*
X67110D01*
Y16745D01*
Y16845D01*
Y16994D02*
X66811D01*
X67110Y17194D01*
X66811D01*
X66960Y17293D02*
Y17493D01*
X66811Y18123D02*
Y18223D01*
Y18173D01*
X67110D01*
Y18123D01*
Y18223D01*
Y18372D02*
X66811D01*
X67110Y18572D01*
X66811D01*
X66960Y18671D02*
Y18871D01*
X66861Y18771D02*
X67060D01*
X69340Y13370D02*
Y13071D01*
X69190D01*
X69141Y13121D01*
Y13220D01*
X69190Y13270D01*
X69340D01*
X69240D02*
X69141Y13370D01*
X68841Y13121D02*
X68891Y13071D01*
X68991D01*
X69041Y13121D01*
Y13171D01*
X68991Y13220D01*
X68891D01*
X68841Y13270D01*
Y13320D01*
X68891Y13370D01*
X68991D01*
X69041Y13320D01*
X68592Y13370D02*
Y13071D01*
X68742Y13220D01*
X68542D01*
X68443Y13121D02*
X68393Y13071D01*
X68293D01*
X68243Y13121D01*
Y13171D01*
X68293Y13220D01*
X68243Y13270D01*
Y13320D01*
X68293Y13370D01*
X68393D01*
X68443Y13320D01*
Y13270D01*
X68393Y13220D01*
X68443Y13171D01*
Y13121D01*
X68393Y13220D02*
X68293D01*
X67944Y13071D02*
X68144D01*
Y13220D01*
X68044Y13171D01*
X67994D01*
X67944Y13220D01*
Y13320D01*
X67994Y13370D01*
X68094D01*
X68144Y13320D01*
X69780Y19491D02*
Y19790D01*
X69630D01*
X69581Y19740D01*
Y19690D01*
X69630Y19640D01*
X69780D01*
X69630D01*
X69581Y19591D01*
Y19541D01*
X69630Y19491D01*
X69780D01*
X69331D02*
X69431D01*
X69481Y19541D01*
Y19740D01*
X69431Y19790D01*
X69331D01*
X69281Y19740D01*
Y19541D01*
X69331Y19491D01*
X69032D02*
X69132D01*
X69182Y19541D01*
Y19740D01*
X69132Y19790D01*
X69032D01*
X68982Y19740D01*
Y19541D01*
X69032Y19491D01*
X68883D02*
X68683D01*
X68783D01*
Y19790D01*
X62880Y28370D02*
Y28669D01*
X62730Y28520D01*
X62930D01*
X61730Y28619D02*
X61780Y28669D01*
X61880D01*
X61930Y28619D01*
Y28569D01*
X61880Y28520D01*
X61830D01*
X61880D01*
X61930Y28470D01*
Y28420D01*
X61880Y28370D01*
X61780D01*
X61730Y28420D01*
X60930Y28370D02*
X60730D01*
X60930Y28569D01*
Y28619D01*
X60880Y28669D01*
X60780D01*
X60730Y28619D01*
X59780Y28370D02*
X59880D01*
X59830D01*
Y28669D01*
X59780Y28619D01*
X57119Y28669D02*
X57070Y28719D01*
X56970D01*
X56920Y28669D01*
Y28470D01*
X56970Y28420D01*
X57070D01*
X57119Y28470D01*
X57269Y28420D02*
X57369D01*
X57419Y28470D01*
Y28569D01*
X57369Y28619D01*
X57269D01*
X57219Y28569D01*
Y28470D01*
X57269Y28420D01*
X57518D02*
Y28619D01*
X57668D01*
X57718Y28569D01*
Y28420D01*
X57867D02*
Y28669D01*
Y28569D01*
X57817D01*
X57917D01*
X57867D01*
Y28669D01*
X57917Y28719D01*
X58067Y28420D02*
X58166D01*
X58116D01*
Y28619D01*
X58067D01*
X58416Y28320D02*
X58465D01*
X58515Y28370D01*
Y28619D01*
X58366D01*
X58316Y28569D01*
Y28470D01*
X58366Y28420D01*
X58515D01*
X58615D02*
X58765D01*
X58814Y28470D01*
X58765Y28520D01*
X58665D01*
X58615Y28569D01*
X58665Y28619D01*
X58814D01*
X58914D02*
X58964D01*
Y28569D01*
X58914D01*
Y28619D01*
Y28470D02*
X58964D01*
Y28420D01*
X58914D01*
Y28470D01*
X62700Y16100D02*
X62999D01*
Y15950D01*
X62949Y15901D01*
X62850D01*
X62800Y15950D01*
Y16100D01*
Y16000D02*
X62700Y15901D01*
X62999Y15801D02*
X62700Y15601D01*
X62999D02*
X62700Y15801D01*
X63019Y17150D02*
Y16951D01*
Y17050D01*
X62720D01*
X63019Y16851D02*
X62720Y16651D01*
X63019D02*
X62720Y16851D01*
X58059Y14139D02*
X58009Y14189D01*
X57910D01*
X57860Y14139D01*
Y13940D01*
X57910Y13890D01*
X58009D01*
X58059Y13940D01*
Y14040D01*
X57959D01*
X58159Y13890D02*
Y14189D01*
X58358Y13890D01*
Y14189D01*
X58458D02*
Y13890D01*
X58607D01*
X58657Y13940D01*
Y14139D01*
X58607Y14189D01*
X58458D01*
X55891Y13890D02*
Y14189D01*
X56041D01*
X56091Y14139D01*
Y14040D01*
X56041Y13990D01*
X55891D01*
X56190Y14189D02*
Y13890D01*
X56290Y13990D01*
X56390Y13890D01*
Y14189D01*
X56489Y13890D02*
Y14189D01*
X56639D01*
X56689Y14139D01*
Y14040D01*
X56639Y13990D01*
X56489D01*
X56589D02*
X56689Y13890D01*
X53409Y14179D02*
X53359Y14229D01*
X53260D01*
X53210Y14179D01*
Y13980D01*
X53260Y13930D01*
X53359D01*
X53409Y13980D01*
Y14080D01*
X53309D01*
X53509Y13930D02*
Y14229D01*
X53708Y13930D01*
Y14229D01*
X53808D02*
Y13930D01*
X53957D01*
X54007Y13980D01*
Y14179D01*
X53957Y14229D01*
X53808D01*
X51241Y13930D02*
Y14229D01*
X51391D01*
X51441Y14179D01*
Y14080D01*
X51391Y14030D01*
X51241D01*
X51540Y14229D02*
Y13930D01*
X51640Y14030D01*
X51740Y13930D01*
Y14229D01*
X51839Y13930D02*
Y14229D01*
X51989D01*
X52039Y14179D01*
Y14080D01*
X51989Y14030D01*
X51839D01*
X51939D02*
X52039Y13930D01*
X48629Y14149D02*
X48579Y14199D01*
X48480D01*
X48430Y14149D01*
Y13950D01*
X48480Y13900D01*
X48579D01*
X48629Y13950D01*
Y14050D01*
X48529D01*
X48729Y13900D02*
Y14199D01*
X48928Y13900D01*
Y14199D01*
X49028D02*
Y13900D01*
X49177D01*
X49227Y13950D01*
Y14149D01*
X49177Y14199D01*
X49028D01*
X46461Y13900D02*
Y14199D01*
X46611D01*
X46661Y14149D01*
Y14050D01*
X46611Y14000D01*
X46461D01*
X46760Y14199D02*
Y13900D01*
X46860Y14000D01*
X46960Y13900D01*
Y14199D01*
X47059Y13900D02*
Y14199D01*
X47209D01*
X47259Y14149D01*
Y14050D01*
X47209Y14000D01*
X47059D01*
X47159D02*
X47259Y13900D01*
X43869Y14129D02*
X43819Y14179D01*
X43720D01*
X43670Y14129D01*
Y13930D01*
X43720Y13880D01*
X43819D01*
X43869Y13930D01*
Y14030D01*
X43769D01*
X43969Y13880D02*
Y14179D01*
X44168Y13880D01*
Y14179D01*
X44268D02*
Y13880D01*
X44417D01*
X44467Y13930D01*
Y14129D01*
X44417Y14179D01*
X44268D01*
X41701Y13880D02*
Y14179D01*
X41851D01*
X41901Y14129D01*
Y14030D01*
X41851Y13980D01*
X41701D01*
X42000Y14179D02*
Y13880D01*
X42100Y13980D01*
X42200Y13880D01*
Y14179D01*
X42299Y13880D02*
Y14179D01*
X42449D01*
X42499Y14129D01*
Y14030D01*
X42449Y13980D01*
X42299D01*
X42399D02*
X42499Y13880D01*
X39319Y14129D02*
X39269Y14179D01*
X39170D01*
X39120Y14129D01*
Y13930D01*
X39170Y13880D01*
X39269D01*
X39319Y13930D01*
Y14030D01*
X39219D01*
X39419Y13880D02*
Y14179D01*
X39618Y13880D01*
Y14179D01*
X39718D02*
Y13880D01*
X39867D01*
X39917Y13930D01*
Y14129D01*
X39867Y14179D01*
X39718D01*
X37151Y13880D02*
Y14179D01*
X37301D01*
X37351Y14129D01*
Y14030D01*
X37301Y13980D01*
X37151D01*
X37450Y14179D02*
Y13880D01*
X37550Y13980D01*
X37650Y13880D01*
Y14179D01*
X37749Y13880D02*
Y14179D01*
X37899D01*
X37949Y14129D01*
Y14030D01*
X37899Y13980D01*
X37749D01*
X37849D02*
X37949Y13880D01*
X34489Y14139D02*
X34439Y14189D01*
X34340D01*
X34290Y14139D01*
Y13940D01*
X34340Y13890D01*
X34439D01*
X34489Y13940D01*
Y14040D01*
X34389D01*
X34589Y13890D02*
Y14189D01*
X34788Y13890D01*
Y14189D01*
X34888D02*
Y13890D01*
X35037D01*
X35087Y13940D01*
Y14139D01*
X35037Y14189D01*
X34888D01*
X32321Y13890D02*
Y14189D01*
X32471D01*
X32521Y14139D01*
Y14040D01*
X32471Y13990D01*
X32321D01*
X32620Y14189D02*
Y13890D01*
X32720Y13990D01*
X32820Y13890D01*
Y14189D01*
X32919Y13890D02*
Y14189D01*
X33069D01*
X33119Y14139D01*
Y14040D01*
X33069Y13990D01*
X32919D01*
X33019D02*
X33119Y13890D01*
X29799Y14109D02*
X29749Y14159D01*
X29650D01*
X29600Y14109D01*
Y13910D01*
X29650Y13860D01*
X29749D01*
X29799Y13910D01*
Y14010D01*
X29699D01*
X29899Y13860D02*
Y14159D01*
X30098Y13860D01*
Y14159D01*
X30198D02*
Y13860D01*
X30347D01*
X30397Y13910D01*
Y14109D01*
X30347Y14159D01*
X30198D01*
X27631Y13860D02*
Y14159D01*
X27781D01*
X27831Y14109D01*
Y14010D01*
X27781Y13960D01*
X27631D01*
X27930Y14159D02*
Y13860D01*
X28030Y13960D01*
X28130Y13860D01*
Y14159D01*
X28229Y13860D02*
Y14159D01*
X28379D01*
X28429Y14109D01*
Y14010D01*
X28379Y13960D01*
X28229D01*
X28329D02*
X28429Y13860D01*
X22991Y13890D02*
Y14189D01*
X23141D01*
X23191Y14139D01*
Y14040D01*
X23141Y13990D01*
X22991D01*
X23290Y14189D02*
Y13890D01*
X23390Y13990D01*
X23490Y13890D01*
Y14189D01*
X23589Y13890D02*
Y14189D01*
X23739D01*
X23789Y14139D01*
Y14040D01*
X23739Y13990D01*
X23589D01*
X23689D02*
X23789Y13890D01*
X25159Y14139D02*
X25109Y14189D01*
X25010D01*
X24960Y14139D01*
Y13940D01*
X25010Y13890D01*
X25109D01*
X25159Y13940D01*
Y14040D01*
X25059D01*
X25259Y13890D02*
Y14189D01*
X25458Y13890D01*
Y14189D01*
X25558D02*
Y13890D01*
X25707D01*
X25757Y13940D01*
Y14139D01*
X25707Y14189D01*
X25558D01*
M02*
